<?xml version="1.0" encoding="utf-8"?>
<!-- Generator: Adobe Illustrator 28.0.0, SVG Export Plug-In . SVG Version: 6.00 Build 0)  -->
<svg version="1.1" id="Layer_1" xmlns="http://www.w3.org/2000/svg" xmlns:xlink="http://www.w3.org/1999/xlink" x="0px" y="0px"
	 viewBox="0 0 20.5 19.9" style="enable-background:new 0 0 20.5 19.9;" xml:space="preserve">
<path style="fill:#FFFFFF;" d="M10.8,17.3v0.3l4.4,0.2l1.4,1.1v1H6.4l0,0H0v-1.5v-0.7h1.7v-0.5H1.3v-0.6H0.6l-0.5-0.5v-2.2l2.5-0.2
	v-0.5h4l0.6,0.1v0.5H8l3,0.5l0.5,0.2v0.4h0.8v0.4h8.2V16h-8.2v0.4h-0.8v0.8l-0.1,0.1H10.8z M0.6,1.8l8.2,4.4c-0.2,0.6-0.3,1-0.4,1.4
	C8.3,7.8,8.3,8.1,8.3,8.3l0,0L4.7,6.9l-0.2,1l3,1.8l0.6-0.4V9C8.1,9.4,8,9.7,8,9.9L8.1,10c0.2-0.2,0.4-0.4,0.7-0.6v0.1v0.8l3.2,1.2
	l0.7-0.7l-3.2-2l0,0C9.7,8.6,9.8,8.5,10,8.3c0.2-0.3,0.5-0.7,0.8-1.1l8.5,3.8l0.8-0.6c0.3-0.1,0.3-0.3,0-0.4l-7.8-5.1
	c0.1-0.2,0.3-0.5,0.4-0.7l0.1,0.1c0.4,0.5,0.6,0.7,0.8,0.8c0.1,0.1,0.2,0.1,0.2,0.1c0.1,0,0.2,0,0.2,0c0.1,0,0.1-0.1,0-0.2
	c-0.2-0.3-0.4-0.7-0.7-1c-0.1-0.1-0.2-0.3-0.3-0.4l0,0c0.2-0.5-0.1-1.1-0.7-1.5c0-0.1,0.1-0.1,0.1-0.2c0.1-0.2,0.3-0.4,0.4-0.7
	c0.2-0.5,0.3-0.7,0.3-0.8s0-0.1,0-0.2C13.1,0.1,13,0.1,13,0c-0.1,0-0.2,0-0.2,0c-0.2,0.2-0.4,0.5-0.6,0.9c-0.2,0.3-0.3,0.6-0.4,0.9
	c-0.7-0.2-1.3-0.1-1.6,0.3C10,2.1,9.8,2,9.6,2c-0.7,0-0.9,0-1,0S8.5,2,8.4,2.1c-0.1,0-0.1,0.1-0.1,0.1c0,0.1,0.1,0.2,0.2,0.2
	c0.4,0.1,0.8,0.1,1.3,0.2c0.1,0,0.1,0,0.2,0C9.9,2.8,9.8,3.1,9.7,3.4L0.9,0.5c-0.3-0.1-0.5,0-0.4,0.3L0.6,1.8z"/>
</svg>
