<?xml version="1.0" encoding="UTF-8"?>
<svg id="Layer_1" data-name="Layer 1" xmlns="http://www.w3.org/2000/svg" width="100.875" height="44.11547" viewBox="0 0 100.875 44.11547">
  <defs>
    <style>
      .cls-1 {
        isolation: isolate;
        opacity: .45;
      }

      .cls-1, .cls-2 {
        stroke-width: 0px;
      }

      .cls-2 {
        fill: #fff;
      }
    </style>
  </defs>
  <path class="cls-1" d="m97.67499,7.01549h-46.79999v-3.10004c0-1.5-.40002-2.5-1.20001-3.20001-.5-.39996-1.10004-.59998-1.70001-.59998-.59998-.09998-2.29999-.20001-5.09998,0-3.40002.29999-7.20001.70001-9.90002.90002l-2.59998.19995c-1.5.10004-3.60004,1.30005-3.60004,3.20001v9.5l-16.79999.10004c-1.79999,0-3.20001,1.39996-3.20001,3.19995v3.40002c-.59998.29999-1.29999.70001-2,1.29999-.59998.40002-1.20001,1-1.59998,1.60004-.60004.69995-1.10004,1.5-1.40002,2.39996-.39996,1.20001-1.09998,3.10004-1.39996,3.90002-.5,1.20001-.5,2.29999,0,3.20001.29999.5.69995.89996,1.29999,1.09998.29999,5.59998,4.89996,10,10.5,10,4.59998,0,8.5-3,9.89996-7.09998l26.30005-.10004h17.39996c1.40002,4.20001,5.30005,7.20001,10,7.20001s8.60004-3,10-7.20001h9.20001c1.09998,0,2-.89996,2-2v-6c0-1.09998-.90002-2-2-2h-9c.70001,1,1.29999,2,1.70001,3.10004h6.39996v4h-7.69995v-.30005c0-.5-.10004-.89996-.10004-1.39996-.19995-1.10004-.79999-2.90002-1.19995-3.40002-1.60004-3-4.70001-5.09998-8.10004-5.5-1.29999-.09998-2.89996,0-3.70001.20001-.79999.20001-1.59998.5-2.29999.90002-1.79999,1-3.70001,2.89996-4.39996,4-.70001,1.09998-1.10004,2.5-1.30005,3.59998-.09998.5-.09998,1-.09998,1.5v.40002h-16.29999v-4.5c.39996.29999.89996.5,1.39996.5h13.60004c.39996-1.10004.89996-2.10004,1.5-3.10004h-13.40002v-1.89996h15c1.20001-1.10004,2.5-2.10004,4-2.70001.84921-.44287,2.24146-.80261,2.86279-.89258,1.97848-.35188,4.12927.03701,5.53723.49255,1.79999.60004,3.5,1.70001,5,3.10004h13.59998c1.59998,0,2.90002-1.30005,2.90002-2.90002v-11.90002c0-1.69995-1.40002-3.19995-3.20001-3.19995Z"/>
  <g>
    <path class="cls-2" d="m79.37498,21.91547h9.6v-11.9h-15.1v11.4c-.3.1-.7.1-1,.2v-11.6h-15.9v12h12.9c.4,0,.8.1,1.1.3-3.3,1.4-6,4.2-7.1,7.7h-13.6c-.5,0-1-.2-1.4-.5v4.5h16.3v-.4c0-.5.2-1.4.2-1.4,0-.3.1-.6.2-.9,0-.2.1-.4.2-.6,0-.1,0-.2.1-.2.1-.2.2-.5.3-.7.1-.2.2-.5.4-.7,1-1.9,2.6-3.5,4.4-4.5.7-.4,1.5-.7,2.3-.9h.1c.3-.1.6-.1,1-.2h.3c.4,0,.8-.1,1.2-.1s.7,0,1.1.1c3.4.4,6.5,2.5,8.1,5.5.3.5.5,1,.7,1.6v.2c.1.2.1.5.2.7.1.3.1.6.2.9,0,0,.2.9.2,1.4v.3h7.7v-4h-6.4c-1.49998-4-4.59998-7-8.29997-8.2Z"/>
    <rect class="cls-2" x="49.87498" y="10.01547" width="6.1" height="12"/>
    <path class="cls-2" d="m35.17498,34.01547h12.7v-5h-22.1c2.7,3.5,4.2,5,9.4,5Z"/>
    <path class="cls-2" d="m97.67497,10.01547h-7.7v11.9h7.9v-11.7c0-.1-.1-.2-.2-.2Z"/>
    <path class="cls-2" d="m81.87498,29.91547c-1.3-2.2-3.7-3.7-6.5-3.7-1.4,0-2.7.3-3.8,1-1.1.7-2.1,1.6-2.8,2.8,0,0,0,.1-.1.1-.1.2-.2.5-.3.7-.4.9-.6,1.8-.6,2.9,0,4.2,3.4,7.5,7.5,7.5,4.2,0,7.5-3.4,7.5-7.5,0-1.3-.4-2.6-1-3.7q.10001,0,.10001-.1Zm-6.5,7.7c-2.1,0-3.9-1.7-3.9-3.9s1.7-3.9,3.9-3.9c2.1,0,3.9,1.7,3.9,3.9s-1.8,3.9-3.9,3.9Z"/>
    <path class="cls-2" d="m23.47498,29.31547c-.9-1.2-1.9-2.5-3.1-4-4.9-5.8-12.8-2.7-13.2-2.6-1.2.7-2.6,1.6-3,2.9-.1.3-.2.9-.3,1.5,1.9-2.4,4.9-4,8.2-4,5.8,0,10.5,4.7,10.5,10.5v.4h5.2c-1.5-1.1-2.7-2.7-4.3-4.7Z"/>
    <path class="cls-2" d="m21.97498,24.11547c1.2,1.5,2.2,2.8,3.1,3.9h1.8v-11.1h-13.9v3c2.9.1,6.3,1,9,4.2Z"/>
    <path class="cls-2" d="m11.97498,19.91547v-3h-1.9c-.1,0-.2.1-.2.2l.1,2.9c.6,0,1.3-.1,2-.1Z"/>
    <path class="cls-2" d="m12.07498,26.11547c-4.2,0-7.5,3.4-7.5,7.5,0,4.2,3.4,7.5,7.5,7.5,4.2,0,7.5-3.4,7.5-7.5,0-4.2-3.3-7.5-7.5-7.5Zm0,11.7c-2.3,0-4.2-1.9-4.2-4.2,0-.5.1-1,.3-1.5.4-.9,1-1.6,1.8-2.1.1-.1.3-.2.4-.2h.1c.5-.2,1-.3,1.6-.3,2.3,0,4.2,1.9,4.2,4.2,0,2.3-1.9,4.1-4.2,4.1Z"/>
    <path class="cls-2" d="m43.27497,3.11547c-3.4.3-7.2.6-9.9.9l-2.7.2c-.2,0-.6.2-.8.3v10.2c0,.8-.4,1.4-1,1.8v11.5h19V3.11547h-.1s-1.3-.3-4.5,0Zm-1.6,11h-9v-7h9v7Z"/>
    <circle class="cls-2" cx="12.17498" cy="33.81547" r=".8"/>
    <path class="cls-2" d="m75.37498,33.01547c-.4,0-.8.4-.8.8s.4.8.8.8.8-.4.8-.8c0-.4-.4-.8-.8-.8Z"/>
  </g>
</svg>