<?xml version="1.0" encoding="UTF-8"?>
<svg id="Layer_1" data-name="Layer 1" xmlns="http://www.w3.org/2000/svg" width="100.8" height="44.21547" viewBox="0 0 100.8 44.21547">
  <defs>
    <style>
      .cls-1 {
        isolation: isolate;
        opacity: .45;
      }

      .cls-1, .cls-2 {
        stroke-width: 0px;
      }

      .cls-2 {
        fill: #fff;
      }
    </style>
  </defs>
  <path class="cls-1" d="m97.6,7.01547h-46.7v-3.1c0-1.5-.4-2.5-1.2-3.2-.5-.4-1.1-.6-1.7-.6-.6-.1-2.3-.2-5.1,0-3.4.3-7.2.6-9.9.9l-2.6.2c-1.7.1-3.5,1.4-3.5,3.2v9.5l-16.9.1c-1.8,0-3.2,1.4-3.2,3.2v3.4c-1.4.8-4,2.4-5,5.2-.3.7-.6,1.6-.9,2.4-.2.6-.4,1.2-.6,1.6-.4,1.2-.4,2.3,0,3.2.3.5.7.8,1.2,1.1.2,5.6,4.8,10.1,10.5,10.1,4.6,0,8.6-3,10-7.2l26.2-.1h17.4c1.4,4.2,5.3,7.3,10,7.3,4.6,0,8.6-3,10-7.2h9.2c1.1,0,2-.9,2-2v-6c0-1.1-.9-2-2-2h-11.1c-.6-.8-1.4-1.4-2.2-2h16.4c1.6,0,2.9-1.3,2.9-2.9v-11.9c0-1.8-1.4-3.2-3.2-3.2Zm-46.5,19.9v-2h18.6c-.8.6-1.6,1.2-2.2,2h-16.4Z"/>
  <g>
    <path class="cls-2" d="m12.2,32.81547c-.4,0-.8.4-.8.8s.4.8.8.8.8-.4.8-.8-.4-.8-.8-.8Z"/>
    <path class="cls-2" d="m75.8,32.91547c-.4,0-.8.4-.8.8s.4.8.8.8.8-.4.8-.8-.4-.8-.8-.8Z"/>
    <path class="cls-2" d="m33.1,14.01547h8.9v-7h-8.9v7Zm2-5h4.9v3h-4.9v-3Z"/>
    <path class="cls-2" d="m75.8,26.11547c-4.1,0-7.5,3.4-7.5,7.5s3.4,7.5,7.5,7.5,7.5-3.4,7.5-7.5-3.39999-7.5-7.5-7.5Zm0,11.6c-2.3,0-4.1-1.8-4.1-4.1s1.8-4.1,4.1-4.1,4.1,1.8,4.1,4.1-1.8,4.1-4.1,4.1Z"/>
    <path class="cls-2" d="m12.2,26.11547c-4.1,0-7.5,3.4-7.5,7.5s3.4,7.5,7.5,7.5,7.5-3.4,7.5-7.5-3.4-7.5-7.5-7.5Zm0,11.9c-2.4,0-4.4-2-4.4-4.4s2-4.4,4.4-4.4,4.4,2,4.4,4.4-2,4.4-4.4,4.4Z"/>
    <path class="cls-2" d="m97.8,9.01547h-48.8V3.31547c0-1.2-.9-1.2-.9-1.2,0,0-.6-.1-2-.1-.7,0-1.6,0-2.8.1-4.8.4-10.3.9-12.6,1.1-.6,0-1.7.6-1.7,1.2v10.3c0,.7-.6,1.2-1.2,1.2H10.2c-.7,0-1.2.6-1.2,1.2l.1,2.8v1.5s-3.5,1.6-5.2,5c-.2.6-.5,1.2-.7,1.9,1.3-2.2,3.5-3.9,6-4.7,0,0,7.5-2.8,11.4,1.8.9,1.1,1.7,2,2.4,2.9,1.7,2.2,3,3.8,4.6,4.9h-4.8v.5c0,.5,0,.9-.1,1.4h12.7c3.5,0,8,0,13.7-.1h16.4c0-.3,0-2.2.1-2.8.7-4.1,3.7-7.3,7.5-8.4l1-.2c.6-.1,1.2-.2,1.8-.2,5.1,0,9.6,3.9,10.3,8.9,0,0,.2,2.3.1,2.7h8.8v-6h-7.8c-1.1-2.6-3.1-4.7-5.6-6h16.4c.5,0,.9-.4.9-.9v-11.9c0-.7-.6-1.2-1.2-1.2Zm-50.7,24.1h-11.8s-2-.1-2.8-.2c-3.7-.5-4.9-2.1-8-5.9-.7-.9-1.5-1.8-2.4-2.9-3.2-3.8-8-3.6-11-3v-1.2l-.1-1.9h16.8c1.8,0,3.2-1.4,3.2-3.2V5.21547c1.6-.1,4.4-.4,7.5-.6l4.9-.4c1-.2,1.9-.2,2.7-.2h.9v22.8c0,.4.1,6.3.1,6.3Zm45.9-2.1v2h-4.8l-.1-1c0-.3-.1-.6-.2-1h5.1Zm4-20v9.8h-6.9v-9.8h6.9Zm-7.9,0v9.8h-15.1v-9.8h15.1Zm-32,0h15.9v9.8h-15.9v-9.8Zm-8,0h7v9.8h-7v-9.8Zm14.3,22.1h-14.3v-2.6c.4.2.9.3,1.3.3h13.3c-.1.3-.3,2-.3,2.3Zm1-4.2h-14c-.5,0-1.1-.4-1.3-1.2l-.1-4.7,20.8-.1c-2.39999,1.3-4.3,3.4-5.39999,6Z"/>
  </g>
</svg>