<?xml version="1.0" encoding="UTF-8"?>
<svg id="Layer_1" data-name="Layer 1" xmlns="http://www.w3.org/2000/svg" width="34" height="34" viewBox="0 0 34 34">
  <defs>
    <style>
      .cls-1 {
        fill: #fff;
        stroke-width: 0px;
      }
    </style>
  </defs>
  <path class="cls-1" d="m.24338,21.29421c2.00821-.44235,5.87997-.14745,8.04136,0,.66373.04915,1.30193.10649,1.95716.16383,3.77816.49969,10.38994,1.21236,11.98119,2.88346s3.0889,1.90865,6.66284,2.56398c.07658.01638.67224.12287.88497.16383,1.34448.23756,2.70598.38501,4.03344.69629-.69777.42597-6.81601.15564-8.23707.08192-1.41256-.07372-2.77406-.37682-3.19101-.48331-.82541-.22118-2.89319-1.00757-4.05046-2.40834-3.48884-.35224-10.66224-1.34343-10.66224-1.34343,0,0-9.2667-1.51545-7.42017-2.31823Z"/>
  <path class="cls-1" d="m2.24308,17.14105c.62969-1.13045,2.68045-5.28361,2.68045-5.28361.9105-1.90865,2.53579-3.35038,4.42487-4.34157.70628-.36862,1.10622-.53246,1.87206-.77821,2.00821-.63895,3.47182-.74544,5.57364-.73725,1.51467,0,2.98679.11468,4.46742.45054,4.05046.90927,6.78197,2.55579,8.8072,6.12735,1.15727,2.04791,1.51467,4.07944,1.91461,6.32394.17019.94204.24677,1.89227.42547,2.82612.16168.84374.24677,1.96599.55311,2.77696.44249,1.33524,1.15727,1.15502,1.02112,1.68748-.39994-.12287-.8169-.17202-1.23386-.24575-1.14877-.1966-2.29753-.36043-3.4463-.57341-1.31895-.24575-2.62089-.46692-3.89729-.92566-.93603-.43416-2.07629-1.70386-2.723-2.14621-1.75293-1.20417-8.33918-1.99057-8.46682-2.00695-1.2679-.15564-2.52728-.2949-3.8122-.40958-.65522-.05734-1.29342-.11468-1.95716-.16383-2.16138-.14745-6.03314-.44235-8.04136,0,1.30193-.87651,1.29342-1.58099,1.83802-2.58037Zm24.77078,0c.44249-.28671.57013-1.06491.28932-1.74482s-.85945-1.00757-1.29343-.72086c-.44249.28671-.57013,1.06491-.28932,1.74482s.85945.99938,1.29343.72086ZM4.96608,11.84925c.00851,0,.01702,0,.02553-.00819-.00851.00819-.01702.00819-.02553.00819Z"/>
</svg>