<?xml version="1.0" encoding="utf-8"?>
<!-- Generator: Adobe Illustrator 28.0.0, SVG Export Plug-In . SVG Version: 6.00 Build 0)  -->
<svg version="1.1" id="Layer_1" xmlns="http://www.w3.org/2000/svg" xmlns:xlink="http://www.w3.org/1999/xlink" x="0px" y="0px"
	 viewBox="0 0 16.5 20" style="enable-background:new 0 0 16.5 20;" xml:space="preserve">
<path style="fill:#FFFFFF;" d="M8.2,6.7c1.4,0,2.1,0.3,3.4,0.4v0.5l-0.7,1.3l-0.1,1.3c0,0.2-0.1,0.4-0.2,0.5l-0.7,0.8
	c-0.3,0.2-0.7,0.4-1.1,0.4h-1c-0.4,0-0.8-0.1-1.1-0.4L6,10.7c-0.1-0.1-0.2-0.3-0.2-0.5L5.6,8.9L4.9,7.6V7.1C6.2,7.1,6.8,6.7,8.2,6.7
	z M13.6,6.3l-0.2-0.6V5.2c0-2.9-2.3-5.2-5.2-5.2l0,0C5.3,0,3,2.3,3,5.2v0.5L2.8,6.3C4.6,6.1,6.4,6,8.2,6C10,6,11.8,6.1,13.6,6.3z
	 M0,12.9L2,20h3.5L1,12.4L0,12.9z M13.7,11.8l-1.8-1.2l-1.3,2.3l-2.4,2l-2.3-2l-1.3-2.3l-1.8,1.2L8.3,20h6.2l2-7.1L13.7,11.8z"/>
</svg>
