<?xml version="1.0" encoding="UTF-8"?>
<svg id="Layer_1" data-name="Layer 1" xmlns="http://www.w3.org/2000/svg" width="200" height="200" viewBox="0 0 200 200">
  <defs>
    <style>
      .cls-1 {
        fill: #1e1e1e;
      }

      .cls-1, .cls-2 {
        fill-rule: evenodd;
        stroke-width: 0px;
      }

      .cls-2 {
        fill: #fff;
      }
    </style>
  </defs>
  <path class="cls-1" d="m169.18,129.55c.6-7.59.29-15.29-.89-22.8-.3-1.91.75-3.78,2.54-4.51l7.36-3.03c1.17-.48,2.5-.41,3.61.21,1.11.61,1.88,1.7,2.1,2.95,1.79,10.36,2.18,21.05,1.06,31.52l5.13,1.41c1.42.39,2.53,1.5,2.92,2.91.39,1.42.02,2.94-1,4l-18.31,19.28c-1.07,1.13-2.68,1.57-4.17,1.14-1.5-.42-2.63-1.64-2.96-3.16l-5.47-25.81c-.3-1.43.16-2.91,1.22-3.91,1.06-1,2.57-1.38,3.98-.99l2.86.79Zm-17.54-86.24c8.32,6.82,15.27,15.5,20.67,25.36.37.67.73,1.35,1.09,2.04.54,1.04.62,2.26.21,3.36-.4,1.1-1.25,1.98-2.34,2.43l-7.23,2.97c-1.99.82-4.28,0-5.29-1.92-.2-.38-.4-.75-.61-1.13-3.88-7.09-8.73-13.46-14.47-18.67l-.95,1.72c-.68,1.24-1.94,2.05-3.35,2.15-1.41.11-2.78-.5-3.63-1.63l-15.01-19.56c-.95-1.24-1.13-2.89-.48-4.31.66-1.41,2.04-2.34,3.59-2.42l26.49-1.27c1.51-.07,2.95.68,3.75,1.97.8,1.29.84,2.9.11,4.23l-2.57,4.67Zm-110.99,55.17v-4.02c0-1.4.56-2.74,1.55-3.73.99-.99,2.33-1.55,3.73-1.55h30.97c1.4,0,2.74.56,3.73,1.55.99.99,1.55,2.33,1.55,3.73v5.96c7.84.03,13.8.05,14.35.07,3.17.09,5.96.86,8.36,2.12.49-.69,1.18-1.23,2-1.52l10.45-3.77c1.02-.37,2.14-.32,3.12.11.37-.3.8-.55,1.27-.71l67.2-23.52c2.17-.76,4.54.37,5.32,2.53l2.73,7.56c.38,1.05.32,2.21-.16,3.22-.48,1.01-1.34,1.78-2.4,2.15l-59.75,20.84,1.87,5.03c.39,1.05.34,2.2-.13,3.22-.47,1.01-1.32,1.8-2.37,2.18l-17.62,6.37c-.19.07-.38.12-.57.16-1.16,6.04-5.52,11.97-12.71,12.53v3.62h5.24c.7,0,1.39.18,2,.51l30.05,16.36c1.68.91,2.53,2.85,2.05,4.7-.47,1.85-2.14,3.15-4.05,3.16l-129.86.23c-2.29,0-4.16-1.84-4.19-4.13l-.2-16.58c-.01-1.12.42-2.2,1.21-2.99.79-.8,1.86-1.24,2.98-1.24h11.05v-3.09l-10.27.07c-2.02.01-3.92-.94-5.12-2.57-1.2-1.63-1.55-3.73-.94-5.65l8.47-26.72c.82-2.58,3.21-4.33,5.92-4.33,0,0,.19,0,.19,0,.77-.79,1.72-1.51,2.84-2.13,2.49-1.37,5.96-2.28,9.8-2.28s7.31.91,9.8,2.28c.19.1.37.21.55.32Z"/>
  <path class="cls-2" d="m190.3,77.15l2.73,7.56-60.67,21.16-9.26-5.2,67.2-23.52Zm-75.31,45.2c1.47-4.43-.84-12.8-6.68-17.32l10.44-3.77,10.81,6.55,3.04,8.18-17.62,6.37Zm-91.4,19.59h75.36v-3.62H23.59v3.62Zm-15.24,4.84h100.02l30.05,16.36-129.86.23-.2-16.58Zm93.67-11.39H9.11c-.68,0-1.32-.32-1.73-.86-.4-.55-.52-1.26-.32-1.9l8.47-26.72c.27-.84,1.05-1.41,1.93-1.41h2.28c1.2-2.53,5.47-4.41,10.56-4.41s9.35,1.88,10.56,4.41c0,0,53.84.14,55.55.19,10.58.31,15.56,10.18,15.56,18.55,0,5.23-3.32,12.16-9.95,12.16Zm-25.11-42.01c.29,0,.57.12.77.32.2.21.32.48.32.77v7.2h-33.16v-7.2c0-.29.12-.57.32-.77.2-.2.48-.32.77-.32h30.97Zm95.92,41.52c1.26-9.52,1.09-19.29-.39-28.78l7.36-3.03c1.93,11.14,2.17,22.69.58,33.89l8.62,2.37-18.31,19.28-5.47-25.81,7.61,2.09Zm-26.56-90.47c9.13,6.77,16.66,15.83,22.39,26.27.35.65.7,1.3,1.04,1.95l-7.23,2.97c-.21-.4-.42-.79-.64-1.18-4.99-9.1-11.49-17.08-19.35-23.12l-3.4,6.16-15.01-19.56,26.49-1.27-4.29,7.79Z"/>
</svg>