<?xml version="1.0" encoding="UTF-8"?>
<svg id="Layer_1" data-name="Layer 1" xmlns="http://www.w3.org/2000/svg" width="200" height="200" viewBox="0 0 200 200">
  <defs>
    <style>
      .cls-1 {
        fill: #1e1e1e;
      }

      .cls-1, .cls-2 {
        fill-rule: evenodd;
        stroke-width: 0px;
      }

      .cls-2 {
        fill: #fff;
      }
    </style>
  </defs>
  <path class="cls-1" d="m161.2,89.68c-2.72-6.86-6.24-13.42-10.41-19.49-1.31-1.91-1.14-4.47.41-6.19l5.42-6.01c1.02-1.13,2.49-1.73,4.01-1.65,1.52.09,2.91.86,3.79,2.1,6.11,8.59,11.11,18.07,14.7,28l4.69-.85c1.73-.31,3.5.31,4.66,1.63,1.16,1.32,1.54,3.16.99,4.83l-8.31,25.71c-.57,1.77-2.08,3.08-3.91,3.39-1.83.32-3.69-.41-4.82-1.88l-16.35-21.25c-1.06-1.38-1.33-3.22-.7-4.85s2.06-2.81,3.78-3.12l2.06-.37ZM109.08,18.38c10.49,2.66,20.55,7.53,29.73,14.12.64.46,1.27.93,1.9,1.4,1.12.85,1.84,2.12,1.97,3.52.14,1.4-.32,2.79-1.26,3.83l-5.32,5.9c-1.73,1.91-4.63,2.21-6.7.67-.35-.26-.69-.51-1.04-.76-6.33-4.54-13.18-8.11-20.32-10.36l-.06,1.03c-.1,1.69-1.04,3.21-2.5,4.06-1.46.84-3.26.89-4.76.13l-22.35-11.33c-1.66-.84-2.72-2.54-2.74-4.4-.02-1.86.99-3.58,2.63-4.47l23.71-12.8c1.6-.86,3.53-.79,5.06.18,1.53.97,2.42,2.7,2.31,4.51l-.27,4.78Zm-13.22,50.63c1.09.87,6.14,5.29,6.14,5.29l10.77-11.45c1.89-2.01,5.06-2.11,7.08-.22l1.92,1.81,53.04-55.2c1.9-1.98,5.04-2.06,7.04-.18l6.73,6.33c.97.92,1.54,2.18,1.57,3.52.03,1.34-.47,2.63-1.39,3.59l-52.97,55.13.73.69c2.01,1.89,2.11,5.06.22,7.08l-10.59,11.25,4.29,3.96c3.87,4.28,5.61,10.34,4.12,16.35-.59,2.37-2.27,5.24-2.75,6.02l-20.69,37.32c-2.49,4.49-6.37,8.04-11.05,10.13l-46.73,20.81c-4.58,2.04-9.94,1.13-13.59-2.3l-26.01-24.47c-3.77-3.55-4.95-9.06-2.97-13.84l19.54-47.03c1.71-4.11,4.54-7.65,8.17-10.22,0,0,.02-.01.02-.02,0,0,35.28-24.64,35.27-24.64,1.61-1.22,3.45-2.19,5.49-2.83,5.91-1.85,12.07-.48,16.57,3.12Z"/>
  <path class="cls-2" d="m167.92,93.56c-3.03-9.28-7.48-18.15-13-26.2l5.42-6.01c6.66,9.37,11.95,19.83,15.42,30.79l8.93-1.62-8.31,25.71-16.35-21.25,7.89-1.43ZM103.84,22.33c11.34,2.19,22.22,7.18,32.05,14.23.61.44,1.21.88,1.81,1.33l-5.32,5.9c-.36-.27-.73-.54-1.1-.8-8.57-6.15-18.03-10.6-27.89-12.68l-.4,7.14-22.35-11.33,23.71-12.8-.51,9.02Zm-10.44,55.03l28.6,26.9-10.83,11.52-28.6-26.9,10.83-11.52ZM178.43,12.69l6.73,6.33-55.41,57.79c-4.04,1.44-8.21-2.48-6.73-6.33l55.41-57.79Zm-65.06,56.83l16.68,15.69-10.42,11.08-16.68-15.69,10.42-11.08Zm-63.75,35.94c6.49-6.9,17.35-7.23,24.25-.74,6.9,6.49,7.23,17.35.74,24.25-6.49,6.9-17.35,7.23-24.25.74-6.9-6.49-7.23-17.35-.74-24.25Zm-2.48-2.33c-7.77,8.26-7.37,21.28.89,29.05,8.26,7.77,21.28,7.37,29.05-.89,7.77-8.26,7.37-21.28-.89-29.05-8.26-7.77-21.28-7.37-29.05.89Zm-8.72,44.36c4.63-4.92,12.39-5.16,17.31-.53,4.92,4.63,5.16,12.39.53,17.31-4.63,4.92-12.39,5.16-17.31.53-4.92-4.63-5.16-12.39-.53-17.31Zm-2.48-2.33c-5.92,6.29-5.61,16.2.68,22.12,6.29,5.92,16.2,5.61,22.12-.68,5.92-6.29,5.61-16.2-.68-22.12-6.29-5.92-16.2-5.61-22.12.68Zm90.75-41.15l.04-.05c2.79,3.09,4.05,7.46,2.98,11.79-.52,2.11-2.22,4.72-2.22,4.72l-20.73,37.4c-1.96,3.54-5.02,6.34-8.71,7.98l-46.73,20.81c-2.74,1.22-5.94.68-8.12-1.38l-26.01-24.47c-2.25-2.12-2.96-5.42-1.77-8.27l19.54-47.03c1.35-3.24,3.58-6.03,6.44-8.06l35.36-24.7c1.18-.9,2.53-1.62,4.03-2.09,4.26-1.33,8.7-.35,11.95,2.25l-14.97,16.11,33.55,31.56,15.49-16.47-.12-.11Z"/>
</svg>