<?xml version="1.0" encoding="UTF-8"?>
<svg id="Layer_1" data-name="Layer 1" xmlns="http://www.w3.org/2000/svg" width="200" height="200" viewBox="0 0 200 200">
  <defs>
    <style>
      .cls-1 {
        fill: #1e1e1e;
      }

      .cls-1, .cls-2 {
        fill-rule: evenodd;
        stroke-width: 0px;
      }

      .cls-2 {
        fill: #fff;
      }
    </style>
  </defs>
  <path class="cls-1" d="m64.71,35.21c1.79,0,8.64-.17,8.64-.17l3.8-1.86c4.49-2.63,11.24-2.27,16.3-1.09l78.5,18.52c1.09.26,2.05.84,2.76,1.64.56.62,11.85,16.86,12.18,17.21.95.98,1.51,2.31,1.51,3.72l.39,51.51c0,7.34-3.93,14.12-10.3,17.76l-37.27,21.3.06-.04c-2.02,1.31-5.86,3.14-6.92,3.68-2.7,1.36-5.89,1.89-9.55,1.02l-93.09-21.66c-.13-.03-.26-.06-.38-.1-4.45-1.39-7.61-6.58-7.64-12.94-.02-2.63.47-5.39,1.4-7.88-4.06-1.98-7.18-5.27-9.42-9.64-3.1-6.04-4.46-14.4-4.46-23.88,0-24.76,12.34-44.21,32.15-52.59,6.62-2.8,13.45-4.47,21.36-4.47Z"/>
  <path class="cls-2" d="m142.53,60.72l-2.83,2.95v7.32l-9.91-2.85-6.28,3.16-24.87-5.85v-14.63l43.89,9.92Zm19.02,23.73l-17.56-8.78v-10.24l8.11,2.81,9.45,16.21Zm-24.46-11.65l-15.98,9.13-83.16-19.32,42.16-24.68c3.31-1.94,7.23-2.53,10.97-1.66l77.98,18.26-15.98,9.13-7.22-1.69,5.71-3.26-52.45-12.28-27.4,15.66,52.45,12.28,5.71-3.26,7.22,1.69Zm27.71,7.62l-9.59-13.7,16.85-9.63,9.59,13.7-16.85,9.63Zm-25.57-4.57l9.59,13.7-15.98,9.13-9.59-13.7,15.98-9.13Zm-101.03,43.28l-.25-52.95,81.17,19.73,11.7,16.09.07,37.72-92.7-20.6Zm91.68,27.25c-2.95,1.48-5.35,5.87-5.35,9.81s2.4,5.94,5.35,4.46c2.95-1.48,5.35-5.87,5.35-9.81s-2.4-5.94-5.35-4.46Zm3.22-2.91c.8.18,2.2-.13,2.4-.77v-41.09l16.12-9.21c-3.55,4.89-5.84,11.21-5.84,17.22,0,10.24,6.65,15.74,14.84,12.27,8.19-3.47,14.84-14.59,14.84-24.83,0-7.57-3.64-12.55-8.85-13.23l16.84-9.62v51.12c0,5.42-2.9,10.43-7.61,13.11l-37.27,21.3c-1.06,1.01-5.56,2.97-6.63,3.51-1.67.84-3.65,1.13-5.92.58l-93.09-21.66c-6.49-2.03-4.71-19.86,4.21-19.86l95.96,21.17ZM45.43,45.27c5.98-2.53,12.14-4.05,19.27-4.05l-30.39,18.5c-.89.65-1.53,1.55-1.72,2.91v55.29c-1.84.71-3.51,2.4-4.2,4.17-8.82-3.53-11.85-14.97-11.85-29.14,0-22.39,10.97-40.09,28.88-47.67Z"/>
</svg>