<svg id="guns_sights" data-name="guns sights" xmlns="http://www.w3.org/2000/svg" width="128" height="128" viewBox="0 0 128 128">
  <metadata><?xpacket begin="﻿" id="W5M0MpCehiHzreSzNTczkc9d"?>
<x:xmpmeta xmlns:x="adobe:ns:meta/" x:xmptk="Adobe XMP Core 5.6-c138 79.159824, 2016/09/14-01:09:01        ">
   <rdf:RDF xmlns:rdf="http://www.w3.org/1999/02/22-rdf-syntax-ns#">
      <rdf:Description rdf:about=""/>
   </rdf:RDF>
</x:xmpmeta>
                                                                                                    
                                                                                                    
                                                                                                    
                                                                                                    
                                                                                                    
                                                                                                    
                                                                                                    
                                                                                                    
                                                                                                    
                                                                                                    
                                                                                                    
                                                                                                    
                                                                                                    
                                                                                                    
                                                                                                    
                                                                                                    
                                                                                                    
                                                                                                    
                                                                                                    
                                                                                                    
                           
<?xpacket end="w"?></metadata>
<defs>
    <style>
      .cls-1 {
        fill: #FFFFFF;
        fill-rule: evenodd;
      }
    </style>
  </defs>
  <path id="Rounded_Rectangle_7" data-name="Rounded Rectangle 7" class="cls-1" d="M111,92H71.413a8,8,0,0,1-14.826,0H17a2,2,0,0,1-2-2V82a2,2,0,0,1,2-2h94a2,2,0,0,1,2,2v8A2,2,0,0,1,111,92ZM96,61h7a6,6,0,0,1,6,6V78H90V67A6,6,0,0,1,96,61ZM32,61a6,6,0,0,1,6,6V78H19V67a6,6,0,0,1,6-6h7Zm51,4V78H45V65l-8-8H15V52h8V51a10,10,0,0,1,6-9.162V29A10,10,0,0,1,39,19H89A10,10,0,0,1,99,29V41.838A10,10,0,0,1,105,51v1h8v5H91ZM28,47a5.934,5.934,0,0,1,.686-2.73A7.987,7.987,0,0,0,25,51v1h5.691A5.99,5.99,0,0,1,28,47Zm75,5V51a7.987,7.987,0,0,0-3.686-6.73A5.923,5.923,0,0,1,97.309,52H103ZM83,52h7.69a5.96,5.96,0,0,1-1.133-9H83v9ZM45,52V43H38.443a5.96,5.96,0,0,1-1.133,9H45ZM63,23H36a3,3,0,0,0-3,3V39H45.748c1.1-1.7,3.311-2,5.861-2H63V23Zm32,3a3,3,0,0,0-3-3H65V37H76.391c2.55,0,4.759.3,5.861,2H95V26ZM38,103a6,6,0,0,1-6,6H25a6,6,0,0,1-6-6V94H38v9Zm71,0a6,6,0,0,1-6,6H96a6,6,0,0,1-6-6V94h19v9Z"/>
</svg>
