<?xml version="1.0" encoding="UTF-8"?>
<svg xmlns="http://www.w3.org/2000/svg" viewBox="0 0 100.95 44.09">
  <defs>
    <style>
      .cls-1, .cls-2, .cls-3, .cls-4, .cls-5, .cls-6, .cls-7, .cls-8 {
        stroke-miterlimit: 10;
      }

      .cls-1, .cls-3, .cls-5 {
        stroke: #fff;
      }

      .cls-1, .cls-9 {
        stroke-width: 4px;
      }

      .cls-10 {
        stroke-width: 6px;
      }

      .cls-10, .cls-11, .cls-2, .cls-4, .cls-6, .cls-7, .cls-12, .cls-9, .cls-8 {
        stroke: #000;
      }

      .cls-10, .cls-11, .cls-12, .cls-9 {
        stroke-linejoin: round;
      }

      .cls-11, .cls-2, .cls-3, .cls-4, .cls-5, .cls-6, .cls-7, .cls-8 {
        fill: none;
      }

      .cls-13 {
        isolation: isolate;
      }

      .cls-14, .cls-15 {
        stroke-width: 0px;
      }

      .cls-4, .cls-5, .cls-7, .cls-12 {
        stroke-width: 2px;
      }

      .cls-4, .cls-8, .cls-16 {
        mix-blend-mode: multiply;
      }

      .cls-6 {
        stroke-width: 3px;
      }

      .cls-15, .cls-12, .cls-9 {
        fill: #fff;
      }
    </style>
  </defs>
  <g class="cls-13">
    <g id="Layer_2" data-name="Layer 2">
      <g id="Layer_1-2" data-name="Layer 1">
        <g>
          <g>
            <path class="cls-10" d="m48.99,27.65s0,.02,0,.03c0,0,0-.02,0-.03l.02-3.93s0-.03,0-.05c0,.02,0,.03,0,.05l-.02,3.93Z"/>
            <path class="cls-9" d="m48.97,8.99V3.88c0-2.03-.96-1.77-.96-1.77,0,0-1.63-.26-4.79,0-4.81.39-10.26.88-12.56,1.07-.64.05-1.69.58-1.69,1.22v10.3c0,.68.02,1.23-.66,1.23l-18.15.05c-.68,0-1.23.55-1.23,1.23v3.9c0,.43-.22.81-.59,1.04-.03,0-.04.02-.04.02h.01s-.01.02-.02.02c-1.09.6-3.68,2.01-4.53,4.38-.45,1.25-1.07,3.11-1.53,4.08-.34.73-.37,1.59.43,1.72l1.42.19m44.94-8.89c.03-.63.56-.7,1.22-.7h47.82c.5,0,.9-.4.9-.9v-11.86c0-.68-.55-1.23-1.23-1.23h-48.76m36.45,25.9l9.52-.02v-5.97h-44.71c-.67,0-1.21-.55-1.22-1.22m-27.06,7.3h0s26.43-.09,26.43-.09h18.35"/>
          </g>
          <g>
            <g>
              <path class="cls-12" d="m98.95,22.08v-11.86c0-.68-.55-1.23-1.23-1.23h-48.76v13.98l21.04-.05c.69,0,.97.38.97.98l-.02,3.76c0,.67-.55,1.22-1.23,1.22h-19.4c-.68,0-1.37-.55-1.37-2.03V3.35c0-1.22-.94-1.22-.94-1.22,0,0-1.31-.29-4.79,0-4.81.41-10.26.88-12.56,1.07-.64.05-1.7.58-1.7,1.22v10.3c0,.68-.55,1.23-1.23,1.23H10.13c-.68,0-1.23.55-1.23,1.23l.1,2.77c0,.45.08.7-.32.91-1.09.6-4.52,2.04-5.38,4.42-.45,1.25-.71,3.96-1.06,5.39-.2.79-.37,1.59.43,1.72l19.29,2.57c.72.12-.15.01,27.01,0l46-.09v-5.96s-16.98,0-16.98,0c-.67,0-1.23-.55-1.23-1.23v-3.97c0-.41.33-.75.75-.75h20.55c.5,0,.9-.4.9-.9Z"/>
              <circle class="cls-1" cx="75.69" cy="33.66" r="6.05"/>
              <circle class="cls-1" cx="12.15" cy="33.66" r="6.39"/>
              <circle class="cls-3" cx="12.15" cy="33.7" r="6.84"/>
              <path class="cls-4" d="m6.94,21.77s8.93-3.51,14.34,2.94c5.82,6.94,6.25,10.33,13.99,10.33"/>
              <line class="cls-7" x1="27.92" y1="15.39" x2="27.91" y2="28.47"/>
              <line class="cls-11" x1="89.49" y1="9.62" x2="89.49" y2="23.15"/>
              <line class="cls-2" x1="73.41" y1="9.6" x2="73.41" y2="23.88"/>
              <line class="cls-2" x1="56.52" y1="9.74" x2="56.52" y2="22.49"/>
              <line class="cls-2" x1="12.55" y1="15.39" x2="12.55" y2="20.82"/>
              <circle class="cls-15" cx="12.15" cy="33.66" r=".81"/>
              <circle class="cls-15" cx="75.69" cy="33.7" r=".81"/>
            </g>
            <g class="cls-16">
              <circle class="cls-6" cx="75.69" cy="33.59" r="9"/>
            </g>
            <g class="cls-16">
              <circle class="cls-6" cx="12.15" cy="33.59" r="9"/>
            </g>
            <line class="cls-2" x1="24.43" y1="28.47" x2="49.43" y2="28.47"/>
            <line class="cls-8" x1="48.47" y1="27.29" x2="48.47" y2="34.58"/>
            <path class="cls-5" d="m64.41,31.96c.94-5.52,5.65-9.71,11.32-9.71s10.46,4.26,11.35,9.85"/>
          </g>
          <g class="cls-16">
            <rect class="cls-14" x="32.98" y="6.98" width="8.95" height="7"/>
          </g>
        </g>
      </g>
    </g>
  </g>
</svg>