<?xml version="1.0" encoding="UTF-8"?>
<svg id="jpn" xmlns="http://www.w3.org/2000/svg" width="64" height="128" viewBox="0 0 64 128">
  <defs>
    <style>
      .cls-1 {
        fill: #e0e0e0;
      }

      .cls-1, .cls-2, .cls-3 {
        fill-rule: evenodd;
        stroke-width: 0px;
      }

      .cls-2 {
        fill: #484848;
      }

      .cls-3 {
        fill: #161616;
      }
    </style>
  </defs>
  <path class="cls-2" d="m58,116H6V12h52v104Z"/>
  <path class="cls-3" d="m53,110V18H11v92h42Z"/>
  <path id="_3" data-name="3" class="cls-1" d="m31.67,25.23l3.57,7.24,7.99,1.16-5.78,5.64,1.37,7.96-7.15-3.76-7.15,3.76,1.37-7.96-5.78-5.64,7.99-1.16,3.57-7.24Zm-3.41,35.24l-7.99,1.16,5.78,5.64-1.37,7.96,7.15-3.76,7.15,3.76-1.37-7.96,5.78-5.64-7.99-1.16-3.57-7.24-3.57,7.24Zm-.33,28l-7.99,1.16,5.78,5.64-1.37,7.96,7.15-3.76,7.15,3.76-1.37-7.96,5.78-5.64-7.99-1.16-3.57-7.24-3.57,7.24Z"/>
</svg>