<svg xmlns="http://www.w3.org/2000/svg" width="150" height="150" viewBox="0 0 150 150">
  <defs>
    <style>
      .cls-1, .cls-2 {
        fill: #fff;
        stroke: #000;
        stroke-miterlimit: 10;
      }

      .cls-1 {
        opacity: 0.58;
      }

      .cls-3 {
        fill: #29abe2;
      }

      .cls-4 {
        fill: #151515;
      }
    </style>
  </defs>
  <g id="Layer_2" data-name="Layer 2">
    <g>
      <path class="cls-1" d="M12.5,4h125a0,0,0,0,1,0,0V83.50006A62.49994,62.49994,0,0,1,75.00006,146h-.00013A62.49994,62.49994,0,0,1,12.5,83.50006V4A0,0,0,0,1,12.5,4Z"/>
      <path class="cls-2" d="M12.5,4h125a0,0,0,0,1,0,0V83.50006A62.49994,62.49994,0,0,1,75.00006,146h-.00013A62.49994,62.49994,0,0,1,12.5,83.50006V4A0,0,0,0,1,12.5,4Z"/>
      <g>
        <g>
          <polygon class="cls-3" points="74.989 40 54.989 7 34.989 40 54.989 74 74.989 40"/>
          <polygon class="cls-3" points="114.989 40 94.989 7 74.989 40 94.989 74 114.989 40"/>
          <polygon class="cls-3" points="34.989 107 54.989 141 74.989 107 54.989 74 34.989 107"/>
          <polygon class="cls-3" points="74.989 107 94.989 141 114.989 107 94.989 74 74.989 107"/>
        </g>
        <polygon class="cls-3" points="11.989 68.9 14.989 74 34.989 40 14.989 7 11.989 11.95 11.989 68.9"/>
        <path class="cls-3" d="M34.98913,107l-20-33-3,4.95v3.55a62.23628,62.23628,0,0,0,14.13135,39.57672Z"/>
        <path class="cls-3" d="M136.98913,82.50006V77.3l-2-3.3-20,33,8.44067,14.34906A62.21605,62.21605,0,0,0,136.98913,82.50006Z"/>
        <polygon class="cls-3" points="136.989 70.6 136.989 10.3 134.989 7 114.989 40 134.989 74 136.989 70.6"/>
      </g>
      <path class="cls-4" d="M75,148A64.573,64.573,0,0,1,10.5,83.5V2h129V83.5A64.573,64.573,0,0,1,75,148ZM14.5,6V83.5a60.5,60.5,0,0,0,121,0V6Z"/>
    </g>
  </g>
</svg>
