<?xml version="1.0" encoding="UTF-8"?>
<svg id="Layer_7" data-name="Layer 7" xmlns="http://www.w3.org/2000/svg" width="150" height="150" viewBox="0 0 150 150">
  <defs>
    <style>
      .cls-1 {
        fill: #ededed;
      }

      .cls-1, .cls-2 {
        fill-rule: evenodd;
        stroke-width: 0px;
      }

      .cls-2 {
        fill: #141414;
      }
    </style>
  </defs>
  <g id="squad_ger_mgun_3_event_1_icon">
    <path class="cls-2" d="m53.38,52.32c-5.39-24.99-17.61-42.56-17.61-42.56-.85-1.22-.95-2.81-.26-4.12.69-1.32,2.05-2.14,3.53-2.14h72.89c1.56,0,2.98.91,3.62,2.33.65,1.42.4,3.09-.62,4.27,0,0-12.83,14.87-17.85,42.44,25.54-5.44,43.59-18.41,43.59-18.41,1.21-.87,2.81-.99,4.14-.31s2.17,2.05,2.17,3.54v75.28c0,1.57-.93,3-2.36,3.64s-3.12.37-4.28-.68c0,0-15.1-13.45-43.08-18.56,5.19,26.28,17.85,43.06,17.85,43.06.91,1.21,1.07,2.82.39,4.18-.67,1.35-2.06,2.21-3.57,2.21H39.03c-1.47,0-2.82-.81-3.51-2.11-.69-1.3-.61-2.87.21-4.09,0,0,12.19-18.21,17.61-42.92-26.2,5.37-42.92,18.4-42.92,18.4-1.2.94-2.83,1.11-4.2.44-1.37-.67-2.24-2.06-2.24-3.58V37.36c0-1.48.82-2.84,2.13-3.53,1.31-.69,2.9-.59,4.12.25,0,0,18.33,12.67,43.15,18.24Z"/>
    <path class="cls-1" d="m58.39,57.37C53.64,28.44,39.03,7.48,39.03,7.48h72.89s-15.29,17.55-19.67,50.01c29.37-4.75,50.74-20.13,50.74-20.13v75.28s-17.76-15.99-50.61-20.4c4.54,30.47,19.54,50.27,19.54,50.27H39.03s14.54-21.69,19.32-50.08c-30.54,4.66-50.39,20.2-50.39,20.2V37.36s21.87,15.14,50.43,20.02Z"/>
    <path class="cls-2" d="m12.21,104.7v-.55c0-9.16,0-51.66,0-59.21,8.56,4.89,22.09,11.61,43.84,15.32l5.41.92c.21.04.43-.03.58-.18s.22-.37.19-.58l-.89-5.42c-3.59-21.86-10-34.9-14.74-43.27h57.11c-5,7.93-11.23,19.84-14.43,43.53l-.71,5.23c-.03.21.04.42.19.57.15.15.36.21.57.18l5.21-.84c22.27-3.6,35.67-10.37,44.19-15.34v59.22c-8.02-5.22-20.15-11.74-44.17-14.97l-5.16-.69c-.21-.03-.42.04-.56.19-.15.15-.21.36-.18.56l.77,5.15c3.39,22.78,9.81,35.49,14.69,43.74h-.51c-8.83,0-49.77,0-57.12,0,4.7-8.49,11.16-21.84,14.8-43.44l.9-5.34c.04-.21-.03-.42-.18-.58-.15-.15-.36-.22-.57-.19l-5.35.82c-22.81,3.48-35.59,10.11-43.87,15.16Z"/>
  </g>
</svg>