<svg xmlns="http://www.w3.org/2000/svg" width="150" height="150" viewBox="0 0 150 150">
  <defs>
    <style>
      .cls-1 {
        fill: #151515;
      }

      .cls-1, .cls-2 {
        fill-rule: evenodd;
      }

      .cls-2, .cls-3 {
        fill: #eee;
      }
    </style>
  </defs>
  <g id="Layer_3" data-name="Layer 3">
    <g>
      <path id="Shape_33_copy_8" data-name="Shape 33 copy 8" class="cls-1" d="M74.9985,145.287c-3.285-1.549-14.632-6.9-26.656-12.593-9.768-4.622-16.533-10.182-21.29-17.5-5.26-8.087-8.01-18.435-8.409-31.634V7.11h86.615a39.817,39.817,0,0,0,26.095,26.212V83.564c-.4,13.2-3.149,23.547-8.409,31.634-4.757,7.314-11.522,12.874-21.29,17.5C89.6295,138.385,78.2815,143.738,74.9985,145.287Z"/>
      <path id="Shape_33_copy_7" data-name="Shape 33 copy 7" class="cls-2" d="M103.0595,10.17a42.981,42.981,0,0,0,25.234,25.341V83.518c-.386,12.6-2.975,22.417-7.914,30.012a39.517,39.517,0,0,1-8.437,9.285,56.93449,56.93449,0,0,1-11.6,7.113c-10.544,4.991-20.756,9.811-25.344,11.972-4.588-2.165-14.8-6.985-25.347-11.976a56.93411,56.93411,0,0,1-11.6-7.113,39.49985,39.49985,0,0,1-8.437-9.285c-4.939-7.595-7.528-17.413-7.914-30.012V10.17h81.356m4.542-6.12H15.5835V83.61c.85,28.56,12.41,42.84,31.45,51.85,13.157,6.226,25.648,12.118,27.48,12.981a1.13405,1.13405,0,0,0,.97,0c1.832-.863,14.323-6.755,27.48-12.981,19.04-9.01,30.6-23.29,31.45-51.85V30.993A36.433,36.433,0,0,1,107.5985,4.05Z"/>
      <path id="Shape_33_copy_6" data-name="Shape 33 copy 6" class="cls-1" d="M74.9985,150a2.55875,2.55875,0,0,1-1.1-.247c-1.4-.658-14.027-6.615-27.481-12.982-10.41-4.926-17.979-11.178-23.139-19.112-5.729-8.809-8.718-19.931-9.137-34V4.05a1.445,1.445,0,0,1,1.44-1.45l.002,0h92.015a1.444,1.444,0,0,1,1.406,1.112,35.189,35.189,0,0,0,25.749,25.872,1.445,1.445,0,0,1,1.105,1.4V83.653c-.418,14.07-3.407,25.192-9.136,34-5.161,7.934-12.73,14.186-23.14,19.112-13.455,6.368-26.084,12.325-27.484,12.983A2.555,2.555,0,0,1,74.9985,150Zm-57.97-66.412c.769,25.648,9.928,40.773,30.623,50.566,13.1,6.2,25.426,12.013,27.347,12.919,1.923-.907,14.245-6.719,27.347-12.919,20.7-9.793,29.854-24.918,30.623-50.566V32.113a37.78,37.78,0,0,1-16.777-9.8,37.774,37.774,0,0,1-9.718-16.822h-89.445Z"/>
    </g>
    <path class="cls-3" d="M111.50488,108.47826H90.751L75,87.529,59.249,108.47826H38.49512l26.12793-34.75-26.12793-34.75H59.249L75,59.92748,90.751,38.97826h20.7539l-26.12793,34.75Zm-19.25586-3h13.2461l-23.87207-31.75,23.87207-31.75H92.249L75,64.91967,57.751,41.97826H44.50488l23.87207,31.75-23.87207,31.75H57.751L75,82.53685Z"/>
  </g>
</svg>
