<?xml version="1.0" encoding="UTF-8"?>
<svg id="Layer_1" data-name="Layer 1" xmlns="http://www.w3.org/2000/svg" width="200" height="200" viewBox="0 0 200 200">
  <defs>
    <style>
      .cls-1 {
        fill: #1e1e1e;
      }

      .cls-1, .cls-2 {
        fill-rule: evenodd;
        stroke-width: 0px;
      }

      .cls-2 {
        fill: #fff;
      }
    </style>
  </defs>
  <path class="cls-1" d="m18.95,96.57c.09-.07-1.44-.18-1.44-.18-1.32,1.02-2.97,1.63-4.76,1.63-4.31,0-7.84-3.54-7.84-7.93s3.53-7.93,7.84-7.93c2.08,0,3.97.82,5.38,2.16h11.51v-5.66c0-1.64,1.33-2.97,2.97-2.97h1.48v-1.45c0-1.64,1.33-2.97,2.97-2.97h17.58c1.64,0,2.97,1.33,2.97,2.97v1.45h37.46c1.64,0,2.97,1.33,2.97,2.97v4.5h95.07c.79,0,1.55.31,2.1.87l1.98,1.98c.56.56.87,1.31.87,2.1v6.93c0,.79-.31,1.54-.87,2.1l-1.98,1.98c-.56.56-1.31.87-2.1.87h-95.07v6.08c0,1.64-1.33,2.97-2.97,2.97h-19.82v2.79c0,1.64-1.33,2.97-2.97,2.97h-34.68c-1.64,0-2.97-1.33-2.97-2.97v-2.79h-2.01c-1.24,0-2.31-.76-2.75-1.85-4.64,1.67-7.55,7.03-8.75,14.07-.64,3.81-3.74,6.73-7.59,7.15-2.11.27-3.95.34-5.57.28-.08,0-.15,0-.23-.02-1.89-.21-3.6-1.24-4.67-2.82-1.06-1.58-1.38-3.55-.86-5.38,1.97-6.98,6.23-16.21,16.76-23.92Z"/>
  <path class="cls-2" d="m16.36,93.42c-.89,1-2.18,1.63-3.61,1.63-2.69,0-4.87-2.22-4.87-4.95s2.18-4.95,4.87-4.95c1.67,0,3.14.85,4.02,2.16h13.38v6.12h-13.79Zm21.23,18.43h34.68v-2.93h-34.68v2.93Zm12.77-19.78h35.58v-5.25h-35.58v5.25Zm4.27-13.41h40.44v27.42h-62.46v-27.42h4.45v-4.42h17.58v4.42Zm-33.92,20.31h9.93v4.95c-6.46,1.25-10.9,7.7-12.46,16.86-.42,2.51-2.47,4.43-5,4.69-1.95.25-3.64.32-5.12.27-1.02-.11-1.95-.67-2.52-1.53-.58-.85-.75-1.92-.47-2.91,1.83-6.49,5.86-15.16,15.65-22.33Zm81.42-1.94h-4.14v-10.9h7.81c-.09.23-.14.46-.14.7,0,1.75,2.49,3.16,5.55,3.16s5.55-1.42,5.55-3.16c0-.24-.05-.48-.14-.7h6.8c-.09.23-.14.46-.14.7,0,1.75,2.49,3.16,5.55,3.16s5.55-1.42,5.55-3.16c0-.24-.05-.48-.14-.7h6.8c-.09.23-.14.46-.14.7,0,1.75,2.49,3.16,5.55,3.16s5.55-1.42,5.55-3.16c0-.24-.05-.48-.14-.7h6.8c-.09.23-.14.46-.14.7,0,1.75,2.48,3.16,5.55,3.16s5.55-1.42,5.55-3.16c0-.24-.05-.48-.14-.7h6.76c-.06.23-.1.46-.1.7,0,1.75,1.8,3.16,4.02,3.16s4.02-1.42,4.02-3.16c0-.24-.03-.48-.1-.7h9.02l1.98,1.98v6.93l-1.98,1.98h-14.85c.96-.57,1.54-1.34,1.54-2.19,0-1.75-2.49-3.16-5.55-3.16s-5.55,1.42-5.55,3.16c0,.85.59,1.62,1.54,2.19h-9.61c.96-.57,1.54-1.34,1.54-2.19,0-1.75-2.49-3.16-5.55-3.16s-5.55,1.42-5.55,3.16c0,.85.59,1.62,1.54,2.19h-9.61c.96-.57,1.54-1.34,1.54-2.19,0-1.75-2.48-3.16-5.55-3.16s-5.55,1.42-5.55,3.16c0,.85.59,1.62,1.54,2.19h-9.61c.96-.57,1.54-1.34,1.54-2.19,0-1.75-2.49-3.16-5.55-3.16s-5.55,1.42-5.55,3.16c0,.85.59,1.62,1.54,2.19h-9.23c.72-.57,1.16-1.34,1.16-2.19,0-1.75-1.87-3.16-4.18-3.16s-4.18,1.42-4.18,3.16c0,.85.44,1.62,1.16,2.19Z"/>
</svg>