<svg id="squad_ussr_apc_driver_2_premium_1_icon" xmlns="http://www.w3.org/2000/svg" width="150" height="150" viewBox="0 0 150 150">
  <defs>
    <style>
      .cls-1 {
        fill: #b83027;
      }

      .cls-1, .cls-2, .cls-3, .cls-4, .cls-5, .cls-6 {
        fill-rule: evenodd;
      }

      .cls-2 {
        fill: #fbbd40;
      }

      .cls-3 {
        fill: #754c29;
      }

      .cls-4 {
        fill: #f7f7f7;
      }

      .cls-5 {
        fill: #221f1f;
      }

      .cls-6 {
        fill: #fabc40;
      }
    </style>
  </defs>
  <path id="Shape_11_copy_3" data-name="Shape 11 copy 3" class="cls-1" d="M124.179,7.034C114.16,28.843,85.009,24.2,52.7,25.7S7.763,49,7.763,49l30.655,68.242s11.861-19.273,42.5-20.756,58.315,2.471,67.7-16.8Z"/>
  <path id="Shape_11_copy_2" data-name="Shape 11 copy 2" class="cls-2" d="M1.376,46.4l43.93,96.567,2.77-5.145L8.1,42.837,3.355,41.649Z"/>
  <path id="Shape_11_copy" data-name="Shape 11 copy" class="cls-3" d="M85.767,106.5a106.852,106.852,0,0,0-38.323,7.024c4.221,6.791,9.285,19.9,9.285,19.9,6.584-2.342,29.038-3.278,29.038-3.278h9.285s22.454,0.936,29.038,3.278c0,0,5.064-13.112,9.285-19.9A106.852,106.852,0,0,0,95.053,106.5H85.767Z"/>
  <path id="_95" data-name="95" class="cls-4" d="M84.413,111.443a6.84,6.84,0,0,0-3.04.665,5.211,5.211,0,0,0-2.136,1.852,4.862,4.862,0,0,0-.774,2.713,5.576,5.576,0,0,0,.588,2.626,4.3,4.3,0,0,0,1.569,1.722,4.054,4.054,0,0,0,2.157.6,4.138,4.138,0,0,0,1.624-.283,4.086,4.086,0,0,0,1.275-.894,5.073,5.073,0,0,1-1.166,1.82,5.909,5.909,0,0,1-1.907,1.188,19.21,19.21,0,0,1-3.094.893l0.85,2.964a17.352,17.352,0,0,0,5.677-1.809,8,8,0,0,0,3.28-3.29,10.8,10.8,0,0,0,1.068-5.034,6.346,6.346,0,0,0-.676-2.975,4.791,4.791,0,0,0-2.027-2.027,6.8,6.8,0,0,0-3.269-.73h0Zm-0.2,7.257q-1.438,0-1.438-2.245a2.327,2.327,0,0,1,.436-1.525,1.428,1.428,0,0,1,1.155-.523,1.4,1.4,0,0,1,.992.316,1.881,1.881,0,0,1,.479,1.024,9.78,9.78,0,0,1,.12,1.972,2.267,2.267,0,0,1-.806.741,2,2,0,0,1-.937.24h0Zm18.5-6.908H93v8.3H95.81a3.039,3.039,0,0,1,1.569-.523,1.637,1.637,0,0,1,1.275.49,2.386,2.386,0,0,1,.447,1.624,2.282,2.282,0,0,1-.523,1.623,1.964,1.964,0,0,1-1.5.556,3.259,3.259,0,0,1-2.68-1.439l-2.375,2.158a6.368,6.368,0,0,0,5.252,2.462,7.569,7.569,0,0,0,3.291-.675,5.039,5.039,0,0,0,2.179-1.907,5.285,5.285,0,0,0,.763-2.844,5.736,5.736,0,0,0-.567-2.637,4.054,4.054,0,0,0-1.536-1.689,4.209,4.209,0,0,0-2.19-.577,4.919,4.919,0,0,0-2.07.458V114.8h5.121Z"/>
  <path class="cls-5" d="M141.305,71.217v0.015h-7.817l0.652,5.211-0.052.02a27.4,27.4,0,0,1,1.415,9.359c0,6.7-1.742,12.133-3.891,12.133h-0.02a14.473,14.473,0,0,1-3.47,0,2.208,2.208,0,0,1-1.7-1.213c-0.659,1.409-1.457,2.234-2.316,2.234h-0.022a15.257,15.257,0,0,1-3.658,0,1.561,1.561,0,0,1-.894-0.305,1.506,1.506,0,0,1-.782.233h-0.022a15.258,15.258,0,0,1-3.658,0c-2.266,0-4.1-5.727-4.1-12.792,0-.139,0-0.277,0-0.415h-2.343l-3.054.126q-0.115,0-.231,0a5.586,5.586,0,0,1-4.277-2H97.661l-3.894,2.6c0,0.187.01,0.369,0.01,0.558,0,8.32-2.357,15.064-5.266,15.064H88.484a21.336,21.336,0,0,1-4.7,0c-1.663,0-3.145-2.205-4.11-5.648-0.71,1.838-1.623,2.943-2.618,2.943H77.039a15.266,15.266,0,0,1-3.659,0,1.43,1.43,0,0,1-.585-0.13,21.589,21.589,0,0,1-3.106-.087c-1.866,0-3.441-3.885-3.939-9.2H48.816c-0.6,6.577-3.087,11.508-6.064,11.508-0.043,0-.087,0-0.13,0a26.523,26.523,0,0,1-5.186,0c-3.2,0-5.8-6.532-5.8-14.589q0-1.161.07-2.275l0.247-2.5c0.05-.365.111-0.717,0.173-1.069H29.391a2.223,2.223,0,0,1-2.216-2.216V71.7a2.223,2.223,0,0,1,2.216-2.216h2.38c1.173-4.835,3.552-7.863,7.921-7.1,0.679,0.119,4.842,2.19,5.487,2.442l-1.436-1.965a4.557,4.557,0,0,1-.07-0.767c0-.124.026-0.241,0.036-0.363a7.494,7.494,0,0,1-2.593-5.7,7.348,7.348,0,0,1,7.256-7.437,7.208,7.208,0,0,1,6.161,3.522L55.94,51.5a5.124,5.124,0,0,1,1.532-.952,2.683,2.683,0,0,1-.491-1.5V36.575A2.78,2.78,0,0,1,59.753,33.8h5.294a2.773,2.773,0,0,1,2.314,1.256l21.179-2.044,18.674,1.52,0.255,5.5a2.565,2.565,0,0,1,1.064,2.043H108.6v2.079l1.224,0.367,8.252,0.651,1.52,4.126,19.978,4.262a1.646,1.646,0,0,1,1.012-.354h0.579a1.669,1.669,0,0,1,1.664,1.665V69.567A1.664,1.664,0,0,1,141.305,71.217Zm-101.867.21s0.033-.026.092-0.067a9.574,9.574,0,0,0-1.549.012,2.172,2.172,0,0,1,.033.325v0.529c0.62-.037,1.524-0.1,2.45-0.1l0.29-.52A4.418,4.418,0,0,0,39.438,71.427Zm64.586,12.4h-0.23c0.083,0.036.161,0.081,0.246,0.111C104.031,83.9,104.032,83.861,104.024,83.825Z"/>
  <path class="cls-6" d="M140.931,49.187v14.62l-21.552-.516a1.568,1.568,0,0,1,.074.451v1.2a1.6,1.6,0,0,1-1.6,1.6h-9.991a1.582,1.582,0,0,1-.781-0.213c-0.486,2.366-.941,3.931-1.07,4.361a0.715,0.715,0,0,1,.089.331,0.735,0.735,0,0,1-.733.733H99.558l2.255,3.5a3.97,3.97,0,0,0,3.529,1.9L111,76.922c0.554-4.8,2.263-8.3,4.288-8.3a20.633,20.633,0,0,1,3.926.012c0.031,0,.061-0.012.092-0.012a1.813,1.813,0,0,1,.619.115,1.493,1.493,0,0,1,.344-0.049,17.463,17.463,0,0,1,3.581.01c0.033,0,.065-0.01.1-0.01a2.735,2.735,0,0,1,2.118,1.677,2.455,2.455,0,0,1,1.9-1.406,16.515,16.515,0,0,1,3.4.01c0.03,0,.06-0.01.09-0.01,2.149,0,3.891,4.946,3.891,11.046s-1.742,11.046-3.891,11.046c-0.018,0-.035-0.005-0.053-0.006a16.165,16.165,0,0,1-3.438.006,2.232,2.232,0,0,1-1.7-1.119c-0.659,1.288-1.456,2.048-2.317,2.048-0.019,0-.037-0.005-0.056-0.006a17.069,17.069,0,0,1-3.623.006,1.549,1.549,0,0,1-.556-0.119,1.766,1.766,0,0,1-.407.054c-0.019,0-.038-0.007-0.057-0.007a20.255,20.255,0,0,1-3.961.007c-2.473,0-4.478-5.215-4.478-11.646,0-.572.021-1.129,0.052-1.678l-5.446.225-0.232.005a5.586,5.586,0,0,1-4.777-2.691L91.437,62.224a0.883,0.883,0,0,0-.266-0.081c-2.28-.217-3.908,3.148-6.08,3.474s-6.623-1.954-8.468-1.3c-1.391.491-3.7,4.739-4.762,6.805h8.045c0.953-2.719,2.267-4.4,3.719-4.4a22.05,22.05,0,0,1,4.615.016c0.036,0,.071-0.016.108-0.016,2.908,0,5.265,6.744,5.265,15.064s-2.357,15.064-5.265,15.064c-0.011,0-.021,0-0.032,0a21.373,21.373,0,0,1-4.691,0c-1.838,0-3.454-2.7-4.4-6.785-0.662,1.43-1.465,2.273-2.332,2.273H76.876a6.57,6.57,0,0,1-1.389.128c-0.945,0-1.853-.128-2.269-0.128a1.43,1.43,0,0,1-.586-0.13,8.025,8.025,0,0,1-.836.04c-0.945,0-1.853-.128-2.27-0.128-1.848,0-3.41-3.812-3.923-9.052H75.97a16.7,16.7,0,0,1-.571,2.689,6.512,6.512,0,0,0,.894,2,1.3,1.3,0,0,0,.985.634,1.488,1.488,0,0,0,1.144-.869A5.11,5.11,0,0,0,78.691,87a40.805,40.805,0,0,1-.331-5.219,41.456,41.456,0,0,1,.25-4.585H77.551V77.138H49.636V77.2H48.552a33.24,33.24,0,0,1,.24,3.993c0,8.057-2.777,14.589-6.2,14.589-0.036,0-.07-0.011-0.106-0.013a26.25,26.25,0,0,1-5.21.013c-3.2,0-5.8-6.532-5.8-14.589A35.577,35.577,0,0,1,31.7,77.2H29.069V71.119h4.016c1.056-2.779,2.54-4.518,4.188-4.518a27.078,27.078,0,0,1,5.125.023c0.064,0,.127-0.023.191-0.023a2.814,2.814,0,0,1,1.057.227,6,6,0,0,0-2.378-2,4.645,4.645,0,0,0-1.995-.409s0.035-.026.091-0.066a12.473,12.473,0,0,0-2.913.174c-2.823.434-5.646,1.629-6.08,0.76s3.691-8.36,10.531-7.166a11.345,11.345,0,0,1,3.434,1.25l0.277-.038c0.508-.069,1.025-0.1,1.538-0.156a4.454,4.454,0,0,1-2.644-4.1,4.344,4.344,0,1,1,8.686,0,4.449,4.449,0,0,1-2.233,3.868c0.248,0,.5-0.025.744-0.025h1.843V54.838a6.431,6.431,0,0,1,6.392-6.455H60.12V36.617l-1.194.229a4.433,4.433,0,0,1,1.085-3.365c1.412-1.846,8.578-1.954,8.578-1.954,26.925-1.846,35.936.217,35.936,0.217,3.5,0.916,3.865,2.595,3.846,3.329h0.063v8.179H119.7a0.9,0.9,0,0,1,.9.9,0.888,0.888,0,0,1-.462.768v1.038ZM131.81,87.644c1.374,0,2.487-3.365,2.487-7.516s-1.113-7.516-2.487-7.516-2.488,3.364-2.488,7.516S130.436,87.644,131.81,87.644Zm-7.486.744c1.448,0,2.622-3.548,2.622-7.924s-1.174-7.924-2.622-7.924-2.622,3.548-2.622,7.924S122.876,88.388,124.324,88.388ZM88.836,92.194c1.859,0,3.366-4.588,3.366-10.249S90.7,71.7,88.836,71.7,85.47,76.284,85.47,81.945,86.977,92.194,88.836,92.194ZM54.229,69.1a1.519,1.519,0,0,0,1.494,1.54H67.557a1.519,1.519,0,0,0,1.494-1.54V63.518a1.48,1.48,0,0,1,0-.578V60.048c-1.065-.078-2.143-0.12-3.209-0.12H54.229V69.1ZM39.567,77.2a23.028,23.028,0,0,0-.367,4.151c0,5.482,1.775,9.926,3.965,9.926s3.964-4.444,3.964-9.926a23.028,23.028,0,0,0-.367-4.151h-7.2ZM52.548,59.928H50.7a44.652,44.652,0,0,0-4.965.3,28.378,28.378,0,0,1,6.808,7.1v-7.4Zm0,9.171v-0.24c-0.714-1.036-2.635-3.55-4.7-3.894a3.289,3.289,0,0,0-2.841.9,34.147,34.147,0,0,1,2.73,5.249h5.53A3.217,3.217,0,0,1,52.548,69.1ZM76.123,36.067L61.748,36.3V48.383h1.666L70,47.269s2.609-.187,6.124-0.273V36.067ZM73.474,47.686a6.669,6.669,0,0,0-5.954,3.741,4.862,4.862,0,0,0-3.368-1.364H58.94a4.749,4.749,0,0,0-4.712,4.774v4.091H65.841c0.853,0,1.711.034,2.566,0.084a6.719,6.719,0,0,0,2.324,1.78v0.264A2.124,2.124,0,0,1,71.194,61a2.226,2.226,0,0,1,0,4.451,2.118,2.118,0,0,1-.462-0.053v3.7a3.217,3.217,0,0,1-.722,2.02h0.5c0.6-1.05,1.6-2.722,2.83-4.516-0.072-.021-0.133-0.052-0.209-0.069l0.071,0a1.353,1.353,0,0,1,.172.022c1.945-2.822,4.463-5.923,6.936-7.344,5.1-2.931,9.011-1.845,11.509.543,1.065,1.019,3.1,4.369,5.079,7.875l1.712,2.657h5.206c0.146-.533.268-1.031,0.4-1.543h-4.073l-5.719-8.806L91.713,56.5V52.7c-0.305,0-6.485-.069-11.834-0.128A6.714,6.714,0,0,0,73.474,47.686ZM96.165,34.675l-1.085.835v2.553h6.078a2.571,2.571,0,0,1,.922-2.483Zm10.6,1.623-0.993-.152a2.647,2.647,0,0,1,.441,1.469,2.583,2.583,0,0,1-2.552,2.614,2.538,2.538,0,0,1-2.266-1.437H95.079v7.933l-1.954-.651V35.787l-15.84.261V46.973c4.785-.08,10.8.061,14.429,1.056,0,0,2.437.82,2.663,2.424h12.392V36.3Zm10.206,8.745h-8.541v4.393a66.144,66.144,0,0,1-.626,12.712c0.019,0,.036-0.005.054-0.005h8.922l0.191-7.8v-9.3ZM73.148,59.429a4.453,4.453,0,1,1,4.342-4.452A4.4,4.4,0,0,1,73.148,59.429Z"/>
</svg>
