<svg id="squad_ussr_paratrooper_2_premium_1_icon" xmlns="http://www.w3.org/2000/svg" width="150" height="150" viewBox="0 0 150 150">
  <defs>
    <style>
      .cls-1 {
        fill: #754c29;
      }

      .cls-1, .cls-2, .cls-3, .cls-4, .cls-5 {
        fill-rule: evenodd;
      }

      .cls-2 {
        fill: #f7f7f7;
      }

      .cls-3 {
        fill: #b83027;
      }

      .cls-4 {
        fill: #231f20;
      }

      .cls-5 {
        fill: #fbbd40;
      }
    </style>
  </defs>
  <path id="flag" class="cls-1" d="M71.156,125.147a88.45,88.45,0,0,0-31.728,5.816c3.494,5.621,7.687,16.477,7.687,16.477,5.451-1.939,24.04-2.714,24.04-2.714h7.687s18.589,0.775,24.04,2.714c0,0,4.193-10.856,7.687-16.477a88.448,88.448,0,0,0-31.727-5.816H71.156Z"/>
  <path id="_214" data-name="214" class="cls-2" d="M62.63,127.274a6.221,6.221,0,0,0-3,.714A6.7,6.7,0,0,0,57.4,129.92l2.373,1.89a4.746,4.746,0,0,1,1.145-1.082,2.315,2.315,0,0,1,1.25-.346,1.482,1.482,0,0,1,1.113.409,1.543,1.543,0,0,1,.4,1.124,3.066,3.066,0,0,1-.462,1.533,12.151,12.151,0,0,1-1.627,2.037q-1.166,1.239-3.6,3.549v2.856H67.8l0.42-3.108H62.693a36.141,36.141,0,0,0,3.328-3.15,8.459,8.459,0,0,0,1.512-2.184,5.1,5.1,0,0,0,.389-2,3.864,3.864,0,0,0-.6-2.09,4.138,4.138,0,0,0-1.8-1.522,6.728,6.728,0,0,0-2.9-.567h0Zm11.7,0.336-5.061,3.024,1.806,2.709,2.919-1.785V141.89h4.032V127.61h-3.7Zm16.611,8.4V132.9h-3.57l-0.483,3.108H85.121l3.213-7.581-3.549-1.26-3.927,9.2v2.709h5.985l0.021,2.814h4.074v-2.814h1.47V136.01h-1.47Z"/>
  <path id="star" class="cls-3" d="M75,1.989L91.244,51.983H143.81l-42.527,30.9,16.244,49.994L75,101.976l-42.527,30.9L48.717,82.88,6.19,51.983H58.756Z"/>
  <path id="shadow" class="cls-4" d="M144.25,70.719c0.17,0.031.35,0.061,0.51,0.093a10.7,10.7,0,0,1,2.612.753,1.028,1.028,0,0,1,.629.8,0.813,0.813,0,0,1-.332.679,11.119,11.119,0,0,1-6.38,2.218,34.293,34.293,0,0,1-4.454.067c-0.223.058-.455,0.107-0.689,0.155,0.21,0.07.449,0.142,0.634,0.21A5.789,5.789,0,0,1,139,76.915a1.089,1.089,0,0,1,.31.744,1,1,0,0,1-.292.684,2.682,2.682,0,0,1-.958.591c-2.7,1.09-6.6,1.072-10.491.579-1.363-.173-2.724-0.4-4.029-0.659,0.222,0.123.429,0.243,0.619,0.361a5.161,5.161,0,0,1,1.673,1.457,1.185,1.185,0,0,1,.173.984,1.524,1.524,0,0,1-1.213.912,21.9,21.9,0,0,1-9.758-.337,4.764,4.764,0,0,1,1.254,1.406,1.5,1.5,0,0,1,.147,1.148,1.412,1.412,0,0,1-.72.813,4.552,4.552,0,0,1-2.029.405,26.08,26.08,0,0,1-8.607-1.722,2.886,2.886,0,0,1,1.184,1.951,1.548,1.548,0,0,1-1.157,1.385,9.128,9.128,0,0,1-3.388.386,33.459,33.459,0,0,1-9.335-2.54,5.566,5.566,0,0,1,.539.593,1.328,1.328,0,0,1,.32,1.347,0.926,0.926,0,0,1-.464.433,2.409,2.409,0,0,1-.99.166c-3.718,0-6.652-.425-8.638-1.342a7.253,7.253,0,0,1-1.095-.632c1.006,4.176,2.1,9.242,2.681,13.527a31.942,31.942,0,0,1,.159,6.542c0.34,4.253-.165,9.149-1.749,12.682-1.309,2.92-3.373,4.913-6.143,5.2-2.2.229-4.043-.99-5.43-3.114-2.776-4.247-3.791-12.223-3.529-15.719,0.028-.379.063-0.764,0.1-1.15a24.444,24.444,0,0,1-.1-3.85,126.174,126.174,0,0,1,3.065-17.993c-0.084-.043-0.173-0.078-0.256-0.124a4.747,4.747,0,0,1-3.172,4.6c-2,.917-4.944,1.342-8.681,1.342a2.431,2.431,0,0,1-1-.166,0.928,0.928,0,0,1-.467-0.433,1.323,1.323,0,0,1,.321-1.347,5.574,5.574,0,0,1,.542-0.593,33.761,33.761,0,0,1-9.382,2.539,9.216,9.216,0,0,1-3.405-.386A1.548,1.548,0,0,1,44.449,86.2a2.878,2.878,0,0,1,1.189-1.951,26.326,26.326,0,0,1-8.65,1.722,4.594,4.594,0,0,1-2.04-.406,1.414,1.414,0,0,1-.724-0.813,1.491,1.491,0,0,1,.148-1.148,4.777,4.777,0,0,1,1.26-1.405,22.114,22.114,0,0,1-9.807.337,1.531,1.531,0,0,1-1.218-.912,1.182,1.182,0,0,1,.174-0.984,5.181,5.181,0,0,1,1.681-1.457q0.287-.177.623-0.361c-1.312.257-2.68,0.487-4.05,0.659-3.908.493-7.831,0.511-10.544-.579a2.7,2.7,0,0,1-.963-0.591,1,1,0,0,1-.293-0.684,1.09,1.09,0,0,1,.311-0.744,5.831,5.831,0,0,1,2.231-1.222c0.186-.068.426-0.14,0.637-0.21-0.235-.047-0.468-0.1-0.693-0.155a34.633,34.633,0,0,1-4.476-.067,11.211,11.211,0,0,1-6.413-2.218A0.812,0.812,0,0,1,2.5,72.332a1.028,1.028,0,0,1,.633-0.8,10.782,10.782,0,0,1,2.625-.753c0.161-.031.342-0.062,0.513-0.092a9.03,9.03,0,0,1-3.436-1.676A0.812,0.812,0,0,1,2.5,68.332a1.028,1.028,0,0,1,.633-0.8,10.774,10.774,0,0,1,2.625-.753c2.67-.52,6.77-0.978,10.363-1.421a53.423,53.423,0,0,0,8.5-1.942,2.718,2.718,0,0,1,.733-0.6c1.558-.93,5.142-1.768,7.453-2.44a37.973,37.973,0,0,1,6.965-1.2c3-1.495,8.747-4.038,14.537-2.87,5.242,1.058,7.023,3.924,8.42,5.793a4.015,4.015,0,0,0,1.828,1.631,13.111,13.111,0,0,0,3.18.337,9.059,9.059,0,0,1,1.975-2.088,175.129,175.129,0,0,1-3.465-17.529A33.922,33.922,0,0,1,66.1,37.9,29.2,29.2,0,0,1,67.746,25.22c1.232-2.92,3.175-4.913,5.782-5.2,2.07-.23,3.805.99,5.111,3.114,2.613,4.248,3.568,12.223,3.322,15.72-0.027.378-.059,0.763-0.093,1.149a25.99,25.99,0,0,1,.093,3.851,130.447,130.447,0,0,1-2.716,17.227,9.039,9.039,0,0,1,3.438,3.059L82.7,64.1a14.427,14.427,0,0,0,3.55-.343,4,4,0,0,0,1.819-1.631c1.39-1.869,3.162-4.735,8.378-5.793,5.761-1.168,11.48,1.376,14.464,2.87a37.59,37.59,0,0,1,6.929,1.2c2.3,0.672,5.866,1.51,7.416,2.44a2.7,2.7,0,0,1,.73.6,52.932,52.932,0,0,0,8.461,1.942c3.575,0.443,7.654.9,10.311,1.421a10.7,10.7,0,0,1,2.612.753,1.028,1.028,0,0,1,.629.8,0.813,0.813,0,0,1-.332.679A8.964,8.964,0,0,1,144.25,70.719Z"/>
  <path id="paratrooper" class="cls-5" d="M142.194,69.265c-3.618.327-8.722-.1-16.027-1.29q-1.744-.314-3.747-0.646h-0.007l-0.168.986h0.007q1.977,0.356,3.773.649c7.195,1.293,11.109,2.353,12.689,3.229a2.47,2.47,0,0,1,.478.327,0.891,0.891,0,0,1,.1.123,0.7,0.7,0,0,1-.083.082,2.217,2.217,0,0,1-.53.281c-2.571,1.038-6.291.984-10,.515a73.557,73.557,0,0,1-10.021-2.093q-1.527-.5-3.328-1a0.5,0.5,0,0,0-.613.355l0.133,0.484a5.471,5.471,0,0,0,.649.267c0.549,0.176,1.567.491,2.9,0.86,3.659,1.206,6.079,2.4,7.157,3.342a2.243,2.243,0,0,1,.41.448,0.711,0.711,0,0,1,.064.125,0.077,0.077,0,0,1,.013.056,0.245,0.245,0,0,1-.1.084,1.5,1.5,0,0,1-.4.151c-2.961.744-6.514,0.322-9.712-.439-0.974-.232-1.915-0.5-2.8-0.769a59.381,59.381,0,0,0-7.181-2.367l-0.358.93s3.61,1.259,7.172,2.37a19.066,19.066,0,0,1,1.742.976,5.641,5.641,0,0,1,1.987,1.795,0.534,0.534,0,0,1,.083.39,0.487,0.487,0,0,1-.283.255,3.777,3.777,0,0,1-1.535.265c-4.433.08-10-2.183-13.159-3.673-0.747-.4-2.582-0.819-3.511-1.265l-0.026-.013-0.455.889,0.025,0.014a33.774,33.774,0,0,1,3.407,1.209,23.455,23.455,0,0,1,4.4,2.806,4.184,4.184,0,0,1,.743.812,0.873,0.873,0,0,1,.173.445,0.331,0.331,0,0,1-.144.248,1.4,1.4,0,0,1-.383.212A8.089,8.089,0,0,1,102.75,82c-3.283-.126-10.8-3.5-14.121-5.389-0.75-.5-1.288-0.827-1.288-0.827l-0.556.828a12.329,12.329,0,0,0,1.322.845,51.369,51.369,0,0,1,4.4,3.549,5.488,5.488,0,0,1,.618.656,1.858,1.858,0,0,1,.167.284l-0.042.012a2.121,2.121,0,0,1-.471.042c-3.538,0-6.333-.378-8.222-1.251a3.831,3.831,0,0,1-2.585-3.641l3.32-4.923,1.749-.208c2.6,1.152,7.163,2.64,11.689,1.484l0.075-.025a1.376,1.376,0,0,0,.814-0.772,1.541,1.541,0,0,0-.391-1.454v0q0.173,0.057.347,0.111a10.885,10.885,0,0,0,5.737.434l0.018,0a1.377,1.377,0,0,0,1.122-.994,1.525,1.525,0,0,0-.419-1.2,10.925,10.925,0,0,0,6.411.086,1.246,1.246,0,0,0,.884-0.8,0.988,0.988,0,0,0-.073-0.689,2.17,2.17,0,0,0-.456-0.6l0.121,0.026c2.395,0.5,4.973.578,6.921-.47l0.082-.055a0.967,0.967,0,0,0,.388-0.751,1.372,1.372,0,0,0-.562-1,5.07,5.07,0,0,0-.8-0.543A26.921,26.921,0,0,0,121.66,65l5.243-1.09,0.1-.1a1.356,1.356,0,0,0,.163-0.266,52.511,52.511,0,0,0,8.157,1.838c4.422,0.548,9.626,1.114,11.884,1.8a4.282,4.282,0,0,1,.64.239A10.47,10.47,0,0,1,142.194,69.265Zm-21.762-6.036a40.757,40.757,0,0,1-8.436-1.4c-0.909-.271-5.55-1.434-5.68-1.469l-0.024-.006-0.277.945,0.023,0.007c0.126,0.039,4.736,1.218,5.691,1.47a32.76,32.76,0,0,1,5.385,2.014,3.757,3.757,0,0,1,.823.558,0.935,0.935,0,0,1,.1.127c-1.744.887-4.033,0.765-6.158,0.326a25.666,25.666,0,0,1-3.79-1.122c-1.36-.637-6.529-2.087-6.529-2.087l-0.409.9s5.052,1.537,6.654,2.136a14.614,14.614,0,0,1,2.937,1.711,1.792,1.792,0,0,1,.333.352l-0.2.18a10.242,10.242,0,0,1-6.055-.175,21.369,21.369,0,0,1-2.8-1.032,60.929,60.929,0,0,0-5.637-2.375l-0.478.861s4.106,1.7,5.79,2.448a10.145,10.145,0,0,1,2.3,1.691,1.53,1.53,0,0,1,.2.269,0.26,0.26,0,0,1,.056.156,0.149,0.149,0,0,1-.083.071,1.326,1.326,0,0,1-.337.141,10.006,10.006,0,0,1-5.175-.417,23.6,23.6,0,0,1-3.827-1.583c-0.817-.488-4.48-1.835-4.659-1.94l-0.015-.009-0.532.831,0.015,0.009c0.289,0.188,3.955,1.587,4.888,2.06a11.257,11.257,0,0,1,2.714,2.076,1.484,1.484,0,0,1,.2.3,0.247,0.247,0,0,1,.038.179,0.393,0.393,0,0,1-.24.177c-5.808,1.44-11.674-1.672-12.818-2.327L84,66.086l0.063-.5c0.443-.022,1.083-0.06,1.792-0.125a16.732,16.732,0,0,0,4.505-.744c1.24-.453,3.67-1.989,6.394-3.469s5.741-2.9,8.155-3.129a29.6,29.6,0,0,1,3.61-.09c0,0.056,0,.028,0,0a39.522,39.522,0,0,1,8.788,1.617c2.221,0.64,5.673,1.416,7.171,2.3a1.7,1.7,0,0,1,.458.355,0.105,0.105,0,0,1,.049.075,0.051,0.051,0,0,1,0,.007A8.059,8.059,0,0,1,120.432,63.229Zm-11.913-5.194h0C108.518,57.978,108.519,58.006,108.519,58.035Zm-12.025,1.08c-2.674,1.472-5.054,3.011-6.271,3.462a18.9,18.9,0,0,1-5.732.734l-0.848-1.229a12.625,12.625,0,0,0,2.9-.369,4.946,4.946,0,0,0,2.326-1.989c1.293-1.738,2.926-4.427,7.778-5.411a20.661,20.661,0,0,1,11.433,1.4,28.676,28.676,0,0,0-3.031.11C102.519,56.058,99.348,57.543,96.494,59.114Zm-18.068-2.42c-0.673-.741-4.278-5.108-6.349-15.629-1.824-9.266-.108-15.7,2.73-17.449a2.188,2.188,0,0,1,3.077.294c0.1,0.117.113,0.115,0.019-.011-0.778-1.044-2.587-2.7-5.427-.885C66.4,26.89,69.468,43.348,73,51.565c1.9,4.417,7.25,10.7,7.969,11.435l-0.286-.065a6.982,6.982,0,0,1-2.77,10.425c0.756,2.523,4.7,15.929,5.813,24.177,0.992,7.381-.767,17.816-6.857,18.451s-8.21-13.067-7.849-17.906A133.489,133.489,0,0,1,72.574,78.1c0.673,0.745,4.278,5.135,6.349,15.713,1.824,9.316.108,15.783-2.73,17.543a2.181,2.181,0,0,1-3.077-.3c-0.1-.117-0.113-0.116-0.019.011,0.778,1.049,2.587,2.712,5.427.89,6.074-3.9,3.008-20.443-.526-28.7C76.1,78.821,70.266,72.743,69.547,72l0.632,0.072a6.985,6.985,0,0,1,2.36-11.614C71.7,57.485,68.345,45.3,67.272,37.365c-0.992-7.341.767-17.721,6.857-18.353s8.21,13,7.849,17.811A132.134,132.134,0,0,1,78.426,56.694ZM71.851,67A3.146,3.146,0,1,0,75,63.859,3.146,3.146,0,0,0,71.851,67ZM66.33,63.279a19.089,19.089,0,0,1-5.761-.734c-1.223-.451-3.615-1.989-6.3-3.462-2.868-1.572-6.056-3.056-8.6-3.3a28.925,28.925,0,0,0-3.046-.11,20.862,20.862,0,0,1,11.491-1.4c4.877,0.984,6.517,3.673,7.817,5.411a4.965,4.965,0,0,0,2.337,1.989,12.754,12.754,0,0,0,2.914.369Zm-20.755-5.5c2.431,0.23,5.469,1.675,8.211,3.178s5.189,3.063,6.438,3.523a16.713,16.713,0,0,0,4.536.756c0.714,0.066,1.358.1,1.8,0.127l0.063,0.5-0.416,3.243c-1.152.665-7.059,3.826-12.906,2.364a0.4,0.4,0,0,1-.242-0.18,0.253,0.253,0,0,1,.039-0.182,1.511,1.511,0,0,1,.2-0.309,11.346,11.346,0,0,1,2.733-2.109c0.94-.481,4.631-1.9,4.921-2.093l0.015-.01-0.536-.844-0.015.009c-0.181.107-3.869,1.475-4.691,1.971a23.669,23.669,0,0,1-3.853,1.608,9.993,9.993,0,0,1-5.211.424,1.34,1.34,0,0,1-.34-0.143,0.149,0.149,0,0,1-.083-0.072,0.264,0.264,0,0,1,.056-0.158,1.592,1.592,0,0,1,.2-0.273A10.247,10.247,0,0,1,48.807,67.4c1.694-.757,5.829-2.487,5.829-2.487l-0.481-.874a60.969,60.969,0,0,0-5.675,2.412A21.442,21.442,0,0,1,45.664,67.5a10.228,10.228,0,0,1-6.1.178l-0.206-.183a1.829,1.829,0,0,1,.336-0.358A14.682,14.682,0,0,1,42.655,65.4c1.613-.609,6.7-2.17,6.7-2.17l-0.411-.91s-5.2,1.473-6.574,2.12a25.672,25.672,0,0,1-3.816,1.14c-2.14.446-4.443,0.57-6.2-.331a0.985,0.985,0,0,1,.1-0.129,3.788,3.788,0,0,1,.828-0.567A32.8,32.8,0,0,1,38.706,62.5c0.962-.256,5.6-1.454,5.73-1.493L44.459,61l-0.279-.96-0.023.007c-0.131.035-4.8,1.217-5.72,1.492a40.706,40.706,0,0,1-8.494,1.426,8.056,8.056,0,0,1-4.581-.85l0-.007a0.108,0.108,0,0,1,.049-0.077,1.714,1.714,0,0,1,.461-0.361c1.508-.9,4.984-1.688,7.22-2.338a39.5,39.5,0,0,1,8.849-1.643c0,0.029,0,.057,0,0A29.571,29.571,0,0,1,45.575,57.782Zm-3.635-.091h0C41.938,57.663,41.938,57.634,41.939,57.691ZM31.7,64.731a5.138,5.138,0,0,0-.807.543,1.37,1.37,0,0,0-.565,1,0.965,0.965,0,0,0,.39.751L30.8,67.084c1.957,1.048,4.549.972,6.956,0.47l0.122-.026a2.15,2.15,0,0,0-.458.6,0.985,0.985,0,0,0-.074.689,1.251,1.251,0,0,0,.889.8,11.033,11.033,0,0,0,6.443-.086,1.523,1.523,0,0,0-.421,1.2,1.38,1.38,0,0,0,1.128.994l0.018,0a10.992,10.992,0,0,0,5.765-.434q0.176-.054.349-0.111v0a1.535,1.535,0,0,0-.393,1.454,1.38,1.38,0,0,0,.818.772l0.075,0.025c4.549,1.155,9.14-.332,11.748-1.484l1.758,0.208,3.337,4.924a3.832,3.832,0,0,1-2.6,3.641c-1.9.872-4.708,1.251-8.264,1.251a2.137,2.137,0,0,1-.473-0.042l-0.042-.012a1.847,1.847,0,0,1,.168-0.284,5.482,5.482,0,0,1,.621-0.656,51.514,51.514,0,0,1,4.42-3.549,12.392,12.392,0,0,0,1.329-.845l-0.559-.828s-0.54.33-1.295,0.827c-3.337,1.885-10.888,5.263-14.188,5.389a8.174,8.174,0,0,1-3-.317,1.416,1.416,0,0,1-.385-0.212,0.329,0.329,0,0,1-.144-0.248,0.858,0.858,0,0,1,.174-0.445,4.164,4.164,0,0,1,.746-0.812,23.636,23.636,0,0,1,4.425-2.806,34.132,34.132,0,0,1,3.419-1.209l0.026-.014-0.457-.889-0.026.013c-0.934.447-2.773,0.868-3.524,1.266-3.181,1.489-8.77,3.752-13.226,3.673a3.814,3.814,0,0,1-1.543-.265,0.491,0.491,0,0,1-.285-0.255,0.532,0.532,0,0,1,.084-0.39,5.659,5.659,0,0,1,2-1.795,19.3,19.3,0,0,1,1.751-.976c3.58-1.11,7.2-2.369,7.2-2.369l-0.36-.93a59.737,59.737,0,0,0-7.212,2.367c-0.887.273-1.833,0.537-2.812,0.769-3.214.76-6.785,1.183-9.761,0.439a1.52,1.52,0,0,1-.4-0.151,0.25,0.25,0,0,1-.1-0.084,0.076,0.076,0,0,1,.014-0.056,0.65,0.65,0,0,1,.064-0.125,2.213,2.213,0,0,1,.412-0.448c1.083-.945,3.516-2.136,7.193-3.342,1.335-.368,2.357-0.684,2.909-0.86a5.477,5.477,0,0,0,.652-0.267l0.134-.484a0.5,0.5,0,0,0-.616-0.355q-1.809.5-3.344,1A74.252,74.252,0,0,1,21.91,73.49c-3.723.47-7.462,0.524-10.046-.515a2.244,2.244,0,0,1-.533-0.281,0.72,0.72,0,0,1-.083-0.082,0.876,0.876,0,0,1,.1-0.123,2.5,2.5,0,0,1,.481-0.327c1.588-.876,5.521-1.936,12.753-3.229q1.807-.294,3.792-0.649h0.007L28.216,67.3H28.209q-2.014.331-3.766,0.645c-7.342,1.2-12.472,1.618-16.108,1.29a10.562,10.562,0,0,1-5.682-1.845A4.378,4.378,0,0,1,3.3,67.15c2.27-.684,7.5-1.25,11.944-1.8a53.042,53.042,0,0,0,8.2-1.838,1.333,1.333,0,0,0,.164.266l0.1,0.1,5.27,1.09A27.249,27.249,0,0,0,31.7,64.731Z"/>
</svg>
