<svg id="squad_ussr_apc_driver_2_icon" xmlns="http://www.w3.org/2000/svg" width="150" height="150" viewBox="0 0 150 150">
  <defs>
    <style>
      .cls-1 {
        fill: #754c29;
      }

      .cls-1, .cls-2, .cls-3, .cls-4, .cls-5 {
        fill-rule: evenodd;
      }

      .cls-2 {
        fill: #b83027;
      }

      .cls-3 {
        fill: #221f1f;
      }

      .cls-4 {
        fill: #fabc40;
      }

      .cls-5 {
        fill: #f7f7f7;
      }
    </style>
  </defs>
  <path class="cls-1" d="M71.156,125.147a88.45,88.45,0,0,0-31.728,5.816c3.494,5.621,7.687,16.477,7.687,16.477,5.451-1.939,24.04-2.714,24.04-2.714h7.687s18.589,0.775,24.04,2.714c0,0,4.193-10.856,7.687-16.477a88.448,88.448,0,0,0-31.727-5.816H71.156Z"/>
  <path class="cls-2" d="M75,1.989L91.244,51.983H143.81l-42.527,30.9,16.244,49.994L75,101.976l-42.527,30.9L48.717,82.88,6.19,51.983H58.756Z"/>
  <path class="cls-3" d="M131.305,76.217v0.015h-7.817l0.652,5.211-0.052.02a27.4,27.4,0,0,1,1.415,9.359c0,6.7-1.742,12.133-3.891,12.133h-0.02a14.428,14.428,0,0,1-3.47,0,2.208,2.208,0,0,1-1.7-1.213c-0.659,1.409-1.457,2.234-2.316,2.234h-0.022a15.254,15.254,0,0,1-3.658,0,1.558,1.558,0,0,1-.894-0.306,1.5,1.5,0,0,1-.782.234h-0.022a15.254,15.254,0,0,1-3.658,0c-2.266,0-4.1-5.728-4.1-12.793,0-.139,0-0.277,0-0.415H98.628l-3.054.126c-0.077,0-.154,0-0.231,0a5.585,5.585,0,0,1-4.277-2H87.661l-3.894,2.6c0,0.187.01,0.369,0.01,0.558,0,8.32-2.357,15.064-5.266,15.064H78.484a21.336,21.336,0,0,1-4.7,0c-1.663,0-3.145-2.205-4.11-5.648-0.71,1.838-1.623,2.943-2.618,2.943H67.039a15.258,15.258,0,0,1-3.659,0,1.433,1.433,0,0,1-.586-0.13,21.586,21.586,0,0,1-3.106-.087c-1.866,0-3.441-3.885-3.939-9.2H38.816c-0.6,6.578-3.087,11.508-6.064,11.508-0.043,0-.087,0-0.13,0a26.523,26.523,0,0,1-5.186,0c-3.2,0-5.8-6.532-5.8-14.589q0-1.161.07-2.275l0.247-2.5c0.05-.365.111-0.717,0.173-1.069H19.391a2.223,2.223,0,0,1-2.216-2.216V76.7a2.223,2.223,0,0,1,2.216-2.216h2.38c0.923-4.835,4.3-7.864,8.671-7.1,0.679,0.119,3.092.565,3.362,2.567l-0.061-2.09a4.557,4.557,0,0,1-.07-0.767c0-.124.026-0.241,0.036-0.363a7.494,7.494,0,0,1-2.593-5.7,7.348,7.348,0,0,1,7.256-7.437,7.208,7.208,0,0,1,6.161,3.522L45.94,56.5a5.124,5.124,0,0,1,1.532-.952,2.683,2.683,0,0,1-.491-1.5V41.575A2.78,2.78,0,0,1,49.753,38.8h5.294a2.773,2.773,0,0,1,2.314,1.256l21.179-2.044,18.674,1.52,0.256,5.5a2.566,2.566,0,0,1,1.064,2.043H98.6v2.079l1.224,0.367,8.252,0.651,1.52,4.126,19.978,4.262a1.646,1.646,0,0,1,1.012-.354h0.579a1.669,1.669,0,0,1,1.664,1.665V74.567A1.664,1.664,0,0,1,131.305,76.217Zm-101.867.21s0.033-.026.092-0.067a9.574,9.574,0,0,0-1.55.012,2.172,2.172,0,0,1,.033.325v0.529c0.62-.037,1.523-0.1,2.45-0.1l0.29-.52A4.418,4.418,0,0,0,29.438,76.427Zm64.586,12.4h-0.23c0.083,0.036.161,0.081,0.247,0.111C94.031,88.9,94.033,88.861,94.024,88.825Z"/>
  <path class="cls-4" d="M130.931,54.187v14.62l-21.552-.516a1.568,1.568,0,0,1,.074.451v1.2a1.6,1.6,0,0,1-1.6,1.6H97.861a1.578,1.578,0,0,1-.781-0.213c-0.487,2.366-.941,3.931-1.071,4.361a0.711,0.711,0,0,1,.089.331,0.735,0.735,0,0,1-.733.733H89.558l2.256,3.5a3.969,3.969,0,0,0,3.529,1.9L101,81.922c0.554-4.8,2.263-8.3,4.288-8.3a20.633,20.633,0,0,1,3.926.012c0.031,0,.061-0.012.092-0.012a1.813,1.813,0,0,1,.619.115,1.493,1.493,0,0,1,.344-0.049,17.463,17.463,0,0,1,3.581.01c0.033,0,.065-0.01.1-0.01a2.735,2.735,0,0,1,2.118,1.677,2.455,2.455,0,0,1,1.9-1.406,16.515,16.515,0,0,1,3.4.01c0.03,0,.06-0.01.09-0.01,2.149,0,3.891,4.946,3.891,11.046s-1.742,11.046-3.891,11.046c-0.018,0-.035-0.005-0.053-0.006a16.165,16.165,0,0,1-3.438.006,2.232,2.232,0,0,1-1.7-1.119c-0.659,1.288-1.456,2.048-2.317,2.048-0.019,0-.037-0.005-0.056-0.006a17.069,17.069,0,0,1-3.623.006,1.549,1.549,0,0,1-.556-0.119,1.766,1.766,0,0,1-.407.054c-0.019,0-.038-0.007-0.057-0.007a20.255,20.255,0,0,1-3.961.007c-2.473,0-4.478-5.215-4.478-11.646,0-.572.021-1.129,0.052-1.678l-5.446.225-0.233.005A5.587,5.587,0,0,1,90.4,81.133L81.437,67.224a0.883,0.883,0,0,0-.266-0.081c-2.28-.217-3.908,3.148-6.08,3.474s-6.623-1.954-8.468-1.3c-1.391.491-3.7,4.739-4.762,6.805h8.045c0.953-2.719,2.267-4.4,3.719-4.4a22.05,22.05,0,0,1,4.615.016c0.036,0,.071-0.016.108-0.016,2.908,0,5.265,6.744,5.265,15.064s-2.357,15.064-5.265,15.064c-0.011,0-.021,0-0.032,0a21.391,21.391,0,0,1-4.691,0c-1.838,0-3.454-2.7-4.4-6.785-0.662,1.43-1.465,2.273-2.332,2.273H66.876a6.57,6.57,0,0,1-1.389.128c-0.945,0-1.853-.128-2.269-0.128a1.43,1.43,0,0,1-.586-0.13,8.025,8.025,0,0,1-.836.04c-0.945,0-1.853-.128-2.27-0.128-1.848,0-3.41-3.812-3.923-9.052H65.97a16.7,16.7,0,0,1-.571,2.689,6.512,6.512,0,0,0,.894,2,1.3,1.3,0,0,0,.985.634,1.488,1.488,0,0,0,1.144-.869A5.11,5.11,0,0,0,68.691,92a40.805,40.805,0,0,1-.331-5.219,41.456,41.456,0,0,1,.25-4.585H67.551V82.138H39.636V82.2H38.552a33.24,33.24,0,0,1,.24,3.993c0,8.057-2.777,14.59-6.2,14.59-0.036,0-.07-0.012-0.106-0.013a26.279,26.279,0,0,1-5.21.013c-3.2,0-5.8-6.532-5.8-14.59A35.577,35.577,0,0,1,21.7,82.2H19.069V76.119h4.016c1.056-2.779,2.54-4.518,4.188-4.518a27.078,27.078,0,0,1,5.125.023c0.064,0,.127-0.023.191-0.023a2.814,2.814,0,0,1,1.057.227,6,6,0,0,0-2.378-2,4.645,4.645,0,0,0-1.995-.409s0.035-.026.091-0.066a12.473,12.473,0,0,0-2.913.174c-2.823.434-5.646,1.629-6.08,0.76s3.691-8.36,10.531-7.166a11.345,11.345,0,0,1,3.434,1.25l0.277-.038c0.508-.069,1.025-0.1,1.538-0.155a4.454,4.454,0,0,1-2.644-4.1,4.344,4.344,0,1,1,8.686,0,4.449,4.449,0,0,1-2.233,3.868c0.248,0,.5-0.025.744-0.025h1.843V59.838a6.431,6.431,0,0,1,6.392-6.455H50.12V41.617l-1.194.229a4.433,4.433,0,0,1,1.085-3.365c1.412-1.846,8.578-1.954,8.578-1.954,26.925-1.846,35.936.217,35.936,0.217,3.5,0.916,3.864,2.595,3.846,3.329h0.063v8.179H109.7a0.9,0.9,0,0,1,.9.9,0.888,0.888,0,0,1-.462.768v1.038ZM121.81,92.644c1.374,0,2.487-3.365,2.487-7.516s-1.113-7.516-2.487-7.516-2.488,3.364-2.488,7.516S120.436,92.644,121.81,92.644Zm-7.486.744c1.448,0,2.622-3.548,2.622-7.924s-1.174-7.924-2.622-7.924-2.622,3.548-2.622,7.924S112.876,93.388,114.324,93.388ZM78.836,97.194c1.859,0,3.366-4.588,3.366-10.249S80.695,76.7,78.836,76.7,75.47,81.284,75.47,86.945,76.977,97.194,78.836,97.194ZM44.229,74.1a1.519,1.519,0,0,0,1.494,1.54H57.557a1.519,1.519,0,0,0,1.494-1.54V68.518a1.48,1.48,0,0,1,0-.578V65.048c-1.065-.078-2.143-0.12-3.209-0.12H44.229V74.1ZM29.567,82.2a23.028,23.028,0,0,0-.367,4.151c0,5.482,1.775,9.926,3.965,9.926s3.964-4.444,3.964-9.926a23.028,23.028,0,0,0-.367-4.151h-7.2ZM42.548,64.928H40.7a44.652,44.652,0,0,0-4.965.3,28.378,28.378,0,0,1,6.808,7.1v-7.4Zm0,9.171v-0.24c-0.714-1.036-2.635-3.55-4.7-3.894a3.289,3.289,0,0,0-2.841.9,34.147,34.147,0,0,1,2.73,5.249h5.53A3.217,3.217,0,0,1,42.548,74.1ZM66.123,41.067L51.748,41.3V53.383h1.666L60,52.269s2.609-.187,6.124-0.273V41.067ZM63.474,52.686a6.669,6.669,0,0,0-5.954,3.741,4.862,4.862,0,0,0-3.368-1.364H48.94a4.749,4.749,0,0,0-4.712,4.774v4.091H55.841c0.853,0,1.711.034,2.566,0.084a6.719,6.719,0,0,0,2.324,1.78v0.264A2.124,2.124,0,0,1,61.194,66a2.226,2.226,0,0,1,0,4.451,2.118,2.118,0,0,1-.462-0.053v3.7a3.217,3.217,0,0,1-.722,2.02h0.5c0.6-1.05,1.6-2.722,2.83-4.516-0.072-.021-0.133-0.052-0.209-0.069l0.071,0a1.353,1.353,0,0,1,.172.022c1.945-2.822,4.463-5.923,6.936-7.344,5.1-2.931,9.011-1.845,11.509.543,1.065,1.019,3.1,4.369,5.079,7.875l1.712,2.657h5.206c0.146-.533.268-1.031,0.4-1.543H90.147l-5.719-8.806L81.713,61.5V57.7c-0.305,0-6.485-.069-11.834-0.128A6.714,6.714,0,0,0,63.474,52.686ZM86.165,39.675l-1.085.835v2.553h6.078a2.668,2.668,0,0,1-.044-0.448,2.623,2.623,0,0,1,.966-2.035Zm10.6,1.623-0.993-.152a2.648,2.648,0,0,1,.441,1.469,2.583,2.583,0,0,1-2.551,2.614A2.537,2.537,0,0,1,91.4,43.793H85.079v7.933l-1.954-.651V40.787l-15.84.261V51.973c4.785-.08,10.8.061,14.429,1.056,0,0,2.437.82,2.663,2.424H96.768V41.3Zm10.206,8.745H98.433v4.393a66.162,66.162,0,0,1-.626,12.712c0.018,0,.036-0.005.054-0.005h8.922l0.191-7.8v-9.3ZM63.148,64.429a4.453,4.453,0,1,1,4.342-4.452A4.4,4.4,0,0,1,63.148,64.429Z"/>
  <path id="_5" data-name="5" class="cls-5" d="M80.163,127.052H70.445v8.3h2.811a3.048,3.048,0,0,1,1.569-.523,1.637,1.637,0,0,1,1.275.491,2.383,2.383,0,0,1,.447,1.623,2.282,2.282,0,0,1-.523,1.623,1.964,1.964,0,0,1-1.5.556,3.258,3.258,0,0,1-2.68-1.438l-2.375,2.157a6.367,6.367,0,0,0,5.251,2.462,7.568,7.568,0,0,0,3.29-.675,5.041,5.041,0,0,0,2.179-1.907,5.284,5.284,0,0,0,.763-2.843,5.743,5.743,0,0,0-.567-2.637,4.047,4.047,0,0,0-1.536-1.689,4.207,4.207,0,0,0-2.19-.577,4.932,4.932,0,0,0-2.07.457v-2.375h5.121Z"/>
</svg>
