<svg xmlns="http://www.w3.org/2000/svg" width="150" height="150" viewBox="0 0 150 150">
  <defs>
    <style>
      .cls-1 {
        fill: #b83027;
      }

      .cls-1, .cls-2, .cls-3, .cls-4, .cls-5 {
        fill-rule: evenodd;
      }

      .cls-2 {
        fill: #fbbd40;
      }

      .cls-3 {
        fill: #754c29;
      }

      .cls-4 {
        fill: #231f20;
      }

      .cls-5 {
        fill: #f7f7f7;
      }
    </style>
  </defs>
  <g id="squad_ussr_mgun_3_icon">
    <path id="Shape_11_copy_3" data-name="Shape 11 copy 3" class="cls-1" d="M124.179,7.034C114.16,28.843,85.009,24.2,52.7,25.7S7.763,49,7.763,49l30.655,68.242s11.861-19.273,42.5-20.756,58.315,2.471,67.7-16.8Z"/>
    <path id="Shape_11_copy_2" data-name="Shape 11 copy 2" class="cls-2" d="M1.376,46.4l43.93,96.567,2.77-5.145L8.1,42.837,3.355,41.649Z"/>
    <path id="Shape_11_copy" data-name="Shape 11 copy" class="cls-3" d="M85.767,106.5a106.852,106.852,0,0,0-38.323,7.024c4.221,6.791,9.285,19.9,9.285,19.9,6.584-2.342,29.038-3.278,29.038-3.278h9.285s22.454,0.936,29.038,3.278c0,0,5.064-13.112,9.285-19.9A106.852,106.852,0,0,0,95.053,106.5H85.767Z"/>
    <path id="Shape_4_copy" data-name="Shape 4 copy" class="cls-4" d="M124.7,80.716a4.292,4.292,0,0,0-1.6.658,1.945,1.945,0,0,1-.846-1.41c0-.846-0.188-3.2-0.188-3.2a25.927,25.927,0,0,0-3.5-2.7c-0.442-.258-1.072-0.622-1.843-1.067l0.059-.015a28.436,28.436,0,0,0-2.655-1.316l1.006-2.819a7.317,7.317,0,0,0,1.081-.068l-0.054-.021a11.936,11.936,0,0,0,2.233-.589,5.1,5.1,0,0,0,1.864-1.407,0.951,0.951,0,0,0,0-.408l0.022-2.66s-1.6-3.948-15.417-6.486c-11.667-2.143-17.437-1.873-18.95-1.738L70.458,46.872l0.378-2.16a2.126,2.126,0,0,1,.188-1.222,5.163,5.163,0,0,0,.47-1.692c-0.282-1.316-2.256-1.786-2.256-1.786l-0.47.658A3.106,3.106,0,0,0,66.7,40.2c-0.846.282-.376,1.88-0.282,2.444a1.281,1.281,0,0,1-.564,1.034l-0.42,1.68a4.725,4.725,0,0,0-1.1.551L53.035,39.775a2.3,2.3,0,0,0-1.176-1.693l-0.977-.531L39,29.279c-1.322-.844-3.265-0.163-4.341,1.522s-0.876,3.735.446,4.579a2.252,2.252,0,0,0,.309.162l-0.012.022,13.287,6.032,0.977,0.531a2.293,2.293,0,0,0,1.868.144l10.9,5.919c-1,2.165-.506,4.6,1.247,5.608a3.269,3.269,0,0,0,.485.224l4.859,2.64a5.126,5.126,0,0,0,.645,2.427,1.447,1.447,0,0,0-.184.182L37.233,98.379A1.442,1.442,0,0,0,36.94,99l-2.389,5.033L35.4,107.7l4.982-.47,0.074-8.175L71.725,61.122a1.452,1.452,0,0,0,.121-0.18c0.116,0.038.233,0.075,0.354,0.1a3.788,3.788,0,0,0,2.42-.274L90.2,103.9l3.134,0.273L78.026,61.554l33.322,18.153a3.152,3.152,0,0,1,.944,2.043c0.188,1.692,0,2.914.47,3.666s2.726,1.692,3.478,1.41c0.658-.247,1.388-1.141,1.875-3,0.557,1.159,1.784,3.753,2.073,4.691,0.376,1.222.846,2.632,1.974,2.82a1.342,1.342,0,0,0,1.5-.564,3.884,3.884,0,0,1,2.162,2.82c0.564,2.256.376,6.675,1.316,7.709s5.546,1.128,5.546,1.128,4.794-14.1,4.888-15.511S125.076,80.81,124.7,80.716Z"/>
    <path id="_909" data-name="909" class="cls-5" d="M77.146,111.443a6.84,6.84,0,0,0-3.04.665,5.21,5.21,0,0,0-2.136,1.852,4.861,4.861,0,0,0-.774,2.713,5.576,5.576,0,0,0,.588,2.626,4.3,4.3,0,0,0,1.569,1.722,4.054,4.054,0,0,0,2.157.6,4.139,4.139,0,0,0,1.624-.283,4.085,4.085,0,0,0,1.275-.894,5.073,5.073,0,0,1-1.166,1.82,5.909,5.909,0,0,1-1.907,1.188,19.213,19.213,0,0,1-3.094.893l0.85,2.964a17.352,17.352,0,0,0,5.677-1.809,7.994,7.994,0,0,0,3.28-3.29,10.8,10.8,0,0,0,1.068-5.034,6.347,6.347,0,0,0-.675-2.975,4.792,4.792,0,0,0-2.027-2.027,6.8,6.8,0,0,0-3.269-.73h0Zm-0.2,7.257q-1.438,0-1.438-2.245a2.327,2.327,0,0,1,.436-1.525,1.427,1.427,0,0,1,1.155-.523,1.4,1.4,0,0,1,.992.316,1.88,1.88,0,0,1,.48,1.024,9.781,9.781,0,0,1,.12,1.972,2.267,2.267,0,0,1-.806.741,2,2,0,0,1-.937.24h0ZM91.2,111.443a5.245,5.245,0,0,0-4.424,2.016,9.306,9.306,0,0,0-1.547,5.764,9.4,9.4,0,0,0,1.547,5.786,5.822,5.822,0,0,0,8.848,0,9.407,9.407,0,0,0,1.547-5.786,9.308,9.308,0,0,0-1.547-5.764,5.245,5.245,0,0,0-4.424-2.016h0Zm0,3.116a1.211,1.211,0,0,1,.959.371,2.71,2.71,0,0,1,.469,1.362,30.292,30.292,0,0,1,0,5.851,2.8,2.8,0,0,1-.469,1.384,1.194,1.194,0,0,1-.959.381,1.155,1.155,0,0,1-.948-0.414,2.928,2.928,0,0,1-.479-1.405,28.943,28.943,0,0,1,0-5.721,2.871,2.871,0,0,1,.479-1.405,1.168,1.168,0,0,1,.948-0.4h0Zm13.708-3.116a6.837,6.837,0,0,0-3.04.665,5.2,5.2,0,0,0-2.136,1.852,4.861,4.861,0,0,0-.774,2.713,5.577,5.577,0,0,0,.588,2.626,4.3,4.3,0,0,0,1.569,1.722,4.054,4.054,0,0,0,2.157.6,4.143,4.143,0,0,0,1.624-.283,4.087,4.087,0,0,0,1.275-.894,5.084,5.084,0,0,1-1.166,1.82,5.917,5.917,0,0,1-1.907,1.188,19.212,19.212,0,0,1-3.095.893l0.85,2.964a17.355,17.355,0,0,0,5.677-1.809,7.992,7.992,0,0,0,3.28-3.29,10.794,10.794,0,0,0,1.068-5.034,6.348,6.348,0,0,0-.676-2.975,4.787,4.787,0,0,0-2.027-2.027,6.8,6.8,0,0,0-3.268-.73h0Zm-0.2,7.257q-1.438,0-1.439-2.245a2.326,2.326,0,0,1,.436-1.525,1.429,1.429,0,0,1,1.155-.523,1.4,1.4,0,0,1,.992.316,1.883,1.883,0,0,1,.479,1.024,9.823,9.823,0,0,1,.12,1.972,2.27,2.27,0,0,1-.806.741,2,2,0,0,1-.937.24h0Z"/>
    <path id="Shape_4_copy-2" data-name="Shape 4 copy" class="cls-2" d="M124.7,74.138a4.292,4.292,0,0,0-1.6.658,1.944,1.944,0,0,1-.846-1.41c0-.846-0.188-3.2-0.188-3.2a25.918,25.918,0,0,0-3.5-2.7c-0.442-.258-1.072-0.622-1.843-1.067l0.059-.015a28.436,28.436,0,0,0-2.655-1.316l1.006-2.819a7.307,7.307,0,0,0,1.081-.068l-0.054-.021a11.944,11.944,0,0,0,2.233-.589,5.1,5.1,0,0,0,1.864-1.407,0.951,0.951,0,0,0,0-.408l0.022-2.66s-1.6-3.948-15.417-6.486C93.2,48.494,87.428,48.764,85.915,48.9L70.458,40.294l0.378-2.16a2.126,2.126,0,0,1,.188-1.222,5.162,5.162,0,0,0,.47-1.692c-0.282-1.316-2.256-1.786-2.256-1.786l-0.47.658a3.106,3.106,0,0,0-2.068-.47c-0.846.282-.376,1.88-0.282,2.444a1.281,1.281,0,0,1-.564,1.034l-0.42,1.68a4.725,4.725,0,0,0-1.1.552L53.035,33.2A2.3,2.3,0,0,0,51.859,31.5l-0.977-.531L39,22.7c-1.322-.844-3.265-0.163-4.341,1.522s-0.876,3.735.446,4.579a2.264,2.264,0,0,0,.309.162l-0.012.022,13.287,6.032,0.977,0.531a2.293,2.293,0,0,0,1.868.144l10.9,5.919c-1,2.165-.506,4.6,1.247,5.608a3.259,3.259,0,0,0,.485.224l4.859,2.64a5.126,5.126,0,0,0,.645,2.427,1.448,1.448,0,0,0-.184.182L37.233,91.8a1.441,1.441,0,0,0-.293.617l-2.389,5.032,0.846,3.666,4.982-.47,0.074-8.175L71.725,54.544a1.445,1.445,0,0,0,.121-0.18,3.674,3.674,0,0,0,.354.1,3.788,3.788,0,0,0,2.42-.274L92.2,102.317l3.134,0.273L78.026,54.976l33.322,18.153a3.152,3.152,0,0,1,.944,2.043c0.188,1.692,0,2.914.47,3.666s2.726,1.692,3.478,1.41c0.658-.247,1.388-1.141,1.875-3,0.557,1.159,1.784,3.753,2.073,4.691,0.376,1.222.846,2.632,1.974,2.82a1.342,1.342,0,0,0,1.5-.564,3.884,3.884,0,0,1,2.162,2.82c0.564,2.256.376,6.674,1.316,7.708s5.546,1.128,5.546,1.128,4.794-14.1,4.888-15.511S125.076,74.232,124.7,74.138Z"/>
  </g>
</svg>
