<svg xmlns="http://www.w3.org/2000/svg" width="150" height="150" viewBox="0 0 150 150">
  <defs>
    <style>
      .cls-1 {
        fill: #bd1c25;
        stroke: #878076;
        stroke-miterlimit: 10;
        stroke-width: 3px;
      }

      .cls-2 {
        fill: #202c59;
      }

      .cls-3 {
        fill: #424535;
      }

      .cls-4 {
        fill: #dbd7c1;
      }

      .cls-5 {
        fill: #faecda;
      }
    </style>
  </defs>
  <g id="Layer_2" data-name="Layer 2">
    <circle class="cls-1" cx="75" cy="81.05233" r="59.99264"/>
    <g>
      <path class="cls-2" d="M95.46039,50.60885S86.2655,40.93,88.32225,37.05848s14.88121.242,20.20457,7.13814c4.22428,5.47237,4.11351,14.51825,4.71843,18.2688s.41082,7.6894,3.28785,7.29708c3.81456-.52017,2.16543-4.18525,1.5605-6.242s-4.00145-9.887-1.9447-11.5808,9.79983,6.29124,9.07391,13.18741-8.227,17.05895-9.31588,18.87373-.26134,3.59909,1.31973,3.274c4.94471-1.01679,5.21349-9.80718,6.7863-12.22689s3.50858-3.14562,4.9604-.48394,1.57281,10.04179-1.57281,13.55037-16.696,9.19489-18.38979,11.37263-1.05671,3.63074,1.28033,3.39286c7.4738-.76075,7.06767-6.17553,12.996-7.50637s5.8073.60493,3.2666,5.44435-11.37263,6.41223-16.696,8.106-13.5122,4.22184-11.00967,6.04928c4.33415,3.165,6.53321-1.08887,9.31588-2.66168s10.52573-4.71844,11.6146-1.20986-9.07391,12.58249-14.39727,13.3084-14.03431-3.75055-20.08358-2.78266-14.27629,5.8073-16.938,8.106-7.50109,4.47646-8.348.48394,4.47646-7.86405,16.09106-11.37263,24.681-8.71095,25.52793-18.14782-1.20985-8.469-2.41971-12.70347-1.81478-7.985.242-8.95292,6.29125,1.20985,6.77519,6.29124.18372,8.96346,1.63554,8.35853,6.76218-3.29439-.54667-14.64977c-5.158-8.01376-6.77519-5.32336-9.1949-11.97756s-1.57281-10.04179.242-10.16278,6.29125,3.75055,8.348,10.04179,2.78267,9.43687,4.23449,8.106.363-7.5011-1.81478-11.73559-7.5011-8.59-9.1949-9.43686A30.55374,30.55374,0,0,1,95.46039,50.60885Z"/>
      <path class="cls-2" d="M54.53961,50.60885S63.7345,40.93,61.67775,37.05848s-14.88121.242-20.20457,7.13814c-4.22428,5.47237-4.11351,14.51825-4.71843,18.2688s-.41082,7.6894-3.28785,7.29708c-3.81456-.52017-2.16543-4.18525-1.5605-6.242s4.00145-9.887,1.9447-11.5808-9.79983,6.29124-9.07391,13.18741,8.227,17.05895,9.31588,18.87373.26134,3.59909-1.31973,3.274c-4.94471-1.01679-5.21349-9.80718-6.7863-12.22689s-3.50858-3.14562-4.9604-.48394-1.57281,10.04179,1.57281,13.55037,16.696,9.19489,18.38979,11.37263,1.05671,3.63074-1.28033,3.39286c-7.4738-.76075-7.06767-6.17553-12.996-7.50637s-5.8073.60493-3.2666,5.44435,11.37263,6.41223,16.696,8.106,13.5122,4.22184,11.00967,6.04928c-4.33415,3.165-6.53321-1.08887-9.31588-2.66168s-10.52573-4.71844-11.6146-1.20986S39.29544,123.68406,44.6188,124.41s14.03431-3.75055,20.08358-2.78266,14.27629,5.8073,16.938,8.106,7.50109,4.47646,8.348.48394-4.47646-7.86405-16.09106-11.37263-24.681-8.71095-25.52793-18.14782,1.20985-8.469,2.41971-12.70347,1.81478-7.985-.242-8.95292-6.29125,1.20985-6.77519,6.29124-.18372,8.96346-1.63554,8.35853-6.76218-3.29439.54667-14.64977c5.158-8.01376,6.77519-5.32336,9.1949-11.97756s1.57281-10.04179-.242-10.16278-6.29125,3.75055-8.348,10.04179-2.78267,9.43687-4.23449,8.106-.363-7.5011,1.81478-11.73559,7.5011-8.59,9.1949-9.43686A30.55374,30.55374,0,0,0,54.53961,50.60885Z"/>
    </g>
    <polygon class="cls-3" points="74.997 39.949 93.106 36.135 93.333 36.135 111.442 39.949 111.442 8.739 93.333 4.925 93.106 4.925 74.997 8.739 74.823 8.739 56.894 4.686 56.667 4.686 38.558 8.501 38.558 39.711 56.667 35.896 56.894 35.896 74.823 39.949 74.997 39.949"/>
    <g>
      <polygon class="cls-4" points="57.812 30.854 57.221 30.854 41.678 34.265 41.678 6.457 57.5 2.985 74.637 7.021 75.177 7.021 92.491 3.222 108.322 6.695 108.322 34.503 92.779 31.092 92.202 31.092 74.924 34.884 57.812 30.854"/>
      <path class="cls-3" d="M57.48718,4.68848,74.06787,8.593l.37573.08838h.9137l.35193-.07715L92.4906,4.92212,106.661,8.03137V32.43665L93.31165,29.50757l-.35193-.07715h-.93824l-.35192.07715L74.9364,33.1792,58.37988,29.2804l-.37573-.08851h-.96387l-.35193.07728L43.339,32.19824V7.79285L57.48718,4.68848m.131-3.3833h-.21753L40.01575,5.11975V36.32983l17.38488-3.81457h.21753l17.21143,4.053H74.997l17.38489-3.81458h.21753l17.38488,3.81458V5.35815L92.59937,1.5437h-.21753L74.997,5.35815h-.16736l-17.21143-4.053Z"/>
    </g>
    <path class="cls-3" d="M74.02509,28.64551V14.13477l-2.46972.75683-.98926-3.29687,4.957-1.51856h2.76855V28.64453Z"/>
  </g>
  <g id="Layer_5" data-name="Layer 5">
    <g>
      <rect x="35.34607" y="87.11997" width="79.23913" height="33.45652" rx="6.95805"/>
      <g>
        <polygon points="105.883 87.925 112.795 90.172 112.795 71.336 111.067 71.336 111.067 64.424 105.624 64.424 105.624 87.882 105.883 87.882 105.883 87.925"/>
        <polygon points="44.586 87.882 44.846 87.882 44.846 64.424 39.402 64.424 39.402 71.336 37.674 71.336 37.674 90.172 44.586 87.925 44.586 87.882"/>
        <path d="M51.30151,54.66039H61.53857L57.249,61.43358a.51834.51834,0,1,0,.87573.55481l4.64111-7.328H87.83373l4.64112,7.328a.51834.51834,0,1,0,.87573-.55481L89.061,54.66039H99.29785V71.16308l5.573,2.549V54.46593a4.34171,4.34171,0,0,0-4.34179-4.34167H50.07031a4.34166,4.34166,0,0,0-4.34156,4.34167V73.712l5.57276-2.3761Z"/>
        <path d="M98.67138,99.97826,112.03,101.74462c3.86426-1.43518,2.31861-7.949,2.31861-7.949-3.6333-4.20678-11.64966-4.51672-16.81739-2.01587A20.8527,20.8527,0,0,0,95,89.99877a5.53689,5.53689,0,1,0-4.31-2.06909c-.89014-.34217-1.82056-.6521-2.7815-.93238l.59448-9.73034A4.20084,4.20084,0,0,1,90.282,76.17443c1.03686-.17273,10.71386.51843,10.71386.51843a10.57191,10.57191,0,0,1,1.38233,4.14722s1.20972-2.9375-1.38233-6.56641c0,0-5.87524-2.93774-24.01977-2.93774l-1.67359.08374-1.67334-.08374c-18.14453,0-24.01977,2.93774-24.01977,2.93774-2.592,3.62891-1.38257,6.56641-1.38257,6.56641a10.57423,10.57423,0,0,1,1.38257-4.14722s9.677-.69116,10.71387-.51843a4.18732,4.18732,0,0,1,1.773,1.08716l.595,9.73584c-.96119.28015-1.89136.59021-2.78174.93249a5.52742,5.52742,0,1,0-4.31006,2.06885,20.8527,20.8527,0,0,0-2.53125,1.781C47.90039,89.27892,39.884,89.58886,36.251,93.79564c0,0-1.54565,6.5138,2.31836,7.949L51.928,99.97826s3.97461-.3313,5.52027,1.21436,1.21435,4.30566,1.21435,4.30566l.66236-.11035s.64672-8.26538-3.98975-12.16577a25.50825,25.50825,0,0,1,7.51587-3.60437l.74121,12.13171,5.335,4.49292H46.86584l-.00623-.00244-.001.00244H42.81249v3.80164h2.53577l-.618,1.55529H41.5166v4.80323H39.18371v-8.2594h-1.728v13.47876l1.728,3.80163H41.5166v7.37036a2.30664,2.30664,0,0,0,2.30664,2.30665h3.50854a2.30664,2.30664,0,0,0,2.30664-2.30665V121.44921H64.41308v1.43994a1.32872,1.32872,0,0,0,1.32471,1.32483H84.86157a1.32872,1.32872,0,0,0,1.3247-1.32483v-1.43994h14.77491v11.34472a2.30664,2.30664,0,0,0,2.30664,2.30665h3.50854a2.30664,2.30664,0,0,0,2.30664-2.30665v-7.37036h2.33277l1.728-3.97436v-13.306h-1.728v8.2594H109.083v-4.80323h-3.21386l-.61792-1.55529h2.53564v-3.80164h-4.04614l-.001-.00244-.0061.00244H81.67187l5.3352-4.49292.74122-12.13171a25.49913,25.49913,0,0,1,7.51586,3.60437c-4.63647,3.90014-3.98974,12.16577-3.98974,12.16577l.66235.11035s-.33105-2.76,1.2146-4.30566C94.69677,99.647,98.67138,99.97826,98.67138,99.97826ZM64.9746,76.5288l.01416-.00879c.69141-1.90088,5.01148-1.728,6.91236-1.55518a4.08673,4.08673,0,0,1,2.70727,1.93653v6.79858a2.76611,2.76611,0,0,0-1.8728,1.64673,45.65683,45.65683,0,0,0-7.761,1.06445Zm0,24.35669V89.03563a42.868,42.868,0,0,1,8.01123-1.15893,2.7706,2.7706,0,0,0,1.62256,1.16919v12.18518h-.43188a1.9008,1.9008,0,0,0-1.90088,1.90076v3.11059H70.33154Zm-15.33618,16.762v-3.09778l7.79688,3.09778Zm51.32276,0h-7.797l7.797-3.09778Zm-6.7959-7.60339-12.17823,4.8385H68.6123l-12.178-4.8385Zm-8.54053-9.15857-5.35718,5.35693H78.32372v-3.11059a1.9008,1.9008,0,0,0-1.90087-1.90076H75.991V89.04589a2.7706,2.7706,0,0,0,1.62256-1.16919,42.862,42.862,0,0,1,8.01123,1.15893Zm0-14.47437a45.64115,45.64115,0,0,0-7.761-1.06445,2.76609,2.76609,0,0,0-1.8728-1.64673v-6.79a4.09431,4.09431,0,0,1,2.71314-1.94507C80.605,74.792,84.925,74.61913,85.61621,76.52l.00854.00525Z"/>
      </g>
      <path d="M112.5852,57.98408a3.16848,3.16848,0,0,0-3.16846-3.16846H102.5852v-9h-54v9H40.75366a3.16848,3.16848,0,0,0-3.16846,3.16846v9.83154h1v51h73v-51h1Z"/>
      <rect class="cls-5" x="42.81258" y="110.06049" width="64.97433" height="3.80169"/>
      <g>
        <polygon class="cls-5" points="113.144 113.862 111.416 117.837 111.416 100.556 113.144 100.556 113.144 113.862"/>
        <polygon class="cls-5" points="39.184 117.837 37.456 114.035 37.456 100.556 39.184 100.556 39.184 117.837"/>
      </g>
      <polygon class="cls-5" points="111.514 63.879 111.514 56.967 107.478 56.967 107.478 80.425 107.67 80.425 107.67 80.469 112.795 82.715 112.795 63.879 111.514 63.879"/>
      <polygon class="cls-5" points="38.716 63.749 38.716 56.837 42.751 56.837 42.751 80.295 42.559 80.295 42.559 80.338 37.435 82.585 37.435 63.749 38.716 63.749"/>
      <path class="cls-5" d="M105.8692,104.0124,103.73981,98.653,81.98712,107.2956H68.61237L46.85968,98.653l-2.12939,5.35938H41.51654V125.207a2.30664,2.30664,0,0,0,2.30664,2.30664h3.50855a2.30664,2.30664,0,0,0,2.30664-2.30664V106.96272l14.77478,5.87011v2.46936a1.32872,1.32872,0,0,0,1.32471,1.32483H84.86164a1.32872,1.32872,0,0,0,1.3247-1.32483v-2.46936l14.77478-5.87011V125.207a2.30664,2.30664,0,0,0,2.30664,2.30664h3.50855A2.30664,2.30664,0,0,0,109.083,125.207V104.0124Z"/>
      <g>
        <path class="cls-5" d="M51.30159,47.07343H61.53853L57.249,53.84663a.51834.51834,0,1,0,.87573.55481l4.64111-7.328H87.83369l4.64112,7.328a.51834.51834,0,1,0,.87573-.55481L89.061,47.07343H99.29793V63.57612l5.57287,2.54895V46.879a4.3417,4.3417,0,0,0-4.34167-4.34168H50.07027A4.34167,4.34167,0,0,0,45.72871,46.879V66.12507l5.57288-2.3761Z"/>
        <path class="cls-5" d="M114.34859,86.20869c-3.63331-4.20679-11.64966-4.51673-16.81739-2.01587A20.85164,20.85164,0,0,0,95,82.41181a5.53687,5.53687,0,1,0-4.31006-2.06909c-.89013-.34216-1.82055-.6521-2.78149-.93237L88.50288,69.68a4.20088,4.20088,0,0,1,1.77906-1.09253c1.03686-.17273,10.71386.51843,10.71386.51843a10.57191,10.57191,0,0,1,1.38233,4.14722s1.20971-2.9375-1.38233-6.56641c0,0-5.87524-2.93774-24.01977-2.93774l-1.67359.08374L73.6291,63.749c-18.14453,0-24.01977,2.93774-24.01977,2.93774-2.592,3.62891-1.38257,6.56641-1.38257,6.56641a10.57423,10.57423,0,0,1,1.38257-4.14722s9.677-.69116,10.71387-.51843a4.18723,4.18723,0,0,1,1.77294,1.08716l.595,9.73584c-.96118.28015-1.89135.59021-2.78173.93249a5.52742,5.52742,0,1,0-4.31006,2.06885,20.85164,20.85164,0,0,0-2.53125,1.781C47.90034,81.692,39.884,82.0019,36.25093,86.20869c0,0-1.54565,6.51379,2.31836,7.949L51.92793,92.3913s3.97461-.33129,5.52027,1.21436,1.21435,4.30566,1.21435,4.30566l.66235-.11035s.64673-8.26538-3.98974-12.16577A25.50838,25.50838,0,0,1,62.851,82.03083l.74121,12.13171,5.335,4.49292H42.81245v3.80164h64.97437V98.65546h-26.115l5.3352-4.49292.74121-12.13171a25.49957,25.49957,0,0,1,7.51587,3.60437C90.62764,89.53535,91.27437,97.801,91.27437,97.801l.66235.11035s-.331-2.76,1.2146-4.30566c1.54541-1.54565,5.52-1.21436,5.52-1.21436L112.03,94.15766C115.89424,92.72248,114.34859,86.20869,114.34859,86.20869ZM74.60835,93.64411h-.43188a1.9008,1.9008,0,0,0-1.90088,1.90076v3.11059H70.3315l-5.35694-5.35693V81.44868a42.86713,42.86713,0,0,1,8.01123-1.15894,2.77055,2.77055,0,0,0,1.62256,1.16919Zm0-17.53113a2.76611,2.76611,0,0,0-1.8728,1.64673,45.65667,45.65667,0,0,0-7.761,1.06446V68.94184l.01416-.00879c.69141-1.90088,5.01148-1.728,6.91236-1.55517a4.08668,4.08668,0,0,1,2.70727,1.93652ZM85.62471,93.29853l-5.35706,5.35693h-1.944V95.54487a1.9008,1.9008,0,0,0-1.90088-1.90076h-.43188V81.45893a2.77055,2.77055,0,0,0,1.62256-1.16919,42.86118,42.86118,0,0,1,8.01123,1.15894Zm0-14.47436a45.64114,45.64114,0,0,0-7.761-1.06446,2.76611,2.76611,0,0,0-1.8728-1.64673v-6.79a4.0943,4.0943,0,0,1,2.71313-1.94506c1.90088-.17285,6.221-.34571,6.91211,1.55517l.00855.00525Z"/>
      </g>
    </g>
  </g>
</svg>
