<?xml version="1.0" encoding="UTF-8"?>
<svg id="Layer_2" data-name="Layer 2" xmlns="http://www.w3.org/2000/svg" width="150" height="150" viewBox="0 0 150 150">
  <defs>
    <style>
      .cls-1 {
        fill: #faecda;
      }

      .cls-1, .cls-2, .cls-3, .cls-4, .cls-5 {
        stroke-width: 0px;
      }

      .cls-3 {
        fill: #424535;
      }

      .cls-4 {
        fill: #dbd7c1;
      }

      .cls-6 {
        fill: #bd1c25;
        stroke: #878076;
        stroke-miterlimit: 10;
        stroke-width: 3px;
      }

      .cls-5 {
        fill: #202c59;
      }
    </style>
  </defs>
  <circle class="cls-6" cx="75" cy="81.05233" r="59.99264"/>
  <g>
    <path class="cls-5" d="m95.46039,50.60885s-9.19489-9.67884-7.13814-13.55037,14.88121.24197,20.20457,7.13814c4.22428,5.47237,4.11351,14.51825,4.71843,18.2688.60493,3.75055.41082,7.6894,3.28784,7.29708,3.81456-.52017,2.16543-4.18526,1.5605-6.24201-.60493-2.05675-4.00145-9.88701-1.9447-11.5808s9.79982,6.29124,9.07391,13.18741-8.22701,17.05895-9.31588,18.87373c-1.08887,1.81478-.26134,3.59909,1.31972,3.27397,4.94472-1.01679,5.21349-9.80719,6.7863-12.22689s3.50858-3.14562,4.9604-.48394,1.57281,10.04179-1.57281,13.55037c-3.14562,3.50858-16.69599,9.19489-18.38979,11.37263s-1.05671,3.63074,1.28033,3.39286c7.4738-.76074,7.06767-6.17552,12.99596-7.50636,5.92829-1.33084,5.8073.60493,3.26661,5.44435-2.54069,4.83942-11.37263,6.41223-16.69599,8.10603-5.32336,1.6938-13.5122,4.22183-11.00968,6.04927,4.33415,3.16496,6.53321-1.08887,9.31588-2.66168,2.78267-1.57281,10.52573-4.71843,11.6146-1.20985,1.08887,3.50858-9.07391,12.58249-14.39727,13.3084s-14.03431-3.75055-20.08358-2.78267-14.27628,5.8073-16.93796,8.10603c-2.66168,2.29872-7.5011,4.47646-8.348.48394-.8469-3.99252,4.47646-7.86405,16.09106-11.37263,11.6146-3.50858,24.68103-8.71095,25.52793-18.14782.8469-9.43686-1.20985-8.46898-2.41971-12.70347s-1.81478-7.98504.24197-8.95292c2.05675-.96788,6.29124,1.20985,6.77519,6.29124.48394,5.08139.18372,8.96346,1.63554,8.35853s6.76218-3.29439-.54668-14.64977c-5.15803-8.01376-6.77519-5.32336-9.19489-11.97756-2.41971-6.6542-1.57281-10.04179.24197-10.16278,1.81478-.12099,6.29124,3.75055,8.348,10.04179,2.05675,6.29124,2.78267,9.43686,4.23449,8.10603,1.45183-1.33084.36296-7.5011-1.81478-11.73559-2.17774-4.23449-7.5011-8.58997-9.19489-9.43686s-4.47646-3.26661-4.47646-3.26661Z"/>
    <path class="cls-5" d="m54.53961,50.60885s9.19489-9.67884,7.13814-13.55037-14.88121.24197-20.20457,7.13814c-4.22428,5.47237-4.11351,14.51825-4.71843,18.2688-.60493,3.75055-.41082,7.6894-3.28784,7.29708-3.81456-.52017-2.16543-4.18526-1.5605-6.24201.60493-2.05675,4.00145-9.88701,1.9447-11.5808-2.05675-1.6938-9.79982,6.29124-9.07391,13.18741s8.22701,17.05895,9.31588,18.87373c1.08887,1.81478.26134,3.59909-1.31972,3.27397-4.94472-1.01679-5.21349-9.80719-6.7863-12.22689-1.57281-2.41971-3.50858-3.14562-4.9604-.48394s-1.57281,10.04179,1.57281,13.55037c3.14562,3.50858,16.69599,9.19489,18.38979,11.37263,1.6938,2.17774,1.05671,3.63074-1.28033,3.39286-7.4738-.76074-7.06767-6.17552-12.99596-7.50636-5.92829-1.33084-5.8073.60493-3.26661,5.44435,2.54069,4.83942,11.37263,6.41223,16.69599,8.10603s13.5122,4.22183,11.00968,6.04927c-4.33415,3.16496-6.53321-1.08887-9.31588-2.66168-2.78267-1.57281-10.52573-4.71843-11.6146-1.20985s9.07391,12.58249,14.39727,13.3084,14.03431-3.75055,20.08358-2.78267,14.27628,5.8073,16.93796,8.10603c2.66168,2.29872,7.5011,4.47646,8.348.48394.8469-3.99252-4.47646-7.86405-16.09106-11.37263s-24.68103-8.71095-25.52793-18.14782c-.8469-9.43686,1.20985-8.46898,2.41971-12.70347s1.81478-7.98504-.24197-8.95292c-2.05675-.96788-6.29124,1.20985-6.77519,6.29124-.48394,5.08139-.18372,8.96346-1.63554,8.35853s-6.76218-3.29439.54668-14.64977c5.15803-8.01376,6.77519-5.32336,9.19489-11.97756,2.41971-6.6542,1.57281-10.04179-.24197-10.16278-1.81478-.12099-6.29124,3.75055-8.348,10.04179-2.05675,6.29124-2.78267,9.43686-4.23449,8.10603-1.45183-1.33084-.36296-7.5011,1.81478-11.73559,2.17774-4.23449,7.5011-8.58997,9.19489-9.43686s4.47646-3.26661,4.47646-3.26661Z"/>
  </g>
  <polygon class="cls-3" points="74.99684 39.94934 93.106 36.13478 93.33258 36.13478 111.44173 39.94934 111.44173 8.7393 93.33258 4.92474 93.106 4.92474 74.99684 8.7393 74.82254 8.7393 56.894 4.68633 56.66742 4.68633 38.55827 8.50089 38.55827 39.71093 56.66742 35.89637 56.894 35.89637 74.82254 39.94934 74.99684 39.94934"/>
  <g>
    <polygon class="cls-4" points="57.81152 30.85352 57.2207 30.85352 41.67773 34.26465 41.67773 6.45703 57.5 2.98535 74.63672 7.02051 75.17676 7.02051 92.49121 3.22168 108.32227 6.69531 108.32227 34.50293 92.7793 31.0918 92.20215 31.0918 74.92383 34.88379 57.81152 30.85352"/>
    <path class="cls-3" d="m57.48718,4.68848l16.58069,3.90454.37573.08838h.9137l.35193-.07715,16.78137-3.68213,14.17041,3.10925v24.40527l-13.34937-2.92908-.35193-.07715h-.93823l-.35193.07715-16.73315,3.67163-16.55652-3.8988-.37573-.0885h-.96387l-.35193.07727-13.34937,2.92908V7.79285l14.14819-3.10437m.13098-3.3833h-.21753l-17.38489,3.81458v31.21008l17.38489-3.81458h.21753l17.21143,4.05298h.16736l17.38489-3.81458h.21753l17.38489,3.81458V5.35815l-17.38489-3.81445h-.21753l-17.38489,3.81445h-.16736L57.61816,1.30518h0Z"/>
  </g>
  <g>
    <path class="cls-3" d="m69.09277,10.07617c1.37109,0,2.81152.27051,4.08008.5459v3.01465c-1.50293-.23633-2.88965-.35742-4.02637-.37109h-1.28516c-1.33887,0-2.37988.93262-2.38086,2.44434v1.45996c.69629-.12988,1.45801-.27832,2.375-.27832h1.52539c2.54102,0,4.52344,1.63281,4.52344,4.72754v2.42773c0,2.91699-2.30273,4.76172-4.95215,4.76172h-2.45508c-3.15625,0-5.11523-1.85059-5.11523-5.6377v-7.25586c0-3.66309,2.70898-5.83887,6.26074-5.83887h1.4502Zm-2.0625,9.98828c-.66992,0-1.25781.19727-1.63379.54004v3.29102c0,1.03125.69238,1.74023,1.70703,1.74023h1.1416c.89062,0,1.62695-.70898,1.62695-1.74023v-2.09082c0-1.02148-.73633-1.74023-1.62695-1.74023h-1.21484Z"/>
    <path class="cls-3" d="m83.45703,21.81445l1.07812-5.28809h2.70117v5.28809h2.32129v3.17285h-2.32129v3.64062h-3.7793v-3.64062h-7.68945v-2.01074l5.09082-12.90039h3.66504l-4.64648,11.73828h3.58008Z"/>
  </g>
  <path class="cls-2" d="m143.16333,126.36816l-21.71155-12.6969s-2.42053-1.51685-4.93005-1.68237c-2.50964-.16553-5.52441-1.19812-6.79688-2.77502-1.13647-1.4082-3.50269-4.94604-3.99683-5.68835.69336-.23914,1.38672-.89392,1.81567-1.81311.66968-1.43542.44067-2.95923-.51172-3.40369-.11792-.05505-.2417-.09033-.36877-.10828l-46.19507-22.49365c.43347-.33423.82983-.81543,1.11072-1.41724.66968-1.4353.44067-2.95923-.51172-3.40356-.95239-.44446-2.26746.35889-2.93726,1.79443-.27087.58069-.3877,1.17236-.37622,1.70459l-35.62854-17.34839.98962-1.76245c.22485-.40039.08252-.90735-.31787-1.1322l-2.03503-1.1427c-.40051-.22485-.90735-.08252-1.1322.31787l-1.10437,1.96655-9.16418-4.4624c-.07666-.05542-.15283-.11145-.24048-.15234-.06787-.03162-.13953-.0459-.20972-.06689l-.01501-.0072-.0011.0022c-.91394-.26135-2.00269.34753-2.52734,1.47192-.51001,1.0929-.30676,2.28455.42798,2.83972l-.00281.00562.05078.02478c.07092.04944.13965.10193.21973.13928.06189.02881.12744.04102.19141.06091l6.00562,2.92432c-.61902.22241-1.15613.67444-1.46692,1.3125l-.18115.37231c-.63184,1.29761-.09216,2.86169,1.20544,3.49353l12.04602,5.86548-1.30908,2.33118c-.23193.41296-.08508.93567.32788,1.1676l1.98975,1.11731c.41296.23181.93567.08508,1.16748-.32776l1.42383-2.5354,9.00659,4.3855c1.29761.63184,2.86169.09229,3.49353-1.20532l.18127-.37231c.02466-.05078.03601-.104.05713-.15552l1.58716.77271-.49121.91675c-.69116,1.28979-.203,2.89575,1.08899,3.58276l6.70959,3.56836c-1.84985,1.48315-5.46045,2.94702-12.51172,2.78735-.39636-.00891-.77563.16284-1.02795.46875l-1.49597,1.81433c-.35217.427-.3927,1.03113-.10071,1.50134l2.7948,4.50073c.22144.35669.60229.58398,1.02136.60742,2.58838.14478,14.13562.00952,20.40601-6.84778l27.52502,14.63879-1.12915,1.62842s-1.37573,1.75122.7002,3.78821,6.15869,3.04309,7.37842,2.48376c.74036-.3396,1.94641-1.70386,2.78162-2.72522l1.83191.97424s2.27148,1.72034,2.75671,3.7688c.48535,2.04834.54773,2.86682.48645,3.50269-.0614.63574.52112,1.79871,2.09668,2.30981,1.57544.51099,3.67358,1.03711,5.04102,2.05811,0,0,1.31079.99768,1.66101,1.27283s17.77258,18.62207,17.77258,18.62207c0,0,.97437,1.98376,3.2644,1.06848l11.31079-8.92896s3.15845-3.2041.50342-5.2793Zm-51.48206-18.44141c-2.29407-.854-3.68164-1.50305-4.3208-2.68921-.23694-.43945.60754-1.54639,1.32178-2.36304l6.09607,3.24194c-.62402.90015-1.82886,2.28247-3.09705,1.8103Z"/>
  <path class="cls-1" d="m143.16333,120.36816l-21.71155-12.6969s-2.42053-1.51685-4.93005-1.68237c-2.50964-.16553-5.52441-1.19812-6.79688-2.77502-1.13647-1.4082-3.50269-4.94604-3.99683-5.68835.69336-.23914,1.38672-.89392,1.81567-1.81311.66968-1.43542.44067-2.95923-.51172-3.40369-.11792-.05505-.2417-.09033-.36877-.10828l-46.19507-22.49365c.43347-.33423.82983-.81543,1.11072-1.41724.66968-1.4353.44067-2.95923-.51172-3.40356-.95239-.44446-2.26746.35889-2.93726,1.79443-.27087.58069-.3877,1.17236-.37622,1.70459l-35.62854-17.34839.98962-1.76245c.22485-.40039.08252-.90735-.31787-1.1322l-2.03503-1.1427c-.40051-.22485-.90735-.08252-1.1322.31787l-1.10437,1.96655-9.16418-4.4624c-.07666-.05542-.15283-.11145-.24048-.15234-.06787-.03162-.13953-.0459-.20972-.06689l-.01501-.0072-.0011.0022c-.91394-.26135-2.00269.34753-2.52734,1.47192-.51001,1.0929-.30676,2.28455.42798,2.83972l-.00281.00562.05078.02478c.07092.04944.13965.10193.21973.13928.06189.02881.12744.04102.19141.06091l6.00562,2.92432c-.61902.22241-1.15613.67444-1.46692,1.3125l-.18115.37231c-.63184,1.29761-.09216,2.86169,1.20544,3.49353l12.04602,5.86548-1.30908,2.33118c-.23193.41296-.08508.93567.32788,1.1676l1.98975,1.11731c.41296.23181.93567.08508,1.16748-.32776l1.42383-2.5354,9.00659,4.3855c1.29761.63184,2.86169.09229,3.49353-1.20532l.18127-.37231c.02466-.05078.03601-.104.05713-.15552l1.58716.77271-.49121.91675c-.69116,1.28979-.203,2.89575,1.08899,3.58276l6.70959,3.56836c-1.84985,1.48315-5.46045,2.94702-12.51172,2.78735-.39636-.00891-.77563.16284-1.02795.46875l-1.49597,1.81433c-.35217.427-.3927,1.03113-.10071,1.50134l2.7948,4.50073c.22144.35669.60229.58398,1.02136.60742,2.58838.14478,14.13562.00952,20.40601-6.84778l27.52502,14.63879-1.12915,1.62842s-1.37573,1.75122.7002,3.78821,6.15869,3.04309,7.37842,2.48376c.74036-.3396,1.94641-1.70386,2.78162-2.72522l1.83191.97424s2.27148,1.72034,2.75671,3.7688c.48535,2.04834.54773,2.86682.48645,3.50269-.0614.63574.52112,1.79871,2.09668,2.30981,1.57544.51099,3.67358,1.03711,5.04102,2.05811,0,0,1.31079.99768,1.66101,1.27283s17.77258,18.62207,17.77258,18.62207c0,0,.97437,1.98376,3.2644,1.06848l11.31079-8.92896s3.15845-3.2041.50342-5.2793Zm-51.48206-18.44141c-2.29407-.854-3.68164-1.50305-4.3208-2.68921-.23694-.43945.60754-1.54639,1.32178-2.36304l6.09607,3.24194c-.62402.90015-1.82886,2.28247-3.09705,1.8103Z"/>
</svg>