<svg xmlns="http://www.w3.org/2000/svg" xmlns:xlink="http://www.w3.org/1999/xlink" width="150" height="150" viewBox="0 0 150 150">
  <defs>
    <style>
      .cls-1 {
        fill: url(#linear-gradient);
      }

      .cls-2 {
        fill: #fff;
      }

      .cls-3 {
        fill: #153c65;
      }
    </style>
    <linearGradient id="linear-gradient" x1="75" y1="171.66865" x2="75" y2="-14.63673" gradientUnits="userSpaceOnUse">
      <stop offset="0" stop-color="#fff"/>
      <stop offset="0.046" stop-color="#fff"/>
      <stop offset="0.163" stop-color="#2c9af2"/>
      <stop offset="0.26578" stop-color="#2b96ed"/>
      <stop offset="0.38161" stop-color="#298be0"/>
      <stop offset="0.50382" stop-color="#2479c9"/>
      <stop offset="0.6304" stop-color="#1e5faa"/>
      <stop offset="0.75908" stop-color="#173e81"/>
      <stop offset="0.84321" stop-color="#112563"/>
    </linearGradient>
  </defs>
  <g id="Layer_3" data-name="Layer 3">
    <g>
      <polygon class="cls-1" points="22.321 110.507 22.321 27.054 43.312 4.355 106.688 4.355 127.679 27.054 127.679 110.507 75 145.181 22.321 110.507"/>
      <path class="cls-2" d="M105.658,6.70919l19.66675,21.2667v81.26173L75,142.3622,24.67527,109.23762V27.97589L44.342,6.70919h61.316M107.71723,2H42.28277L40.88464,3.51186l-19.6668,21.2667-1.25176,1.35365v85.64352l2.12,1.39548,50.32474,33.12457L75,148l2.58913-1.70422,50.32474-33.12457,2.12-1.39548V26.13221l-1.25176-1.35365-19.6668-21.2667L107.71723,2Z"/>
      <polygon class="cls-2" points="79.56 123.748 79.56 120.613 70.44 120.613 70.44 123.748 72.863 123.748 72.863 132.202 70.44 132.202 70.44 135.337 79.56 135.337 79.56 132.202 77.137 132.202 77.137 123.748 79.56 123.748"/>
      <polygon class="cls-2" points="75 61.489 41.432 30.292 108.568 30.292 75 61.489"/>
      <g>
        <path class="cls-3" d="M64.638,48.70817V34.57388h8.82389a1.69084,1.69084,0,0,1,1.77674,1.75675v3.251a1.72145,1.72145,0,0,1-1.81724,1.6959v.38382a1.72528,1.72528,0,0,1,1.81724,1.71607v3.574a1.69084,1.69084,0,0,1-1.77674,1.75675ZM70.81669,38.1277H69.05994v1.57492h1.75675Zm-1.75675,7.04681h1.75675V43.23628H69.05994Z"/>
        <path class="cls-3" d="M81.07329,44.30639v4.40178H76.65135V34.57388h8.82389A1.69084,1.69084,0,0,1,87.252,36.33063v6.19885a1.70694,1.70694,0,0,1-1.77674,1.77691Zm0-3.53366H82.83v-2.645H81.07329Z"/>
      </g>
      <g>
        <path class="cls-2" d="M54.57885,21.46483v.896h6.48528v4.10344H49.41421v-5.4712a2.72789,2.72789,0,0,1,1.3914-2.80629l5.11752-3.20725v-.87271h-5.6835l-.82542-2.09876V9.95628h9.59828a1.96882,1.96882,0,0,1,2.05164,2.0518v3.77324c0,1.32063-.18866,2.12241-1.3914,2.80629Z"/>
        <path class="cls-2" d="M64.52983,26.46429a1.96879,1.96879,0,0,1-2.05164-2.05164V12.00808a1.96892,1.96892,0,0,1,2.05164-2.0518h7.523a1.988,1.988,0,0,1,2.07529,2.0518V24.41265a1.97485,1.97485,0,0,1-2.07529,2.05164Zm3.08936-12.35745v8.254h1.34428v-8.254Z"/>
        <path class="cls-2" d="M80.70649,21.46483v.896h6.48528v4.10344H75.54185v-5.4712a2.72789,2.72789,0,0,1,1.3914-2.80629l5.11752-3.20725v-.87271h-5.6835l-.82542-2.09876V9.95628h9.59828a1.96883,1.96883,0,0,1,2.05164,2.0518v3.77324c0,1.32063-.18866,2.12241-1.3914,2.80629Z"/>
        <path class="cls-2" d="M95.61,9.95628v2.0518l-2.21682,6.34374v.87254h2.02816V16.22941h5.16448V26.46429H95.42131V23.35145H88.1341V18.3047l2.90069-8.34842Z"/>
      </g>
      <g>
        <g>
          <path d="M41.10134,113.43413,37.664,117.81292l2.23135,1.4687,2.57017-3.274,6.85188-6.11909a10.90307,10.90307,0,0,1,4.13089,2.04073c1.666,1.52787,4.33943,10.59992,4.33943,10.59992a3.6161,3.6161,0,0,0,2.73271,2.38467,8.49524,8.49524,0,0,0,4.17692-2.09123c2.48062-1.97926,3.32924-3.7598,1.82529-5.09151s-1.92752-1.18941-2.65307-3.05892c-.72547-1.86951-1.52142-4.69884-1.52142-4.69884l.11011-.49553,6.10427-5.45136a3.90349,3.90349,0,0,0,.311-5.50532l-3.02907-3.39189,19.2851-17.22231,4.84808-1.66115C106.3591,93.98565,121.185,97.984,121.185,97.984l.9707-.63083,2.74284-5.51761-.3893-.83239C111.45052,86.02651,98.82013,73.469,98.82013,73.469l-7.01558-7.85593,6.19646-5.5337a1.06114,1.06114,0,0,0,.20889-1.32729l12.37233-11.04893,1.3738-2.24953,19.432-17.35355-2.26687-2.53837L123.46334,30.366l-3.39689-.9-1.798,1.60569,1.16275,2.89505-9.74207,8.94841-2.39006,1.11168L94.82791,55.1641a1.057,1.057,0,0,0-1.022.21774L63.214,82.70165l-2.907.14415-2.057,1.837.29163,2.19142L42.78247,100.94772a1.60873,1.60873,0,0,0-.12832,2.27147l.27681.31-1.61931,1.44615a4.223,4.223,0,0,0-1.28343,4.17608Zm19.826-12.419c1.6148,3.325,3.98545,3.28514,3.98545,3.28514l.3-.8973A5.509,5.509,0,0,1,62.552,99.56428l2.90146-2.59117L67.7399,99.5335a2.38191,2.38191,0,0,1-.1897,3.35944l-5.36058,4.78719a2.63892,2.63892,0,0,1-1.45655-.74864,7.43628,7.43628,0,0,1-2.09343-3.87335Z"/>
          <path class="cls-2" d="M41.10134,108.8982l-5.785,7.36943,2.2314,1.46879,4.91782-6.26483,6.85188-6.119a10.90437,10.90437,0,0,1,4.13089,2.04072c1.666,1.52787,4.33943,10.59992,4.33943,10.59992a3.6161,3.6161,0,0,0,2.73271,2.38467,8.49524,8.49524,0,0,0,4.17692-2.09123c2.48062-1.97926,3.32924-3.75988,1.82529-5.09151-1.5039-1.33171-1.92752-1.18941-2.65307-3.05892-.72547-1.86951-1.52142-4.69884-1.52142-4.69884l.11011-.49543,6.10427-5.45137a3.9036,3.9036,0,0,0,.311-5.50541l-3.02907-3.39189L85.12954,73.371l4.84808-1.66114C106.3591,89.44971,121.185,93.448,121.185,93.448l.9707-.63084,2.74284-5.51761-.3893-.83238c-13.0587-4.97672-25.68909-17.53415-25.68909-17.53415l-7.01558-7.85593,6.19646-5.5337a1.06114,1.06114,0,0,0,.20889-1.32729L110.58223,43.1672l1.3738-2.24961,19.432-17.35347-2.26687-2.53837L123.46334,25.83l-3.39689-.9-1.798,1.60561,1.16275,2.89513-9.74207,8.94841-2.39006,1.11168L94.82791,50.62817a1.057,1.057,0,0,0-1.022.21773L63.214,78.16571l-2.907.14416-2.057,1.837.29163,2.19142L42.78247,96.41179a1.60872,1.60872,0,0,0-.12832,2.27146l.27681.31-1.61931,1.44615a4.2229,4.2229,0,0,0-1.28343,4.17608Zm19.826-12.419c1.6148,3.325,3.98545,3.28515,3.98545,3.28515l.3-.89731A5.5088,5.5088,0,0,1,62.552,95.02834l2.90146-2.59117,2.28645,2.56039a2.38191,2.38191,0,0,1-.1897,3.35944l-5.36058,4.78719a2.639,2.639,0,0,1-1.45655-.74863,7.43632,7.43632,0,0,1-2.09343-3.87336Z"/>
          <g>
            <rect x="40.62039" y="80.9207" width="56.85828" height="1.58429" rx="0.79214" transform="translate(-36.88066 66.75887) rotate(-41.76605)"/>
            <rect x="82.66795" y="57.24701" width="9.85778" height="1.40825" rx="0.70413" transform="translate(-16.33979 73.07452) rotate(-41.76605)"/>
            <rect x="96.85624" y="48.27224" width="5.80905" height="1.40825" rx="0.70413" transform="translate(-7.27057 78.89604) rotate(-41.76605)"/>
            <rect x="103.42109" y="42.40958" width="5.80905" height="1.40825" rx="0.70413" transform="translate(-1.69719 81.77895) rotate(-41.76605)"/>
            <circle cx="44.65425" cy="105.26881" r="1.40825"/>
            <polygon points="85.952 67.209 88.766 70.36 82.041 70.229 85.952 67.209"/>
            <polygon points="52.895 103.662 60.937 96.48 61.337 98.483 54.23 104.831 52.895 103.662"/>
          </g>
        </g>
        <g>
          <path d="M39.41782,47.70314,51.7901,58.75207a1.06124,1.06124,0,0,0,.20889,1.32729l6.19651,5.5337L51.17983,73.469s-12.63035,12.55752-25.689,17.53414l-.38931.83239,2.74284,5.51761.97066.63083s14.82584-3.99831,31.20736-21.73817l4.84813,1.66115,19.285,17.22231-3.02907,3.39189a3.90345,3.90345,0,0,0,.311,5.50532l6.10431,5.45136.11011.49553s-.796,2.82933-1.5215,4.69884-1.14909,1.72721-2.653,3.05892-.65529,3.11225,1.82529,5.09151a8.495,8.495,0,0,0,4.17692,2.09123,3.6161,3.6161,0,0,0,2.73271-2.38467s2.67346-9.072,4.33947-10.59992a10.90278,10.90278,0,0,1,4.1308-2.04073l6.852,6.11909,2.54332,3.23986,2.23131-1.4687-3.41046-4.34465,1.07311-4.28273a4.22286,4.22286,0,0,0-1.28347-4.17608l-1.61936-1.44615.27691-.31a1.60875,1.60875,0,0,0-.12837-2.27147L91.4584,86.87419,91.75,84.68277l-2.057-1.837-2.90689-.14415L56.194,55.38184a1.05683,1.05683,0,0,0-1.02191-.21774L42.70089,44.02683l-2.39-1.11168-9.74206-8.94841,1.1627-2.89505-1.798-1.60569-3.39684.9-5.65779-4.80426L18.612,28.10006,38.044,45.45361ZM87.44805,99.56428a5.50886,5.50886,0,0,1-2.66086,3.83868l.30007.8973s2.37061.03989,3.98541-3.28514l2.28774,2.043a7.43691,7.43691,0,0,1-2.09344,3.87335,2.639,2.639,0,0,1-1.45659.74864l-5.36054-4.78719a2.38193,2.38193,0,0,1-.18979-3.35944l2.2865-2.56039Z"/>
          <path class="cls-2" d="M39.41782,43.1672,51.7901,54.21613a1.06124,1.06124,0,0,0,.20889,1.32729l6.19651,5.5337-7.01567,7.85593S38.54948,81.49048,25.49083,86.4672l-.38931.83238,2.74284,5.51761.97066.63084s14.82584-3.99832,31.20736-21.73817L64.87051,73.371l19.285,17.22231L81.12649,93.9852a3.90356,3.90356,0,0,0,.311,5.50541l6.10431,5.45137.11011.49543s-.796,2.82933-1.5215,4.69884-1.14909,1.72721-2.653,3.05892c-1.50395,1.33163-.65529,3.11225,1.82529,5.09151a8.495,8.495,0,0,0,4.17692,2.09123,3.6161,3.6161,0,0,0,2.73271-2.38467s2.67346-9.07205,4.33947-10.59992a10.90408,10.90408,0,0,1,4.1308-2.04072l6.852,6.119,4.891,6.2306,2.23136-1.4687-5.75816-7.33529,1.07311-4.28274a4.22281,4.22281,0,0,0-1.28347-4.17608L107.069,98.99323l.27691-.31a1.60873,1.60873,0,0,0-.12837-2.27146L91.4584,82.33825,91.75,80.14683l-2.057-1.837-2.90689-.14416L56.194,50.8459a1.05683,1.05683,0,0,0-1.02191-.21773L42.70089,39.49089l-2.39-1.11168L30.56881,29.4308l1.1627-2.89513-1.798-1.60561-3.39684.9-5.65779-4.80426L18.612,23.56412,38.044,40.91759ZM87.44805,95.02834A5.50869,5.50869,0,0,1,84.78719,98.867l.30007.89731s2.37061.03988,3.98541-3.28515l2.28774,2.043a7.437,7.437,0,0,1-2.09344,3.87336,2.639,2.639,0,0,1-1.45659.74863L82.44984,98.357a2.38193,2.38193,0,0,1-.18979-3.35944l2.2865-2.56039Z"/>
          <g>
            <rect x="52.52133" y="80.9207" width="56.85828" height="1.58429" rx="0.79214" transform="translate(86.90089 196.58043) rotate(-138.23395)"/>
            <rect x="57.47426" y="57.24701" width="9.85778" height="1.40825" rx="0.70413" transform="translate(70.34712 142.74134) rotate(-138.23395)"/>
            <rect x="47.33471" y="48.27224" width="5.80905" height="1.40825" rx="0.70413" transform="translate(55.0885 118.97029) rotate(-138.23395)"/>
            <rect x="40.76986" y="42.40958" width="5.80905" height="1.40825" rx="0.70413" transform="translate(47.53219 104.36206) rotate(-138.23395)"/>
            <circle cx="105.34574" cy="105.26881" r="1.40825"/>
            <polygon points="64.048 67.209 61.234 70.36 67.959 70.229 64.048 67.209"/>
            <polygon points="97.105 103.662 89.063 96.48 88.663 98.483 95.77 104.831 97.105 103.662"/>
          </g>
        </g>
      </g>
    </g>
  </g>
</svg>
