<?xml version="1.0" encoding="UTF-8"?>
<svg id="guns_sights" data-name="guns sights" xmlns="http://www.w3.org/2000/svg" width="128" height="128" viewBox="0 0 128 128">
  <defs>
    <style>
      .cls-1 {
        fill: #e3b246;
      }

      .cls-1, .cls-2 {
        fill-rule: evenodd;
        stroke-width: 0px;
      }

      .cls-2 {
        fill: #523909;
      }
    </style>
  </defs>
  <path id="Rectangle_2_copy_9" data-name="Rectangle 2 copy 9" class="cls-1" d="m114.61,61.14c-.9-16.33-9.67-31.21-23.51-39.92l7.07-7.75,5.25,8.94c4.82.23,10.34,4.05,13.93,10.17s4.24,12.8,2.1,17.12l5.32,9.06-10.17,2.39ZM64.19,13.45c-8.11,0-16.09,1.94-23.28,5.69l-3.15-10.19h10.36c2.64-4.04,8.74-6.87,15.83-6.87s13.18,2.83,15.83,6.87h10.5l-3.1,10.03c-7.11-3.64-14.99-5.54-22.98-5.53ZM13.75,61.38l-10.53-2.44,5.23-8.95c-2.15-4.32-1.53-11,2.04-17.13s9.08-9.96,13.9-10.21l5.29-9.07,7.24,7.88c-13.72,8.79-22.34,23.66-23.17,39.93Zm.02,5.39c.91,16.26,9.6,31.08,23.35,39.8l-7.25,7.95-5.31-9.03c-4.83-.21-10.38-4.04-13.98-10.17s-4.25-12.84-2.08-17.16l-5.24-8.91,10.51-2.47Zm50.42,47.68c7.98,0,15.85-1.89,22.96-5.53l3.13,10.1h-10.48c-2.63,4.06-8.74,6.9-15.85,6.9s-13.22-2.84-15.85-6.9h-10.34l3.17-10.26c7.18,3.74,15.16,5.69,23.26,5.68h0Zm-.18-8.06c-23.43,0-42.42-18.99-42.42-42.42s18.99-42.42,42.42-42.42,42.42,18.99,42.42,42.42h0c0,23.43-18.99,42.42-42.42,42.42h0,0Zm50.61-39.71l10.16,2.36-5.28,9.05c2.18,4.32,1.56,11.02-2.03,17.17s-9.12,9.99-13.95,10.22l-5.21,8.93-7.14-7.78c13.82-8.73,22.56-23.62,23.43-39.95Z"/>
  <polygon class="cls-2" points="72.12 55.07 64.09 32.05 55.88 55.01 31.51 55.54 50.8 70.45 43.78 93.8 63.91 80.05 83.94 93.95 77.09 70.55 96.49 55.78 72.12 55.07"/>
</svg>