<svg id="Layer_1" data-name="Layer 1" xmlns="http://www.w3.org/2000/svg" width="150" height="150" viewBox="0 0 150 150">
  <defs>
    <style>
      .cls-1 {
        fill: #bd1c25;
        stroke: #878076;
        stroke-miterlimit: 10;
        stroke-width: 3px;
      }

      .cls-2 {
        fill: #202c59;
      }

      .cls-3 {
        fill: #424535;
      }

      .cls-4 {
        fill: #dbd7c1;
      }

      .cls-5 {
        fill: #faecda;
      }
    </style>
  </defs>
  <g id="Layer_2" data-name="Layer 2">
    <circle class="cls-1" cx="75" cy="81.05233" r="59.99264"/>
    <g>
      <path class="cls-2" d="M95.46039,50.60885S86.2655,40.93,88.32225,37.05848s14.88121.242,20.20457,7.13814c4.22429,5.47237,4.11352,14.51825,4.71843,18.2688s.41082,7.6894,3.28785,7.29708c3.81456-.52017,2.16543-4.18524,1.56051-6.242s-4.00145-9.887-1.94471-11.5808,9.79983,6.29125,9.07391,13.18741-8.227,17.059-9.31588,18.87373-.26134,3.59909,1.31973,3.274c4.94471-1.01679,5.2135-9.80718,6.7863-12.22689s3.50859-3.14562,4.9604-.48394,1.57281,10.04179-1.57281,13.55037-16.696,9.19489-18.38979,11.37263-1.05671,3.63073,1.28032,3.39286c7.4738-.76075,7.06768-6.17553,12.996-7.50637s5.8073.60492,3.2666,5.44435-11.37263,6.41223-16.696,8.106-13.5122,4.22184-11.00967,6.04928c4.33415,3.165,6.53321-1.08887,9.31588-2.66168s10.52574-4.71844,11.6146-1.20986-9.07391,12.58248-14.39727,13.3084-14.03431-3.75055-20.08358-2.78266-14.27629,5.80729-16.938,8.106-7.50109,4.47646-8.348.48393,4.47646-7.86405,16.09106-11.37262,24.681-8.711,25.52793-18.14782-1.20985-8.469-2.41971-12.70347-1.81478-7.985.242-8.95292,6.29125,1.20985,6.77519,6.29124.18372,8.96346,1.63554,8.35853,6.76218-3.29439-.54667-14.64978c-5.158-8.01375-6.77519-5.32335-9.1949-11.97756s-1.5728-10.04179.242-10.16278,6.29125,3.75055,8.348,10.04179,2.78267,9.43687,4.23449,8.106.363-7.5011-1.81478-11.73559-7.5011-8.59-9.1949-9.43686A30.55345,30.55345,0,0,1,95.46039,50.60885Z"/>
      <path class="cls-2" d="M54.53961,50.60885S63.7345,40.93,61.67775,37.05848s-14.88121.242-20.20457,7.13814c-4.22428,5.47237-4.11351,14.51825-4.71843,18.2688s-.41082,7.6894-3.28785,7.29708c-3.81456-.52017-2.16543-4.18524-1.5605-6.242s4.00145-9.887,1.9447-11.5808S24.05127,58.231,24.77719,65.12711s8.227,17.059,9.31588,18.87373.26134,3.59909-1.31973,3.274c-4.94471-1.01679-5.21349-9.80718-6.7863-12.22689s-3.50858-3.14562-4.9604-.48394S19.45383,84.6058,22.59945,88.11438s16.696,9.19489,18.38979,11.37263,1.05671,3.63073-1.28033,3.39286c-7.4738-.76075-7.06767-6.17553-12.996-7.50637s-5.8073.60492-3.2666,5.44435,11.37263,6.41223,16.696,8.106,13.5122,4.22184,11.00967,6.04928c-4.33415,3.165-6.53321-1.08887-9.31588-2.66168s-10.52573-4.71844-11.6146-1.20986S39.29544,123.68406,44.6188,124.41s14.03431-3.75055,20.08358-2.78266,14.27629,5.8073,16.938,8.106,7.50109,4.47645,8.348.48393-4.47646-7.86405-16.09106-11.37263-24.681-8.71095-25.52793-18.14782,1.20985-8.469,2.41971-12.70347,1.81478-7.985-.242-8.95291-6.29125,1.20984-6.77519,6.29123-.18372,8.96347-1.63554,8.35853-6.76218-3.29439.54667-14.64977c5.158-8.01376,6.77519-5.32336,9.1949-11.97756s1.57281-10.04179-.242-10.16278-6.29125,3.75054-8.348,10.04179-2.78267,9.43687-4.23449,8.106-.363-7.5011,1.81478-11.73559,7.5011-8.59,9.1949-9.43686A30.55325,30.55325,0,0,0,54.53961,50.60885Z"/>
    </g>
    <polygon class="cls-3" points="74.997 39.949 93.106 36.135 93.333 36.135 111.442 39.949 111.442 8.739 93.333 4.925 93.106 4.925 74.997 8.739 74.823 8.739 56.894 4.686 56.667 4.686 38.558 8.501 38.558 39.711 56.667 35.896 56.894 35.896 74.823 39.949 74.997 39.949"/>
    <g>
      <polygon class="cls-4" points="57.812 30.854 57.221 30.854 41.678 34.265 41.678 6.457 57.5 2.985 74.637 7.021 75.177 7.021 92.491 3.222 108.322 6.695 108.322 34.503 92.779 31.092 92.202 31.092 74.924 34.884 57.812 30.854"/>
      <path class="cls-3" d="M57.48718,4.68848,74.06787,8.593l.37573.08838h.9137l.35193-.07715L92.4906,4.92212,106.661,8.03125V32.43677l-13.34935-2.9292-.35193-.07715h-.93824l-.35192.07715L74.93628,33.1792l-16.5564-3.89868-.37573-.08838h-.96387l-.35193.07715L43.339,32.19824V7.793L57.48718,4.68848m.131-3.3833h-.21753L40.01575,5.11987v31.21l17.38488-3.81445h.21753l17.21143,4.053H74.997l17.38489-3.8147h.21753l17.38488,3.8147V5.35815L92.59937,1.5437h-.21753L74.997,5.35815h-.16736l-17.21143-4.053Z"/>
    </g>
    <g>
      <path class="cls-3" d="M62.43164,28.64453l6.06641-15.37891h-7.2168V10.07617H74.18262L66.87109,28.64453Z"/>
      <path class="cls-3" d="M82.51074,10.05664a4.81378,4.81378,0,0,1,4.99566,4.62475l.00141.04125v1.05273A3.37466,3.37466,0,0,1,85.65918,18.794a3.61115,3.61115,0,0,1,2.11133,3.27539v2.08007a4.82433,4.82433,0,0,1-4.95706,4.68785l-.041-.00132H80.21a4.84433,4.84433,0,0,1-5.0131-4.66947l-.00057-.01706V22.06934a3.7347,3.7347,0,0,1,2.12793-3.28614,3.30723,3.30723,0,0,1-1.84473-3.00781V14.72266a4.85065,4.85065,0,0,1,5.01367-4.666ZM80.93457,20.374a1.63636,1.63636,0,0,0-1.706,1.56358q-.00251.05753-.001.11513V23.998a1.63558,1.63558,0,0,0,1.59125,1.67873q.05788.00156.11575-.001h1.11426a1.63614,1.63614,0,0,0,1.706-1.56315q.00251-.05726.001-.11458v-1.9453a1.63692,1.63692,0,0,0-1.593-1.67966q-.057-.00151-.114.001Zm.11523-7.14355a1.63558,1.63558,0,0,0-1.706,1.562q-.00257.05784-.001.11574v.86719a1.63258,1.63258,0,0,0,1.60108,1.66352q.053.001.10592-.00141h.957a1.6206,1.6206,0,0,0,1.65543-1.585q.00084-.03855-.00016-.07711V14.9082a1.63613,1.63613,0,0,0-1.59242-1.67872q-.05729-.00152-.11458.001Z"/>
    </g>
    <g>
      <path d="M112.753,128.91971l-.30529-1.37383-4.65578-6.18228a2.75438,2.75438,0,0,1,.53427-1.45016c.45794-.45793,9.99848-14.12,9.99848-14.12a3.201,3.201,0,0,0-.30529-3.96885c-1.75547-1.90811-5.26638-.07633-5.26638-.07633L97.6408,110.144,82.07066,92.43674,81.689,90.376l26.0266-39.00169s2.90032-4.27416,0-8.09037-7.09816-1.9081-8.92994-.99221-6.9455,5.419-6.9455,5.419L63.44755,72.59244l-6.4494-6.4494a2.42861,2.42861,0,0,0-3.43459,0L49.40389,70.3027l62.6622,58.54068Z"/>
      <circle cx="98.25139" cy="51.52696" r="5.07312"/>
      <path d="M112.753,129.225l-1.52648.15265L104.251,124.9045a2.75438,2.75438,0,0,0-1.45016.53427c-.458.45794-14.12,9.99847-14.12,9.99847a3.201,3.201,0,0,1-3.96886-.3053c-1.90811-1.75544-.07633-5.26637-.07633-5.26637l8.39567-15.11219L75.32416,99.18324l-2.06076-.38162L34.26173,124.82817s-4.27416,2.90032-8.09037,0-1.9081-7.09815-.99221-8.92993,5.419-6.9455,5.419-6.9455L55.47986,80.56013l-6.44939-6.4494a2.4286,2.4286,0,0,1,0-3.43457l0,0,4.15967-4.15967,58.87594,61.71633Z"/>
      <circle cx="34.41438" cy="115.36397" r="5.07312"/>
      <path d="M49.48023,69.15786l-1.03038-1.03038a2.96831,2.96831,0,0,1-.00007-4.19782l0,0h0a1.45717,1.45717,0,0,1,2.06075,0l2.09894,2.099h0l-3.12928,3.12929Z"/>
      <rect x="49.24124" y="72.60666" width="14.13998" height="1.72702" transform="translate(-35.45808 61.33697) rotate(-45)"/>
      <polygon points="89.207 40.727 94.664 46.871 95.733 45.803 89.703 40.231 89.207 40.727"/>
      <path d="M52.60951,64.45119s5.3427-5.74976,7.73419-7.12359a18.55949,18.55949,0,0,1-2.9512,4.88475l-4.07063,3.15473S52.25333,65.418,52.60951,64.45119Z"/>
      <path d="M47.8598,69.2009s-5.7498,5.3427-7.12359,7.73419a18.55943,18.55943,0,0,0,4.88474-2.9512l3.15474-4.07064S48.82657,68.84472,47.8598,69.2009Z"/>
      <path d="M81.053,97.32149a2.31091,2.31091,0,0,0,.7378-2.41694,6.48369,6.48369,0,0,0-1.27207-2.34061L68.30686,80.5556l-3.71445-1.32295L63.473,80.35207,80.44241,97.47413Z"/>
      <path d="M80.95124,97.42325a2.31092,2.31092,0,0,1-2.41694.7378A6.48372,6.48372,0,0,1,76.19369,96.889L64.18535,84.67711,62.8624,80.96266l1.11942-1.11942L81.10389,96.81266Z"/>
      <rect x="71.63551" y="91.39348" width="7.41179" height="1.04341" transform="translate(-42.92687 80.19576) rotate(-45)"/>
      <rect x="67.43768" y="87.19565" width="7.41179" height="1.04341" transform="translate(-41.18807 75.99792) rotate(-45)"/>
      <rect x="63.29073" y="83.04871" width="7.41179" height="1.04341" transform="translate(-39.47035 71.85097) rotate(-45)"/>
    </g>
    <g>
      <g>
        <path class="cls-5" d="M51.74,70.55927l7.96777-7.96777-2.7096-2.7095a2.42893,2.42893,0,0,0-3.43457,0l-.37353.37353-3.78613,3.78613-.37354.37355a2.42874,2.42874,0,0,0,0,3.43457Z"/>
        <path class="cls-5" d="M118.32459,99.53266a3.20126,3.20126,0,0,0-.30518-3.969c-1.75549-1.908-5.26635-.07617-5.26635-.07617L97.64075,103.883,82.07068,86.176l-.38159-2.06079L107.71558,45.1135s2.90026-4.27417,0-8.09033c-2.90027-3.81641-7.09814-1.9082-8.92994-.99219-1.83178.91577-6.94542,5.419-6.94542,5.419L63.44764,66.33149,60.929,63.81269l-7.96777,7.96777,2.51867,2.5188L30.59815,102.69184s-4.50305,5.11377-5.41907,6.94556c-.91577,1.83178-2.824,6.02954.99231,8.92993,3.81616,2.90015,8.09033,0,8.09033,0L73.26343,92.54072l2.06067.38159,17.70727,15.57007-8.39575,15.1123s-1.83167,3.511.07641,5.26635a3.20091,3.20091,0,0,0,3.96887.30542s13.662-9.54052,14.12-9.99852a2.75322,2.75322,0,0,1,1.45019-.53418l6.97535,4.47313,1.52661-.15283-.229-.33057.229.02539-.30542-1.374-4.65576-6.18212a2.75532,2.75532,0,0,1,.5343-1.45021C108.78406,113.19453,118.32459,99.53266,118.32459,99.53266Z"/>
      </g>
      <path class="cls-5" d="M49.48022,62.897l-1.03038-1.03038a2.96831,2.96831,0,0,1-.00006-4.19783l0,0h0a1.45717,1.45717,0,0,1,2.06075,0l2.099,2.09895h0L49.48022,62.897Z"/>
      <polygon class="cls-5" points="89.207 34.466 94.664 40.61 95.733 39.542 89.703 33.97 89.207 34.466"/>
      <path class="cls-5" d="M52.60951,58.19032s5.3427-5.74976,7.73419-7.12359a18.55949,18.55949,0,0,1-2.9512,4.88475l-4.07063,3.15473S52.25333,59.15709,52.60951,58.19032Z"/>
      <path class="cls-5" d="M47.8598,62.94S42.11,68.2827,40.73621,70.67419A18.55941,18.55941,0,0,0,45.621,67.723l3.15474-4.07063S48.82657,62.58385,47.8598,62.94Z"/>
      <path d="M81.053,91.06062a2.3109,2.3109,0,0,0,.7378-2.41694,6.48357,6.48357,0,0,0-1.27207-2.3406L68.30686,74.29473l-3.71445-1.323L63.473,74.0912,80.44241,91.21327Z"/>
      <path d="M80.95124,91.16238a2.31092,2.31092,0,0,1-2.41694.7378,6.48387,6.48387,0,0,1-2.3406-1.27207L64.18535,78.41624,62.8624,74.70179l1.11942-1.11942L81.10389,90.55179Z"/>
      <rect class="cls-5" x="71.63551" y="85.13261" width="7.41179" height="1.04341" transform="translate(-38.49976 78.36199) rotate(-45)"/>
      <rect class="cls-5" x="67.43768" y="80.93478" width="7.41179" height="1.04341" transform="translate(-36.76096 74.16416) rotate(-45)"/>
      <rect class="cls-5" x="63.29073" y="76.78783" width="7.41179" height="1.04341" transform="translate(-35.04324 70.01721) rotate(-45)"/>
    </g>
    <polygon points="109.304 121.913 98.348 111.152 104.022 121.717 109.304 121.913"/>
    <polygon points="74.609 94.391 57.391 78.739 67.565 98.304 74.609 94.391"/>
  </g>
</svg>
