<?xml version="1.0" encoding="utf-8"?>
<!-- Generator: Adobe Illustrator 27.7.0, SVG Export Plug-In . SVG Version: 6.00 Build 0)  -->
<svg version="1.1" id="Layer_1" xmlns="http://www.w3.org/2000/svg" xmlns:xlink="http://www.w3.org/1999/xlink" x="0px" y="0px"
	 width="40px" height="34px" viewBox="0 0 40 34" style="enable-background:new 0 0 40 34;" xml:space="preserve">
<g>
	<g style="opacity:0.15;">
		<path d="M28.3,28.3l5.8-9.2c2.1-3.3,3.2-6.1,3.2-8.3c0.1-2.2-0.8-4.3-2.5-5.7c-2-1.5-4.4-2.2-6.9-2.1c-1.7,0-3.4,0.5-4.8,1.4
			c-1.4,0.8-2.5,2-3.2,3.5l3.4,2.8c1.2-2.2,2.8-3.2,4.8-3.2c2.6,0,3.9,1.1,3.9,3.3c0,1.9-0.9,4.2-2.7,6.9l-9,13.7v1.5l18.7,0v-4.6
			H28.3z"/>
		<polygon points="17.2,16.6 17.2,16.5 12.4,16.5 9.2,22.1 6.1,16.5 1.3,16.5 1.3,16.6 6.6,24.6 1,32.9 1,33 5.8,33 9.2,27.5 
			12.7,33 17.5,33 17.5,32.9 11.9,24.6 		"/>
	</g>
	<path id="Path_4095" style="fill:#718E52;" d="M9.2,1L1.7,11.4h3.8l3.8-2.5l3.8,2.5h3.8L9.2,1z"/>
	<g>
		<linearGradient id="SVGID_1_" gradientUnits="userSpaceOnUse" x1="9.2471" y1="8.074" x2="9.2471" y2="32.3267">
			<stop  offset="0" style="stop-color:#FAFAFA"/>
			<stop  offset="1" style="stop-color:#97AFB4"/>
		</linearGradient>
		<polygon style="fill:url(#SVGID_1_);" points="17.2,14.4 12.4,14.4 9.2,20 6.1,14.4 1.3,14.4 1.3,14.5 6.6,22.5 1,30.8 1,30.9 
			5.8,30.9 9.2,25.4 12.7,30.9 17.5,30.9 17.5,30.8 11.9,22.5 		"/>
		
			<linearGradient id="SVGID_00000176742762489592566070000008473967364806132629_" gradientUnits="userSpaceOnUse" x1="29.4916" y1="8.074" x2="29.4916" y2="32.3267">
			<stop  offset="0" style="stop-color:#FAFAFA"/>
			<stop  offset="1" style="stop-color:#97AFB4"/>
		</linearGradient>
		<path style="fill:url(#SVGID_00000176742762489592566070000008473967364806132629_);" d="M28.3,26.3l5.8-9.2
			c2.1-3.3,3.2-6.1,3.2-8.3c0.1-2.2-0.8-4.3-2.5-5.7c-2-1.5-4.4-2.2-6.9-2.1c-1.7,0-3.4,0.5-4.8,1.4c-1.4,0.8-2.5,2-3.2,3.5l3.4,2.8
			c1.2-2.2,2.8-3.2,4.8-3.2c2.6,0,3.9,1.1,3.9,3.3c0,1.9-0.9,4.2-2.7,6.9l-9,13.7v1.5l18.7,0v-4.6H28.3z"/>
	</g>
</g>
</svg>
