<?xml version="1.0" encoding="UTF-8"?>
<svg id="Layer_7" data-name="Layer 7" xmlns="http://www.w3.org/2000/svg" width="150" height="150" viewBox="0 0 150 150">
  <defs>
    <style>
      .cls-1 {
        fill: #bc0a29;
      }

      .cls-1, .cls-2, .cls-3, .cls-4, .cls-5, .cls-6, .cls-7, .cls-8, .cls-9, .cls-10, .cls-11, .cls-12 {
        fill-rule: evenodd;
        stroke-width: 0px;
      }

      .cls-2 {
        fill: #1a1a1a;
      }

      .cls-3 {
        fill: #865537;
      }

      .cls-4 {
        fill: #44980f;
      }

      .cls-5 {
        fill: #cab898;
      }

      .cls-6 {
        fill: #f3f3f3;
      }

      .cls-7 {
        fill: #2d721c;
      }

      .cls-8 {
        fill: #4ca702;
      }

      .cls-9 {
        fill: #8b7755;
      }

      .cls-10 {
        fill: #275c3b;
      }

      .cls-11 {
        fill: #21239c;
      }

      .cls-12 {
        fill: #5d370f;
      }
    </style>
  </defs>
  <g id="squad_usa_assault_4_icon">
    <path class="cls-6" d="m22.39,4.33l105.17-.5c1.14,0,2.23.45,3.04,1.28.8.82,1.25,1.93,1.25,3.09v110.82c0,9.9-7.83,17.91-17.47,17.91h-24.64c-6.17,0-11.45,2.39-13.31,7.7-.19.55-.41.92-.61,1.14-.28.3-.58.4-.86.39-.22,0-.45-.08-.67-.27-.24-.21-.52-.62-.75-1.29-1.87-5.3-7.14-7.67-13.3-7.67h-24.64c-9.65,0-17.47-8.01-17.47-17.91V8.7c0-2.41,1.91-4.35,4.25-4.37Z"/>
    <path class="cls-11" d="m28.08,4.44c14.55,16.12,46.86,51.9,46.86,51.9L123.42,4.07l4.62-.02c.95,0,1.86.38,2.53,1.06s1.05,1.62,1.05,2.59v16.46l-46.72,50.37v62.89c-4.29,1.02-7.68,3.51-9.13,7.65-.49,1.41-1.03,1.39-1.54-.04-1.45-4.12-4.84-6.6-9.12-7.61v-62.62L18.33,22.99v-14.87c0-2.01,1.58-3.64,3.54-3.65l6.21-.03Z"/>
    <path class="cls-2" d="m74.99,144.85c.08-.14.21-.37.3-.61,2.03-5.8,7.72-8.52,14.46-8.52h24.64c8.98,0,16.26-7.48,16.26-16.7V8.2c0-.84-.33-1.65-.9-2.24-.58-.59-1.35-.92-2.17-.91l-105.17.5c-1.69,0-3.04,1.42-3.04,3.15v110.32c0,9.22,7.28,16.7,16.26,16.7h24.64c6.72,0,12.4,2.7,14.44,8.48.09.25.17.45.26.6,0,.02.02.03.03.05ZM22.38,2.55l105.17-.5c1.62,0,3.18.64,4.32,1.81,1.12,1.15,1.76,2.71,1.76,4.34v110.82c0,10.9-8.64,19.7-19.26,19.7h-24.64c-5.35,0-10.01,1.9-11.62,6.51-.8,2.29-2.36,2.74-3.2,2.72-.8-.02-2.28-.55-3.05-2.75-1.62-4.59-6.28-6.48-11.61-6.48h-24.64c-10.62,0-19.26-8.8-19.26-19.7V8.7c0-3.4,2.71-6.14,6.03-6.15Z"/>
    <path class="cls-5" d="m35.14,124.4s2.46-.37,4.43-.08c.96.14-.37-.74-.45-1.56-.08-.82-.22-15.65-.14-19.26.08-3.61.08-10.42.08-10.42l-2.16.16s.02,13.03.02,15.18-.26,13.82-.57,14.53c-.32.71-1.21,1.45-1.21,1.45Z"/>
    <path class="cls-9" d="m36.38,122.85l.28.84s.66.21,1.02.05c.37-.16.32-3.03.37-4.98.05-1.71-.31-20.97-.39-25.59l1.4-.1s0,6.81-.08,10.42c-.08,3.61.05,18.44.14,19.26.08.82,1.41,1.7.45,1.56-1.97-.29-4.43.08-4.43.08,0,0,.89-.74,1.21-1.45,0-.02.02-.06.03-.1Z"/>
    <path class="cls-7" d="m25.1,75.89c.23-.02.45-.03.69-.03-.25-.02-.49-.01-.69.03Zm14.39,8.23c.14-.18.3-.35.47-.51.07-.07.16-.14.25-.22-.34-.29-.76-.54-.98-.66-.05-.03-.26-.13-.43-.17-.04,0-.08-.01-.11-.01,0,0-.02,0-.03,0v.67s.08,1.63.08,1.63l.42-.36c.09-.13.2-.26.33-.37Zm-.42-4.97c-.18.29-.32.62-.44.95.62.58,1.37,1.44,1.73,1.87.15.01.29.01.41-.01,0,0,.01,0,.02,0,.01-.04.02-.07.03-.09.15-.41.18-.9.02-1.31-.03-.08-.07-.16-.11-.23-.08.11-.15.22-.22.33-.05.08-.15.11-.24.07s-.13-.14-.1-.23c.06-.17.13-.36.22-.54-.17-.13-.36-.24-.56-.34-.08.08-.17.17-.25.26-.06.07-.17.08-.25.02-.08-.06-.1-.16-.05-.24.05-.08.1-.16.15-.24-.14-.08-.27-.16-.39-.26Zm-1.51-7.88c.08.21.17.44.28.64.16-.02.34-.02.43-.03.06-.01.12-.03.17-.05-.13-.13-.28-.25-.43-.36-.07.05-.16.05-.23,0-.07-.06-.14-.12-.22-.18Zm-15.41,7.22c-.06.03-.13.06-.19.1-.71.39-1.28,1.04-1.81,1.68-.04.04-.1.05-.15.02-.05-.03-.06-.1-.03-.15.48-.74,1.01-1.49,1.7-1.99.31-.22.64-.39,1.02-.5.04-.05.07-.09.09-.11.55-.53,1.05-.86,1.42-1.07-.31.09-.6.26-.87.52-.04.04-.11.04-.15,0-.04-.04-.05-.1-.01-.15.43-.53.94-.78,1.5-.9.03,0,.07-.01.1-.02,0,0-.02-.02-.02-.03-.03-.05-.01-.11.04-.14.26-.17.66-.27,1.1-.3,0-.05.03-.1.08-.11.24-.07.5-.09.76-.07.55.04,1.12.22,1.64.26,0,0,0,0,.01,0,.17.03.29.18.3.34.83-.14,2.21-.17,2.63-.61.42-.44-.37-1.43-.05-1.96.11-.18.21-.38.34-.55,0,0,.06-.07.12-.13,0-.2.01-.39.05-.59.06-.28.03-.55-.02-.82-.08.1-.15.2-.23.31,0,0,0,.01-.01.02-.07.17-.13.34-.19.46-.18.39-.38.77-.61,1.13-.23.36-.47.7-.74,1.03-.04.04-.1.05-.15.02-.05-.03-.06-.1-.03-.15.22-.35.41-.72.58-1.09.03-.07.07-.15.1-.22.08-.39.23-.78.41-1.17.06-.23.13-.5.22-.73.08-.19.19-.36.31-.47,0,0,0,0,0,0,.04-.04.09-.06.14-.07,0-.06,0-.12,0-.17-.11.09-.22.18-.33.28-.41.39-.74.85-.88,1.23-.03.09-.13.14-.22.11-.06-.02-.11-.07-.13-.13-.1.11-.19.22-.29.33-.04.04-.1.05-.15.01-.04-.04-.05-.1-.02-.15.19-.28.37-.56.54-.85.26-.43.5-.87.74-1.32.03-.06.08-.18.14-.32-.25.09-.48.23-.69.44-.02.02-.05.04-.08.05-.02.02-.05.04-.07.06-.04.04-.1.03-.14,0-.04-.04-.04-.1-.01-.14,0,0,0,0,0,0-.03-.06-.02-.12.01-.18.26-.4.69-1.05.92-1.4.29-.45.54-.67.99-.72,0,0,.01,0,.02,0,.24,0,.44.2.44.44,0,.05,0,.11-.03.15,0,0,0,0,.01,0,0-.02.01-.03.02-.05.09-.22.37-.82.48-.96.26-.32,1.04-.34,1.53-.46.04-.02.07-.04.11-.05.44-.2.92-.33,1.46-.42.06,0,.11.03.12.08.01.05-.02.11-.07.13-.38.13-.72.28-1.04.47.01.02.03.04.04.06.47-.07.98-.09,1.47-.01.49.08.96.24,1.36.54.05.03.06.1.03.15-.03.05-.09.06-.14.04-.4-.21-.84-.3-1.29-.31-.36,0-.72.04-1.07.13.05.04.1.07.16.08.09.02.16.11.15.2-.01.1-.09.17-.19.17-.35-.01-.73.09-1.07.27,0,0-.01,0-.02,0,.13.02.25.04.37.07.06-.1.18-.17.3-.17,0,0,0,0,0,0,.06,0,.12,0,.18.02.06-.12.18-.21.33-.21,0,0,0,0,0,0,.5.04,1.02.16,1.53.35.49.18.96.42,1.37.69.05.03.06.09.03.14-.03.05-.09.07-.14.05-.37-.16-.77-.29-1.18-.38.42.25.79.57,1.09.96.03.05.03.11-.01.15-.04.04-.11.04-.15,0-.41-.39-.9-.67-1.43-.85-.09-.03-.18-.06-.28-.08.25.13.48.3.71.52.39.37.74.82,1.04,1.14.06.07.07.18,0,.25-.06.07-.17.08-.25.03-.13-.09-.27-.2-.41-.31.09.11.17.23.25.35.27.25.54.5.77.77,0-.08.01-.16.03-.24.07-.41.24-.86.32-1.17.12-.49.23-.98.31-1.49.08-.5.14-1.01.17-1.51,0-.06.05-.1.11-.1s.11.05.11.1c.03.51.02,1.03,0,1.55-.03.52-.09,1.04-.16,1.55,0,.06-.02.13-.03.21.15-.24.33-.46.49-.67,0-.01,0-.03,0-.04.13-.54.33-1.08.45-1.6.1-.44.16-.89.22-1.33.09-.68.15-1.36.23-2.04,0-.06.06-.1.12-.1.06,0,.1.05.1.11-.02.69-.02,1.37-.05,2.06-.02.46-.05.92-.11,1.39-.02.14-.04.28-.07.42.11-.14.23-.29.35-.43-.04-.06-.06-.13-.06-.21,0,0,0,0,0,0,.03-.4.09-.81.19-1.21.21-.9.53-1.8.72-2.65.01-.06.07-.09.12-.08.06,0,.1.06.09.12-.08.87-.28,1.8-.37,2.71-.02.17-.03.34-.03.51.03-.03.05-.05.08-.08.04-.04.07-.09.11-.13,0-.03,0-.05,0-.08,0,0,0,0,0,0,.08-.66.2-1.32.37-1.98.17-.65.37-1.29.62-1.9.02-.05.08-.08.13-.06.05.02.09.08.07.13-.16.62-.28,1.26-.36,1.92-.04.33-.07.67-.09,1,.09-.11.18-.22.28-.33,0,0,0-.02,0-.03,0,0,0,0,0,0,.04-.57.19-1.17.41-1.74.21-.56.49-1.09.78-1.55.03-.05.09-.06.14-.04.05.03.07.09.05.14-.21.48-.39,1.03-.52,1.59-.08.35-.13.69-.14,1.04.07-.06.13-.12.21-.17.16-.57.42-1.17.74-1.74.38-.69.84-1.33,1.28-1.81.04-.04.1-.05.15-.01.04.04.05.1.02.15-.37.51-.74,1.18-1.02,1.88-.16.38-.29.77-.38,1.15.31-.47.68-.92,1.07-1.36.49-.54,1.03-1.04,1.57-1.47.04-.04.11-.03.15.01.04.04.04.11,0,.15-.47.49-.94,1.03-1.35,1.61-.22.3-.42.62-.6.93.22-.15.44-.3.66-.45.08-.05.19-.04.25.04.06.07.05.18-.02.25-.02.02-.05.05-.07.07.22-.04.44-.05.66-.04.77.04,1.51.38,1.97,1.06.03.05.02.11-.02.15-.05.03-.11.03-.15-.02-.46-.53-1.13-.76-1.79-.72-.17.01-.33.04-.5.09.05.02.09.05.13.08.02,0,.03.02.05.03.32-.07.6-.06.86.01.05.01.09.03.14.04.04-.01.06-.01.08,0,.02.02.04.03.05.05.43.2.8.58,1.17,1.07.03.04.03.11-.01.15-.04.04-.1.04-.15,0-.25-.22-.48-.42-.71-.56,0,.01,0,.03,0,.04.33.26.6.59.76.94.02.05,0,.11-.05.14-.05.03-.11.01-.14-.04-.14-.22-.34-.43-.57-.59,0,.06-.01.11-.02.17-.01.06-.02.13-.04.19.11.12.21.25.3.39.03.05.02.11-.03.14-.04.03-.1.03-.14,0-.08-.07-.15-.14-.24-.2-.06.14-.13.28-.21.4.15.17.28.35.39.56.03.05.01.11-.03.14-.05.03-.11.02-.14-.02-.13-.16-.27-.29-.41-.41-.21.26-.47.49-.75.7.44.48.82,1,1.13,1.54.03.05.01.11-.04.14s-.11.02-.15-.03c-.24-.32-.51-.64-.81-.93.12.21.25.43.37.64.05.08.03.19-.05.24-.08.06-.18.04-.25-.03-.32-.36-.64-.74-.98-1.1-.05.03-.11.06-.16.09.07.08.14.17.21.26.35.44.68.9.96,1.41.05.09.02.19-.06.25-.08.05-.19.03-.25-.05-.04-.05-.08-.1-.12-.16,0,0,0,0,0,0-.05.03-.11.01-.14-.03-.13-.2-.28-.39-.43-.58-.14-.18-.29-.35-.44-.51-.1-.1-.2-.19-.3-.28-.11.06-.22.12-.33.18.24.43.43.89.62,1.23.05.08.02.19-.06.24-.08.05-.18.04-.25-.03-.23-.27-.48-.64-.77-.99-.12.4-.19.81-.4,1.18,0,.06.01.11.02.16,0,0,0,0,0,0,0,.03,0,.05,0,.08,0,.19-.08.34-.19.4-.1.06-.22.06-.33,0-.12.12-.24.24-.37.36-.28.26-.56.53-.78.85-.69,1.02-1.24,2.13-2.29,2.87-.05.03-.06.07-.03.1.39-.1.8-.35,1.1-.54.47-.3.95-.59,1.39-.91.13-.1.26-.2.39-.3.22-.28.45-.55.71-.79.15-.14.3-.26.46-.38.22-.42.39-.88.62-1.28.09-.15.19-.3.3-.43.04-.04.1-.05.15-.02.05.03.06.1.03.15-.09.13-.16.27-.22.42-.1.25-.18.52-.27.79.08-.02.16.01.2.08.05.08.03.19-.05.25-.13.1-.25.2-.37.31,0,.02-.01.04-.02.05.15-.05.3-.1.46-.14.06-.07.12-.14.17-.21.3-.4.61-.79.9-1.2.19-.27.32-.39.49-.68.03-.05.09-.07.14-.04.05.02.07.08.05.14-.13.32-.22.47-.38.78-.16.31-.32.6-.49.9.16-.08.32-.16.48-.23.5-.66,1.04-1.29,1.52-1.91.04-.05.1-.06.15-.02.05.03.06.1.03.15-.42.7-.89,1.41-1.32,2.14,0,0,0,0,0,0,.2,0,.39.02.59.04.23-.23.36-.33.75-.73.27-.28.54-.54.84-.79.04-.04.11-.03.15,0,.04.04.04.11,0,.15-.25.27-.48.56-.7.87-.27.37-.27.4-.38.59.2.04.39.09.58.14.05-.01.11-.04.18-.07.44-.22.9-.38,1.42-.4.06,0,.11.04.11.09,0,.06-.03.11-.09.12-.4.08-.75.24-1.08.45.14.06.28.11.42.18.19-.07.39-.14.59-.2.09-.03.19.03.22.12.03.09-.02.19-.11.23-.08.03-.16.06-.23.1.07.04.14.09.21.13,0,0,.01,0,.02.01.54.17,1.07.39,1.58.7.21.13.41.27.6.44.43.31.74.75.96,1.25.4.89.51,1.99.57,2.85.02.25.05.52.06.78,0,.18,0,.36-.03.54,0,0,0,0,0,0,0,.06-.06.1-.12.09-.06,0-.1-.06-.09-.12,0,0,0,0,0,0,.02-.16.01-.33,0-.49-.02-.26-.06-.52-.09-.77-.02-.15-.04-.3-.06-.46,0,.03-.02.06-.03.09-.13.31-.3.45-.5.49.03.3.04.61.04.93,0,.06-.05.1-.1.11-.06,0-.11-.04-.11-.1-.03-.33-.08-.65-.15-.95-.2-.04-.41-.14-.61-.22v.07c.04.15.06.29.08.44.08.54.09,1.08,0,1.6-.01.06-.06.1-.12.09-.06,0-.1-.06-.09-.12.02-.3,0-.61-.04-.91-.08,0-.15-.07-.17-.16-.06-.37-.13-.75-.21-1.12-.12.04-.18.14-.23.26-.06.15-.11.33-.18.46.06.39.08.77.07,1.14,0,.06-.05.1-.1.11s-.11-.04-.11-.1c-.03-.28-.08-.56-.15-.84.07.36.13.71.16,1.07,0,.1-.06.18-.16.2-.1.01-.19-.05-.21-.14-.09-.42-.21-.84-.36-1.26-.04-.01-.08-.03-.13-.05,0,.12,0,.23,0,.35,0,.06-.04.1-.1.11-.06,0-.11-.04-.11-.09-.03-.17-.06-.34-.1-.51-.16-.08-.32-.17-.48-.27,0,.19,0,.39,0,.58,0,.06-.03.11-.08.14,0,.21-.03.41-.05.62,0,.06-.06.1-.11.09-.06,0-.1-.05-.1-.11,0-.43-.05-.85-.11-1.26-.02-.08-.04-.16-.06-.25-.02-.09-.05-.19-.07-.28-.09-.09-.17-.18-.24-.26-.06-.08-.11-.16-.15-.25,0,.07,0,.13,0,.2,0,.35-.01.69-.05,1.03,0,.06-.05.1-.11.1s-.1-.04-.11-.1c-.03-.34-.09-.66-.16-.99-.06-.29-.13-.58-.2-.87-.03-.02-.06-.05-.08-.08.07.38.12.76.15,1.15,0,.06-.04.11-.09.12-.06,0-.11-.03-.12-.08-.13-.55-.29-1.08-.51-1.58-.02-.05-.04-.1-.07-.15-.02.02-.03.04-.05.06-.04.07-.07.15-.11.23-.09.21-.2.38-.45.38-.11,0-.23-.05-.36-.13-.16-.1-.33-.26-.5-.37-.14-.1-.28-.17-.41-.14-.08.02-.16.09-.23.22-.07.13-.05.26.02.39.05.1.14.2.23.3.23.24.54.47.77.72.16.18.28.36.3.55.06.52-.09,1.01-.24,1.51-.03.1-.06.2-.08.3.02.05.04.1.05.15.03.09-.01.19-.1.23-.01,0-.03,0-.04.01-.04.25-.05.51,0,.78.11.67.38,1.28.61,1.91.24.2.46.41.65.64.04.04.03.11,0,.15-.04.04-.11.04-.15,0-.1-.09-.21-.18-.32-.27,0,.03.02.06.03.09.43.39.83.82,1.18,1.28.04.05.03.11-.01.15-.04.04-.11.03-.15,0-.04-.04-.08-.08-.11-.12.1.11.19.23.28.36.03.05.02.11-.02.15-.04.04-.11.03-.15-.01-.21-.22-.43-.42-.66-.61.09.11.18.23.27.34.06.08.05.18-.02.25.32.35.61.71.85,1.05.03.05.02.11-.02.15-.04.04-.11.03-.15-.01-.23-.25-.5-.52-.78-.77.01.03.02.07.03.1.03.04.07.08.1.12.16.2.31.39.46.6.03.04.04.09.03.14.09.09.17.19.25.29.03.04.03.11-.01.15-.04.04-.1.04-.15,0-.1-.09-.2-.17-.31-.25.08.25.15.51.2.77.03.15.05.31.07.47.04.06.09.11.13.17.03.04.03.11-.01.14-.03.03-.06.03-.1.03,0,.31-.02.62-.09.91.24.4.45.82.61,1.29.02.05,0,.11-.06.14-.05.02-.11,0-.14-.05-.17-.33-.37-.63-.58-.91-.11.22-.25.43-.44.6.09.3.18.61.26.91.11.42.2.84.27,1.27,0,.06-.03.11-.09.12-.06.01-.11-.02-.13-.08-.11-.41-.25-.81-.41-1.2-.1-.26-.21-.51-.32-.76-.15.06-.3.09-.46.09l.13,1.53c0,.06-.04.11-.09.12-.06,0-.11-.03-.12-.08,0,0-.34-1.61-.34-1.61-.18-.04-.36-.12-.53-.2.01.23.02.45.03.68.01.46,0,.92-.04,1.38,0,.06-.06.1-.11.1-.06,0-.1-.05-.1-.11,0-.45-.05-.9-.11-1.34-.05-.35-.11-.7-.17-1.04-.12-.1-.23-.2-.32-.29-.03-.04-.07-.07-.1-.11-.05.51-.11,1.03-.19,1.53-.09.54-.2,1.07-.36,1.59-.02.06-.07.09-.13.07-.06-.01-.09-.07-.08-.13.11-.52.17-1.05.2-1.58.05-.71.05-1.43.05-2.15-.12.51-.26,1-.42,1.49-.02.05-.08.08-.13.07s-.09-.07-.08-.13c.11-.55.19-1.1.25-1.67.02-.23.04-.46.06-.68-.11-.32-.2-.64-.3-.97-.07.22-.14.44-.2.66-.18.71-.29,1.43-.33,2.16,0,.06-.05.1-.11.1s-.1-.04-.11-.1c-.04-.72-.02-1.44.07-2.15-.03-.04-.05-.08-.05-.14,0-.17.01-.34.02-.52-.24.58-.45,1.16-.6,1.75-.01.06-.07.09-.12.08-.06-.01-.09-.06-.09-.12.08-.65.22-1.3.4-1.95.12-.44.27-.86.43-1.28-.07-.09-.14-.17-.21-.26-.16.18-.3.39-.44.61,0,0,0,.02-.01.02-.22.47-.41.95-.59,1.42-.01.03-.03.06-.06.08-.08.28-.14.55-.17.79,0,.06-.06.1-.11.09-.06,0-.1-.05-.1-.11,0-.28.03-.59.09-.92,0-.01,0-.02,0-.04.09-.52.19-1.03.31-1.55.05-.2.11-.4.17-.59-.17.22-.34.45-.49.7-.44.7-.76,1.46-.79,2.12,0,.06-.05.1-.11.1s-.11-.05-.11-.1c-.02-.34.03-.7.13-1.08-.03,0-.06,0-.08,0-.1-.02-.16-.11-.15-.2.06-.45.17-.89.31-1.33.03-.1.07-.2.1-.3-.19.28-.34.58-.44.89-.02.05-.07.09-.13.07-.06-.01-.09-.07-.08-.12.1-.57.36-1.14.72-1.66-.18.06-.35.15-.53.26-.12.08-.24.16-.35.26-.11.15-.21.31-.32.46-.02.04-.07.05-.11.05v6.15l-2.18.38.22-10.82s-.02-.01-.03-.02c-.16-.11-.31-.37-.38-.46-.11-.13-.36-.41-.65-.68.11.18.21.37.3.57.13.29.24.6.36.9.02.05,0,.11-.06.14-.05.02-.11,0-.14-.05-.16-.28-.31-.55-.48-.81-.11-.17-.23-.33-.37-.49-.22-.25-.49-.48-.72-.73.05.12.15.26.18.31.19.36.25.8.15,1.19.03.07.06.14.1.21.16.32.35.62.6.84.04.04.05.1.01.15-.04.05-.1.06-.15.02-.29-.19-.53-.47-.75-.79-.02.03-.04.06-.06.08.1.26.21.52.34.76.2.39.45.74.8,1,.05.03.06.1.03.15-.03.05-.09.06-.14.04-.42-.23-.75-.57-1.04-.96-.14-.18-.26-.38-.38-.58-.02.02-.04.03-.05.05.05.16.11.31.17.47.24.65.51,1.29.77,1.92.02.05,0,.11-.05.14-.05.03-.11,0-.14-.04-.35-.59-.71-1.19-1.05-1.8-.02-.04-.05-.09-.07-.13-.02.04-.04.08-.06.12,0,0,.01.02.02.02,0,0,0,0,0,0,.41.74.85,1.32,1.12,1.99.18.45.28.94.24,1.54,0,.06-.05.1-.11.1s-.1-.04-.11-.1c-.04-.55-.19-.98-.41-1.36-.24-.43-.56-.8-.9-1.21h0c.3.61.68,1.17.88,1.81.02.05-.01.11-.06.13-.05.02-.11,0-.14-.05-.17-.32-.39-.6-.61-.88,0,0,0,0,0,0,.01.09-.05.18-.14.2-.09.02-.19-.03-.22-.12-.04-.11-.07-.21-.11-.32,0,.09.01.18.02.26,0,.12.02.24.03.35.08.08.17.16.26.23.25.2.53.36.87.48.05.02.08.07.07.13-.01.05-.07.09-.12.08-.38-.06-.7-.17-1.01-.32,0,.04.01.09.02.13.01.09-.05.18-.14.21-.09.02-.19-.03-.22-.12-.06-.17-.11-.34-.16-.51-.05-.03-.09-.07-.14-.1-.02.04-.04.07-.06.11.15.41.31.81.51,1.18.21.39.47.75.8,1.06.04.04.05.1.01.15-.04.04-.1.05-.15.02-.4-.28-.73-.62-1.02-1-.19-.26-.37-.53-.53-.81-.04.06-.07.11-.11.17.28.88.75,1.71,1.03,2.59.1.3.17.6.22.91,0,.06-.03.11-.09.12-.06.01-.11-.02-.13-.08-.07-.29-.18-.56-.3-.83-.33-.72-.78-1.4-1.15-2.12-.03.04-.05.07-.08.11.03.08.06.15.1.23.04.08.01.18-.07.23-.04.03-.09.03-.14.03.26.95.71,1.85.79,2.85,0,.06-.04.11-.09.12-.06,0-.11-.03-.12-.09-.11-.52-.32-1-.54-1.47-.02.02-.04.04-.06.05-.09.04-.19,0-.24-.08-.05-.09-.11-.19-.16-.29.17.87.43,1.73.42,2.61,0,.06-.05.1-.1.11-.06,0-.11-.04-.11-.1-.1-.91-.5-1.77-.78-2.65-.03.05-.06.1-.1.15.04.75.1,1.52.08,2.27-.01.57-.06,1.13-.2,1.66-.01.06-.07.09-.13.08-.06-.01-.09-.07-.09-.12.08-.52.08-1.06.04-1.61-.03-.47-.1-.96-.17-1.43-.06.12-.13.24-.2.37.05.94.15,1.89.15,2.83,0,.06-.04.1-.1.11-.06,0-.11-.04-.11-.1-.09-.73-.23-1.45-.37-2.17-.05.06-.1.12-.15.17-.01.08-.03.16-.04.25-.12.85-.14,1.73-.24,2.51,0,.06-.06.1-.11.1-.06,0-.1-.05-.1-.11,0-.73-.07-1.55-.07-2.36-.03,0-.06.02-.1.02-.17.03-.32.02-.44-.03-.22.58-.4,1.17-.5,1.75-.01.06-.06.1-.12.09-.06,0-.1-.06-.09-.12.05-.65.19-1.33.37-2-.09-.14-.16-.33-.2-.54-.03.02-.07.03-.11.02-.05-.02-.08-.08-.07-.13.04-.13.08-.26.12-.39-.01-.41.02-.85.06-1.18-.08.09-.16.17-.23.24-.04.04-.1.04-.15,0-.04-.04-.05-.1-.02-.14.15-.21.3-.47.46-.73.04-.33.09-.67.15-1-.13.14-.24.28-.34.41-.03.04-.1.05-.15.02-.05-.03-.06-.09-.03-.14.17-.31.41-.68.68-1.04.09-.37.19-.74.31-1.11-.08.11-.15.21-.22.32-.03.05-.09.07-.14.04-.05-.03-.07-.08-.05-.14.07-.18.16-.36.26-.53-.15.15-.3.3-.45.46-.07.07-.18.08-.25.02-.07-.06-.09-.17-.03-.25.29-.41.57-.8.9-1.17,0,0-.01,0-.02,0-.03.04-.09.05-.14.03-.05-.03-.07-.09-.05-.14,0,0,0-.02.01-.03,0-.03,0-.07,0-.1.09-.28.29-.55.54-.82.02-.03.05-.05.07-.08.12-.15.24-.31.37-.45,0-.02,0-.03.02-.05.05-.09.11-.19.19-.29-.08.03-.17,0-.22-.06-.06-.07-.05-.18.02-.25.08-.08.18-.18.3-.28-.17.13-.33.26-.47.35-.05.03-.11.02-.15-.02-.04-.04-.03-.11,0-.15.44-.42,1.05-1.16,1.7-1.61.35-.24.9-.62.57-.45-.63.32-1.21.73-1.62,1.25-.04.04-.1.05-.15.02-.05-.03-.06-.1-.03-.15.37-.6.93-1.11,1.56-1.53.16-.1.32-.2.48-.29-.04-.13-.08-.27-.12-.4-.01,0-.03-.01-.04-.02,0,0,0,0,0,0l-.04.2c0,.05-.05.09-.11.09s-.1-.04-.11-.09c0,0-.06-.3-.06-.3-.01,0-.02,0-.04-.01-.01.09-.02.19-.03.28-.01.09-.09.16-.18.16-.03,0-.05,0-.08-.02-.01.11-.03.22-.04.32,0,.05-.05.09-.11.09s-.1-.04-.11-.09c-.04-.29-.09-.59-.13-.89-.02,0-.03,0-.05,0,0,.08,0,.16,0,.24-.01.4-.06.79-.17,1.19-.02.05-.07.09-.13.08-.06-.01-.09-.06-.08-.12.05-.38.05-.75.01-1.13,0-.09-.02-.17-.03-.26-.08,0-.17.01-.25.03.01.22,0,.43-.02.65,0,.06-.06.1-.11.1-.06,0-.1-.05-.1-.11,0-.19-.03-.38-.07-.57-.22.06-.3-.44-.5-.37.03.12-.08.81-.06.93.01.06-.02.11-.08.12-.05.01-.11-.02-.13-.07-.04-.11-.08-.22-.12-.33-.06.02-.11.03-.17.04.14.44.24.89.27,1.36,0,.06-.04.11-.09.11-.06,0-.11-.03-.12-.09-.1-.47-.27-.91-.47-1.34-.12,0-.76-.61-.9-.64-.14-.02.24.54.11.49.1.38.2.77.27,1.14,0,.06-.03.11-.08.12-.06.01-.11-.02-.13-.07-.14-.43-.39-1.09-.59-1.57-.02,0-.04.01-.07.01-.05,0-.1-.03-.14-.07-.02.03-.04.04-.08.03,0,.02,0,.04,0,.05.06.52.18,1.03.38,1.51.02.05,0,.11-.05.14-.05.03-.11,0-.14-.04-.28-.48-.47-.99-.6-1.53-.03-.12-.06-.24-.08-.36-.08-.03-.15-.05-.23-.07-.02.2-.04.4-.05.6,0,.23,0,.45.02.67,0,.06-.03.11-.08.12-.05.01-.11-.02-.13-.07-.07-.22-.12-.46-.16-.69-.03-.18-.05-.37-.06-.55-.17.17-.29.39-.4.63-.19.46-.31.98-.39,1.39,0,.02-.01.04-.03.06,0,.1,0,.19.01.29,0,.06-.04.11-.09.11s-.11-.03-.12-.09c-.02-.09-.03-.17-.05-.26-.06-.03-.09-.09-.09-.16,0-.17,0-.35,0-.54-.02-.21-.03-.42-.04-.63-.01,0-.03-.02-.04-.03-.13.17-.25.35-.37.53-.02.04-.05.08-.07.12-.08.43-.12.86-.16,1.2,0,.06-.06.1-.11.09-.06,0-.1-.05-.1-.11,0-.14,0-.3-.01-.47-.05.06-.13.09-.21.06-.09-.03-.14-.13-.12-.22.08-.32.18-.63.29-.93.02-.04.03-.08.05-.12,0-.11.02-.21.03-.31-.03.02-.05.04-.08.06-.04.08-.07.16-.1.24-.16.42-.27.86-.39,1.28-.02.05-.07.09-.12.08-.06-.01-.09-.06-.09-.12.03-.27.05-.55.08-.83-.04.05-.08.1-.12.15-.06.08-.16.1-.24.05-.08-.05-.11-.15-.08-.23.13-.3.31-.66.54-.98,0,0,0,0,0,0-.04-.02-.07-.04-.09-.07-.02-.03-.03-.07-.02-.12,0-.05.02-.09.06-.14-.06-.02-.12-.04-.17-.06-.18.19-.35.42-.51.65-.32.48-.57,1-.7,1.44-.02.06-.07.09-.13.07-.06-.01-.09-.07-.08-.12.08-.48.28-1.06.56-1.6.17-.34.38-.66.6-.93,0-.03.02-.06.04-.09Z"/>
    <path class="cls-8" d="m118.34,93.34s0,0,0,0c0,0,0,.02,0,.03,0,0,0-.02.01-.03Zm.12-2.69s.01-.03.02-.04c.02-.06,0-.13-.04-.18.07.07.04.14,0,.2,0,0,.02.01.03.02Zm-19.22,7.19c-.09-.08-.18-.16-.27-.18-.19-.06-.3-.26-.25-.45.05-.19.26-.3.45-.25.16.05.33.15.5.29-.09-.21-.18-.43-.18-.62,0-.2.16-.36.36-.36s.36.16.36.36c0,.08.04.16.07.25.06.14.13.27.17.38.02.04.03.09.05.13.9-.72,2.11-1.09,3.25-.83-.18-.41-.4-.84-.46-1.25-.03-.2.11-.38.3-.41s.38.11.41.3c.06.37.25.75.42,1.11.05-.13.1-.25.15-.37.08-.18.3-.26.48-.18.18.08.26.3.18.48-.12.26-.21.52-.3.78,0,.02-.01.04-.02.07.05.03.1.07.15.11,1.26.99,1.46,1.27,2.45,2.48.1.12.26.33.45.59,0-.03.02-.05.04-.07.06-.09.15-.17.31-.17.13,0,.24.06.3.16,0,0,.02.02.02.02.05.05.11.11.17.16.02.02.03.03.05.05-.04-.28-.1-.55-.21-.8-.08-.18,0-.4.18-.48s.4,0,.48.18c.19.42.26.91.31,1.39.28-.42.58-.81.87-1.18-.29-.46-.76-.84-1.08-1.22-.57-.66-1.31-1.23-2.02-1.83-.72-.61-1.39-1.24-1.83-2.01,0,.02-.01.04-.02.07-.04.11-.11.22-.15.3-.1.18-.32.24-.49.14s-.24-.32-.14-.49c-.3-.05-.61-.12-.88-.26-.06-.03-.19-.09-.27-.15-.1-.07-.16-.16-.19-.25-.06-.19.04-.4.23-.46.15-.05.31,0,.4.13.05.03.13.07.16.08.22.11.47.16.71.2.08.01.24.02.35.07-.23-.63-.28-1.24-.17-1.82-.97-.3-1.81-1.02-1.43-2.14.11-.33.31-.54.53-.65.21-.1.46-.12.7-.08-.05-.22.12-.35.15-.37.01,0,.31-.2.52.1,0,.01.02.03.02.04h0s.03.06.04.08c.03.06.06.11.09.17,0-.07,0-.13,0-.15.02-.2.19-.35.39-.33.2.02.35.19.33.39,0,.09,0,.38-.03.63.08-.08.16-.16.24-.23.3-.27.68-.46,1.08-.61-1.12-1.23-2.19-2.54-2.51-4.11-.04,0-.07-.02-.11-.04-.07-.04-.14-.08-.21-.11-.16.05-.32.11-.47.15-.03,0-.16.03-.23.05-.1.06-.24.07-.35.02-.18-.09-.25-.31-.16-.49.03-.06.1-.15.22-.2.03-.01.07-.02.12-.03-.29-.22-.54-.56-.87-.73-.18-.09-.25-.31-.16-.49.09-.18.31-.25.49-.16.37.19.68.56,1,.81.15.11.31.2.47.28.06-.02.12-.04.17-.06,0-.27.02-.55.07-.84.06-.32.16-.67.32-.99-.59-.28-1.11-.57-1.32-1.29-.1-.34-.05-.82.14-1.19.21-.4.57-.66,1.07-.53.27.07.49.29.67.6.19.32.33.74.44,1.1.08-.06.16-.11.24-.16.38-.23.88-.34,1.36-.31-.06-.4-.11-.8-.11-1.19,0-.2.16-.36.36-.36s.36.16.36.36c0,.07,0,.14,0,.21,0-.08.02-.17.03-.25.02-.2.2-.34.4-.32.2.02.34.2.32.4-.06.51-.1,1.02-.17,1.53.19.14.36.31.48.52.38.66.41,1.53.44,2.27.02.44,0,.88-.02,1.32.02.02.04.04.06.07.13-.09.26-.17.37-.25.16-.12.39-.08.51.08.12.16.08.39-.08.51-.08.06-.17.12-.27.18.05.05.11.1.16.14.15.13.17.36.04.51-.13.15-.36.17-.51.04-.11-.09-.21-.18-.31-.28-.02.01-.03.03-.05.04-.07.9-.14,1.8-.05,2.7.71.13,1.37.68,1.81,1.28,0,0,0-.02,0-.03.02-.07.04-.18.07-.28.04-.12.1-.23.17-.31.14-.14.37-.14.51,0,.14.14.14.36.01.5,0,.01-.01.04-.02.06-.02.09-.04.18-.06.24-.08.26-.15.52-.21.77.05.13.1.25.14.36.08-.03.15-.05.2-.06.2-.04.39.08.43.28s-.08.39-.28.43c-.03,0-.07.02-.12.04.18.59.25,1.07.29,1.63.16-.22.35-.44.55-.56.17-.1.39-.04.49.13.1.17.04.4-.13.49-.19.11-.34.35-.46.55.08,0,.16,0,.21.01.2,0,.36.18.35.38,0,.2-.18.36-.38.35-.14,0-.38-.02-.56-.08-.01,0-.03,0-.04-.01,0,.21,0,.44,0,.69,0,.29.08.87.11,1.38.11-.05.24-.04.35.03.08.05.13.13.15.21.22-.01.44,0,.66,0-.11-.35-.23-.7-.31-1.05-.04-.2.08-.39.28-.43.2-.04.39.08.43.28.08.35.2.7.31,1.04.09-.18.17-.36.26-.54.09-.18.3-.25.48-.17.18.09.25.3.17.48-.09.19-.18.38-.27.57.62.13,1.24.35,1.68.71.26.21.5.49.7.82.06-.31.08-.64.08-.95,0-1.13-.28-2.22-.1-3.35.02-.1.04-.21.07-.32-.05.03-.12.05-.18.05-.11,0-.23-.04-.35-.11-.09-.06-.17-.13-.23-.18-.3-.23-.56-.51-.82-.79-.13-.15-.12-.38.03-.51.15-.13.38-.12.51.03.02.02.04.04.06.06-.06-.21-.11-.41-.16-.59-.05-.19.07-.39.27-.44s.39.07.44.27c.05.19.1.43.17.66,0-.14.02-.28.03-.42,0-.2.18-.35.38-.35.2,0,.35.18.35.38-.01.24-.06.51-.04.77.18-.34.39-.68.63-.99-.04-.14-.07-.28-.11-.41-.1.09-.25.11-.38.05-.26-.12-.52-.24-.75-.41-.01,0-.12-.1-.19-.18-.06-.06-.1-.13-.11-.18-.06-.15-.01-.28.05-.36.05-.07.12-.13.25-.15.18-.03.34.08.39.24l.05.05c.09.06.18.12.28.17-.23-.36-.47-.68-.67-1.01-.4-.64-.65-1.28-.48-2.12,0,0-.02,0-.03,0-.18,0-.45-.08-.55-.09-.2-.03-.33-.22-.3-.42.03-.19.2-.32.39-.3-.08-.11-.17-.22-.24-.34-.02-.03-.28-.45-.3-.55-.06-.25.09-.37.19-.42.18-.09.4-.02.49.16.01.03.03.06.03.1.06.11.19.31.2.32.14.21.3.41.44.62.25-.5.64-1.02,1.1-1.4-.26-.44-.4-1.03-.35-1.55.04-.4.19-.76.46-.99.21-.17.39-.22.55-.2.17.02.32.11.44.26.3.36.45,1.07.45,1.38,0,.16,0,.31,0,.47.04,0,.09,0,.13.01,0-.16.02-.32.02-.48,0-.2.16-.36.36-.36s.36.16.36.36c0,.25-.02.5-.03.75.02.01.04.02.05.04.16-.09.36-.05.47.11.08.11.09.26.03.38.1.13.18.27.23.44.05.16.08.32.09.49.2-.09.4-.18.6-.24.19-.06.39.06.45.25.06.19-.06.39-.25.45-.21.06-.41.15-.61.25.04.01.07.03.09.03.18.08.26.3.18.48-.08.18-.29.27-.48.18-.04-.02-.11-.05-.2-.08-.16.5-.36.98-.49,1.41-.11.36-.15.72-.16,1.08.77-.29,1.59-.27,2.39.21.39.24.67.56.84.93.05-.06.1-.13.15-.19.13-.15.36-.18.51-.05.15.13.18.36.05.51-.15.19-.3.4-.45.59.08.57.04,1.17-.03,1.72-.04.26-.07.54-.11.82.2,0,.4,0,.61-.03.2-.03.38.11.41.31.03.2-.11.38-.31.41-.28.04-.55.03-.82.03-.11.58-.25,1.15-.48,1.66-.17.38-.44.78-.76,1.17.11.06.22.1.32.15.18.08.27.29.19.48-.08.18-.3.27-.48.19h-.01c-.02.1-.09.19-.19.23-.02.01-.05.02-.08.03,0,.18.01.35.02.52.01.2-.14.37-.34.38-.2.01-.37-.14-.38-.34-.01-.19-.02-.39-.02-.6-.31.28-.62.54-.9.74-.45.32-.8.72-1.15,1.12.13-.02.27.03.35.15.11.16.07.39-.09.5-.14.1-.29.19-.43.29.24.18.48.35.7.54.15.13.17.36.04.51-.13.15-.36.17-.51.04-.26-.22-.55-.41-.81-.62-.01,0-.03-.02-.05-.04,0,0-.02,0-.03-.01-.01,0-.03-.02-.05-.05-.35,1.35-1.01,4.55-2.26,7.3-.18.39-.51.97-.75,1.53-.15.35-.27.69-.27.95,0,.24,0,.54-.04.81-.04.2-.11.39-.24.54-.18.21-.44.29-.71.32-.22.03-.46.03-.65.08-.52.15-1.1.57-1.52.91-.08.06-.26.13-.48.19-.4.1-.94.18-1.04.2-.04.01-.09,0-.14-.02-.01,0-.06-.04-.07-.11,0,0,0-.01,0-.03,0-.03,0-.2,0-.22,0-.14-.02-.27-.02-.41,0-.42-.04-.84-.06-1.26-.03-.42-.09-.82-.2-1.21-.25.45-.41,1.01-.59,1.46-.07.19-.28.28-.47.21-.19-.07-.28-.28-.21-.47.16-.4.31-.87.5-1.29-.15,0-.3,0-.42.05-.18.08-.4-.01-.47-.2-.08-.18.01-.4.2-.47.21-.09.49-.1.77-.11.14,0,.28,0,.38-.04-.16-.29-.54-.88-.97-1.57-.16.25-.31.51-.47.76-.07.1-.13.21-.2.32,0,.02-.07.1-.1.14-.04.05-.08.08-.09.09-.18.12-.32.05-.39,0-.08-.05-.21-.15-.17-.38.01-.07.05-.14.1-.19h0s.03-.04.04-.05c0,0,0,0,0,0,.07-.11.13-.21.2-.32.2-.31.38-.63.58-.94.03-.04.06-.07.09-.1-.44-.74-.87-1.53-1.12-2.14-.02.04-.04.07-.07.1,0,.06-.02.12-.02.13-.06.49-.11.99-.15,1.48-.02.2-.19.35-.39.33-.2-.02-.35-.19-.33-.39.03-.34.06-.68.09-1.01-.04.06-.08.12-.12.18-.11.17-.34.21-.5.1-.17-.11-.21-.34-.1-.5.2-.29.42-.56.67-.82.05-.06.16-.18.26-.24.13-.08.26-.09.39-.06.03,0,.06.02.08.04,0-.04-.01-.08-.02-.12-.01,0-.02,0-.04-.01-.25-.08-.81-.42-.88-.45-.62-.26-1.35-.36-2.01-.5-.17-.04-.33-.08-.5-.12.02.13.05.26.07.38.04.2-.09.39-.29.43-.2.04-.39-.09-.43-.29,0-.05-.02-.1-.03-.15-.13.22-.25.45-.36.66-.09.18-.31.25-.49.16-.18-.09-.25-.31-.16-.49.15-.31.33-.64.54-.95-.05,0-.11-.01-.16-.01-.56-.04-.96-.29-1.49-.52-.22-.09-.44-.17-.65-.27-.21-.1-.39-.23-.52-.42-.07.16-.15.37-.16.39-.16.44-.27.91-.38,1.37-.05.19-.24.31-.44.27-.19-.05-.31-.24-.27-.44.07-.31.15-.62.24-.93-.07.04-.14.08-.22.13-.17.1-.4.04-.49-.14-.1-.17-.04-.4.14-.49.35-.2.67-.41,1-.63.05-.1.11-.16.15-.19-.33-.52-.69-1.11-.9-1.7-.17-.46-.25-.92-.18-1.34.07-.4.21-.78.41-1.14-.3.02-.6.03-.9-.01-.2-.03-.34-.21-.31-.41.03-.2.21-.34.41-.31.17.02.35.03.52.02Z"/>
    <path class="cls-7" d="m104.17,89.82c-.28,0-.4.27-.26.61.14.34.48.61.76.61s.4-.27.26-.61c-.14-.34-.48-.61-.76-.61Zm19.21,3.79c.14-.98.15-1.78-.12-1.95-.64-.43-2.46-.59-4.42,2.06-.06.08-.07.73-.03,1.53,0,0,.02,0,.03,0,.02-.03.12-.15.15-.18.13-.15.26-.3.38-.45-.02-.36-.04-.72-.05-1.09,0-.11.08-.19.19-.2.11,0,.19.08.2.19,0,.26.08,1.49.09,1.63,0,.11-.07.2-.17.21-.11,0-.2-.07-.21-.18h0s-.09.09-.13.14c-.03.04-.11.15-.18.21-.07.06-.15.09-.21.09-.02,0-.04,0-.05,0,.09,1.36.32,2.97.71,3.18.86.47,2.22.17,2.82-1.24.33-.77.75-2.31.97-3.63-.24.19-.43.44-.61.68-.03.05-.15.24-.24.3-.08.06-.16.06-.23.03-.07-.03-.13-.09-.17-.19-.03-.09-.02-.23-.02-.28,0-.27,0-.54.01-.81,0-.03.03-.57.07-.67.05-.16.18-.15.24-.14.1.03.17.13.14.23,0,.02-.06.58-.07.6-.01.22-.02.44-.01.66.2-.27.42-.53.68-.74.08-.06.19-.05.25.02Zm-7.75,19.89s.1-.07.14-.12c.27-.32.23-.85.24-1.24.02-.72.1-1.44.28-2.13.46-1.76,1.35-3.37,1.95-5.07-.77.9-2.22,2.69-2.63,3.84-.56,1.58-.56,3.42-.21,4.27.06.15.14.3.23.45Zm-6.68-11.42c-.33-.68-1.27-1.95-1.56-2.3-.54-.66-.84-1.04-1.21-1.41.37.59.68,1.25,1.03,1.81.32.5.67.98,1.08,1.4.19.19.48.31.66.51Zm10.6-13.92c-.18.16-.49.36-.73.36-.11,0-.19-.09-.19-.19s.08-.19.19-.19c.06,0,.12-.03.18-.06.12-.06.24-.16.32-.23.04-.03.16-.17.25-.2.08-.03.15-.03.2,0,.05.03.11.08.14.17.04.12.02.37.02.43,0,.11,0,.21,0,.32,0,.15.01.3.03.46.01.1-.06.2-.17.21-.1.01-.2-.06-.21-.17-.02-.16-.03-.32-.03-.49,0-.11,0-.21,0-.32,0-.01,0-.05,0-.09Zm1.54,2.46c.06-.61.18-1.4.38-1.99.38-1.11-.34-2.48-.98-3.16-.64-.68-1.5.51-2.09,2.09-.6,1.58.39,2.14,1.03,2.78.29.29.4.67.43.99.33-.31.78-.55,1.24-.71Zm-18.69,6.09c-1.19.21-2.29,1.03-2.82,2.09.05-.06.09-.12.13-.18.14-.22.31-.41.5-.58.11-.1.23-.19.34-.28.35-.28.55-.05.36.37-.26.57-.65,1.12-.73,1.76-.08.63.37,1.85.81.79.09-.21.71-1,2.03-.83-1.61.73-1.41,2.34-.75,3.06.93,1.02,2.72.45,3.91.77.51.14.97.44,1.42.7.15.08.38.22.49.03.21-.34.24-1.26.06-1.62-.22-.42-.79-.54-1.05-.98-.85-1.42-1.12-3.49-2.95-4.05-.55-.17-1.25-.07-1.74.23-.21.13-.64.56-.91.37-.48-.34.26-1.31.57-1.51.09-.06.2-.1.31-.14Zm9.91,12.96s-.33-.26-.44-.33c-.15-.09-.3-.22-.44-.32-.07-.05-.13-.09-.17-.11-.1-.03-.15-.14-.12-.24.03-.1.14-.15.24-.12.07.02.17.09.28.17.13.1.28.22.42.31.05.03.09.06.14.07,0,0,.02,0,.03,0,0-.02.02-.06.02-.1,0-.09.01-.18.01-.28v-.44c0-.11.09-.19.19-.19s.19.09.19.19v.39c.05-.11.09-.22.14-.33.02-.03.08-.21.14-.28.06-.07.13-.09.18-.09.11,0,.19.09.19.19,0,.06-.03.12-.08.16-.02.04-.07.16-.08.18-.1.22-.19.44-.28.66.24-.22.49-.43.75-.62.08-.06.2-.05.27.04s.04.2-.04.27c-.32.24-.62.5-.91.78-.04.03-.18.2-.28.25-.08.04-.16.04-.21.02-.07-.03-.14-.09-.13-.22Zm-.51-5.4s-.08.06-.12.1c-.05.04-.14.1-.23.16-.05.04-.11.07-.13.11-.05.09-.16.13-.26.09-.09-.05-.13-.16-.09-.26.03-.07.11-.14.2-.21.09-.07.2-.13.26-.18.05-.05.11-.09.16-.13-.14-.23-.26-.46-.38-.69-.05-.09,0-.21.09-.26.09-.05.21,0,.26.09.11.21.22.42.35.63.4-.26.77-.35,1.37-.26.1.01.18.11.16.22s-.11.18-.22.16c-.49-.07-.79,0-1.11.21.18.27.37.53.56.77.07.08.05.2-.03.27-.08.07-.2.05-.27-.03-.2-.25-.4-.51-.58-.78Zm-4.59-19.26c-.11-.05-.22-.1-.33-.15-.1-.04-.14-.16-.1-.25.04-.1.16-.14.25-.1.07.03.15.07.22.1,0,0,0-.02,0-.03.05-.28.13-.53.26-.71.06-.08.18-.1.27-.04.08.06.1.18.04.27-.1.14-.15.33-.19.54,0,.05-.03.39-.05.41-.02.23-.03.46-.06.63-.02.1-.11.18-.22.16-.1-.02-.18-.11-.16-.22.03-.17.04-.4.06-.63Zm2.19,11.06c-.09.11-.18.22-.27.33-.07.08-.19.1-.27.03-.08-.07-.1-.19-.03-.27.09-.12.18-.24.28-.35.02-.02.06-.06.11-.11-.32,0-.63,0-.94-.09-.05-.02-.17-.04-.25-.08-.07-.04-.12-.09-.15-.14-.05-.09,0-.21.09-.26.08-.04.18-.02.24.05.03,0,.15.04.18.05.28.08.55.08.84.07.03,0,.13-.02.22-.03.06,0,.12,0,.17.02.11.03.16.11.17.2,0,.02.03.13.03.17-.04.36-.09.72-.09,1.09,0,.11-.09.19-.19.19s-.19-.09-.19-.19c0-.23.02-.47.05-.7Zm-2.44-1.25s-1.45-2.26.73-4.19c2.18-1.92,3.59-.85,4.14.3.56,1.15.77,4.01.81,5.25.04,1.24.56,1.75.56,1.75l-.94.64s-.6-.3-.6-2.05-.26-4.61-1.45-5.51c-1.2-.9-2.22-.56-2.73.51-.51,1.07-.51,3.29-.51,3.29Zm2.31,6.78c-.1.17-.2.35-.29.52.02.03.04.06.06.09.17.33-.01.71-.06,1.06-.12.83.12,2.18-.43,2.87-.09.11-.17.19-.26.25.4,1.24,1.53,2.33,2.1,3.49.52,1.06.92,2.07.99,3.26.03.42.06.85.06,1.27,0,.14.02.27.02.41,0,.02,0,.22,0,.21,0,0,.33-.05.68-.12l2.02-1.69.09-2.05s1.07-4.66,1.24-7.56c.17-2.9-5.08-2.65-5.08-2.65,0,0,2.82-3.16,4.87-3.46.68-.1,1.52.23,2.13.62.5.32.25.02-.1-.27-.66-.53-1.75-.74-2.57-.81-.54-.05-1.15-.1-1.67.1.05-.56-.1-1.53-.11-1.92-.03-2.2.04-2.82-.84-4.9-.26-.61-.83-1.28-1.5-1.61-.07.14-.11.22-.11.22,0,0-.77.04-.85-.94-.09-.98,0-4.4-.21-5.85-.18-1.26-2.23-1.14-3.24-.31-.07.15-.16.27-.32.34-.02.03-.05.06-.07.1-.89,2.13.93,4.08.93,4.08,0,0-.69-.07-.95-.48.5,1.1,1.33,2.07,2.18,2.99.03.03.05.06.07.09-.47.15-.92.35-1.26.66-.25.23-.48.47-.68.72-.03-.06-.07-.12-.11-.19.04.44-.04.94-.09,1.29-.05.35-.11.84-.53.95-.05.01-.11.02-.16.03-.05.63.1,1.29.46,1.96.84,1.55,2.7,2.51,3.85,3.85.36.41.88.83,1.16,1.34-.4.5-.82,1.06-1.19,1.66,0,.07.02.13.03.19.02.1-.06.2-.16.22-.04,0-.07,0-.1-.01Zm10.12-18.74s.07.02.07.02c-.02-.01-.05-.02-.07-.02Zm0,0c-.3.02-.69.88-.04,1.39.21.17.37-.8.38-1.02,0-.22-.16-.31-.33-.37Zm-14.58-3.35c-.3.17-.23,1.22.73,1.38.31.05-.06-.97-.18-1.19-.12-.21-.34-.22-.55-.19Zm0,0s0,0,0,0c0,0,0,0,0,0h0Zm0,0s.08-.02.08-.02c-.03,0-.06,0-.08.02Zm4.6,20.84c.2-.29.41-.56.61-.83-.05-.06-.1-.12-.15-.17-.25-.28-.53-.53-.74-.79-.78-.92-1.91-1.66-2.79-2.54-.43-.43-.82-.89-1.09-1.41-.25-.46-.4-.91-.47-1.35-.06-.34-.07-.68-.03-1.01-.52-.21-.98-.54-1.24-.97-.24-.41-.33-.9-.12-1.49.23-.66.69-.93,1.2-.96.57-.03,1.21.29,1.6.74l.29-.31c.17-.15.35-.28.56-.39.08-.04.16-.08.24-.12-.82-.93-1.57-1.91-2-3.01-.34-.87-.48-1.81-.29-2.86.04-.21.09-.42.17-.63.02-.07.05-.14.08-.21-.27-.14-.53-.29-.73-.5-.22-.21-.39-.48-.49-.84-.13-.47-.02-1.16.32-1.59.27-.35.67-.54,1.18-.41.28.07.53.28.72.57.19.28.34.65.45,1.01h.01c.48-.3,1.14-.41,1.76-.32.64.1,1.23.42,1.55.98.17.29.27.62.34.96.09.46.1.96.12,1.4.05,1.22-.14,2.44-.19,3.66-.02.43-.02.85.01,1.28.43.11.85.36,1.2.67.42.38.75.85.93,1.28.45,1.07.65,1.77.74,2.47.1.71.08,1.42.09,2.55,0,.28.08.84.1,1.34,0,.08,0,.16,0,.24.12-.02.24-.04.37-.04.35-.02.72.01,1.05.04.51.05,1.11.15,1.66.33.39.13.75.31,1.04.55.2.16.38.36.54.58.03.04.05.07.08.11,0-.03,0-.05.01-.08.03-.23.05-.46.05-.69,0-.78-.13-1.55-.15-2.32,0-.34,0-.69.07-1.04.07-.43.23-.9.46-1.36.19-.38.42-.76.7-1.12-.04-.14-.07-.29-.12-.43-.03-.11-.07-.21-.12-.3-.53-.91-1.16-1.6-1.38-2.42-.14-.54-.12-1.14.22-1.9.14-.3.33-.62.56-.91.19-.24.41-.47.64-.66-.25-.42-.39-.98-.35-1.47.03-.42.18-.81.47-1.04.41-.34.73-.22.97.08.28.36.42,1.04.42,1.34v.52c.18,0,.36.04.54.11.19.08.39.2.57.37.13.12.25.25.35.4.07.1.12.21.16.33.13.42.1.88-.01,1.34-.15.64-.45,1.29-.63,1.84-.07.22-.11.44-.14.67-.02.18-.03.37-.03.55.38-.15.77-.23,1.16-.22.42.01.84.14,1.26.39.48.3.76.71.92,1.19.23.7.19,1.51.08,2.24-.09.61-.17,1.28-.31,1.92-.1.44-.22.86-.4,1.24-.24.52-.67,1.07-1.15,1.58-.48.5-1.01.96-1.47,1.29-.22.16-.42.33-.6.52-.44.44-1.12,1.5-1.12,1.5v.2c-.03.95-.21,1.85-.49,2.72-.59,1.85-1.61,3.57-2.12,5.47-.08.31-.15.63-.19.96-.04.33-.07.66-.08.99,0,.33,0,.74-.1,1.09-.07.24-.18.46-.33.65-.19.23-.44.37-.72.45-.3.09-.67.05-.95.14-.21.06-.43.18-.64.31-.25.15-.48.33-.68.48-.1.08-.29.18-.53.25-.42.12-1.08.22-1.25.25-.11.02-.21.02-.32,0-.14-.03-.39-.11-.53-.43-.01-.03-.05-.1-.06-.22,0,0,0-.02,0-.05,0,0,0-.02,0-.03,0-.06,0-.2,0-.22v-.41s-.07-1.23-.07-1.23c-.03-.53-.13-1.02-.29-1.49-.16-.5-.38-.99-.62-1.49-.41-.86-1.14-1.68-1.64-2.55-.25-.44-.46-.9-.56-1.37-.27-.14-.59-.33-.64-.35-.22-.09-.46-.16-.7-.22-.4-.1-.82-.17-1.22-.26-.37-.08-.72-.18-1.08-.26-.21-.05-.42-.08-.64-.1-.28-.02-.54-.08-.78-.17-.28-.11-.55-.25-.87-.39-.34-.15-.69-.27-.97-.47-.18-.13-.33-.28-.45-.47-.37-.58-.89-1.34-1.21-2.11-.27-.64-.41-1.29-.31-1.87.23-1.39,1.28-2.61,2.61-3.19,1.3-.58,2.84-.55,4.09.44.65.51,1.02.84,1.36,1.2.34.35.64.74,1.14,1.36.19.23.63.83,1.03,1.42.03.05.07.1.1.15.02-.03.04-.07.07-.1,0-.03,0-.05.03-.04l.02-.02c-.05-.44-.11-.89-.28-1.28-.04-.1,0-.21.1-.25.1-.04.21,0,.25.1.13.29.2.62.25.95Z"/>
    <path class="cls-12" d="m73.11,30.5s.06.06.07.06c.05.06.09.11.13.17.12.17.24.33.35.51.33.54.46,1.13.51,1.76.08,1.17.1,2.36-.14,3.52-.07.34-.21.66-.41.95-.06.08-.21.25-.16.36.05.11.29.07.38.04.36-.1.57-.47.98-.36.26.07.4.37.68.37s.3-.39.59-.31c.2.06.35.23.54.31.29.12.6.11.91.09.12-.01.31,0,.41-.08.12-.09-.28-.28-.33-.31-.27-.17-.5-.36-.63-.66-.37-.87-.37-1.9-.33-2.82.04-.92-.05-2.12.38-2.97.21-.41.57-.76.89-1.09.12-.13.32-.31.16-.49-.05-.06-.13-.1-.19-.14-.51-.33-.63.18-1.07.35-.28.11-.43-.23-.65-.17-.22.06-.3.4-.59.46-.16.04-.31.01-.45-.08-.06-.04-.17-.22-.27-.18-.1.04-.13.23-.17.31-.08.17-.2.31-.37.38-.17.07-.4.09-.56,0-.21-.12-.32-.46-.57-.21-.03.03-.07.23-.07.23Z"/>
    <path class="cls-10" d="m76.95,28.03c-.06-.13-.35.07-.4.12-.24.25-.47.99-.04,1.18.44.19.89-.26.78-.7-.06-.26-.27-.29-.46-.39-.04-.02.11-.21.11-.21Zm-12.7,1.13c-.05-.01-.11-.03-.16-.06-.25-.12-.37-.33-.4-.58-.03-.21.03-.47.08-.64.07-.28.2-.48.35-.67.1-.12.2-.23.28-.38.07-.14.09-.31.12-.46.03-.17.07-.33.15-.49.02-.04.11-.17.21-.29-.13-.03-.28-.05-.41-.1-.17-.06-.31-.15-.42-.3-.2-.28-.22-.51-.18-.69.05-.19.18-.36.39-.48.17-.1.41-.17.63-.24.09-.03.23-.08.26-.09.11-.12.15-.29.24-.43.11-.18.26-.34.48-.43.05-.02.31-.11.53-.14.09-.01.17-.01.25,0,.11-.38.35-.74.74-1-.16.1.39-.07.52.04.08-.08.15-.16.2-.27-.39-.13-.54-.39-.63-.7-.05-.17-.05-.37-.13-.53-.06-.12-.14-.23-.2-.34-.11-.23-.13-.48.03-.76.11-.18.27-.29.46-.34.18-.05.39-.03.55-.01.1.01.2.03.3.04-.02-.03-.05-.06-.07-.09-.24-.31-.34-.71-.23-1.06.07-.25.24-.48.56-.65.17-.1.38-.15.58-.16.23-.01.46.05.66.15.02-.02.03-.04.05-.06.13-.14.31-.3.52-.44,0-.02,0-.04,0-.05.03-.18.13-.36.15-.55,0-.06-.02-.14-.04-.21-.03-.1-.05-.2-.06-.3-.03-.2,0-.39.08-.54.09-.16.24-.31.54-.4.1-.03.19-.04.29-.05.06-.02.15-.05.18-.05.39-.08.62.06.8.26.07.07.12.16.18.26.03.04.04.09.09.11.12.05.29.06.43.11.06.02.12.05.17.08.17-.18.36-.33.62-.32.37,0,.56.27.77.52.21-.06.41-.04.56.05.11-.02.24-.04.29-.04.1,0,.19-.08.28-.15.18-.13.35-.28.53-.39.37-.22.76-.28,1.17.04.12.09.21.21.3.33.11.15.19.32.27.49.13.28.25.63.12.94h0c.07.05.12.11.17.18.07.09.12.21.23.31,0,0,.01,0,.02.01.01-.06.03-.12.04-.17.1-.31.27-.58.53-.75.14-.09.56-.28.87-.29.11,0,.21.01.29.04.19-.16.44-.35.68-.4.33-.08.65-.02.89.38.07.12.11.26.13.4.01.09,0,.19.04.27.01.02.02.05.04.07.24-.27.65-.27.93-.06.03,0,.06.02.09.03.1.05.22.15.32.3.11.17.2.39.21.58.01.21-.05.4-.17.53-.07.08-.16.14-.29.18.06.23.07.49.03.74-.03.18-.07.35-.13.52.18.07.37.14.49.3.11.15.18.32.23.49.08,0,.15.01.22.04.23.07.42.23.56.46.2.33.29.83.26,1.19,0,.07-.01.13-.02.2.03,0,.06.01.08.02.07.02.13.06.19.11.23.06.41.21.53.42.15.26.19.61.15.86-.02.14-.09.36-.2.49-.03.03-.06.07-.1.09.01.03.03.05.04.08.06,0,.11-.02.17-.02.18-.01.36,0,.53.1.15.07.26.18.36.3.07.08.11.18.2.24.13.09.3.12.45.17.17.06.34.13.49.25.26.21.38.47.45.76.04.18.06.37.12.55.1.28.29.55.38.82.07.21.09.43.04.64-.05.21-.17.42-.42.62-.25.2-.55.28-.86.26-.03.09-.06.18-.09.27-.14.56-.1,1.64-.86,1.8-.25.05-.43-.1-.61-.23-.1.04-.21.06-.34.05-.11,0-.22-.03-.33-.07-.23.18-.35.5-.66.59-.18.05-.38.04-.58,0-.22.3-.52.53-.95.61-.44.08-.83-.1-1.12-.45-.02-.03-.05-.06-.07-.09-.32.07-.71,0-1.02-.12-.05.06-.11.12-.16.17-.13.1-.28.15-.44.15-.11,0-.21-.03-.3-.08-.03.07-.07.13-.11.18-.16.18-.48.24-.73.14-.29-.11-.71-.37-.91-.61-.15-.17-.31-.66-.24-.97.02-.11.06-.2.12-.28-.31-.18-.61-.37-1-.33-.34.04-.61.27-.93.34-.21.04-.37-.09-.57-.06-.43.06-.86.31-1.22.52-.48.29-.79.75-1.31.99-.37.17-.76.09-1.14.2-.38.11-.65.34-1.06.18-.28-.11-.52-.29-.79-.44,0,0-.01.01-.02.02-.3.27-.68.38-1.07.23-.02,0-.05-.02-.07-.03-.02.06-.05.12-.09.17-.19.26-.44.33-.72.26-.17-.04-.36-.15-.54-.26-.07-.04-.17-.1-.21-.12-.02,0-.06,0-.08.01-.07.01-.14.03-.2.04-.21.03-.41,0-.57-.13-.18-.14-.26-.36-.26-.58-.25-.02-.44-.04-.5-.06-.54-.2-1.29-1.24-1.53-1.81Z"/>
    <polygon class="cls-1" points="61.25 17.41 61.99 19.64 64.38 19.64 62.45 21.02 63.19 23.25 61.25 21.87 59.32 23.25 60.06 21.02 58.12 19.64 60.51 19.64 61.25 17.41"/>
    <polygon class="cls-1" points="89.21 17.41 89.95 19.64 92.34 19.64 90.41 21.02 91.15 23.25 89.21 21.87 87.28 23.25 88.02 21.02 86.08 19.64 88.47 19.64 89.21 17.41"/>
    <polygon class="cls-1" points="75.28 7.59 76.02 9.82 78.41 9.82 76.48 11.2 77.22 13.43 75.28 12.05 73.35 13.43 74.09 11.2 72.15 9.82 74.54 9.82 75.28 7.59"/>
    <polygon class="cls-1" points="84.3 34.15 85.04 36.38 87.43 36.38 85.5 37.75 86.24 39.98 84.3 38.61 82.37 39.98 83.11 37.75 81.17 36.38 83.56 36.38 84.3 34.15"/>
    <polygon class="cls-1" points="66.36 34.15 67.1 36.38 69.49 36.38 67.56 37.75 68.3 39.98 66.36 38.61 64.43 39.98 65.17 37.75 63.24 36.38 65.63 36.38 66.36 34.15"/>
    <path class="cls-4" d="m82.96,17.07s.05-.03.06-.02c.22.11.48.74.1.8-.34.05-.76-.43-.66-.76.07-.26.38-.21.51-.02Zm-4.24,13.17s.17.08.2.12c.18.25.68.64.7.95.01.18-.17.2-.3.15-.23-.08-.57-.3-.74-.49-.16-.18-.3-.91.14-.73Zm1.51-.52s.08.21.12.19c.27-.13.26-.71.42-.95.08-.12.27-.26.4-.14.14.13.12.4.1.57-.04.51-.21.97-.5,1.39-.1.14-.24.43-.44.42-.19,0-.31-.21-.42-.34-.26-.28-.7-.62-.56-1.07.18-.56.68-.6.89-.07Zm2.3-.16s.22.07.24.11c.05.13.11.56.27.59.14.03.22-.3.27-.39.17-.32.64-.26.82.03.11.18,0,.41-.08.59-.19.49-.45.94-1,1.05-.71.13-1.18-.93-1.09-1.51.04-.26.25-.67.57-.48Zm2.4-6.9s.11.07.14.08c.34.05.45.53.4.81-.02.11-.06.32-.2.33-.12,0-.2-.13-.25-.22-.13-.23-.38-.55-.36-.82,0-.09.19-.31.27-.17Zm-.79.89s.17.02.18.06c.2.37.57.97,1.01,1.08.27.06.55-.08.81.04.23.11.31.38.52.52.28.19.65.18.91.4.36.28.29.73.43,1.12.2.55.78,1.08.13,1.61-.65.53-1.82-.35-2.11-.95-.08-.17-.13-.42,0-.58.1-.12.48-.14.34-.36-.31-.48-.98-.76-1.45-1.04-.46-.27-.92-.64-1.07-1.17-.05-.18-.06-.46.07-.62.04-.04.16-.15.23-.11Zm-3.87,3.38s.23-.03.29-.03c.49.07,1,.08,1.37.46.15.15.27.35.37.54,0,.01.1.2.12.18.04-.02-.12-.46-.13-.51-.12-.5.1-1.12.73-.97.23.06.51.3.44.57-.04.19-.18.34-.15.54.08.45.49.94,0,1.32-.09.07-.21.12-.32.15-.84.24-.85-.6-1.4-.93-.26-.15-.64.03-.83-.23-.23-.32-.27-.77-.49-1.1Zm-2.17.43s.16.07.14.09c-.2.18-.55.93-.13,1.07.49.15.51-.82,1.02-.81.55.01.78.99.38,1.31-.21.17-.5.1-.74.09-.38-.02-1.14.08-1.31-.38-.13-.35-.01-.86.18-1.17.06-.09.33-.34.47-.21Zm-10.48-5.29s.13.14.11.17c-.08.16-.12.34-.13.51-.06.71.46,1.11,1.04,1.36.23.1.6.19.73.42.19.34-.06,1.04-.15,1.39-.03.12-.09.33-.23.38-.12.05-.19-.14-.22-.22-.1-.33-.34-.67-.6-.89-.36-.31-.83.32-1.07-.27-.03-.08-.05-.17-.07-.25-.02-.11-.05-.23-.02-.33.04-.14.19-.02.27.01.28.14.61.21.92.25.03,0,.42.02.42.01-.02-.05-.21-.06-.26-.07-.23-.05-.45-.15-.66-.26-.88-.5-.94-1.68-.09-2.24Zm-2.17,3.81s.24.01.3.04c.38.15.76-.08,1.12-.17.17-.04.4-.06.51.11.1.18.07.46-.11.58-.19.12-.48-.01-.63.16-.14.15-.05.4-.17.56-.14.18-.42.26-.59.42-.34.31-.62.72-.99.99-.16.12-.4.28-.61.18-.27-.13-.15-.52-.1-.73.11-.43.41-.6.6-.96.15-.29.13-.66.27-.96.04-.08.41-.54.41-.21Zm1.25-2.66s.06.11.08.13c.18.26.08.68-.2.82-.11.05-.4.13-.42.28-.01.1.27.05.32.06.28.03.54.35.35.62-.4.57-1.33.22-1.83.09-.2-.05-.48-.06-.62-.24-.5-.68.81-.68,1.06-.94.23-.24.26-.64.59-.78.07-.03.66-.22.66-.03Zm1.44,6.37s.08-.15.12-.16c.2-.06.28.23.29.37.02.31-.13.59-.11.89.01.27.26.62.08.88-.25.34-.78-.25-1.06-.29-.21-.04-.48.15-.67,0-.11-.08-.11-.23-.08-.35.11-.5.65-.34.96-.62.16-.15.22-.39.33-.58.02-.03.1-.18.16-.14Zm1.44.53s.3-.33.41-.36c.26-.07.33.22.31.42-.05.48-.54,1.31-1.13,1.1-.64-.24-.33-1.4,0-1.76.16-.17.45-.23.49.08.02.19-.08.35-.08.53Zm2-.62c1.14,0,.84,1.91-.15,1.84-.66-.05-1.07-1.08-.68-1.6.3-.41.53.4.7.52.28.2.27-.4.24-.52-.01-.05-.1-.24-.1-.24Zm.07-1.77c-.47.19-.7.29-.84.82-.04.16-.07.32-.08.48,0,.02-.02.28-.05.26-.11-.07-.1-.48-.18-.6-.11-.18-.51-.11-.54-.31-.03-.18.13-.39.21-.54.25-.44.81-1.08,1.38-1.04.19.02.3.21.17.37-.12.15-.32.16-.46.27-.11.1-.08.22.07.19.06-.01.31.09.31.09Zm3.64-.79s.04.72.04.75c0,.02.03.29.07.27.06-.02.07-.29.08-.34.07-.3.35-1.2.78-.8.31.28.54.68.33,1.1-.12.24-.33.41-.42.67-.1.3-.15.88-.58.87-.82-.02-.93-1.21-.95-1.81,0-.19-.03-.41.03-.59.07-.19.51-.36.61-.11Zm3.05-1.38s-.42-.47-.5-.61c-.1-.18-.25-.36-.25-.57,0-.34.43-.53.72-.43.25.09.31.4.48.57.2.2.54.24.7.5.15.24-.02.46-.04.7-.03.5.23.86-.25,1.25-.75.62-1.25-.58-1.79-.88-.33-.18-.88-.25-.99-.69-.18-.72.75-.89,1.19-.57.27.2.46.54.73.72Zm2.2-.23s0-.07,0-.08c.37-.5.96.19,1.27.42.04.03.39.34.43.29.05-.06-.36-.42-.41-.46-.33-.29-1.5-.64-.91-1.23.06-.06.13-.12.2-.16.37-.21,1.23-.2,1.5.19.13.2.06.47.23.65.12.13.31.15.45.25.31.2.4.53.31.88-.12.47-.62.37-1,.42-.47.07-1.06.59-1.53.26-.17-.12-.2-.35-.34-.49-.16-.18-.45-.26-.53-.51-.04-.13.13-.58.33-.43Zm2.4-3.88s.14-.04.16-.06c.13-.18.21-.41.41-.53.76-.45,1.04.54,1,1.11,0,.08-.02.17-.04.25-.15.49-.61.25-.91.51-.19.16-.16.45-.24.66-.17.45-.69.65-1.14.52-.57-.17-.12-.92.1-1.18.03-.04.26-.24.24-.29,0,0-.14.1-.14.11-.09.07-.18.15-.28.22-.22.17-.77.53-.94.11-.1-.23.13-.46.2-.66.09-.24.09-.57.25-.77.28-.35.95,0,1.32,0Zm-2.17-.13s.22.12.26.16c.43.43-.18.65-.29.98-.11.33.04,1.71-.77,1.31-.43-.21.08-.65.19-.89.04-.07.12-.27.03-.34-.06-.05-.16.05-.19.09-.14.18-.23.41-.42.54-.1.07-.28.11-.3-.06-.02-.17.07-.36.12-.51.14-.41.21-.91.53-1.23.15-.15.71-.37.83-.06Zm-2.59.33s.05.1.06.08c.24-.37,1-.84,1.1-.1.06.43-.29.55-.46.88-.24.46-.1,1.32-.92,1.21-.62-.08,0-.66-.14-.98-.14-.33-.77-.24-.77-.66,0-.54.76-.8,1.13-.43Zm-2.3,1.25s.21.07.27.08c.07,0,.13,0,.2.01.07.02.37.1.27.23-.1.13-.36.13-.51.17-.22.06-.42.2-.59.35-.03.02-.33.31-.3.34.02.02.19-.13.2-.14.13-.09.27-.17.42-.24.3-.13.68-.26,1.01-.22.16.02.35.11.3.31-.07.29-.54.24-.73.41-.27.23-.22.69-.55.88-.29.17-.61-.26-.9-.3-.35-.04-.68.27-1.02.14-.15-.06-.22-.23-.23-.38,0-.34.16-1.06.39-1.31.21-.23.47.04.71.02.38-.03.62-.43,1.04-.35Zm-2.92.89s.06.2.06.25c.03.19-.41.16-.51.18-.28.06-.48.26-.67.46-.11.11-.22.23-.31.35-.05.06-.21.19-.13.19.05,0,.21-.25.24-.29.22-.23.55-.44.87-.48.14-.02.34,0,.39.17.05.19-.22.35-.28.51-.09.26-.01.59-.17.82-.25.36-.99.23-1.37.41-.32.16-.82.99-1.14.38-.32-.59-.24-1.94.14-2.49.2-.28.52-.42.81-.57.48-.25,1.75-.53,2.07.1Zm7.39-7.32s.18,0,.21-.03c.24-.24.77-.71,1.05-.25.11.18.06.42.14.61.1.23.34.4.33.67,0,.22-.17.37-.33.49-.37.27-.95.8-1.45.75-.13-.01-.18-.13-.15-.25.1-.31.27-.6.37-.93.03-.09.06-.19.09-.28.02-.05.09-.19.04-.16-.09.06-.16.33-.21.43-.18.36-.5.72-.78,1.01-.1.1-.28.22-.43.15-.2-.1-.19-.39-.2-.58-.02-.47-.01-1.21.44-1.51.15-.1.72-.34.88-.13Zm-6.96,1.48s0,.11.02.1c.36-.45,1.23.14.99.62-.11.21-.37.24-.53.39-.18.17-.09.56-.3.67-.21.1-.39-.24-.45-.38-.21-.48.1-.96.27-1.39Zm2.2-.07s-.11-.17-.07-.19c.16-.09.37.13.47.24.29.32.41.96-.09,1.14-.49.17-.64-.51-.54-.85.02-.08.13-.33.24-.33Zm-.43-1.97s.36-.07.45-.08c.59-.03,1.08-1.06,1.69-.58.09.07.16.16.22.24.09.12.16.27.22.41.08.19.19.41.11.61-.08.2-.3.19-.45.08-.24-.18-.43-.66-.81-.37-.38.3-.02.98-.45,1.26-.38.25-.45-.56-.81-.31-.22.15-.2.46-.31.67-.04.08-.15.19-.24.1-.13-.12-.1-.35-.15-.51-.14-.46-.4-.77-.22-1.29.07-.19.59-.54.74-.24Zm-4.6,1.35s.16.16.19.2c.31.37.74.19,1.11.41.38.24.3.93.26,1.31-.02.19-.07.39-.26.47-.26.11-.5-.07-.68-.23-.42-.36-.62-.75-.68-1.29-.03-.22-.05-.45-.02-.67,0-.01.04-.24.08-.21Zm-.56.29s-.01.29-.01.33c0,.28.07.63-.17.84-.72.62-1.87-.78-.89-1.3.12-.06.26-.1.4-.11.17,0,.34.04.48.12.04.02.19.12.19.12Zm-.3,4.89s.2.08.26.09c.75.14.36.96-.17,1.13-.48.15-.71-.3-1.12-.43-.24-.07-.63-.04-.72-.34-.04-.16.04-.32.16-.42.2-.17.5-.17.71-.34.29-.23.41-.62.81-.71.44-.09.84.35.66.77-.06.15-.2.21-.35.23-.03,0-.23,0-.23.02Zm-.76-2.5c.09.19.3.26.36.5.14.62-.56.79-1.03.66-.52-.14-.39-.65-.57-1.03-.11-.23-.34-.43-.18-.7.12-.2.4-.17.59-.15.53.07,1.02.1,1.56.07.21,0,.53-.05.69.12.28.3.05.75-.29.87-.23.08-.48-.02-.7-.1-.09-.03-.42-.25-.42-.25Zm16.08,9.13c.03.13.06.26.07.25.03-.02-.02-.14-.07-.25-.03-.14-.05-.3-.05-.33,0-.32.13-1.31.63-1.25.85.1.19,1.11.14,1.48-.03.22.02.44.02.65,0,0,.14.09.16.13.12.25.1.68-.27.66-.4-.02-.65-.45-.93-.68-.43-.36-1.13-.29-.92-1.05.03-.11.08-.21.14-.3.4-.6.85.17,1.02.52,0,.01.05.09.08.17Zm-1.01-3.39c-.1-.02-.2-.04-.29-.09,0,0,.23.04.29.09Zm0,0c.13.03.25.07.36.16.19.18.12.46.16.68.06.34.58.83.22,1.16-.44.4-1.1-.19-1.04-.68.04-.29.38-.28.44-.53.06-.24-.14-.52-.13-.77,0,0,0-.02-.02-.03Zm-18.53,3.28c.29-.11.7-.38.87-.65.17-.26.21-.69.52-.83.51-.23.68.41,1.1.5.48.11,1.21-.59,1.48.19.03.1.04.21.02.31-.1.39-1.09.72-1.46.67-.22-.03-.4-.27-.63-.18-.18.07-.31.27-.44.4-.2.2-.43.38-.67.54-.13.09-.36.23-.52.14-.22-.14.02-.41.16-.5.4-.26.77-.37,1.07-.78.09-.12.21-.33.14-.49-.11-.25-.46.12-.56.21-.36.33-.7.62-1.08.47Zm0,0s0,0,0,0c-.07.03-.3-.22-.3-.22.11.11.21.18.31.22Zm7.58-.81c-.02.06-.07.15-.02.15,0,0,.01-.08.02-.15,0-.01,0-.02,0-.03.04-.2.09-.38.16-.57.24-.63.59-1.39,1.22-1.69.16-.08.58-.27.72-.07.09.13-.13.25-.21.3-.24.14-.81.23-.87.55-.05.26.3.4.29.67-.01.38-.34.56-.46.89-.19.56.22,1.3-.64,1.47-.12.02-.24.03-.36,0-.49-.15-.95-.95-.91-1.44.02-.29.18-.54.27-.81.07-.21.07-.45.2-.64.18-.27.5-.38.7-.62.16-.19.2-.45.35-.65.11-.13.63-.31.63,0,0,0-.15.26-.2.32-.37.4-.65,1.1-.79,1.63-.05.18-.09.37-.11.56,0,0,0,.06-.01.12Zm7.38-8.9s-.04.04-.06.06c-.02.02.13-.02.13-.02-.02-.01-.04-.02-.06-.03.49-.39,1.03.28,1.53,0,.34-.2.37-.64.53-.96.06-.12.19-.28.28-.09.27.55-.03,1.39-.34,1.85-.12.18-.28.4-.5.45-.37.08-.7-.43-1.08-.48-.25-.04-.57.16-.8.05-.4-.19.04-.91.38-.8Zm-2.26.71c.04-.23.05-.46.04-.58,0-.04-.02-.53-.05-.53-.01,0,0,.14,0,.14,0,.17.01.34.02.5,0,.1,0,.28,0,.47-.07.4-.23.82-.55.83-.41.01-.27-.84-.33-1.08-.09-.35-.43-.49-.56-.81-.13-.33.29-.27.31-.52.04-.46-.48-.87-.11-1.33.06-.08.17-.2.28-.2,0,0,.18.11.23.11.09,0,.17-.04.26-.04.38,0,.41.3.63.53.14.14.32.22.4.41.09.21.07.45.15.66.08.24.31.39.41.62.22.51-.07,1-.46,1.32-.06.05-.12.1-.19.13-.41.19-.47-.24-.47-.64Zm-2.41,1.48c-.08-.26-.22-.52-.33-.75-.02-.04-.21-.46-.25-.44-.07.03.15.46.17.51.12.22.25.47.41.69.06.18.09.36.08.53,0,.19-.11.5-.36.41-.24-.08-.38-.56-.53-.76-.18-.23-.42-.42-.59-.66-.31-.47-.52-1.95.27-2.1.22-.04.34.11.54.14,0,0,.09.17.12.21.08.12.15.24.31.27.23.04.49-.1.67.09.15.16.19.44.11.64-.07.15-.23.3-.19.48.09.34.9.68.45,1.12-.15.15-.4.08-.55-.04-.12-.1-.23-.22-.33-.35Zm-3.1-4.46c-.03-.07-.06-.13-.1-.19-.04-.07-.21-.43-.3-.41-.05,0,.28.47.31.51.02.03.06.06.09.1.14.31.22.65.19,1-.01.14-.03.37-.19.42-.25.08-.57-.63-.71-.78-.26-.28-.75-.41-.95-.72-.19-.32.04-.62.09-.93.05-.38-.4-.93.21-1.1.08-.02.17-.03.25-.03,0,0,.15-.05.19-.06.48-.1.46.44.81.6.22.1.57.07.7.31.12.22-.03.49.1.7.14.23.64.34.51.7-.18.53-.89.16-1.2-.12Zm.29,4.51s-.07-.08-.1-.11c-.12-.13-.24-.25-.37-.37-.01-.01-.11-.12-.13-.1-.02.02.12.17.14.19.14.15.3.26.46.38.33.38.93,1.2.26,1.41-.51.15-.48-.43-.84-.57-.45-.18-.86.51-1.26.07-.21-.22-.14-.54-.26-.8-.14-.33-.55-.46-.52-.87.07-.83,1.16-.52,1.58-.2,0,0,.28-.04.35-.04.42,0,.78-.48,1.19-.37.56.15.11.73.28,1.04.08.14.33.11.46.14.38.1.8.57.5.95-.53.68-1.25-.37-1.63-.67-.04-.03-.08-.06-.11-.09Z"/>
    <path class="cls-3" d="m77.54,29.87c-.51,0-.91.93-1.05,1.31-.25.71-.5,1.2-.48,1.96.02.81.05,1.9-.2,2.7-.18.59-.25,1.7-1.13,1.4-.32-.11-.16-.74-.17-1.04-.03-.72.05-1.57.05-2.29,0-.87-.12-1.27-.38-2.11-.07-.23-.38-.72-.21-.95.11-.14.35-.09.5-.14.21-.07.31-.28.54-.33.3-.06.61.03.91-.07.5-.18.76-.65,1.36-.45.04.01.23.04.23.04Z"/>
  </g>
</svg>