<svg xmlns="http://www.w3.org/2000/svg" width="150" height="150" viewBox="0 0 150 150">
  <defs>
    <style>
      .cls-1 {
        fill: #c1272d;
      }

      .cls-2 {
        fill: #ebbc2f;
        stroke-width: 1.50572px;
      }

      .cls-2, .cls-6, .cls-7 {
        stroke: #151515;
      }

      .cls-2, .cls-3, .cls-6, .cls-7 {
        stroke-miterlimit: 10;
      }

      .cls-3 {
        fill: none;
        stroke: #1a1a1a;
        stroke-width: 3.01144px;
      }

      .cls-4, .cls-6, .cls-7 {
        fill: #ececec;
      }

      .cls-5 {
        fill: #151515;
      }

      .cls-6 {
        stroke-width: 2px;
      }

      .cls-7 {
        stroke-width: 2.25858px;
      }

      .cls-8 {
        fill: #2c2c2c;
      }
    </style>
  </defs>
  <g id="Layer_2" data-name="Layer 2">
    <g>
      <path class="cls-1" d="M73.11785,3.47826H19.66476V102.103s3.7643,27.103,54.95881,44.41877h.75286C126.57094,129.206,130.33524,102.103,130.33524,102.103V3.47826H73.11785Z"/>
      <path class="cls-2" d="M19.66476,102.103s.75759,5.42856,6.17728,12.97683L130.33524,41.17V3.47826H109.25515L19.66476,66.847Z"/>
      <path class="cls-3" d="M73.11785,3.47826H19.66476V102.103s3.7643,27.103,54.95881,44.41877h.75286C126.57094,129.206,130.33524,102.103,130.33524,102.103V3.47826H73.11785Z"/>
      <g>
        <g>
          <path class="cls-4" d="M60.54686,51.6969l57.93752,50.08158s2.946,2.16038,6.28475-1.37479.1964-6.48114.1964-6.48114L65.45682,45.41215Z"/>
          <path class="cls-5" d="M120.70109,103.56266a5.001,5.001,0,0,1-2.88425-.87344l-.07058-.05661L58.99521,51.84835l6.28168-8.03958.894.72787,59.56714,48.5617a5.85487,5.85487,0,0,1,1.69467,3.78562,5.944,5.944,0,0,1-1.84245,4.29513A6.697,6.697,0,0,1,120.70109,103.56266Zm-1.52337-2.67839c.31614.20733,2.31519,1.34324,4.77008-1.25649,2.35416-2.49238.694-4.43481.26468-4.862l-58.57534-47.75-3.53932,4.52966Z"/>
        </g>
        <g>
          <path class="cls-6" d="M58.87052,111.64852l-8.60184,4.13886s4.91988,14.76852,25.93545,25.59811l4.22921-10.15137Z"/>
          <path class="cls-6" d="M65.56078,105.287,56.21031,108.914s6.13435,17.13757,26.4324,24.52072l4.92015-10.01353Z"/>
          <path class="cls-6" d="M74.58721,100.35989l-10.03633,3.7725S70.445,116.358,88.82823,126.72107l5.30275-9.62352Z"/>
          <path class="cls-6" d="M77.30571,96.3744l-3.973,4.45706s4.29613,10.5645,21.19111,19.99766l4.32076-9.03432L82.8458,96.81407Z"/>
          <path class="cls-6" d="M80.13948,95.69092a73.03611,73.03611,0,0,0,19.88345,20.81744,48.139,48.139,0,0,0,4.12437-8.05233s-14.211-8.57443-18.38512-14.60169Z"/>
          <path class="cls-6" d="M86.35264,87.47308l-1.925,4.967s10.07541,13.66,21.92918,18.45455c0,0,6.62845-5.38459,6.02289-10.54C112.37967,100.35459,98.69633,87.97478,86.35264,87.47308Z"/>
          <ellipse class="cls-5" cx="86.86424" cy="120.82912" rx="1.41329" ry="1.54458" transform="translate(-36.93109 203.41114) rotate(-87.99424)"/>
          <ellipse class="cls-5" cx="92.5598" cy="115.13357" rx="1.43037" ry="1.52613" transform="translate(-48.13306 160.17327) rotate(-68.95433)"/>
          <ellipse class="cls-5" cx="80.5795" cy="127.89946" rx="1.43037" ry="1.52613" transform="translate(-67.72543 157.17363) rotate(-68.95433)"/>
          <ellipse class="cls-5" cx="99.04094" cy="110.61641" rx="1.0671" ry="1.13854" transform="matrix(0.35911, -0.93329, 0.93329, 0.35911, -39.76353, 163.32709)"/>
          <path class="cls-6" d="M74.14386,92.57357a18.51165,18.51165,0,0,0,.7343,9.08894l11.172-1.64982-.30866-6.72434S77.27242,91.83665,74.14386,92.57357Z"/>
          <path class="cls-6" d="M76.17522,85.92761a12.70431,12.70431,0,0,0-2.3443,6.85839l12.24741.54038L86.022,87.15083Z"/>
          <path class="cls-6" d="M86.367,74.009S79.1881,77.69532,76.22987,85.10379c0,0,10.25534,2.01262,10.23741,1.82478s4.28-4.7321,4.28-4.7321S90.5825,76.2812,86.367,74.009Z"/>
          <path class="cls-6" d="M97.82115,73.221a19.8233,19.8233,0,0,0-10.13709,1.3207l3.05682,8.28579,4.47553.10888Z"/>
          <path class="cls-6" d="M93.74393,80.77571s-8.05708,3.56238-7.25872,6.3407,6.09872,1.75392,6.09872,1.75392l5.139-2.715S99.40377,82.12083,93.74393,80.77571Z"/>
          <path class="cls-6" d="M99.63644,85.25647l-9.80793,4.07082a2.33961,2.33961,0,0,0-.15242,3.29037c1.39436,2.0404,4.77566,1.15858,4.77566,1.15858l9.1274-2.82214Z"/>
          <path class="cls-6" d="M104.78865,90.35977l-8.9229,2.87s-2.17266,1.67483-.7783,3.71522c1.818,2.66035,7.33854.779,7.33854.779l6.2695-2.04228Z"/>
          <path class="cls-6" d="M100.60256,98.8684a2.098,2.098,0,0,0,.87093,2.14235c1.71371,1.1969,4.67961.85042,5.8588.63669a37.56387,37.56387,0,0,0,4.94-2.00656l-3.2878-4.42206Z"/>
          <path class="cls-6" d="M115.8842,85.81493l-7.35094,9.56354a3.54062,3.54062,0,0,0,1.76621,3.84146,3.22533,3.22533,0,0,0,4.18736-.81558s6.35746-8.10244,6.33953-8.29028.78343-2.26526-.62331-3.7372S115.8842,85.81493,115.8842,85.81493Z"/>
          <path class="cls-6" d="M112.9465,79.4751l-8.946,11.00628a3.00279,3.00279,0,0,0,.74969,3.66476,4.3959,4.3959,0,0,0,4.42088.93271l7.3693-10.06938s1.03019-2.47277-.32232-4.07486A4.18881,4.18881,0,0,0,112.9465,79.4751Z"/>
          <path class="cls-6" d="M107.15047,74.60882,99.00458,85.61871s-.63827.9933.678,2.91338,4.49261,1.68408,4.49261,1.68408l9.13253-11.14625s.92218-2.90616-.81543-4.35352A4.47217,4.47217,0,0,0,107.15047,74.60882Z"/>
          <path class="cls-6" d="M98.605,70.26211,93.828,80.95864s-.69249,1.12344.61179,2.91829,5.203.74848,5.203.74848l7.44786-10.64274a4.25052,4.25052,0,0,0-2.88477-4.38894A5.38952,5.38952,0,0,0,98.605,70.26211Z"/>
          <ellipse class="cls-5" cx="77.67511" cy="97.27707" rx="1.0671" ry="1.13854" transform="translate(-41.0071 134.83746) rotate(-68.95433)"/>
          <ellipse class="cls-5" cx="78.28447" cy="89.52288" rx="1.0671" ry="1.13854" transform="matrix(0.35911, -0.93329, 0.93329, 0.35911, -33.37963, 130.4366)"/>
        </g>
        <path class="cls-7" d="M74.67046,34.103l-5.51761-2.76124a20.12043,20.12043,0,0,0-3.6974-8.90547L67.81531,15.114l-7.42425,2.47758a20.10919,20.10919,0,0,0-9.27791-3.31081L48.17376,8.48926l-3.07959,6.1038a20.13326,20.13326,0,0,0-8.188,3.72548L28.92674,15.3632l3.05569,8.363a20.099,20.099,0,0,0-2.65968,6.6946l-6.58137,3.60379,6.35363,2.9598a20.09072,20.09072,0,0,0,1.35183,5.127l-3.43749,6.44288,6.78815-.98262a20.28376,20.28376,0,0,0,6.941,5.23593l1.7165,7.4481,4.9008-5.69682c.59346.05239,1.19289.08409,1.8.08409A20.22827,20.22827,0,0,0,69.2289,36.88723Z"/>
        <g>
          <polygon class="cls-8" points="37.434 30.696 38.883 35.685 33.734 35.041 33.547 36.535 40.967 37.463 38.88 30.276 37.434 30.696"/>
          <polygon class="cls-8" points="50.272 20.849 48.825 21.269 50.274 26.258 45.125 25.614 44.938 27.108 52.358 28.036 50.272 20.849"/>
          <polygon class="cls-8" points="49.218 40.712 50.667 45.702 45.518 45.058 45.331 46.552 52.751 47.48 50.664 40.293 49.218 40.712"/>
          <polygon class="cls-8" points="60.68 32.044 59.235 32.463 60.683 37.453 55.534 36.81 55.347 38.303 62.767 39.231 60.68 32.044"/>
        </g>
      </g>
    </g>
  </g>
</svg>
