<?xml version="1.0" encoding="UTF-8"?>
<svg id="Layer_7" data-name="Layer 7" xmlns="http://www.w3.org/2000/svg" width="150" height="150" viewBox="0 0 150 150">
  <defs>
    <style>
      .cls-1, .cls-2, .cls-3, .cls-4, .cls-5, .cls-6, .cls-7, .cls-8, .cls-9 {
        stroke-width: 0px;
      }

      .cls-1, .cls-2, .cls-4, .cls-6, .cls-7, .cls-9 {
        fill-rule: evenodd;
      }

      .cls-1, .cls-3 {
        fill: #1a1a1a;
      }

      .cls-2 {
        fill: #3c56b8;
      }

      .cls-4 {
        fill: #0d0d0d;
      }

      .cls-5 {
        fill: #d8c3b3;
      }

      .cls-6, .cls-8 {
        fill: #ecc12a;
      }

      .cls-7 {
        fill: #141414;
      }

      .cls-9 {
        fill: #eee;
      }
    </style>
  </defs>
  <g id="squad_usa_pilot_fighter_3_icon">
    <circle class="cls-3" cx="74.98" cy="75.5" r="72.5"/>
    <circle class="cls-8" cx="74.98" cy="75.5" r="68.47"/>
    <path class="cls-1" d="m74.98,10.28c36,0,65.22,29.22,65.22,65.22s-29.22,65.22-65.22,65.22S9.76,111.5,9.76,75.5,38.98,10.28,74.98,10.28Z"/>
    <circle class="cls-5" cx="74.98" cy="75.5" r="63.21" transform="translate(-15.73 131.13) rotate(-76.72)"/>
    <path class="cls-4" d="m57.91,95.6c.37,3.6-.31,6.99-1.93,9.55.6,3.96-.6,6.28-2.01,8.01,0,.01.02.03.02.04.29.52.58,1.33.72,2.39.27-.11.53-.17.78-.19,1.96-2.01,2.25-3.19,2.43-4.21.21-1.26.31-2.32,2.06-3.88-1.49-3.44-.65-7.02,1.16-9.77,0,0-.43-1.14-.49-1.32l-.44-1.18-1.02-1.34-1.28,1.9Zm-11.82-34.1c-.59,1.1-1.4,2.07-2.8,2.85-.87.48-1.87.66-2.85.88-.75.16-1.49.33-2.07.85-.53.46-.52,1.01-.52,1.56,0,.61.02,1.24-.14,1.88-.4,1.6-1.08,2.52-2.56,3.33-1.58.87-4.93,1.08-6.26,1.14-.2,0-.4.01-.59,0-.3.79-.99,1.76-2.6,1.97-.9.12-1.51-.14-1.93-.5-.22-.19-.38-.43-.5-.68-.04.04-.08.08-.12.12-.35.35-.93.36-1.28,0-.35-.35-.36-.93,0-1.28.34-.34.69-.66,1.03-.95-.27-.41-.36-.84-.35-1.24.03-.97.8-1.89,1.7-2.31.79-.37,1.45-.38,1.99-.22.37.11.7.31.97.58.09-.03.17-.06.27-.09.81-.24,1.9-.25,2.81-.3.39-.02.73-.01.91-.12.28-.16.44-.41.55-.71.16-.43.23-.94.28-1.46.14-1.36.21-2.8.82-3.77,1.17-1.87,2.88-2.93,4.69-3.84,1.59-.81,3.27-1.5,4.59-2.75,1.02-.96,1.27-2.12,1.31-3.33.05-1.46-.17-3-.04-4.47.15-1.72.92-3.05,2.12-4.22.17-.16.34-.32.53-.47-.09-.02-.18-.04-.27-.05-1.88-.24-3.1-.72-4.84-2.36-1.68-1.59-2.95-4.38-3.13-8.07-.12-2.45-.51-4.73-.3-6.01.16-1,.65-1.58,1.35-1.8,1.92-.6,3.06.53,3.83,2.1.33.66.59,1.4.86,1.97.1.2.16.38.28.47.2.14.48.23.8.32.65.19,1.42.34,2.1.55,1.04.32,1.89.83,2.28,1.56.34.63.64,1.2.89,1.71.97-1.65,2.46-2.4,4.1-2.31.37.02.81.09,1.29.21,1.94-1.25,7.52-4.21,13.21-1.64,5.01,2.26,5.62,6.99,5.51,9.71.93.36,1.62.86,1.99,1.43.13.2.23.4.33.6,1.25-.06,2.1-.08,2.38-.05,2.26.21,3.47,1.12,4.54,2.07.56.5,1.06,1.02,1.74,1.37.88.46,2.26.52,3.1.79.75.24,1.21.65,1.39,1.11.26.67.07,1.29-.61,1.85-.33.28-.85.56-1.36.9-.35.24-.7.51-.91.89-.91,1.73-2.41,3.02-4.58,3.66-2.87.85-4.15.74-5.99.22-.4-.11-.85-.24-1.3-.36,0,.24-.01.47-.05.7-.31,1.69-1.69,4.08-2.21,5.59-.2.57-.55,1.42-.63,2.22-.05.47,0,.94.5,1.14.42.17.74.03,1-.22.46-.43.8-1.07,1.12-1.57.39-.61.74-1.41,1.19-2.14.56-.9,1.27-1.67,2.25-2.03,1.77-.65,3.85-.79,5.48.35.51.36,1.03,1.05,1.46,1.76.25.42.47.85.63,1.2.27,0,.59,0,.91.06.99.18,1.97.75,2.04,2.19.07,1.4-.74,2.17-1.51,2.59.28.59.55,1.22.83,1.89.19.46-.03.99-.5,1.18-.46.19-.99-.03-1.18-.5-.21-.5-.41-.99-.62-1.44-.39.3-.9.52-1.55.48-.66-.04-1.15-.26-1.5-.56-.52-.44-.78-1.08-.86-1.72-.06-.44-.03-.87.01-1.2-.04-.05-.09-.09-.14-.14-.04-.04-.11-.1-.14-.12-.59-.1-1.01-.02-1.46.45-1.01,1.05-1.45,2.43-2.1,3.59-.82,1.46-1.9,2.65-4.15,2.94-.61.08-1.22.05-1.82-.07,1.1,1.59,2.12,3.13,3.13,3.71,3.1,1.77,7.17,1.38,10.07-1.81,3.44-3.78,4.59-4.93,8.15-6,2.45-.74,5.37.01,7.06.61.54-6.2,4.84-11.2,10.9-10.91,1.42.07,2.49.65,3.53,1.26,1.13.65,2.24,1.33,4.18.57,2.07-.81,3.36-3.26,3.13-5.25-.15-1.26-.39-2.62-.3-3.66.09-1.03.5-1.81,1.27-2.25.72-.41,1.56-.59,2.47-.32,1.1.33,2.41,1.43,3.55,4.24,1.72,4.24,1.95,8.75-1.47,13.89-2.54,3.81-5.17,5.18-7.44,5.35-3.53.27-6.37-2.38-7.35-4.1-.18-.32-.58-.42-1.06-.42-1.15,0-2.65.66-4.09,2.07-1.43,1.4-2.99,4.11-2.11,6.76,1.08,3.25,1.77,6.94.57,10.41-.59,1.71-1.28,2.63-1.74,3.44-.3.53-.44.99-.18,1.83.18.57.64,1.07,1.15,1.55.64.6,1.38,1.16,2.01,1.7.61.52,1.12,1.04,1.42,1.55.29.48.42.98.37,1.47-.1,1.13-.81,2.02-1.49,2.79-.22.25-.44.49-.57.73-.03.06-.08.12-.06.19.43,1.54.5,4.3-2.33,7.25-1.22,1.28-1.37,2.64-1.3,3.73.06.91.23,1.67.21,2.14-.04,1.05.35,1.86.79,4.08.27,1.33.24,1.85.06,2.27-.09.22-.23.42-.44.67-.27.31-.72.75-1.38,1.77-.6.92-1.84,1.81-3.31,2.55-3.1,1.55-7.24,2.55-7.24,2.55-.51.12-1.04-.17-1.2-.67-.19-.6-.26-1.23-.22-1.82-.63.1-1.29.11-1.99,0-.23-.04-.45-.15-.6-.33-.14-.16-.27-.4-.32-.73-.05-.31-.01-.8.16-1.4.44-1.53,1.81-4.06,4.37-6.01,2.09-1.59,3.66-2.43,4.58-2.85-.23-.68-.54-1.66-.76-2.7-.3-1.39-.44-2.87-.17-3.97.3-1.2.68-2.12,1.01-2.77-2.93-1.06-5.2-3.24-6.75-5.94.45,2.29-.67,4.43-.95,4.9-.04.06-.07.11-.07.11,0,0-1.97,3.06-.45,6.2,1.9,3.95,1.74,3.8,1.61,6.09-.07,1.22-.88,2.48-1.97,3.58-1.39,1.39-3.2,2.53-3.76,2.95-1.01.77-3.7,1.34-3.7,1.34h0c-.27.05-.55,0-.78-.17-.71-.51-1-1.14-1.08-1.79-.91.35-1.79.45-2.64.35-.39-.05-.72-.32-.84-.69,0,0-.56-1.64.09-4.03.33-1.22,1.15-2.22,2.09-3.02.82-.7,1.73-1.24,2.37-1.69.87-.6,1.95-2.47.47-3.75-1.13-.97-2.12-2.19-1.53-4.15.07-.22.01-.41-.08-.6-.14-.26-.36-.5-.59-.74-.73-.75-1.6-1.42-1.94-2-.67-1.16-.85-2.62-.88-3.61-.67.02-1.57.04-2.48.04-.98,0-1.7.52-1.99.78-.23.64-.93,2.25-2.3,3.06-.47.28-.64.82-.76,1.4-.16.82-.15,1.73-.15,2.51,0,1.82.32,4.74-1.23,7.01-1.43,2.1-3.01,3.87-3.73,4.64.02.06.06.16.1.23.21.41.58.83.89,1.18,1.07,1.17.79,2.86.25,3.88-.18.34-.61.73-1.26,1.06-.92.47-2.39.93-3.3,1.51-1.08.69-3.22,2.56-4.31,3.14-.35.18-.64.27-.86.28-.26.02-.48-.04-.65-.12-.2-.1-.4-.27-.55-.54-.13-.24-.25-.62-.31-1.09-.04-.29-.06-.63-.07-.96-.59.46-1.19.87-1.63,1.01-.59.18-1.06.06-1.41-.24-.51-.44-.76-1.22-.69-2.14.02-.31.08-.64.15-.97-.5.21-1.07.43-1.69.64-.57.19-2.38.78-3.27.94-.48.08-.83.03-.99-.04-.28-.11-.53-.33-.65-.72-.04-.14-.07-.33-.06-.57.01-.26.08-.63.17-1.04.03-.14.06-.29.09-.46-.54.27-1.05.51-1.32.56-.52.1-.86-.1-1.04-.28-.2-.2-.42-.53-.28-1.05.07-.71.53-4.25,3.4-6.71,1.46-1.25,2.98-1.79,3.83-2.01.36-1.59,1.27-5.69,1.36-6.62.1-1.05.22-2.67-.25-3.86-.3-.74-.21-1.65.07-2.48.2-.58.47-1.11.67-1.45-.26-.89-.71-2.83-.29-4.26.2-.7.04-1.44-.06-2.26-.13-1.09-.19-2.3.29-3.7.17-.51.65-1.13,1.35-1.76,1.25-1.14,3.25-2.46,4.35-3.56.55-.55.97-1.52,1.33-2.59.61-1.81,1.01-3.91,1.26-5.18.07-.37-.02-.76-.16-1.15-.18-.51-.47-1.01-.76-1.44-3.01.88-4.96.42-7.13-.5-.99-.42-1.8-1.2-2.42-2.16-.84-1.31-1.32-2.95-1.5-4.3-.09-.69.1-1.86.46-3.19.08-.3.17-.61.27-.93Z"/>
    <path class="cls-1" d="m49.46,36.98c-.31,1.36-.81,2.2-1.21,3.06-.39.84-.71,1.69-.76,2.91-.4-.25-.91-.46-1.55-.54-1.56-.2-2.55-.6-3.99-1.96-1.47-1.38-2.5-3.84-2.66-7.05-.1-2.01-.4-3.9-.36-5.17.01-.36.05-.66.14-.88.05-.12.11-.21.21-.24,1.06-.33,1.6.45,2.03,1.32.33.66.58,1.4.86,1.97.23.47.49.84.77,1.04.61.43,1.72.66,2.76.93.46.12.9.25,1.28.43.3.15.55.31.68.56.86,1.6,1.43,2.77,1.8,3.61Zm19.8,18.6c-.21.49-.4,1.03-.49,1.54-.26,1.45-2.03,4.91-3.9,7.4-.03.02-.06.05-.08.09-.04.06-.08.12-.13.18-.21.26-.43.53-.68.8-.06.07-.11.15-.12.24-1.07,1.31-2.63,2.99-3.99,4.14-.67.57-1.29,1.01-1.78,1.2-.33.13-.59.16-.74,0-.03-.04-.08-.05-.13-.04-.01-.02-.03-.03-.04-.05-.13-.17-.37-.24-.57-.16-.12.05-.25.09-.37.13-2.74.86-4.46.45-6.38-.36-.72-.3-1.29-.89-1.74-1.59-.72-1.12-1.12-2.53-1.27-3.68-.1-.77.28-2.22.77-3.78.78-2.49,1.86-5.24,2.05-6.14.33-1.56-.14-3.45-.81-5.9-.2-.74-.23-1.55-.19-2.31,1.02,1.28,2.67,2.13,4.92,3.06,2.83,1.16,6.06.79,7.38.57.76,1.21,2.97,4.01,7.3,4.59.35.05.67.07.99.08Zm-11.73,15.97c.18.03.41,0,.66-.07.53-.17,1.76-.69,2.51-1.24,1.44-1.05,3.21-2.25,4.4-3.5.63.27.72.44,1.54,1.01,1.56,1.1,3.04,3.49,4.46,5.5,1.02,1.44,2.02,2.69,2.97,3.23,3.68,2.1,8.5,1.67,11.93-2.1,3.17-3.48,4.19-4.59,7.47-5.57,3.21-.97,7.36,1.08,7.36,1.08.16.08.34.07.49-.03.15-.09.24-.26.23-.43-.07-5.95,3.71-11.13,9.38-10.86,1.47.07,2.46.87,3.55,1.45,1.27.67,2.64,1.11,4.78.28,2.7-1.05,4.38-4.24,4.08-6.83-.13-1.15-.38-2.4-.3-3.35.04-.47.15-.87.51-1.07,1.07-.61,2.48-.29,3.88,3.17,1.54,3.81,1.75,7.86-1.33,12.48-2.18,3.27-4.35,4.53-6.3,4.68-2.85.22-5.13-1.95-5.92-3.34-.42-.73-1.26-1.17-2.36-1.18-1.43-.01-3.36.73-5.16,2.5-1.75,1.72-3.57,5.07-2.49,8.32.98,2.94,1.66,6.29.58,9.44-.55,1.59-1.2,2.44-1.62,3.18-.5.88-.73,1.64-.3,3.03.2.65.62,1.25,1.16,1.81.73.77,1.68,1.47,2.46,2.14.4.34.75.67.99,1,.18.25.3.49.28.74-.04.45-.25.83-.5,1.18-.3.41-.66.78-.95,1.14-.51.63-.81,1.25-.62,1.94.35,1.24.31,3.43-1.96,5.8-1.6,1.67-1.8,3.45-1.72,4.86.05.85.22,1.55.21,1.99-.04,1.14.34,2.02.82,4.43.09.47.16.79.18,1.04.01.15.01.25-.02.34-.07.17-.22.3-.44.54-.3.33-.71.82-1.26,1.66-.49.75-1.53,1.42-2.72,2.02-2.34,1.17-5.29,2.01-6.43,2.31-.14-.79,0-1.58.4-2.16.13-.19.12-.44-.03-.62-.15-.17-.4-.23-.6-.13-.84.4-1.73.64-2.73.55.01-.16.04-.38.1-.59.38-1.33,1.6-3.52,3.83-5.22,3.24-2.47,5.09-2.99,5.09-2.99.14-.04.25-.13.32-.26.06-.13.07-.28.02-.41,0,0-.65-1.61-1.04-3.41-.25-1.15-.4-2.38-.18-3.29.56-2.3,1.47-3.41,1.47-3.41.11-.13.15-.32.09-.48-.06-.17-.19-.29-.36-.33-4.87-1.12-7.89-5.61-8.93-10.45,0,0,0,0,0,0,.04-.13.03-.28-.05-.41-.15-.24-.46-.31-.69-.16,0,0-.93.62-2.43,1.39-.73.38-1.6.79-2.56,1.18-.9.37-2,.66-3.08.89-1.5.32-2.97.51-3.89.62,0,0-.01-.01-.02-.02-.1-.11-.24-.16-.39-.16,0,0-1.74.08-3.48.08-.38,0-.74.05-1.06.14.33-.58.68-1.34.99-2.3.33-1.03.33-2.58.16-4.17-.31-2.94-1.14-6-1.14-6-.02-.07-.08-.11-.15-.09-.07.02-.11.08-.09.15,0,0,.66,3.07.82,5.99.08,1.48.03,2.93-.33,3.87-.31.81-.63,1.45-.95,1.96-.7,1.15-1.31,1.56-1.31,1.56-.11.08-.18.19-.2.31-.05.06-.08.12-.1.19,0,0-.45,1.7-1.71,2.44-.68.4-1.09,1.06-1.33,1.85-.32,1.04-.32,2.31-.32,3.36,0,1.59.39,4.17-.96,6.16-1.4,2.06-2.95,3.79-3.63,4.5-.41.43-.46.97-.26,1.55.22.64.79,1.33,1.28,1.87.59.65.32,1.59.03,2.16-.04.08-.15.15-.28.23-.2.13-.46.25-.74.38-.95.42-2.19.86-3.01,1.39-.93.6-2.66,2.09-3.79,2.83-.17.11-.36.21-.5.28-.03-.1-.06-.24-.07-.35-.12-.97-.02-2.44-.02-2.44,0-.14-.04-.29-.15-.39-.1-.1-.24-.16-.39-.15,0,0-.67.01-1.65.79-.39.31-.79.63-1.14.84-.1.06-.25.12-.32.14-.08-.1-.1-.24-.12-.4-.03-.29,0-.62.07-.96.2-1.11.72-2.26.72-2.26.04-.09.05-.19.04-.29.22-.46.48-.91.79-1.35.86-1.24,2.05-2.37,3.67-3.21.06-.03.11-.07.15-.12.14.01.29-.04.4-.14,2.64-2.59,2.96-4.09,3.17-5.35.19-1.1.27-2,2.13-3.47.19-.15.25-.42.13-.63-1.73-3.22-.88-6.65.88-9.19.05-.01.09-.03.13-.06.24-.15.31-.46.16-.69-.13-.2-.26-.41-.37-.62l-.9-2.41s-.02-.05-.04-.08c-.36-1.64-.27-3.32.1-4.85.84-3.43,3.07-6.15,4.98-6.25.04,0,.07-.04.07-.08,0-.04-.04-.07-.08-.07-2,0-4.48,2.72-5.53,6.25-.35,1.18-.54,2.46-.5,3.75l-.41-.54c-.58-.85-1.12-1.79-1.59-2.74-.85-1.71-1.46-3.42-1.65-4.6,0-.07-.07-.12-.14-.11-.07,0-.12.07-.11.14.11,1.22.6,3.02,1.33,4.83.22.55.47,1.11.73,1.65,0,0-.01.02-.02.03l-2.27,3.37c-.07.1-.1.22-.08.34.44,3.51-.21,6.82-1.86,9.23-.07.11-.1.24-.08.37.72,4.06-.69,6.19-2.13,7.77-.1.11-.15.26-.13.4.02.15.1.28.22.36.13.09.27.32.42.65.28.65.51,1.64.5,2.96,0,.11.03.21.09.3-.84.72-1.51,1.53-2.05,2.37-.29.46-.54.93-.76,1.4-.03,0-.06.02-.09.04,0,0-1.54.86-3.61,1.56-.47.16-1.83.61-2.72.82-.08.02-.16.03-.24.05.05-.28.13-.64.21-.99.14-.61.26-1.22.24-1.58-.02-.37-.2-.59-.39-.69-.12-.06-.33-.1-.58-.04-.43.1-1.21.53-1.82.83.18-1.09.8-3.45,2.81-5.18,1.83-1.57,3.75-1.8,3.75-1.8.21-.02.39-.18.43-.39,0,0,1.42-6.26,1.53-7.45.11-1.24.21-3.15-.35-4.56-.17-.43-.06-.96.1-1.43.28-.82.76-1.51.76-1.51.09-.13.12-.31.06-.46,0,0-.86-2.27-.42-3.8.21-.73.16-1.48.06-2.29-.12-1.05-.32-2.21.15-3.61.16-.46.77-1.01,1.5-1.62,1.25-1.03,2.88-2.16,3.84-3.12.68-.68,1.24-1.85,1.69-3.17.64-1.88,1.06-4.06,1.31-5.38.12-.62.02-1.29-.22-1.95-.25-.7-.65-1.38-1.05-1.95Zm19.33,25.32c.93-.06,2.38-.17,3.86-.4,1.13-.18,2.28-.42,3.23-.75,1-.35,1.91-.72,2.69-1.07.42-.19.81-.37,1.14-.53-.37.9-.54,2.2.32,3.75,1.32,2.36-.41,4.99-.41,4.99h0s-2.41,3.79-.54,7.67c1.68,3.47,1.58,3.33,1.47,5.35-.05.9-.73,1.79-1.53,2.59-1.33,1.33-3.07,2.41-3.6,2.82-.67.51-2.25.89-2.85,1.01-.31-.31-.34-.7-.32-1.07.02-.4.09-.79.08-1.1,0-.19-.11-.35-.28-.43-.17-.08-.36-.07-.52.04-1.01.72-1.96,1.03-2.89,1-.08-.49-.17-1.52.18-2.85.25-.93.9-1.66,1.61-2.27.78-.66,1.64-1.17,2.25-1.59,1.42-.98,3.01-4.05.6-6.14-.71-.61-1.44-1.34-1.07-2.57.26-.88-.06-1.67-.64-2.38-.44-.53-1.01-1.02-1.49-1.46-.26-.24-.5-.47-.62-.69-.91-1.58-.67-3.86-.67-3.86,0-.03,0-.05,0-.08Zm-.66-52.99c1.23-.06,2.08-.09,2.35-.06,1.83.17,2.8.92,3.67,1.7.65.58,1.25,1.17,2.04,1.58.83.43,2.06.58,2.97.79.25.06.48.12.65.21.06.03.13.05.15.09-.01.02-.03.05-.05.07-.09.1-.22.19-.37.29-.74.49-1.85,1.07-2.37,2.06-.73,1.38-1.94,2.4-3.67,2.91-2.47.73-3.57.66-5.15.21-.79-.22-1.76-.48-2.55-.7.47-.78.86-1.74,1.19-2.9.58-2.01.98-3.52,1.12-4.72.06-.56.07-1.07.02-1.53Z"/>
    <path class="cls-6" d="m73.18,53.99c.24.37.28.88.2,1.3-.3,1.63-1.65,3.94-2.16,5.39-.27.78-.78,2.04-.72,3.1.05.82.4,1.53,1.32,1.91,1,.41,1.77.11,2.39-.48.54-.5.96-1.24,1.33-1.83.39-.61.74-1.42,1.19-2.14.4-.65.88-1.23,1.59-1.49,1.38-.51,3.01-.7,4.28.19.39.27.76.82,1.08,1.36.31.52.56,1.05.71,1.39l-1.86,1.28c-.12-.13-.27-.28-.43-.41-.19-.15-.4-.26-.58-.3-1.09-.21-1.86-.04-2.68.82-1.09,1.13-1.59,2.6-2.3,3.86-.63,1.12-1.45,2.06-3.18,2.28-2.09.27-4.16-1.06-5.43-2.93-.73-1.08-1.2-2.35-1.25-3.63,1.55-2.39,2.85-5.11,3.07-6.38.11-.6.37-1.25.64-1.79.6-.1,1.13-.28,1.61-.56.43-.25.82-.57,1.17-.96Zm12.67,11.72c-.41-.78-.82-1.49-1.24-2.11l.54-.35s.07-.05.1-.09c.21-.02.54-.04.88.02.45.08.93.31.96.97.03.71-.36,1.11-.75,1.35-.17.1-.34.17-.49.22Zm-2.9-1.04l.98-.64c.41.61.81,1.29,1.21,2.06-.03.07-.14.29-.29.47-.19.22-.48.45-.9.42-.32-.02-.56-.11-.74-.26-.26-.22-.37-.56-.41-.88-.06-.44,0-.88.05-1.1l.09-.06Zm-56.14,6.56c-.86.12-1.71.49-2.55,1.04-.3-.26-.43-.53-.42-.8.02-.51.47-.95.94-1.17.43-.2.77-.24,1.06-.15.44.13.71.53.91.96.02.04.03.08.05.11Zm20.74-26.78c.06.48.16.92.3,1.32-.19,1.16-.32,2.74.05,4.08.55,2.02,1,3.62.87,4.97-1,.58-1.58,1.11-2.18,2.31-.5.98-.83,1.94-1.21,2.84-.54,1.26-1.2,2.39-2.71,3.23-.76.42-1.64.56-2.49.74-.96.21-1.9.47-2.66,1.14-.74.65-.92,1.37-.96,2.13-.03.64.06,1.3-.11,1.98-.3,1.2-.81,1.89-1.92,2.5-1.44.79-4.48.92-5.69.98-.28.01-.57.02-.83-.02-.05-.37-.18-1.17-.5-1.87h0s.06-.03.1-.05c.25-.11.54-.17.86-.21.71-.1,1.52-.09,2.17-.14.51-.04.94-.12,1.2-.26.86-.48,1.23-1.39,1.4-2.45.11-.7.15-1.47.23-2.19.08-.66.19-1.27.49-1.75,1.03-1.65,2.57-2.56,4.17-3.37,1.7-.86,3.48-1.63,4.9-2.96,1.3-1.23,1.66-2.69,1.72-4.24.05-1.44-.17-2.95-.05-4.41.12-1.39.76-2.45,1.73-3.39.35-.34.74-.63,1.14-.91Zm-23.09,28.65s.01,0,.02-.01c.83-.58,1.67-.96,2.53-1.07.02,0,.03,0,.05,0,.1.43.14.79.15.89,0,.17-.13,1.56-1.68,1.76-.41.05-.7-.02-.89-.18-.28-.25-.33-.67-.29-1,.02-.15.11-.35.12-.38Zm32.11-39.87c2.04-1.22,6.62-3.34,11.3-1.23,4.36,1.97,4.76,6.14,4.62,8.43-2.01-.41-4.56-.4-5.89-.18-.97.16-1.81.29-2.65-.08-.87-.38-1.7-1.28-2.71-3.04-1.08-1.9-2.96-3.19-4.67-3.91Zm16.33,8.13c-.06.49-.14.78-.14.78,0,0-6.66,1.56-10.66-.81-3.86-2.3-6.75-7.41-6.94-7.74,1.78.49,4.14,1.79,5.37,3.95,2.25,3.95,3.9,3.88,6.18,3.51,1.4-.23,4.21-.22,6.18.31Z"/>
    <path class="cls-6" d="m48.59,66.86c-.33-.29-.36-.79-.07-1.12.29-.33.79-.36,1.12-.07,1.63,1.43,3.05,1.98,5.86,2.14.44.02.77.4.75.83-.02.44-.4.77-.83.75-3.28-.18-4.92-.86-6.82-2.53Zm4.18-2.56c-1.25-.52-1.51-1.3-1.51-2.37,0-1.27,1.63-2.3,3.63-2.3s3.63,1.03,3.63,2.3c0,1.15-1.79,3-4.22,2.77-.12.6-.36,1.15-.84,2.11-.2.39-.67.55-1.06.35-.39-.2-.55-.67-.35-1.06.41-.82.61-1.26.71-1.79Z"/>
    <path class="cls-2" d="m48.3,43.86c-.19-3.18,1.33-3.81,1.97-6.83.53-2.52,1.92-3.76,3.64-3.67,1.72.09,5.07,1.44,6.63,4.17,2.25,3.95,3.9,3.88,6.18,3.51,2.05-.33,7.14-.17,8.15,1.43,1.02,1.6.54,3.53-.58,7.44-1.03,3.6-2.57,5.24-5.91,4.79-5.09-.68-7-4.69-7-4.69,0,0-4.06,1-7.48-.41-3.42-1.41-5.41-2.56-5.6-5.74Z"/>
    <path class="cls-9" d="m63.41,47.72c-.34-.42.17-3.33,2.14-3.76,1.89-.41,6.15-.09,6.41.51.26.6-.99,6.5-1.92,6.84-1.53.55-5.59-1.98-6.62-3.59Zm-12.95-3.89c-.22-.6.69-2.42,1.2-3.25.39-.63.58-1.79.91-2.9.18-.59.98-.83,1.46-.45,1.66,1.25,4.7,3.62,5.2,4.64.68,1.41-.21,3.29-.21,3.29,0,0-1.97,2.52-4.7,1.2-2.73-1.33-3.85-2.52-3.85-2.52Z"/>
    <path class="cls-7" d="m66.66,46.13c0,.06,0,.1.02.13.02.02.05.03.08.05.06.02.13.03.2.04.32.03.78,0,1.32.09,1,.14,1.52.49,1.74.86.36.61-.05,1.31-.68,1.5-.27.08-.7.01-1.17-.13-.64-.19-1.38-.5-1.88-.58-.09-.02-.18-.02-.25-.02-.06,0-.1.01-.13.04-.03.02-.03.06-.03.11,0,.34.25.57.59.74.6.3,1.48.42,2.1.53.34.06.61.12.74.19.13.07.16.17.15.26,0,.05-.03.09-.07.12,0,0-.79.54-3.15-.33-.63-.23-1.19-.67-1.36-1.36-.14-.56.17-.93.37-1.12-.2-.22-.48-.69-.25-1.34.04-.12.15-.24.31-.35.2-.13.49-.25.83-.36,1.29-.4,3.34-.59,3.82-.57.21,0,.45.12.55.25.08.1.09.2.06.29-.03.09-.14.2-.41.23-.89.1-2.27.28-3.03.52-.15.05-.28.1-.37.15-.04.02-.08.06-.08.07Zm-3.11,1.5c.61.95,2.29,2.22,3.86,2.97.62.3,1.23.51,1.74.59.32.05.6.04.83-.04.09-.03.17-.13.26-.28.17-.26.34-.66.51-1.13.47-1.31.88-3.17,1.02-4.31.04-.29.06-.53.05-.7,0-.09,0-.16-.02-.19,0-.01-.02-.03-.04-.04-.03-.03-.08-.05-.13-.08-.19-.09-.49-.17-.85-.24-1.44-.27-3.9-.35-5.2-.06-1.31.29-1.92,1.73-2.07,2.71-.04.25-.04.46-.02.62.01.08.02.14.05.17,0,0,0,0,.01.01Zm-.94.64h0c-.09-.13-.17-.3-.22-.51-.06-.26-.07-.65,0-1.1.2-1.34,1.15-3.25,2.95-3.65,1.64-.36,4.92-.2,6.31.21.71.21,1.09.61,1.2.87.07.16.13.5.1.98-.08,1.1-.56,3.46-1.13,5.05-.24.69-.52,1.25-.76,1.57-.23.29-.48.46-.69.54-.62.22-1.55.15-2.58-.23-1.96-.72-4.36-2.48-5.18-3.72Zm-7.9-6.21c.13-.18.38-.49.64-.66.16-.1.32-.14.48-.11.16.03.31.13.44.37.22.41.47,1.15.6,1.89.02-.28.03-.56,0-.83-.04-.47-.14-.91-.35-1.22-.28-.41-.61-.78-.98-1.04-.31-.22-.64-.35-.99-.32-.29.03-.59.19-.88.48-1.1,1.12-.9,2.54-.55,3.23.15.3.54.66,1.02.97-.17-.21-.34-.44-.47-.68-.24-.44-.33-.91-.15-1.31.3-.64.63-.79.86-.81.12-.01.22.02.3.05Zm1.62,4.39c-.73.1-1.63-.19-2.41-.64-.77-.45-1.4-1.06-1.63-1.52-.48-.93-.76-2.84.72-4.34.48-.49.98-.72,1.47-.77,1.07-.11,2.12.7,2.86,1.77.29.43.46,1.03.51,1.69.07.92-.09,1.95-.39,2.67-.15.36-.33.64-.53.83-.19.17-.39.27-.6.3Zm-5.72-2.71h0c.18.18,1.31,1.27,3.77,2.46,2.5,1.21,4.32-.94,4.49-1.14.05-.11.31-.72.41-1.46.07-.53.05-1.14-.2-1.67-.14-.29-.51-.7-.99-1.17-1.16-1.12-3-2.54-4.16-3.41,0,0,0,0,0,0-.19-.16-.46-.18-.69-.11s-.43.24-.51.48c-.34,1.13-.54,2.3-.93,2.94-.35.57-.89,1.62-1.11,2.4-.08.28-.12.52-.08.67Zm1.03-6.34c.18-.61.67-1.05,1.26-1.23.58-.18,1.23-.09,1.72.29,1.19.89,3.06,2.35,4.25,3.49.61.59,1.05,1.12,1.23,1.49.36.74.41,1.58.31,2.32-.13,1-.51,1.8-.52,1.82-.03.06-.07.12-.11.18,0,0-2.47,3.13-5.89,1.47-2.91-1.41-4.11-2.7-4.13-2.73-.09-.09-.15-.2-.2-.32-.12-.31-.13-.82.04-1.41.25-.87.85-2.04,1.24-2.68.35-.58.5-1.65.81-2.68-.02.05-.03.11,0,0h0s0-.03,0,0Z"/>
  </g>
</svg>