<svg xmlns="http://www.w3.org/2000/svg" width="150" height="150" viewBox="0 0 150 150">
  <defs>
    <style>
      .cls-1 {
        fill: #915c1e;
      }

      .cls-2 {
        fill: #0f0e0d;
      }

      .cls-3 {
        fill: #2e31ba;
      }

      .cls-4 {
        fill: #f4f4f4;
      }

      .cls-5 {
        fill: #c1272d;
      }

      .cls-6 {
        fill: #1a1a1a;
      }

      .cls-7 {
        fill: #fbb03b;
      }

      .cls-8 {
        fill: #f6f6f6;
      }

      .cls-9 {
        fill: #4d4d4d;
      }

      .cls-10 {
        fill: #b3b3b3;
      }

      .cls-11 {
        fill: #3d702a;
      }

      .cls-12 {
        fill: #d8cf75;
      }

      .cls-13 {
        fill: #333;
      }
    </style>
  </defs>
  <g id="Layer_7" data-name="Layer 7">
    <g>
      <g>
        <path class="cls-1" d="M134.41815,37.48842c-25.80791-5.40166-28.50874-32.71-28.50874-32.71h-61.819s-2.70083,27.30838-28.50875,32.71a114.55279,114.55279,0,0,0,5.10157,52.51611c9.46756,27.51511,25.93569,44.82106,51.9926,54.79363a6.50191,6.50191,0,0,0,2.32406.42332h0a6.50192,6.50192,0,0,0,2.32407-.42332c26.0569-9.97257,42.525-27.27852,51.9926-54.79363A114.5527,114.5527,0,0,0,134.41815,37.48842Z"/>
        <path class="cls-2" d="M75,146.722a7.97655,7.97655,0,0,1-2.86055-.52238c-26.484-10.13631-43.28535-27.8375-52.87481-55.70679C9.6444,62.534,13.91925,38.239,14.10593,37.21844l.1814-.992.987-.2066C25.481,33.88358,33.17262,27.99148,38.135,18.50723a42.8763,42.8763,0,0,0,4.4624-13.87794l.13627-1.34983L44.09052,3.278H107.269l.13364,1.35276a42.8845,42.8845,0,0,0,4.4624,13.87648c4.96236,9.48425,12.654,15.37635,22.86063,17.5126l.987.2066.1814.992c.18668,1.02057,4.46153,25.31558-5.15871,53.2744-9.58946,27.86929-26.39081,45.57062-52.87511,55.70679A7.9714,7.9714,0,0,1,75,146.722ZM16.90727,38.73033a115.32469,115.32469,0,0,0,5.19476,50.786c9.27853,26.96521,25.519,44.08613,51.11,53.88059a5.11433,5.11433,0,0,0,3.57561,0c25.591-9.79446,41.83178-26.91538,51.11031-53.88059a115.32443,115.32443,0,0,0,5.19476-50.786,35.7749,35.7749,0,0,1-23.93821-18.93027,46.74447,46.74447,0,0,1-4.54915-13.52115H45.39463a46.74447,46.74447,0,0,1-4.54915,13.52115A35.7749,35.7749,0,0,1,16.90727,38.73033Z"/>
      </g>
      <g>
        <polygon class="cls-3" points="119.264 72.299 75 130.817 30.736 72.299 75 13.781 119.264 72.299"/>
        <path class="cls-4" d="M75,133.80178,28.47869,72.29917,75,10.79656l46.52131,61.50261ZM32.99414,72.29917,75,127.83247l42.00586-55.5333L75,16.76587Z"/>
      </g>
      <g>
        <g>
          <path class="cls-5" d="M106.73466,134.71825s-2.40074,1.50046-2.40074,2.70083,2.10065,3.00092,5.70175,2.10065,5.40166-4.80148,16.50507-1.80056l-3.301-7.5023,9.903-7.5023s-7.20221-2.40074-18.00552.30009S106.73466,134.71825,106.73466,134.71825Z"/>
          <path class="cls-6" d="M108.164,140.21479a5.18837,5.18837,0,0,1-3.22892-.99274,2.41,2.41,0,0,1-1.0512-1.8029c0-1.1904,1.61915-2.41788,2.34418-2.90773a10.09759,10.09759,0,0,1,1.12417-6.85024c1.45123-2.46243,4.034-4.17257,7.67579-5.0831,10.80713-2.70186,17.95835-.39007,18.25727-.29043a.45013.45013,0,0,1,.12953.78584l-9.62,7.28764,3.158,7.17686a.45014.45014,0,0,1-.52955.61586c-8.14674-2.2019-11.18928-.60575-13.63309.67682a11.82582,11.82582,0,0,1-2.64515,1.12578A8.15741,8.15741,0,0,1,108.164,140.21479ZM125.2115,122.189a41.10744,41.10744,0,0,0-9.96487,1.26235c-3.39421.84855-5.78733,2.41539-7.11283,4.65685a9.34377,9.34377,0,0,0-.96387,6.49476.45118.45118,0,0,1-.19635.49689c-.90907.56926-2.18944,1.66516-2.18944,2.31926a1.56059,1.56059,0,0,0,.7051,1.09326c.4897.38259,1.90253,1.20374,4.4372.57073a11.15349,11.15349,0,0,0,2.44528-1.04959c2.48953-1.30675,5.56724-2.92048,13.38311-.98307l-2.92707-6.65228a.45065.45065,0,0,1,.14008-.54011l9.16922-6.94622A30.8725,30.8725,0,0,0,125.2115,122.189Z"/>
        </g>
        <path class="cls-6" d="M107.21781,125.11531l-2.88389,12.30377a6.49282,6.49282,0,0,1,4.16562-1.50046c2.56345,0,5.97674.45666,7.63463-4.72319S108.82,122.71457,107.21781,125.11531Z"/>
        <g>
          <path class="cls-5" d="M43.71532,134.71825s2.40074,1.50046,2.40074,2.70083-2.10064,3.00092-5.70175,2.10065-5.40166-4.80148-16.50506-1.80056l3.301-7.5023-9.903-7.5023s7.20221-2.40074,18.00553.30009S43.71532,134.71825,43.71532,134.71825Z"/>
          <path class="cls-6" d="M42.28615,140.21479a8.15908,8.15908,0,0,1-1.98107-.25834,11.82582,11.82582,0,0,1-2.64515-1.12578c-2.44411-1.28257-5.48577-2.879-13.63309-.67682a.45015.45015,0,0,1-.52956-.61586l3.158-7.17686-9.61994-7.28764a.45013.45013,0,0,1,.12953-.78584c.29892-.09993,7.45073-2.41143,18.25726.29043,3.64184.91053,6.22457,2.62067,7.6758,5.0831a10.09759,10.09759,0,0,1,1.12417,6.85024c.725.48985,2.34418,1.71733,2.34418,2.90773a2.40994,2.40994,0,0,1-1.05121,1.8029A5.19,5.19,0,0,1,42.28615,140.21479Zm-11.20451-4.06107a13.43209,13.43209,0,0,1,6.99678,1.87983,11.15349,11.15349,0,0,0,2.44528,1.04959c2.53349.6333,3.94691-.18814,4.4372-.57073a1.56059,1.56059,0,0,0,.7051-1.09326c0-.6541-1.28037-1.75-2.18944-2.31926a.44993.44993,0,0,1-.19606-.49732,9.34456,9.34456,0,0,0-.96416-6.49433c-1.32551-2.24146-3.71862-3.8083-7.11283-4.65685a36.7442,36.7442,0,0,0-16.89043-.53952l9.16922,6.94622a.45065.45065,0,0,1,.14008.54011l-2.92707,6.65228A26.71693,26.71693,0,0,1,31.08164,136.15372Z"/>
        </g>
        <path class="cls-6" d="M43.23218,125.11531l2.88388,12.30377a6.49281,6.49281,0,0,0-4.16561-1.50046c-2.56345,0-5.97675.45666-7.63463-4.72319S41.63,122.71457,43.23218,125.11531Z"/>
        <g>
          <path class="cls-5" d="M75.225,107.10077c-5.05936-.05528-40.16823-.04416-44.71372,10.81233l5.20641,15.0046s3.89519-11.72841,38.89482-11.41742v.01392c.20705-.00344.40757-.00434.61249-.007.20492.00262.40545.00352.6125.007v-.01392c34.99963-.311,38.89482,11.41742,38.89482,11.41742l5.2064-15.0046C115.39323,107.05661,80.28436,107.04549,75.225,107.10077Z"/>
          <path class="cls-6" d="M114.73231,133.36791h-.00293a.45057.45057,0,0,1-.42435-.3083c-.00879-.02593-1.03655-2.86538-6.24127-5.64211-4.82961-2.57657-14.31621-5.60812-32.11835-5.46789a.40777.40777,0,0,1-.11547.0148l-.61073-.007-.599.007a.47221.47221,0,0,1-.1225-.01495c-.41527-.00337-.834-.005-1.24081-.005-33.03856,0-37.07486,11.00245-37.11207,11.11513a.45057.45057,0,0,1-.42435.3083.43778.43778,0,0,1-.42816-.30258l-5.20619-15.00461a.45.45,0,0,1,.01-.32134c4.5931-10.97006,38.39039-11.16216,45.129-11.08875,6.74562-.07209,40.53587.1184,45.129,11.08875a.45.45,0,0,1,.01.32134l-5.20648,15.00461A.44988.44988,0,0,1,114.73231,133.36791ZM77.1701,121.04421c17.31713,0,26.649,3.05337,31.45369,5.65222a15.79494,15.79494,0,0,1,6.0247,5.08969l4.80734-13.85449c-4.74521-10.506-40.18538-10.426-44.22578-10.38072h-.01c-4.0404-.04455-39.48116-.125-44.22578,10.38072l4.807,13.85435a15.79633,15.79633,0,0,1,6.0247-5.08955c4.92661-2.66493,14.61073-5.80476,32.79063-5.64622a.44771.44771,0,0,1,.102.01261l.50055-.00572.5149.00572a.42909.42909,0,0,1,.09935-.01261Q76.50911,121.04429,77.1701,121.04421Z"/>
        </g>
      </g>
      <g>
        <path class="cls-7" d="M37.21733,121.56094a1.722,1.722,0,0,0-.23679-1.39188,1.89346,1.89346,0,0,0-.74642-.73426,1.00121,1.00121,0,0,0-.99933.03341,1.40475,1.40475,0,0,0-.62128.94292l-.01114.07238.64883.68825.04982-.298a.85564.85564,0,0,1,.32823-.5719c.35284-.21012.643.1877.7517.36881a.6997.6997,0,0,1-.11635,1.01106l-.35167.2107.44926.75009.35167-.21086c.30478-.18213.76459-.15737,1.14146.46172a1.13573,1.13573,0,0,1,.19313.80986.50674.50674,0,0,1-.24764.32457,1.03284,1.03284,0,0,1-.72209.07092l-.27343-.07532.31182.91537.075.02169a1.30364,1.30364,0,0,0,.35724.047,1.41868,1.41868,0,0,0,.72766-.19532,1.24019,1.24019,0,0,0,.6166-1.03992,2.28656,2.28656,0,0,0-.3587-1.26807A1.73,1.73,0,0,0,37.21733,121.56094Z"/>
        <path class="cls-7" d="M39.8405,117.80994a1.76215,1.76215,0,0,0-1.7645-.05334,4.25846,4.25846,0,0,0-.86775.54714l-.09114.074,2.55606,5.44108.12044-.03151a4.77674,4.77674,0,0,0,.81471-.30317,1.91976,1.91976,0,0,0,1.15787-1.55511,4.53851,4.53851,0,0,0-.517-2.36352A3.87647,3.87647,0,0,0,39.8405,117.80994Zm.16939,4.9335-1.86854-3.97754a1.69994,1.69994,0,0,1,.33672-.20324,1.06356,1.06356,0,0,1,.83932-.05509,2.54759,2.54759,0,0,1,1.23437,1.41444c.3713.79053.83287,2.19267-.24852,2.70083A2.50594,2.50594,0,0,1,40.00989,122.74344Z"/>
        <path class="cls-7" d="M42.72742,115.8907l.77983,6.24845.74261-.2532-.24353-1.86635.96885-.33027.95684,1.6231.75726-.25818-3.20313-5.42218Zm1.81052,3.00546-.67052.22859-.19342-1.53841c-.00937-.06873-.01934-.13847-.03018-.20983q.05406.09539.112.19327Z"/>
        <path class="cls-7" d="M47.07876,117.22631c-.55769-.1688-.76488-.35474-.888-.7958-.07238-.261-.0888-.73206.30947-.843a.88359.88359,0,0,1,.623.0762l.23386.11517-.06681-.97384-.075-.03883a1.29185,1.29185,0,0,0-.948-.07575,1.16366,1.16366,0,0,0-.788.75565,2.1258,2.1258,0,0,0-.0041,1.27407,1.92248,1.92248,0,0,0,1.458,1.45137,1.2219,1.2219,0,0,1,.86892,1.49519.50559.50559,0,0,1-.35607.324,1.06839,1.06839,0,0,1-.78628-.13247l-.24968-.14213.09055,1.00373.0633.03956a1.39394,1.39394,0,0,0,.71565.18272,1.43733,1.43733,0,0,0,.3842-.05011c.82086-.22844,1.15788-1.07128.85837-2.14739A1.96174,1.96174,0,0,0,47.07876,117.22631Z"/>
        <path class="cls-7" d="M49.70456,116.56928c-.54919-.19284-.74847-.38757-.85221-.83361a.97552.97552,0,0,1,.012-.52545.43617.43617,0,0,1,.3335-.30273.87858.87858,0,0,1,.61864.103l.22859.12528-.02433-.97545-.07326-.04205a1.28658,1.28658,0,0,0-.94394-.11708,1.16288,1.16288,0,0,0-.81939.72049,2.12765,2.12765,0,0,0-.05949,1.27231,1.92285,1.92285,0,0,0,1.3932,1.51306,1.22188,1.22188,0,0,1,.803,1.53124.5053.5053,0,0,1-.36984.30815,1.0641,1.0641,0,0,1-.779-.16661l-.24324-.15283.04659,1.00637.06155.0422a1.4933,1.4933,0,0,0,1.09281.18067,1.2372,1.2372,0,0,0,.91054-.79756,2.29993,2.29993,0,0,0,.03985-1.31012A1.96171,1.96171,0,0,0,49.70456,116.56928Z"/>
        <path class="cls-7" d="M51.55054,113.55839l-.11341,6.29593.77133-.14507.02315-1.88187,1.00578-.189.71711,1.74282.78657-.1477-2.40279-5.82322Zm1.36683,3.23259-.6966.13085.02666-1.55043c.0003-.069.0003-.13935,0-.21159.02667.068.05422.13686.08323.2069Z"/>
        <path class="cls-7" d="M56.718,112.71614l-.759.11166.5278,3.58337a3.19324,3.19324,0,0,1-.02081,1.37269.549.549,0,0,1-.44134.43475c-.42142.06184-.76987-.537-.92665-1.60274l-.5281-3.58323-.759.11166.52516,3.56608c.30244,2.05156,1.09018,2.43166,1.63175,2.43166a1.20018,1.20018,0,0,0,.17525-.013c.55564-.08191,1.43658-.565,1.09546-2.88136Z"/>
        <polygon class="cls-7" points="58.719 117.748 58.122 112.552 57.365 112.639 58.069 118.764 60.345 118.503 60.238 117.574 58.719 117.748"/>
        <polygon class="cls-7" points="62.011 112.161 59.075 112.435 59.164 113.375 60.247 113.274 60.736 118.472 61.5 118.4 61.011 113.202 62.1 113.1 62.011 112.161"/>
        <path class="cls-7" d="M64.366,112.0024l-.91816,6.22808.78335-.04542.264-1.863,1.02189-.0592.48794,1.81931.79888-.046-1.63761-6.08009Zm.94159,3.37926-.70715.041.22478-1.53386c.00938-.06858.01817-.13833.027-.20954.01788.07063.03634.14257.05627.21569Z"/>
        <path class="cls-7" d="M69.518,111.78011l-.575,2.97455c-.08118.44134-.14683.821-.20075,1.1608-.0715-.33745-.15649-.71228-.25965-1.14674l-.72444-2.93542-.854.02564-.07737,6.172.74144-.02242.02139-2.662c.00235-.36222.00323-.73485.00264-1.09765.05539.24793.11693.51417.18551.80342l.69073,2.89425.59257-.01817.56883-2.98188c.05861-.3058.11282-.59886.16264-.88108.022.3886.04631.77881.06829,1.13077l.15092.01084-.14975.00938.17671,2.71739.752-.02271-.41937-6.15673Z"/>
        <path class="cls-7" d="M72.15344,111.70084a3.46223,3.46223,0,0,0-.92518.12411l-.11019.03077.0381,6.06192.76195-.00454-.01465-2.30945a1.80133,1.80133,0,0,0,.22155.01011,1.3809,1.3809,0,0,0,1.21795-.72517,2.607,2.607,0,0,0,.28837-1.33166,2.31607,2.31607,0,0,0-.34727-1.30968A1.27212,1.27212,0,0,0,72.15344,111.70084Zm.02169.90072c.56883,0,.69191.54054.69484.99464a1.44452,1.44452,0,0,1-.20543.84327.62691.62691,0,0,1-.53454.26478,1.255,1.255,0,0,1-.2321-.01905l-.01319-2.05888a1.552,1.552,0,0,1,.28485-.02476Z"/>
        <polygon class="cls-7" points="76.064 114.201 74.634 114.201 74.634 111.746 73.872 111.746 73.872 117.913 74.634 117.913 74.634 115.163 76.064 115.163 76.064 117.913 76.831 117.913 76.831 111.746 76.064 111.746 76.064 114.201"/>
        <rect class="cls-7" x="74.6328" y="114.44405" width="6.16711" height="0.76181" transform="translate(-37.42151 192.07697) rotate(-89.76861)"/>
        <path class="cls-7" d="M80.55016,114.62337a1.73366,1.73366,0,0,0,.51666-1.271,1.765,1.765,0,0,0-.30859-1.13106,1.25015,1.25015,0,0,0-1.09369-.50406,2.92581,2.92581,0,0,0-.89471.11547l-.10169.03326-.10111,5.99481.11664.02842a3.46778,3.46778,0,0,0,.74847.08572l.04865.00044a1.48358,1.48358,0,0,0,1.32521-.59652,2.32185,2.32185,0,0,0,.34669-1.249A1.75487,1.75487,0,0,0,80.55016,114.62337Zm-.97032,2.462c-.0967-.00161-.17524-.00615-.23737-.01362l.03282-1.961.2324.00381a.7174.7174,0,0,1,.53659.22566,1.1004,1.1004,0,0,1,.22008.768C80.35323,116.75566,80.07746,117.10792,79.57984,117.08535Zm.07942-2.84442-.269-.0044.02725-1.62149a1.47788,1.47788,0,0,1,.25906-.01436.5848.5848,0,0,1,.45337.17847.93834.93834,0,0,1,.16821.63887C80.292,113.80236,80.11937,114.25807,79.65926,114.24093Z"/>
        <rect class="cls-7" x="78.81769" y="114.51398" width="6.1668" height="0.76217" transform="translate(-35.48388 193.18577) rotate(-88.21902)"/>
        <path class="cls-7" d="M83.93733,111.88781l-1.57167,6.09679.78423.03737.45951-1.82488,1.02248.04836.29365,1.86063.79917.03809-.98673-6.21841Zm.57967,3.45941-.70832-.03355.38625-1.50149c.01612-.06726.03253-.13569.04894-.20617.01.07239.0211.1458.03283.22068Z"/>
        <path class="cls-7" d="M88.3845,114.774c-.03546.47285-.06565.90892-.08821,1.33986-.07649-.29306-.16118-.59359-.25526-.90511l-.94951-3.14349-.75521-.05686-.46391,6.14779.73323.05524.19987-2.64866c.04073-.53938.0718-.99508.09642-1.4209.08264.3146.17876.65543.2913,1.0323l.93837,3.152.71829.05407.46391-6.14764-.73323-.05524Z"/>
        <path class="cls-7" d="M92.70682,115.462a1.73493,1.73493,0,0,0,.64033-1.21384,1.76733,1.76733,0,0,0-.19517-1.15627,1.252,1.252,0,0,0-1.0389-.61029,2.95855,2.95855,0,0,0-.90232.02593l-.10433.023-.69426,5.957.11312.03986a3.4547,3.4547,0,0,0,.73646.15957,2.6039,2.6039,0,0,0,.30214.01846,1.387,1.387,0,0,0,1.12476-.47519,2.32215,2.32215,0,0,0,.4689-1.20872A1.75689,1.75689,0,0,0,92.70682,115.462Zm-.849-.469-.26756-.03106.18785-1.61138a1.53807,1.53807,0,0,1,.25936.01143c.27107.03165.62187.15664.538.87536C92.531,114.61912,92.32116,115.04684,91.85783,114.99291Zm.517,1.92877a1.112,1.112,0,0,1-.32794.75345.69833.69833,0,0,1-.55007.14111,2.30844,2.30844,0,0,1-.23474-.03722l.22683-1.94854.23093.02681a.7188.7188,0,0,1,.512.278A1.10016,1.10016,0,0,1,92.37479,116.92168Z"/>
        <path class="cls-7" d="M95.09,112.91469l-2.18416,5.905.77572.11737.643-1.76861,1.01193.15269.10227,1.88114.79126.11928-.34756-6.28728Zm.2239,3.50117-.701-.10594.53717-1.45445c.02286-.06521.046-.13158.06946-.19987.00293.07283.00615.14712.01055.22273Z"/>
        <polygon class="cls-7" points="99.578 113.681 96.677 113.15 96.507 114.078 97.577 114.274 96.635 119.409 97.389 119.548 98.332 114.413 99.407 114.61 99.578 113.681"/>
        <polygon class="cls-7" points="102.324 115.262 102.531 114.341 99.654 113.695 99.447 114.616 100.508 114.855 99.363 119.948 100.111 120.117 101.257 115.023 102.324 115.262"/>
        <path class="cls-7" d="M103.35687,114.56549l-2.83388,5.62438.75844.204.83756-1.68582.98907.2658-.10931,1.88129.77279.20793.35959-6.28948Zm-.06623,1.74458c-.00557.07311-.01055.1474-.01495.22331l-.0888,1.53782-.68517-.18419.6966-1.38543C103.2288,116.43931,103.25928,116.37571,103.29064,116.31007Z"/>
        <polygon class="cls-7" points="104.882 120.455 106.508 115.485 105.784 115.248 103.866 121.107 106.044 121.819 106.335 120.93 104.882 120.455"/>
        <rect class="cls-7" x="104.53018" y="118.74953" width="6.1663" height="0.76201" transform="translate(-41.60377 178.35022) rotate(-69.55439)"/>
        <path class="cls-7" d="M111.634,120.76339c.75755-1.70429.621-3.13646-.34-3.56389a1.54289,1.54289,0,0,0-1.57988.30419,4.86157,4.86157,0,0,0-1.38763,1.91265c-.75932,1.70912-.62422,3.14452.33672,3.5718a1.27739,1.27739,0,0,0,.52194.11048,1.75,1.75,0,0,0,1.01867-.3694A4.83015,4.83015,0,0,0,111.634,120.76339Zm-.73441-.28852a4.275,4.275,0,0,1-.93427,1.39848.8842.8842,0,0,1-.905.28646c-.51636-.22946-.517-1.27715-.00146-2.43693.44926-1.01032,1.21854-1.97053,1.84275-1.693C111.496,118.29437,111.35063,119.46,110.89961,120.47487Z"/>
        <path class="cls-7" d="M115.52613,119.51437l-1.31408,2.24849c-.23913.40911-.45717.78789-.66671,1.16594.05979-.29717.11547-.60458.16734-.92563l.5237-3.2424-.65382-.38215-3.11082,5.32356.63477.37116,1.34045-2.29363c.27372-.4683.50142-.86452.7095-1.23524-.0636.31856-.12661.66744-.19079,1.05618l-.538,3.2449.62246.36368,3.11081-5.3237Z"/>
      </g>
      <g>
        <polygon class="cls-8" points="74.475 24.49 75.927 28.96 80.627 28.96 76.825 31.722 78.277 36.192 74.475 33.429 70.673 36.192 72.125 31.722 68.323 28.96 73.022 28.96 74.475 24.49"/>
        <polygon class="cls-8" points="45.066 66.929 46.518 71.399 51.218 71.399 47.416 74.161 48.868 78.631 45.066 75.868 41.264 78.631 42.716 74.161 38.914 71.399 43.613 71.399 45.066 66.929"/>
        <polygon class="cls-8" points="98.482 53.725 99.934 58.195 104.634 58.195 100.832 60.957 102.284 65.427 98.482 62.664 94.68 65.427 96.132 60.957 92.33 58.195 97.03 58.195 98.482 53.725"/>
      </g>
      <g>
        <path class="cls-5" d="M61.12066,60.59551v-7.5023s9.30286-.30009,11.10341-6.30194h9.00276v19.2059Z"/>
        <path class="cls-5" d="M89.02923,98.107v5.10157H60.22039V98.40711a66.92861,66.92861,0,0,0,6.90212-1.20037c2.10064-.60018,2.70083-2.70083,2.40073-8.10248Z"/>
      </g>
      <g>
        <g>
          <g>
            <path class="cls-6" d="M55.47111,90.60472s3.00092,5.70175,4.80147,6.00184,6.90212-1.50046,7.5023-2.40074a5.38382,5.38382,0,0,1,3.00092-1.80055h1.20037l.60018,1.50046s-.30009,1.50046-.30009,1.80055.30009,3.00092.90028,3.301,7.5023,4.20129,8.10248,4.20129a49.37706,49.37706,0,0,0,6.00185-2.10065c1.50046-.60018,9.00276-3.6011,10.80331-5.70175a74.55008,74.55008,0,0,0,5.40166-7.20221,12.13908,12.13908,0,0,0,2.10064-7.80239c-.30009-3.9012,0-5.10157-1.50046-5.70175a34.96832,34.96832,0,0,0-4.50138-1.20037s-24.90764.90028-29.409,2.70083S53.97064,88.50407,55.47111,90.60472Z"/>
            <path class="cls-8" d="M81.42883,100.05769a.29879.29879,0,0,1-.13481-.03209l-9.07456-4.57318a.30013.30013,0,0,1,.2702-.536l9.07456,4.57318a.30015.30015,0,0,1-.13539.5681Z"/>
            <path class="cls-8" d="M80.979,95.10632a.30162.30162,0,0,1-.11722-.02389L72.009,91.33128a.30019.30019,0,0,1,.23445-.55271l8.85272,3.75115a.30024.30024,0,0,1-.11723.5766Z"/>
            <path class="cls-8" d="M82.02931,91.65526a.298.298,0,0,1-.09613-.016l-8.81374-2.98144a.30008.30008,0,1,1,.19225-.56853l8.81374,2.98143a.30018.30018,0,0,1-.09612.58451Z"/>
          </g>
          <path class="cls-9" d="M81.827,99.09863a1.3034,1.3034,0,0,0,1.5657.97856c1.2917-.23486,2.11369-3.64025,2.27026-6.41936l.31314.15657s-.31314,4.69709,1.25256,5.36251,3.3271-2.23112,3.48367-8.25905l.31314-.35228s-.58713,6.88907,1.72227,6.22364,2.74-7.43706,2.54426-9.86389l.35228-.19571s-.07828,6.4585,2.30941,5.71479,2.93568-7.67192.90027-9.5899l1.48741-.19571s-.274,4.30567,1.13514,4.65795,2.85739-3.8751,2.62254-6.41936a3.15324,3.15324,0,0,0-2.27026-2.97482l-.70457-.03915a43.16252,43.16252,0,0,0-6.06708,5.40166C92.23891,86.37733,86.79811,90.409,85.937,90.683s-2.74.03915-3.36626.66542-1.17427,1.918-1.17427,4.50139S81.827,99.09863,81.827,99.09863Z"/>
          <path class="cls-10" d="M101.34777,77.31638c.59417-.46556,1.17893-.92131,1.82729-1.34179.08385-.052.16426-.1036.25892-.15309l.0692-.03718.08978-.03733a.87737.87737,0,0,1,.1925-.05429.94.94,0,0,1,.75192.213,2.399,2.399,0,0,1,.6703,1.07535,5.861,5.861,0,0,1,.16338.56683c.01941.09645.04491.18614.05912.28818l.03638.31094a9.85968,9.85968,0,0,1-.02345,1.15621c-.05421.75583-.14784,1.49994-.25543,2.24155-.21775,1.48344-.4778,2.95225-.80558,4.42046-.0447.18615-.08349.36423-.1417.55937a1.279,1.279,0,0,1-.12261.30006,2.06309,2.06309,0,0,1-.15682.26688c-.10382.166-.21192.32284-.32207.47489q-.16277.23282-.33138.45739c-.4453.60447-.90518,1.19192-1.36466,1.78062-.92226,1.17357-1.85715,2.33491-2.79029,3.49649l-1.39192,1.74454-.33848.43785-.15547.2144a1.97469,1.97469,0,0,1-.13638.15294l-.126.10122a8.9986,8.9986,0,0,1-.98549.60769c-1.32206.72023-2.67064,1.3561-4.02333,1.98918q-2.03028.94418-4.08344,1.83485-1.02643.44625-2.06024.87759c-.69836.28295-1.36448.57364-2.1161.81333a.99787.99787,0,0,1-.20192.03835c-.05546-.0011-.10682-.00165-.16-.00612a2.12719,2.12719,0,0,1-.31287-.04729,2.00851,2.00851,0,0,1-1.41639-1.175,3.30963,3.30963,0,0,1-.18646-.57522q-.06715-.27565-.124-.55291-.11665-.55416-.19866-1.11423a17.06175,17.06175,0,0,1-.10491-4.52171c.04637-.37759.10367-.74955.18745-1.12592a4.16706,4.16706,0,0,1,.39724-1.11263,2.25,2.25,0,0,1,.83085-.90506,2.73456,2.73456,0,0,1,1.16191-.35046c.39087-.0385.771-.026,1.1297-.04071a2.9833,2.9833,0,0,0,.51007-.05774,2.62351,2.62351,0,0,0,.46846-.18979,19.18969,19.18969,0,0,0,1.88979-1.12932c1.23271-.8204,2.43077-1.70051,3.57864-2.6369a18.96071,18.96071,0,0,0,3.15262-3.08522,28.84065,28.84065,0,0,1,3.1895-3.179c1.115-.993,2.25608-1.95324,3.3408-2.96136.2687-.25392.532-.51152.78521-.77606l.36417-.40893c.12513-.14337.24741-.28869.38288-.425a4.648,4.648,0,0,1,.88991-.75527,2.29141,2.29141,0,0,1,.565-.25651,1.16381,1.16381,0,0,1,.97445.17,2.2112,2.2112,0,0,1,.23918.22108,2.885,2.885,0,0,1,.18536.25071c.04941.08783.10264.175.14784.264a4.55617,4.55617,0,0,1,.357,1.11588,12.17829,12.17829,0,0,1,.10861,2.27117,34.25422,34.25422,0,0,1-.452,4.47182c-.12564.73891-.26206,1.47628-.45431,2.206a9.91134,9.91134,0,0,1-.33922,1.08862,4.11431,4.11431,0,0,1-.249.53555c-.101.16-.1995.32352-.30449.478-.83074,1.24825-1.71007,2.45129-2.60111,3.64937-.89581,1.19384-1.80455,2.37777-2.76446,3.52577a16.19257,16.19257,0,0,1-1.54332,1.65778,6.76381,6.76381,0,0,1-.96607.62273c-.3272.18552-.65828.35967-.99.53265-2.66332,1.35809-5.384,2.579-8.12644,3.755-1.375.58034-2.74937,1.15752-4.16686,1.65032-.17708.06191-.35734.11827-.539.17307a2.8127,2.8127,0,0,1-.58909.12338,2.42736,2.42736,0,0,1-.31247-.03479c-.09653-.02273-.18873-.051-.28321-.07641-.1855-.0559-.36244-.12376-.53963-.192-.70074-.28469-1.36975-.621-2.03265-.96777-1.32173-.70046-2.61024-1.4554-3.87636-2.24893a11.39385,11.39385,0,0,1-1.8358-1.32662,2.46449,2.46449,0,0,1-.63916-.98957,3.46188,3.46188,0,0,1-.111-1.15518,7.17888,7.17888,0,0,0-.05685-1.099c-.03513-.37359-.05975-.74805-.0762-1.12225-.03267-.7486-.0355-1.49539-.037-2.24093.00227-.37487-.00608-.74079.00674-1.1225a3.83893,3.83893,0,0,1,.19818-1.13707,3.58681,3.58681,0,0,1,1.368-1.841.14036.14036,0,1,1,.15777.23219l-.01311.00892a3.3207,3.3207,0,0,0-1.241,1.69,6.60253,6.60253,0,0,0-.1854,2.16882c.00312.7444.00766,1.48813.04165,2.22827.01711.37006.0422.73918.07766,1.1073.01814.18309.03913.36669.053.562.00945.1915.01062.38259.00766.56883a3.18833,3.18833,0,0,0,.0989,1.05844,2.16162,2.16162,0,0,0,.56645.86611,11.17744,11.17744,0,0,0,1.78513,1.2799c1.26063.78624,2.5469,1.53594,3.86006,2.22807.65766.34237,1.3229.67426,2.00368.949.17016.06513.34211.13045.51307.18148l.25606.06892a2.4176,2.4176,0,0,0,.24144.02735,2.72748,2.72748,0,0,0,.501-.11142c.17477-.05321.35009-.10836.52454-.16979,1.39682-.489,2.77131-1.06922,4.14-1.65069,2.73215-1.17868,5.45012-2.406,8.094-3.76174.32849-.17222.65649-.34571.977-.52844a6.49489,6.49489,0,0,0,.90976-.58663,16.00468,16.00468,0,0,0,1.49453-1.61589c.94932-1.14049,1.85341-2.32357,2.74335-3.51522.88467-1.1948,1.7618-2.40108,2.57947-3.63576.10415-.15392.19734-.31.295-.4651a3.73684,3.73684,0,0,0,.21917-.47757,9.55581,9.55581,0,0,0,.32233-1.04468c.18609-.712.31962-1.44194.442-2.17177a33.86146,33.86146,0,0,0,.43688-4.4176,11.83266,11.83266,0,0,0-.10707-2.1862,4.16032,4.16032,0,0,0-.32343-1.006,1.21755,1.21755,0,0,0-.6344-.67345.768.768,0,0,0-.43069-.0081,1.89158,1.89158,0,0,0-.44724.2073,4.2476,4.2476,0,0,0-.8065.69071c-.12722.12821-.24452.26844-.36405.40594l-.37816.42642c-.2614.27446-.53007.53835-.80239.79682-1.09633,1.02331-2.23446,1.98493-3.34259,2.97651a28.48463,28.48463,0,0,0-3.13,3.13056,19.41536,19.41536,0,0,1-3.21376,3.16128q-1.739,1.42484-3.61,2.67244a19.537,19.537,0,0,1-1.9429,1.16531,3.02434,3.02434,0,0,1-.56616.22577,3.42445,3.42445,0,0,1-.59828.07119c-.38548.016-.75217.00535-1.10311.0413a2.25939,2.25939,0,0,0-.9594.2855,1.768,1.768,0,0,0-.655.72469,6.04443,6.04443,0,0,0-.52362,2.06354,16.57053,16.57053,0,0,0,.11268,4.38938q.08181.54552.196,1.0854a5.77546,5.77546,0,0,0,.27891,1.02345,1.50183,1.50183,0,0,0,1.06721.8861,1.62048,1.62048,0,0,0,.23907.03571c.03952.00343.08161.00337.119.00442a.62331.62331,0,0,1,.07074-.02064c.6678-.21472,1.37158-.51769,2.05243-.79674q1.02841-.42969,2.05042-.87881,2.04409-.89568,4.06729-1.83852c1.34466-.63273,2.69175-1.27235,3.98549-1.98106a8.67288,8.67288,0,0,0,.91533-.56447l.09213-.07315c.015-.02112.02685-.02669.05092-.05414l.17181-.23852.344-.44709,1.39218-1.75286c.93064-1.16381,1.862-2.326,2.77856-3.49773.456-.58689.91339-1.174,1.35053-1.77028.11143-.1483.21869-.29789.32328-.44827.10817-.14993.21093-.30011.30426-.45037a1.63468,1.63468,0,0,0,.12668-.21377.7546.7546,0,0,0,.08876-.2147c.04828-.16188.08942-.34808.13107-.52416.31848-1.441.57546-2.90952.787-4.37483.10477-.733.19529-1.46874.24595-2.19944a9.37321,9.37321,0,0,0,.02092-1.07681,4.218,4.218,0,0,0-.2291-1.009,1.87737,1.87737,0,0,0-.482-.80727.34317.34317,0,0,0-.28533-.09158,1.39311,1.39311,0,0,0-.39.19882c-.60161.39146-1.19414.853-1.771,1.30776l-.00407.0032a.30008.30008,0,0,1-.37156-.47132Z"/>
          <path class="cls-6" d="M82.649,97.9635a5.00834,5.00834,0,0,1-.548-3.17054c.23485-2.38769,2.5834-3.562,2.89654-1.644a1.68737,1.68737,0,0,0-1.80056.822A6.01089,6.01089,0,0,0,82.649,97.9635Z"/>
          <path class="cls-6" d="M83.35357,95.45838s-.39142.97856.274,1.2917.66542-1.05684.66542-1.05684-.31314.50885-.58713.43056S83.35357,95.45838,83.35357,95.45838Z"/>
          <path class="cls-6" d="M87.307,96.82837a13.871,13.871,0,0,1,.46971-3.836c.548-1.95713,1.72227-2.192,2.07455-1.48742,0,0,.35228-.90027-.39142-1.05684s-1.99627.58713-2.42684,2.62254A7.0454,7.0454,0,0,0,87.307,96.82837Z"/>
          <path class="cls-6" d="M88.24638,93.73611s-.66542,1.68313.15657,1.87884,1.17427-1.2917,1.05685-2.34855c0,0-.23486.86114-.66543,1.05685S88.24638,93.73611,88.24638,93.73611Z"/>
          <path class="cls-6" d="M92.08234,94.28411a11.22109,11.22109,0,0,1,.70456-5.08852c1.01771-2.23112,1.87884-1.33084,1.87884-1.33084s-.31314-1.13513-1.60484-.50885S91.10378,92.44441,92.08234,94.28411Z"/>
          <path class="cls-6" d="M92.7869,91.34842s-.35228,1.01771.39143,1.29171,1.17427-1.01771.93942-2.15284c0,0-.19572,1.05685-.78285,1.17427S92.7869,91.34842,92.7869,91.34842Z"/>
          <path class="cls-6" d="M97.01429,89.97844a11.24315,11.24315,0,0,1,.11742-4.61881c.62628-1.918,1.95713-.74371,1.95713-.74371s-.11743-1.68312-1.21342-1.52655-1.80055,2.03541-1.80055,3.48368A9.93772,9.93772,0,0,0,97.01429,89.97844Z"/>
          <path class="cls-6" d="M97.56228,87.98217s-.274,1.2917.58714,1.33085.90027-1.60484.43056-2.466c0,0,.11743,1.25256-.43056,1.52656S97.56228,87.98217,97.56228,87.98217Z"/>
          <path class="cls-6" d="M101.28081,85.75105a10.584,10.584,0,0,1-.35228-4.30566c.35228-2.07455,2.23112-3.09226,2.70083-1.60484,0,0-.66542-.58714-1.5657.70456S101.28081,85.75105,101.28081,85.75105Z"/>
          <path class="cls-6" d="M101.98538,83.08937s-.46971,1.0177.39142,1.05684.90028-1.37.70457-2.0354c0,0-.23486,1.13513-.58714,1.13513A.73711.73711,0,0,1,101.98538,83.08937Z"/>
        </g>
        <g>
          <path class="cls-11" d="M39.63146,89.313A2.22684,2.22684,0,0,0,41.432,91.19185c1.72226.46971,3.91424,1.5657,5.55822,1.95713a18.9932,18.9932,0,0,0,10.177-1.33085c3.67939-1.72226,5.79308-2.97482,9.3159-3.836s6.96736-.46971,9.70733-2.97482a9.31428,9.31428,0,0,0,5.32337,1.25256s-.70457,3.05311,2.192,2.89654,7.35878-4.85367,9.70732-8.92448c0,0,1.95712,1.5657,4.1491-1.40913a21.48066,21.48066,0,0,0,2.66169-4.22738s2.50511-1.01771,3.36625-5.7148-.23486-8.61134-1.644-9.23762-2.89655-.39142-7.20221,1.33085c0,0-1.40913-1.644-2.03541-1.5657s-.39143.548-1.33085-.07829-1.40912.07829-1.95712-.15657-.78285-1.48741-1.5657-1.40912-1.096.548-1.87883.31314-.93942-1.096-1.87884-.78285-1.096.78285-1.80055.46971-.31314-1.72227-1.72227-1.48742-2.50512,1.01771-2.81826.62628.46971-1.80055-.93941-1.644-1.87884,1.096-2.192.86113-.23486-1.096-.78285-.86113-1.87884,1.25256-2.192.78285-.78285-1.096-1.40913-.78285-1.644,1.40913-1.95712,1.17427-.62628-1.17427-1.096-1.0177-2.0354,1.40913-2.42683,1.17427-.86113-1.0177-1.25256-.78285-1.096,1.644-1.80055,1.25256-.70456-.86113-1.33084-.548-.86114,1.5657-1.5657,1.72227-1.0177-.62628-1.48741-.548-1.096,1.48741-1.80055,1.40913-.15657-.78285-1.096-.46971-1.72227,1.0177-2.192.62628-1.0177-.86113-1.48741-.62628-3.836.15657-4.30567-1.5657-.46971-2.50511-1.096-2.11369S43.076,62.14816,47.14681,66.92354s12.52558,2.74,13.30843,2.97482,2.03541,1.87884,2.03541,1.87884-1.80055.07829-5.40166,2.89654c0,0-.46971-1.25256-1.48741-.86113s-1.87884,2.66169-1.644,3.288.548.78285.31314.93942-1.25256,1.95713-1.72227,1.644a1.39113,1.39113,0,0,0-1.72227-.07829c-.70456.46971-1.25256,1.72227-1.72227,1.72227s-.15657-1.096-1.25255-.15657-1.87884,1.80055-2.74,1.644-.548-.93942-1.80055-.46971-2.5834,0-2.89654.86114-.62628,1.644-1.096,1.72226-2.0354,0-2.27026.93942,0,2.97483.86114,3.20968A7.42285,7.42285,0,0,0,39.63146,89.313Z"/>
          <path class="cls-6" d="M49.45,93.6611a11.885,11.885,0,0,1-2.52909-.22024,23.6595,23.6595,0,0,1-2.93909-1.02057,27.30437,27.30437,0,0,0-2.62874-.939A2.56963,2.56963,0,0,1,39.377,89.605a7.60352,7.60352,0,0,1-1.54676-.23738c-1.145-.31211-1.30763-2.634-1.07318-3.5718.24587-.9835,1.51745-1.08051,2.20028-1.13267.12719-.00967.23533-.01729.31181-.03.32706-.05465.6758-1.01369.86336-1.52889.25349-.69748.97764-.7492,1.67834-.79931a4.92879,4.92879,0,0,0,1.39467-.24031c.87537-.32808,1.17809-.1225,1.48346.18067a.79483.79483,0,0,0,.47622.27489c.58612.10653,1.20887-.44662,1.99925-1.1463.15737-.1392.3206-.28383.49175-.43036.42259-.36207.7136-.4938.96885-.44193a.661.661,0,0,1,.44575.41981c.01553.03091.03663.07355.05333.10022a2.98434,2.98434,0,0,0,.5785-.645,4.44558,4.44558,0,0,1,.95713-1.02058,1.67281,1.67281,0,0,1,2.02738.05979c.22976-.07239.76049-.8024.96387-1.08256a4.61186,4.61186,0,0,1,.36251-.46582l-.03429-.05685a3.40308,3.40308,0,0,1-.30272-.60443c-.29775-.79507.648-3.22394,1.81725-3.67364a1.23557,1.23557,0,0,1,.97911.00952,1.71933,1.71933,0,0,1,.7177.674,14.26346,14.26346,0,0,1,4.75312-2.63987,5.07906,5.07906,0,0,0-1.5746-1.39027,7.95469,7.95469,0,0,0-1.14235.06667c-2.67357.246-8.93506.82247-12.30817-3.13427-3.24386-3.80507-2.79167-8.66266-2.57569-10.06085.05246-.3398.33965-2.05053.8443-2.366a.70306.70306,0,0,1,.63008-.10564c.35636.14506.46244.58055.67374,1.44829.06652.27343.1436.58964.24089.94658a1.64456,1.64456,0,0,0,.99464,1.00182,5.40292,5.40292,0,0,0,2.88781.37424c.63564-.318,1.273.21393,1.78531.64121l.02784.02315c.16177.135.56179-.06447.98438-.27577a7.07814,7.07814,0,0,1,.9205-.40471c.56678-.18888.85544-.10213,1.03039.30815.04807.11254.05686.1329.19372.14814.25935.0233.60751-.3987.86862-.70979.2913-.34668.543-.64619.84958-.69718a1.046,1.046,0,0,1,.80884.30229c.25115.18975.4182.30346.66261.2488.25584-.05685.46918-.41262.67579-.75667a2.28522,2.28522,0,0,1,.82086-.94116.85744.85744,0,0,1,1.13238.19459,2.42156,2.42156,0,0,0,.47827.35958c.25232.13891.60927-.26228.98526-.72121a2.37334,2.37334,0,0,1,.5152-.52634c.46186-.27738.89295.15386,1.20769.4686a2.652,2.652,0,0,0,.33321.30112l.00059.00015a5.34725,5.34725,0,0,0,1.33136-.70012,5.00929,5.00929,0,0,1,.866-.48867c.52751-.17584.86452.34009,1.11128.717a2.81119,2.81119,0,0,0,.22214.31035,4.43635,4.43635,0,0,0,.80679-.55564,5.85065,5.85065,0,0,1,.87361-.6119c.90232-.45131,1.5494.51944,1.79322.88459.165.05363.90555-.37936,1.21971-.5634a6.14773,6.14773,0,0,1,.604-.32852.6204.6204,0,0,1,.50845-.01905.92978.92978,0,0,1,.43432.61616,1.77809,1.77809,0,0,0,.10491.256c.06008-.03326.15063-.09627.22712-.1496a3.61581,3.61581,0,0,1,1.78532-.72591,1.12408,1.12408,0,0,1,.94863.22712,1.33368,1.33368,0,0,1,.2532,1.10776,1.38987,1.38987,0,0,0,.00762.42347,3.32639,3.32639,0,0,0,.87683-.25628,9.06181,9.06181,0,0,1,1.65549-.48222,1.25839,1.25839,0,0,1,1.56024.98438c.10931.28295.18639.45952.33321.52472.32.14213.43431.07854.77368-.1096a4.48837,4.48837,0,0,1,.81-.37043,1.329,1.329,0,0,1,1.46266.39241,1.60887,1.60887,0,0,0,.59725.38757,1.23535,1.23535,0,0,0,.922-.09847,3.03041,3.03041,0,0,1,.84079-.2258c.65322-.06492.99434.47505,1.27451.90848a1.51229,1.51229,0,0,0,.439.52355.70356.70356,0,0,0,.45483-.03663,1.67233,1.67233,0,0,1,1.55086.2192c.39358.26244.49645.27357.51608.2705a.61353.61353,0,0,0,.07151-.04147,1.21712,1.21712,0,0,1,.53952-.19869c.65352-.08587,1.69065.98262,2.15837,1.506,4.15792-1.65211,5.72989-1.91763,7.23826-1.24769,1.59453.70847,2.70523,4.72146,1.81726,9.56587-.78364,4.275-2.89689,5.60944-3.42908,5.88257a24.47722,24.47722,0,0,1-2.65248,4.18356,4.23373,4.23373,0,0,1-2.73453,1.92041,2.626,2.626,0,0,1-1.552-.273c-2.47635,4.16451-6.85142,8.64874-9.7952,8.80787a2.3551,2.3551,0,0,1-2.05024-.7237,2.93516,2.93516,0,0,1-.51168-2.14212,9.62444,9.62444,0,0,1-4.93276-1.21414c-1.96789,1.70443-4.24027,2.02533-6.64188,2.3644-.98995.13979-2.01332.28441-3.03111.53307a33.10692,33.10692,0,0,0-7.09759,2.78128c-.669.32427-1.3803.669-2.16218,1.03508A19.42538,19.42538,0,0,1,49.45,93.6611Zm-9.51913-4.36687a1.93185,1.93185,0,0,0,1.57988,1.608,27.70028,27.70028,0,0,1,2.69116.95977,23.29839,23.29839,0,0,0,2.85791.99508,18.83322,18.83322,0,0,0,9.9804-1.3107c.77895-.36472,1.48786-.70833,2.15457-1.03157a33.57336,33.57336,0,0,1,7.21716-2.82406,31.25983,31.25983,0,0,1,3.08971-.54436c2.37466-.3354,4.61773-.65205,6.48627-2.36044a.30054.30054,0,0,1,.36134-.03326,9.07532,9.07532,0,0,0,5.13146,1.209.29772.29772,0,0,1,.257.09847.30083.30083,0,0,1,.06858.26668,2.69793,2.69793,0,0,0,.32617,2.02108,1.80416,1.80416,0,0,0,1.55732.5089c2.71724-.147,7.087-4.65582,9.46345-8.77476a.30005.30005,0,0,1,.20426-.14507.30337.30337,0,0,1,.24324.06067,1.96,1.96,0,0,0,1.40228.3269,3.69035,3.69035,0,0,0,2.3178-1.67981,21.80551,21.80551,0,0,0,2.62229-4.15542.30134.30134,0,0,1,.16793-.17188c.022-.00938,2.36791-1.03875,3.18408-5.4909.86687-4.72982-.27225-8.37679-1.47086-8.90927-1.35013-.60048-2.848-.31343-6.96894,1.33532a.301.301,0,0,1-.33907-.08338c-.69543-.811-1.51746-1.48668-1.77037-1.46324a.6279.6279,0,0,0-.29569.11224c-.35724.22331-.62334.17188-1.23876-.23869a1.09007,1.09007,0,0,0-1.06263-.13891,1.21281,1.21281,0,0,1-.84635.00849,1.81023,1.81023,0,0,1-.70686-.74935c-.26756-.4138-.45073-.66451-.71067-.637a2.46048,2.46048,0,0,0-.68371.18814,1.79277,1.79277,0,0,1-1.31114.11386,2.134,2.134,0,0,1-.82232-.51286c-.29951-.26433-.46333-.41028-.87537-.27269a3.93708,3.93708,0,0,0-.70891.32574,1.26224,1.26224,0,0,1-1.3085.13334,1.346,1.346,0,0,1-.64913-.8569c-.17759-.45967-.27284-.713-.902-.60869a8.44346,8.44346,0,0,0-1.54647.45351c-.69367.2554-1.242.45673-1.55556.06418a1.18793,1.18793,0,0,1-.1351-.83448c.01582-.23782.03546-.53381-.06916-.63418a.64085.64085,0,0,0-.46772-.06447,3.04752,3.04752,0,0,0-1.50838.62187c-.27694.193-.5908.41072-.89646.18111A1.1592,1.1592,0,0,1,74.1,55.77975a1.45724,1.45724,0,0,0-.10756-.25672.31076.31076,0,0,0-.03253.01187,6.06986,6.06986,0,0,0-.53688.29467c-.76723.44955-1.63556.95932-2.02269.37878-.42933-.644-.71682-.83478-1.02541-.68078a5.50484,5.50484,0,0,0-.77075.54655c-.62714.49366-1.123.8824-1.50046.59946a1.95792,1.95792,0,0,1-.40178-.497c-.09085-.13818-.33614-.50465-.41937-.47622a5.59647,5.59647,0,0,0-.7347.4264c-.951.60238-1.555.95185-1.94151.72048a2.67065,2.67065,0,0,1-.46919-.40442c-.124-.12411-.39387-.387-.475-.37907a2.64928,2.64928,0,0,0-.35929.39314c-.41146.50128-1.03245,1.259-1.74077.86511a3.00158,3.00158,0,0,1-.5911-.44032c-.23064-.21042-.23562-.21394-.45981-.10155a1.92985,1.92985,0,0,0-.57469.71331c-.25906.43153-.55271.92079-1.06028,1.03347a1.33693,1.33693,0,0,1-1.15436-.35577c-.138-.10419-.26991-.20192-.34874-.18917-.09671.0252-.33262.30566-.48853.49131-.38713.46083-.825.98072-1.39437.9202a.74659.74659,0,0,1-.67931-.50919l-.01671-.03839a1.09264,1.09264,0,0,0-.272.06418,6.51393,6.51393,0,0,0-.842.37219c-.6034.3017-1.17311.58655-1.637.19986l-.02813-.02329c-.37776-.31519-.84812-.70686-1.133-.565a5.55453,5.55453,0,0,1-3.35992-.34478,2.23346,2.23346,0,0,1-1.36946-1.41035c-.099-.363-.1773-.68458-.245-.96255a4.58634,4.58634,0,0,0-.3121-1.02248.49609.49609,0,0,0-.09027.04689c-.56619.52311-1.97961,7.01289,1.86972,11.52834,3.17119,3.72009,9.21581,3.16342,11.79678,2.926a4.89435,4.89435,0,0,1,1.36946-.044c.85163.2554,2.05376,1.80818,2.188,1.98445a.3.3,0,0,1-.22565.48164c-.01495.00088-1.77975.1332-5.22964,2.833a.30007.30007,0,0,1-.466-.131,1.36645,1.36645,0,0,0-.58319-.69044.6466.6466,0,0,0-.51549.0041c-.87771.3376-1.64933,2.42609-1.47086,2.9026a2.83418,2.83418,0,0,0,.25408.50421c.1055.17422.325.53644-.05538.79023-.03781.03443-.18346.23518-.30068.39636-.52751.72576-1.18484,1.62721-1.75455,1.24755a1.0941,1.0941,0,0,0-1.38939-.07824,4.052,4.052,0,0,0-.81235.88445c-.36223.47666-.67492.88826-1.07641.88826a.64258.64258,0,0,1-.57088-.44018c-.01319-.0271-.03135-.06359-.04659-.08923a1.56905,1.56905,0,0,0-.43989.30053c-.16821.14433-.32939.28676-.48413.42406-.87654.77572-1.63321,1.4458-2.50448,1.2874a1.37916,1.37916,0,0,1-.79184-.43959c-.17672-.17539-.26551-.26375-.84958-.04439a5.412,5.412,0,0,1-1.56288.27694c-.73675.0526-1.04739.104-1.15729.40574-.3716,1.02189-.70539,1.81183-1.32843,1.91572-.08968.01495-.216.0252-.36486.03649-.56942.04352-1.523.11619-1.664.67975-.24089.96445.07092,2.68954.64913,2.84721a7.18007,7.18007,0,0,0,1.64347.22433.30036.30036,0,0,1,.29921.28134Z"/>
        </g>
        <path class="cls-6" d="M45.1114,86.72962a22.42125,22.42125,0,0,0,2.192-1.33085c.86114-.62628,3.288-.70456,3.36625-.07828s-1.5657,1.25256-2.27026,1.48741A14.01858,14.01858,0,0,1,45.1114,86.72962Z"/>
        <path class="cls-6" d="M54.11417,76.63087s-.62628,1.33084.15657,1.40912,1.95712.07829,2.11369-.548.70456-2.11369.46971-1.95712-1.5657,1.17427-1.95712,1.096A2.26183,2.26183,0,0,0,54.11417,76.63087Z"/>
        <path class="cls-6" d="M57.24556,76.08287s-.39142,2.66169.23486,3.1314,2.74,0,3.6011-.46971.93942-.62628,1.5657-.31314,1.096-.23486,2.66169-1.096S67.73574,75.848,66.48318,75.3a2.97528,2.97528,0,0,0-3.75767.70457c-1.25256,1.33084-3.99253,2.97482-4.61881,1.644A7.16894,7.16894,0,0,0,57.24556,76.08287Z"/>
        <path class="cls-6" d="M62.64722,81.876a2.32347,2.32347,0,0,1,1.87884-1.25256c1.40913-.15657,4.85366.46971,7.04564.31314s3.52282-2.0354,3.20968-2.5834-.93942,1.01771-2.81826,1.48742-5.87136.548-6.26279,0a1.67326,1.67326,0,0,0-2.11369-.31314C62.64722,79.91883,62.64722,81.876,62.64722,81.876Z"/>
        <path class="cls-6" d="M63.2735,88.84331A13.88052,13.88052,0,0,1,68.91,86.96447c3.75768-.548,6.49765-2.50512,7.35878-5.63651s0-5.47994.62628-5.01023.15657,6.81078-.07828,7.43706,3.13139,2.03541,3.75767,2.34855-.93942,1.096-4.38395-1.096A8.64951,8.64951,0,0,1,72.198,87.121,69.45443,69.45443,0,0,0,63.2735,88.84331Z"/>
        <path class="cls-6" d="M82.375,78.82284s-.86113,5.79308-.86113,7.43707.39142,2.66168,1.48741,2.97482,4.85366-1.096,5.32337-6.10622c0,0-1.096,3.36625-3.67939,3.99253s-2.42683-3.20968-2.11369-4.46224A12.78493,12.78493,0,0,0,82.375,78.82284Z"/>
        <path class="cls-6" d="M88.24638,86.41648s4.38395-6.7325,5.08852-9.55076-.62628-3.44454-.39143-4.1491-1.0177-6.10622-3.6011-5.55823A12.28133,12.28133,0,0,0,85.115,68.88066s3.36625-3.91424,5.79309-2.27026a8.73938,8.73938,0,0,1,3.288,5.79308c.15657,1.096,1.0177,2.11369.70456,3.75768a13.90383,13.90383,0,0,1-2.89654,6.34107A37.84327,37.84327,0,0,1,88.24638,86.41648Z"/>
        <path class="cls-6" d="M97.09257,79.60569S99.128,72.3252,98.89312,68.64581s-2.27026-7.67192-8.37648-6.96736a8.14671,8.14671,0,0,1,5.87137-.31314c3.05311,1.096,3.75767,4.61881,4.07081,6.65422s-.46971,5.47994.23486,5.08852,2.97482-9.94219,1.25256-12.9953c0,0,1.33084.07829,1.72226,3.05311s.15657,8.21992-2.27026,10.41189c0,0-.62628.548-1.17427,1.01771S99.28455,77.25714,97.09257,79.60569Z"/>
        <path class="cls-6" d="M50.04335,69.1938a14.12844,14.12844,0,0,0,6.02794.31314c3.36625-.548,3.52282-1.644,3.52282-1.644a8.0678,8.0678,0,0,1,1.40913-4.46224c1.40913-1.72227,3.13139-3.1314,7.04564-1.644,0,0-3.44454-.46971-5.01024,1.0177s-2.42683,4.61881-1.87883,5.32337a18.07575,18.07575,0,0,1,1.33084,3.67939s-1.096-2.11369-2.5834-1.72227S52.3919,71.30749,50.04335,69.1938Z"/>
        <path class="cls-6" d="M70.94542,73.57775s-2.27026-3.20968-8.45477-1.80055a14.98944,14.98944,0,0,1,1.48741-5.08852A6.71992,6.71992,0,0,1,70.31914,63.479,13.05166,13.05166,0,0,1,72.746,64.73156a27.31129,27.31129,0,0,0-3.67939-.39142c-1.33084.07828-2.5834.78285-3.99253,3.36625-1.32483,2.42886.07829,2.42683.07829,2.42683l1.48741.15657s1.17427-2.34855,4.54052-1.17427c0,0-2.5834-.15657-3.44453,1.33084C67.73574,70.44636,71.41513,70.91607,70.94542,73.57775Z"/>
        <path class="cls-6" d="M41.19716,84.61592l3.1314-2.11369.78284.31314S44.72,84.14621,41.19716,84.61592Z"/>
        <path class="cls-6" d="M44.48513,86.10334s1.95712-1.87884,2.81825-2.50512,3.75768-.93942,3.75768-.93942l-.78285.70457a7.02,7.02,0,0,0-3.60111,1.33084l-2.66168,2.34855Z"/>
        <path class="cls-6" d="M45.816,56.27679s-.15657,2.89654,1.096,4.1491,2.11369.46971,2.11369.46971,1.0177,1.80055,2.03541,1.72227a2.68676,2.68676,0,0,0,1.72226-1.096s-.31314.93942.93942.78285a3.70312,3.70312,0,0,0,2.11369-1.17427s.62628.93942,1.33085.93942,2.03541-1.40913,2.03541-1.40913-.07829.93942,1.096.62628a5.74831,5.74831,0,0,0,2.192-1.33085,1.90023,1.90023,0,0,0,1.17427,1.25256c.93942.31314,2.03541-.78285,2.03541-.78285s.39143.86114,1.95712,1.01771,2.74.31314,2.74.31314-3.52282-1.33085-3.288-1.95713,2.42683-1.87883,2.42683-1.87883-2.27026.07828-3.13139.78285-1.87884,1.644-2.1137,1.33084,2.74-2.50512,2.74-2.50512a6.20779,6.20779,0,0,0-1.644.31314c-2.74,1.48741-3.288,2.192-3.836,2.03541s1.096-1.644,1.95712-1.87884a1.35232,1.35232,0,0,0-1.56569.23486c-.70457.70456-2.27027,2.192-2.34855,1.72226S60.925,58.15563,60.925,58.15563s-1.95712.70457-2.34854,1.48741-.86114,1.33085-1.17428,1.17428.548-1.5657.548-1.5657a5.57193,5.57193,0,0,0-2.34855.78285c-1.644,1.17427-2.74.93942-2.27026.548a15.15766,15.15766,0,0,1,1.5657-1.0177s-3.67939,1.096-4.1491.93942,0-.62628.31314-.62628a16.11571,16.11571,0,0,0-2.66169-.70457A3.18208,3.18208,0,0,1,45.816,56.27679Z"/>
        <path class="cls-6" d="M65.79819,62.50044a29.52527,29.52527,0,0,0,4.16867.05872c1.17427-.11743,1.70269-.99814,2.28983-1.05685s.76328.23485,1.35041-.29357.70457-.8807,1.17428-.8807,1.2917.29357,1.70269-.58714.52843-1.46784.05872-.76328a3.00665,3.00665,0,0,1-2.23112.93942c-.822.11743-1.17427.64585-1.644.822s-.822-.46971-1.82013.11743S68.61644,62.383,67.79445,62.3243A9.32011,9.32011,0,0,0,65.79819,62.50044Z"/>
        <path class="cls-6" d="M73.19611,64.79028c.46971-.52843,1.17427-2.52469,1.52655-1.93756s.411,1.52656,1.52656.23486,1.644-2.466,1.99626-2.40726.35229.8807,1.05685.411.64585-1.17427,1.233-1.17427.52842.23486.822.70457.52842,2.11369,1.46784.8807,1.93755-2.9944,2.34855-2.466.76328,2.055,1.58527,2.055-1.58527.23486-1.76141-.17614-.88071.411-1.52656,1.11556-1.7027,1.35042-2.34855.70457-.76327-1.11556-1.46784-.58714-.52842-.70456-1.40913,0-1.52655,2.17241-2.34854,1.99627-1.46784-.35229-1.82013.11742A1.39359,1.39359,0,0,1,73.19611,64.79028Z"/>
        <path class="cls-6" d="M77.30607,59.85833c.52842-.64585,1.76141-2.17241,2.23112-1.76141s.99813.8807,1.70269.411,1.233.70457,1.35042.88071-.17615-.29357-.93942-.29357-1.76141.52842-2.23112,0S77.30607,59.85833,77.30607,59.85833Z"/>
        <path class="cls-6" d="M73.37225,66.37554s.411-.23485,1.46784-.93941.99813-.76328,1.644-.411,1.40913-.46971,1.46785.05871-.46971,1.40913-1.05685,1.11556-1.2917-.93942-1.46784-.76327A19.46822,19.46822,0,0,1,73.37225,66.37554Z"/>
        <path class="cls-6" d="M81.59216,64.73156c.52843-.23485,1.644-.46971,2.1137-1.05684s.46971-1.17428,1.35041-1.2917a2.63334,2.63334,0,0,1,1.87884.52842c.70456.35228.58713,1.05684-.05872.93942a6.19655,6.19655,0,0,1-1.644-.76328s-.99813,1.05685-1.2917,1.2917A9.89341,9.89341,0,0,1,81.59216,64.73156Z"/>
        <path class="cls-6" d="M87.81581,60.85646c.81958-.49175,1.17428-1.2917,1.7027-.76328s1.58527,1.233,1.11556,1.35042-1.233-.411-1.52656-.58714-1.87883,1.2917-1.87883,1.2917A1.078,1.078,0,0,1,87.81581,60.85646Z"/>
        <path class="cls-6" d="M77.59963,70.30936c-.69812.27925,1.93756-1.87884,2.28984-.64585s.58713,1.58527,1.233,1.7027-1.76141.822-2.11369-.11743S77.8932,70.19193,77.59963,70.30936Z"/>
        <path class="cls-6" d="M71.61084,68.90023s-.35228-.23485.99813-.76328,1.644-1.17427,1.82013-.411-.11743,1.99626.70456,1.11556,1.05685-1.82013,1.7027-1.52656.822.05872.822.64585.17614,1.35042.52842.93942,0,.411-.64585.46971-.822-1.05684-1.05685-.8807-.822,1.40912-1.35041,1.40912-1.40913-.822-1.58527-1.05684S71.61084,68.90023,71.61084,68.90023Z"/>
        <path class="cls-6" d="M80.12432,68.137c.411-.411,1.233-.17614,1.87884-.29356a2.839,2.839,0,0,0,1.76141-1.17428c.64585-.76327,1.46784-1.233,1.58527-.8807S85.115,67.4911,85.526,67.4911s-1.233.23486-1.17427-.11742-.822-.23486-1.2917.46971-.35229,1.35041-1.58527.8807A6.55337,6.55337,0,0,1,80.12432,68.137Z"/>
        <path class="cls-6" d="M79.65461,66.72783a2.46878,2.46878,0,0,1,1.35042-.93942c.76327-.11743,1.2917.58713,1.11556.64585A5.3901,5.3901,0,0,0,79.65461,66.72783Z"/>
        <path class="cls-12" d="M45.07226,56.7465s-.8807,4.75581,1.35042,8.45477,6.4585,6.22365,13.21057,2.877c0,0-.17614-2.5834.58714-3.75767,0,0-6.34108,2.64211-10.21618,1.11556S45.07226,56.7465,45.07226,56.7465Z"/>
        <path class="cls-12" d="M77.07121,80.05583s4.11.822,5.34294.17614l-.90027,6.02794s-3.60111-.50886-4.69709-2.50512A12.09558,12.09558,0,0,0,77.07121,80.05583Z"/>
        <path class="cls-12" d="M94.6266,73.53861s.58713.64585.17614,2.40726-1.05685,4.11-1.05685,4.11,1.87884,1.17427,3.75768-1.52656a29.79782,29.79782,0,0,0,1.58527-8.92447s-1.17428,2.23112-2.40726,2.81825A20.42111,20.42111,0,0,0,94.6266,73.53861Z"/>
        <g>
          <path class="cls-12" d="M85.34984,73.77347s.05871,1.58527-.64585,2.1724-.35228,1.93755.46971,3.8751a3.73438,3.73438,0,0,0,2.23112,2.28984s2.26547-3.40581,2.23112-4.81452c-.05872-2.40726-1.11556-2.17241-1.17428-2.75955a2.7378,2.7378,0,0,0-.35228-1.05684S87.40482,72.89276,85.34984,73.77347Z"/>
          <path class="cls-13" d="M87.47111,82.28207l-.10257-.02579a3.8533,3.8533,0,0,1-2.33275-2.37671c-.82906-1.95353-1.21883-3.38981-.42786-4.049.64062-.53381.59256-2.03647.592-2.05156l-.00381-.10286.09466-.04059c2.11559-.90687,2.88281-.29731,2.91476-.27093l.03106.03575a2.86616,2.86616,0,0,1,.37424,1.12139c.0126.12382.09.194.25.329.352.29672.88386.74524.92518,2.44191.03488,1.4395-2.16248,4.76059-2.25626,4.90126Zm-1.96965-8.40976a3.16078,3.16078,0,0,1-.70129,2.18886c-.55534.46288-.407,1.53518.51169,3.70118a3.78045,3.78045,0,0,0,2.0306,2.16966c.36251-.559,2.173-3.41516,2.14343-4.63209-.0381-1.56171-.48911-1.9421-.81851-2.21977a.78464.78464,0,0,1-.3549-.52853,2.61748,2.61748,0,0,0-.31562-.96724C87.88462,73.51639,87.1886,73.17249,85.50146,73.87231Z"/>
        </g>
        <g>
          <path class="cls-8" d="M37.55691,86.39691a.86935.86935,0,0,0-1.11556-.17615c-.58713.411-1.233,2.17241-.822,1.99627s1.87884-.11743,2.11369-.822c0,0,.76328.52842,1.11556.35228s.99814.23485.52843-.99813-.23486-2.9944-.76328-2.40726A8.33774,8.33774,0,0,0,37.55691,86.39691Z"/>
          <path class="cls-9" d="M35.5672,88.37974a.21406.21406,0,0,1-.18844-.11283c-.19459-.34976.46245-1.80934.97647-2.16907a.94345.94345,0,0,1,1.138.04293,7.41659,7.41659,0,0,1,1.009-1.89916c.04689-.05173.18873-.2091.361-.155.2236.07121.26258.40413.33321,1.00841a6.87317,6.87317,0,0,0,.3206,1.60069c.1902.49908.22273.78657.109.96123a.52713.52713,0,0,1-.45834.18258.6964.6964,0,0,0-.252.04205c-.3294.164-.85456-.10535-1.12242-.26888-.28866.44149-1.02365.551-1.57578.6333a2.852,2.852,0,0,0-.53893.109A.283.283,0,0,1,35.5672,88.37974Zm1.31261-2.15354a.60454.60454,0,0,0-.35226.11751,3.33465,3.33465,0,0,0-.88855,1.70707,4.00073,4.00073,0,0,1,.53424-.10169c.5404-.08044,1.28067-.19078,1.41753-.6015l.0633-.18961.1644.11371c.28691.1984.77749.43577.963.34141a.91982.91982,0,0,1,.37042-.07327c.09349-.00483.19928-.01055.22273-.04659.01846-.02843.0633-.16236-.13774-.6906a7.10065,7.10065,0,0,1-.33848-1.67292,3.88073,3.88073,0,0,0-.12514-.73485.48516.48516,0,0,0-.04777.04748,8.2393,8.2393,0,0,0-1.02746,2.0054l-.0844.23415-.16793-.18418A.85933.85933,0,0,0,36.87981,86.2262Z"/>
        </g>
        <g>
          <path class="cls-8" d="M40.02289,87.92346a10.4547,10.4547,0,0,0-.76328,2.64212,4.63774,4.63774,0,0,0,.93942,1.70269s.58713-2.9944.93942-2.93568,1.11556.23485,1.2917-.05872,0-3.11182-.17614-2.93568-.35229,1.99627-.93942,2.17241S40.02289,87.92346,40.02289,87.92346Z"/>
          <path class="cls-9" d="M40.28544,92.60667l-.20162-.24236a4.68439,4.68439,0,0,1-.97354-1.78516,10.25728,10.25728,0,0,1,.774-2.71285l.08909-.217.15972.17232c.17877.193.73294.66773,1.13853.54524.31035-.0932.52106-.95406.64679-1.46852a1.66592,1.66592,0,0,1,.22946-.66627l.09378-.09393.13363.079a7.42353,7.42353,0,0,1,.18346,3.134c-.21042.35079-.8783.23079-1.32023.15137l-.09056-.01583a11.291,11.291,0,0,0-.8018,2.81058Zm-.206-4.42123a8.73825,8.73825,0,0,0-.67022,2.36645,3.594,3.594,0,0,0,.70685,1.36639c.57528-2.80838.91786-2.75549,1.0471-2.73365l.12836.02256c.24734.04455.90585.16265,1.00988-.01055a10.38878,10.38878,0,0,0-.0507-2.39253c-.01377.05568-.02784.11224-.04073.16543-.16792.68708-.37717,1.54222-.85222,1.6848A1.50622,1.50622,0,0,1,40.07942,88.18544Z"/>
        </g>
        <path class="cls-8" d="M43.31085,88.217a4.43771,4.43771,0,0,0,.29357,2.23112c.23486.35228.11743-.23486.52842-.93942s.52843-1.52656.11743-1.644S43.31085,88.217,43.31085,88.217Z"/>
        <g>
          <path class="cls-8" d="M45.07226,87.86475s-.58713,2.40726.17614,2.75954,1.11556-.58714,1.11556-.58714c.35229.52843.822.70457,1.05685.52843s.23485-1.233.23485-1.233.64585.8807.88071.46971a1.10156,1.10156,0,0,0,.11743-1.2917c-.29357-.70457.05871-2.11369-.58714-1.11556s-.64585,1.35041-.93942,1.11556-.11743-1.52656-.52842-.822-.46971,1.76141-.70457,1.52655S45.131,87.57118,45.07226,87.86475Z"/>
          <path class="cls-9" d="M45.57955,90.85374a.93893.93893,0,0,1-.39417-.09319c-.84782-.39153-.32529-2.65819-.25965-2.92883A.18132.18132,0,0,1,45.079,87.676c.1691-.01905.24734.13525.53806.73353a6.97627,6.97627,0,0,0,.32881.62831c.03722-.09275.08147-.24411.11928-.37306a4.72026,4.72026,0,0,1,.40412-1.05179c.09495-.16235.20485-.3083.35812-.27884.17672.03414.20749.24382.24969.534a1.25231,1.25231,0,0,0,.14389.52531.19191.19191,0,0,0,.05861.03766,4.05973,4.05973,0,0,0,.20749-.35446c.10432-.18712.247-.4434.45365-.763.18961-.29262.3335-.4516.49908-.40764.18785.0504.19957.281.21891.66334a2.90208,2.90208,0,0,0,.13364.88357,1.18483,1.18483,0,0,1-.063,1.31671l-.06242.10711a.34276.34276,0,0,1-.28075.18434.923.923,0,0,1-.59315-.336c-.02432.37072-.09378.81924-.28222.9605a.53186.53186,0,0,1-.4179.08615,1.25321,1.25321,0,0,1-.70392-.45262,1.14645,1.14645,0,0,1-.51344.47563A.77031.77031,0,0,1,45.57955,90.85374Zm-.42025-2.69042c-.182.88855-.27753,2.12658.1521,2.32468a.5425.5425,0,0,0,.44926.0296,1.038,1.038,0,0,0,.463-.53351l.10345-.27225.16177.24206a1.11866,1.11866,0,0,0,.65469.52194.24887.24887,0,0,0,.18727-.03033,2.42946,2.42946,0,0,0,.17466-1.11289V88.875l.27108.36881c.18521.25233.46362.51769.58787.51769.00938.00015.01905.0063.04191-.0337l.06418-.11048a.89842.89842,0,0,0,.04455-1.049,3.11876,3.11876,0,0,1-.1562-.98394c-.005-.09935-.01114-.222-.022-.31108a2.39568,2.39568,0,0,0-.14419.20323c-.20133.31123-.34112.56253-.4434.746-.17437.31387-.262.47124-.42435.50319a.36486.36486,0,0,1-.29159-.09789,1.1559,1.1559,0,0,1-.2532-.71623c-.00791-.05524-.01817-.12455-.02931-.18477l-.02256.03736a4.49527,4.49527,0,0,0-.37512.98453c-.11312.387-.17525.60019-.34405.64341a.22581.22581,0,0,1-.221-.07092,3.61478,3.61478,0,0,1-.44134-.78071C45.28913,88.42135,45.22,88.27893,45.1593,88.16332Z"/>
        </g>
        <g>
          <path class="cls-8" d="M63.33221,80.05583s.35229,2.40726-.11742,2.34855-.46971-1.11556-.70457-.88071-.29357,2.28983-.64585,2.17241-1.05684-.70457-.8807-.52843.17614,1.58527-.11743,1.35042-1.11556-1.05685-1.05685-.88071.822,1.35042.17614,1.644a1.19388,1.19388,0,0,1-1.17427-.11743s.11743,1.05684-.23485,1.11556.411,1.76141-.822,2.23112c0,0-.05871-1.17428-.35228-1.40913s-.05871.11743-.76328.05871-.76327-.46971-.76327-.46971.70456,2.5834-.46971,2.93569c0,0-.411-1.52656-1.17428-1.644,0,0,.52843.52843-.23485.64585l-.76328.11743s.23486,1.11556-1.40913,2.466a6.89155,6.89155,0,0,0-.05871-1.46785s-.17614.35229-.8807.29357-.70457-.822-.70457-.822-.52842,1.7027-.93942,1.93755-.52842-.52842-.46971-.99813-.64585-1.40913-.05871-1.93755,1.11556-.58714,1.2917.11743.88071-.88071.88071-.88071c.23485-1.2917.76327-.23485.822.11743,0,0,.93942-.411,1.233.17614,0,0,.17614-2.34855.411-2.23112s.58714,1.52656.58714,1.52656.58713-.93942.8807-.88071a3.57365,3.57365,0,0,0,.822,0s.52843-2.466.822-2.23112a7.86713,7.86713,0,0,1,.52843,2.28983s.58713-.46971.8807-.35228-.17614-1.40913.23486-1.58527a.617.617,0,0,1,.70456.23486s-.58714-2.40726-.11743-2.64212.99814,1.17428.99814,1.17428-.17615-.29357.35228-.46971a.7548.7548,0,0,1,.822.17614s.11743-2.64212.76328-2.81826.8807.64585.8807.64585S62.74508,79.0577,63.33221,80.05583Z"/>
          <path class="cls-13" d="M51.65436,91.54507l.02022-.34244a8.81817,8.81817,0,0,0-.01172-1.16066,1.28283,1.28283,0,0,1-.79067.14462.84661.84661,0,0,1-.70774-.45189,3.67753,3.67753,0,0,1-.849,1.54823.37428.37428,0,0,1-.41175.00454c-.28778-.192-.32588-.79375-.28133-1.15143a1.61019,1.61019,0,0,0-.12133-.55329c-.15415-.47505-.34581-1.06615.11136-1.47717a1.18008,1.18008,0,0,1,1.06058-.41687.751.751,0,0,1,.47681.60941.36.36,0,0,0,.01641.052,3.22263,3.22263,0,0,0,.57439-.94116c.0592-.31884.17379-.72957.47476-.72957h.00234c.2916.0022.50025.42582.59081.69485a1.29837,1.29837,0,0,1,1.00929.02095c.10638-1.23422.24822-1.90942.4223-2.00819a.18693.18693,0,0,1,.17789-.005c.21217.10609.43255.76371.58055,1.3006.23532-.32837.58055-.72269.84957-.66774a2.92141,2.92141,0,0,0,.66935.00777c.21628-.98922.52868-2.13713.83053-2.24468a.21256.21256,0,0,1,.20836.0359,5.48915,5.48915,0,0,1,.5533,2.13742,1.23819,1.23819,0,0,1,.71506-.24764c.00352-.09744-.00967-.2617-.01993-.39035-.03868-.48208-.08235-1.02864.24266-1.168a.65306.65306,0,0,1,.524-.00147c-.18433-.85969-.386-2.18153.05539-2.4022a.4013.4013,0,0,1,.33321-.01128,1.84173,1.84173,0,0,1,.70744.88489,1.04267,1.04267,0,0,1,1.06469-.1417c.05245-.76517.23913-2.51107.85778-2.68a.77452.77452,0,0,1,.8695.347c.08177-.2554.21921-.52516.44047-.56751.28691-.056.49468.29218.5615.40677l.01934.05436c.07092.48619.27753,2.09889-.05245,2.436a.2697.2697,0,0,1-.23211.08308c-.34639-.04337-.48413-.4283-.58494-.70949-.012-.0337-.02579-.07253-.03957-.10843a7.33772,7.33772,0,0,0-.15151.78012c-.11605.72488-.19781,1.17546-.403,1.29986a.23776.23776,0,0,1-.20045.02315,2.71547,2.71547,0,0,1-.58612-.33071,1.8673,1.8673,0,0,1-.13188,1.10673.22725.22725,0,0,1-.32617.02066c-.10668-.08528-.27313-.2384-.44926-.40046-.03341-.03092-.07-.06447-.10785-.09906a1.42422,1.42422,0,0,1,.13979.95069.55432.55432,0,0,1-.30771.33159,1.30226,1.30226,0,0,1-1.06673.01085c.01289.3713-.02667.90643-.34845.992a1.95573,1.95573,0,0,0,0,.38523c.03106.56062.08294,1.499-.82467,1.8448l-.19283.07356-.01026-.20632a2.81746,2.81746,0,0,0-.29628-1.29942c-.01875-.01509-.03311-.02579-.04425-.03355a.84085.84085,0,0,1-.6377.12455,1.39124,1.39124,0,0,1-.4894-.12177c.14418.81573.26375,2.29641-.68811,2.582l-.1477.04426-.04015-.14888a3.32014,3.32014,0,0,0-.70158-1.34353.36924.36924,0,0,1-.01788.127c-.05656.17275-.2321.28294-.52193.32749l-.62451.09612a3.24048,3.24048,0,0,1-1.47555,2.45495ZM49.49628,87.9633a1.1796,1.1796,0,0,0-.68312.3653c-.3124.2809-.16705.72855-.02667,1.16154a1.7451,1.7451,0,0,1,.13363.68312,1.21461,1.21461,0,0,0,.15005.86452c.01026.00674.03282.02125.09642-.01538a5.19857,5.19857,0,0,0,.87038-1.85184l.15884-.51183a.23588.23588,0,0,1-.0721.00528c-.08938-.00777-.20807-.06492-.26521-.29321-.056-.2239-.1477-.3568-.27313-.395A.30671.30671,0,0,0,49.49628,87.9633Zm2.32219,1.38309.0929.36091a5.272,5.272,0,0,1,.07561,1.16417c1.2625-1.163,1.10132-2.08643,1.09926-2.09625l-.02959-.15312.91727-.14243c.18785-.02886.269-.08308.28251-.12425.02344-.07166-.07532-.21159-.131-.26713l-.32412-.324.45307.0696c.6963.10711,1.10952,1.17,1.24608,1.58794.6629-.39607.41409-1.99119.24031-2.655a.36478.36478,0,0,1-.01377-.05524l.29335-.06066.01084.04059c.02638.06974.14477.27943.62041.31914.31474.02579.39563-.0362.44252-.07356.14359-.115.25232-.07268.40178.047.26082.20866.35812.90775.3924,1.29357.50729-.31944.47154-.96842.44457-1.45519-.01934-.348-.036-.64868.21892-.691.09554-.016.165-.4579.11019-.95112l-.03927-.35314.28046.21819a.92842.92842,0,0,0,.1688.09626l-.383-.53644a.46756.46756,0,0,0-.52311-.18419c-.12719.05451-.08147.6248-.06183.86834.02989.3735.04776.599-.08528.69718a.2059.2059,0,0,1-.20251.02125c-.13686-.056-.51344.1562-.73118.33013l-.21188.1691-.03107-.26933a9.28251,9.28251,0,0,0-.42845-2.12863,9.71315,9.71315,0,0,0-.626,2.08438l-.02286.10565-.10726.012a3.63876,3.63876,0,0,1-.86833-.00206h-.00088c-.11136,0-.456.3864-.723.81324l-.187.29921-.08586-.34229a7.72164,7.72164,0,0,0-.437-1.32023,13.65824,13.65824,0,0,0-.26581,1.99954l-.04073.542-.24324-.48618c-.22712-.45424-1.03069-.10931-1.0389-.10579l-.17642.07722-.03165-.19c-.041-.246-.2573-.60956-.34346-.61645.00117.00029-.10081.04938-.18287.50128l-.01055.03414a2.95324,2.95324,0,0,1-.69631,1.08285l.00469.61689a.64462.64462,0,0,0,.56707.67315c.57762.04733.73-.20353.73587-.21437Zm7.3042-4.18326a1.00472,1.00472,0,0,0,.80063-.01832.25868.25868,0,0,0,.14858-.15693c.104-.29965-.19166-.87449-.318-1.11992a1.82549,1.82549,0,0,1-.087-.183L59.63,83.5746l.09847-.08645c.12924-.08323.19928-.0252.798.52575.13686.12572.27752.25525.37775.34068A2.2499,2.2499,0,0,0,60.874,83.27c-.10756-.10726-.06682-.19151-.03253-.23181a.20764.20764,0,0,1,.036-.034l-.12631-.15136a.6088.6088,0,0,0-.65938-.13.44061.44061,0,0,0-.27078.1773.09616.09616,0,0,0-.00557.05275l.017.04454-.269.13a.35855.35855,0,0,1-.034-.08162c-.14828-.37453-.44339-.9435-.67931-1.03611a.09838.09838,0,0,0-.08909.00044c-.19312.09656-.10169,1.252.19577,2.47239Zm1.88319-2.16776a.98508.98508,0,0,1,.17613.11122,4.39107,4.39107,0,0,0,.69484.43417,4.514,4.514,0,0,0,.24705-1.07275,2.41748,2.41748,0,0,1,.28017-1.05046.22624.22624,0,0,1,.21481-.073c.14418.03239.20191.19372.27518.39812.07414.20778.17613.49249.33936.51286a5.645,5.645,0,0,0-.04542-2.14842c-.12572-.20631-.20866-.24382-.23152-.23943-.09759.01876-.24236.37805-.298.73939l-.10316.67008L62.366,80.6257c-.00821-.02769-.2028-.67711-.6969-.5426-.3335.091-.59871,1.46207-.65293,2.68017Z"/>
        </g>
        <path class="cls-8" d="M63.6845,76.122a2.29091,2.29091,0,0,0-.99814.88071c-.23485.52842.29357,1.2917.64585,1.05684a1.45968,1.45968,0,0,0,.64585-.70456C64.09549,77.06143,63.6845,76.122,63.6845,76.122Z"/>
        <path class="cls-8" d="M65.15234,75.53488s-.52843,1.35041-.11743,1.233,1.05685-.46971,1.05685-.70456S65.44591,75.3,65.15234,75.53488Z"/>
      </g>
      <path class="cls-5" d="M87.47045,77.307v-.14784a1.13492,1.13492,0,0,0,.03018-.26683.85166.85166,0,0,0-.17261-.542.82136.82136,0,0,0,.12543-.45541c0-.40251-.228-.6837-.55476-.6837a.66206.66206,0,0,0-.49439.24836l-.04689.05642.15239.695.002-.00219v.47812h.296c.09789,0,.11342.12587.114.20133a.21452.21452,0,0,1-.07414.18492.22606.22606,0,0,1-.12484-.064l-.26522-.27826-.124.57615h-.83726v2.49481H87.086V78.74449l.28514-.80137h.18639v1.85872h.57322V77.94312h.38918V77.307Zm-.69895.388a.63719.63719,0,0,0,.07737.00484l-.03839.12059Zm.0044-1.795a.39184.39184,0,0,1,.08235-.0677.204.204,0,0,1,.02022.10594c0,.1121-.05216.1373-.07063.1373h-.18228Zm-.708,3.26878V77.41567l.44486,1.33v.42318Z"/>
    </g>
  </g>
</svg>
