<svg xmlns="http://www.w3.org/2000/svg" width="150" height="150" viewBox="0 0 150 150">
  <defs>
    <style>
      .cls-1 {
        fill: #f6f6f6;
      }

      .cls-2 {
        fill: #333;
      }
    </style>
  </defs>
  <g id="Layer_5" data-name="Layer 5">
    <rect class="cls-1" x="3" y="21" width="144" height="112"/>
  </g>
  <g id="Layer_9" data-name="Layer 9">
    <g>
      <rect class="cls-2" x="40" y="87" width="12" height="12"/>
      <polygon class="cls-2" points="129 112 129 87 116 87 116 99 116 102 113 102 101 102 99 102 98 102 98 87 86 87 86 102 85 102 83 102 71 102 68 102 68 99 68 87 55 87 55 99 55 102 52 102 40 102 38 102 37 102 37 87 24 87 24 112 19 112 19 124 71 124 71 112 77 108 83 112 83 124 134 124 134 112 129 112"/>
    </g>
    <polygon class="cls-2" points="33 32 33 39 28 39 28 32 24 32 24 48 37 48 37 32 33 32"/>
    <path class="cls-2" d="M101,87V99h12V87Zm8.647,9.5H104.353V90.76471L107,89l2.647,1.76471Z"/>
    <path class="cls-2" d="M71,87V99H83V87Zm8.647,9.5H74.353V90.76471L77,89l2.647,1.76471Z"/>
    <rect class="cls-2" x="116" y="50" width="12" height="16"/>
    <rect class="cls-2" x="116" y="68" width="12" height="16"/>
    <polygon class="cls-2" points="125 32 125 39 120 39 120 32 116 32 116 48 129 48 129 32 125 32"/>
    <rect class="cls-2" x="51" y="37" width="5" height="11"/>
    <rect class="cls-2" x="67" y="37" width="5" height="11"/>
    <rect class="cls-2" x="82" y="37" width="5" height="11"/>
    <rect class="cls-2" x="97" y="37" width="5" height="11"/>
    <rect class="cls-2" x="101" y="50" width="12" height="16"/>
    <rect class="cls-2" x="86" y="68" width="12" height="16"/>
    <rect class="cls-2" x="55" y="68" width="13" height="16"/>
    <rect class="cls-2" x="86" y="50" width="12" height="16"/>
    <rect class="cls-2" x="71" y="50" width="12" height="16"/>
    <rect class="cls-2" x="55" y="50" width="13" height="16"/>
    <rect class="cls-2" x="25" y="68" width="12" height="16"/>
    <rect class="cls-2" x="25" y="50" width="12" height="16"/>
    <path class="cls-2" d="M101,68V84h12V68Zm8.647,12.5H104.353V74.76471L107,73l2.647,1.76471Z"/>
    <path class="cls-2" d="M71,68V84H83V68Zm8.647,12.5H74.353V74.76471L77,73l2.647,1.76471Z"/>
    <path class="cls-2" d="M40,68V84H52V68Zm8.647,12.5H43.353V74.76471L46,73l2.647,1.76471Z"/>
    <path class="cls-2" d="M40,50V66H52V50Zm8.647,12.5H43.353V56.76471L46,55l2.647,1.76471Z"/>
  </g>
</svg>
