<?xml version="1.0" encoding="UTF-8"?>
<svg id="Layer_7" data-name="Layer 7" xmlns="http://www.w3.org/2000/svg" width="150" height="150" viewBox="0 0 150 150">
  <defs>
    <style>
      .cls-1 {
        fill: #1a1a1a;
      }

      .cls-1, .cls-2, .cls-3, .cls-4, .cls-5, .cls-6, .cls-7 {
        fill-rule: evenodd;
        stroke-width: 0px;
      }

      .cls-2 {
        fill: #8a272a;
      }

      .cls-3 {
        fill: #989898;
      }

      .cls-4 {
        fill: #f3f3f3;
      }

      .cls-5 {
        fill: #141414;
      }

      .cls-6 {
        fill: #504541;
      }

      .cls-7 {
        fill: #337137;
      }
    </style>
  </defs>
  <path class="cls-6" d="m28.3,87.82l3.06,20.6c-2.16-2.59-7.47-8.64-9.94-13.43l6.88-7.18Z"/>
  <path class="cls-6" d="m121.86,87.82l-4.39,22.27c2.16-2.59,8.8-10.31,11.28-15.09l-6.88-7.18Z"/>
  <path class="cls-3" d="m22.75,93.53c-2.65-2.87-3.33-9.18-3.33-9.18,0,0,2.73-4.5,4.35-4.86,1.34-.31,2.36,1.8,3.07,2.41l.24,6.8-4.32,4.84Z"/>
  <path class="cls-3" d="m130.68,84.49c0-.66-.82,5.81-3.34,9.1l-4.61-5.16-.15-6.4s2.16-3.09,3.74-2.57c1.8.6,4.35,5.03,4.35,5.03Z"/>
  <path class="cls-4" d="m31.62,7.65c-1.61,0-2.9,1.31-2.9,2.92v88.12c0,7.59,6.15,13.74,13.74,13.74h20.2c6.67,0,12.09,5.41,12.09,12.09h0s0,0,0,0c0-6.67,5.41-12.09,12.09-12.09h20.2c7.59,0,13.74-6.15,13.74-13.74V10.16c0-.78-.31-1.52-.86-2.07-.55-.55-1.3-.85-2.07-.85-13.82.06-72.44.33-86.21.4Z"/>
  <path class="cls-1" d="m74.74,124.51c0-6.67,5.41-12.09,12.09-12.09h20.2c7.59,0,13.74-6.15,13.74-13.74V10.16c0-.78-.31-1.52-.86-2.07-.55-.55-1.3-.85-2.07-.85l-86.21.4c-1.61,0-2.9,1.31-2.9,2.92v88.12c0,7.59,6.15,13.74,13.74,13.74h20.2c6.67,0,12.09,5.41,12.09,12.09Zm3.03,0c0,2.85-3.03,3.04-3.03,3.04,0,0-3.03-.18-3.03-3.04,0-5-4.05-9.05-9.05-9.05h-20.2c-9.26,0-16.77-7.51-16.77-16.77V10.56c0-3.28,2.65-5.93,5.92-5.95l86.21-.4c1.58,0,3.1.62,4.22,1.73,1.12,1.12,1.75,2.63,1.75,4.22v88.52c0,9.26-7.51,16.77-16.77,16.77h-20.2c-5,0-9.05,4.05-9.05,9.05Z"/>
  <path class="cls-7" d="m108.29,50.92l1.85-1.71c4.01,2.13,3.4,13.36,2.42,11.6-.69-1.24-2.52-4.43-2.67-3.27.21-2.7-.39-4.87-1.6-6.62Zm-40.85,6.69c-.82-1.65,17.17-11.67,25.33-11.14-1.21,1.73-2.34,2.4-1.74,6.33-17.5.16-23.16,5.67-23.59,4.8Zm1.25,2.53c-.82-1.65,13.22-6.08,21.38-5.55-2.1,1.41-3.4,3.22-2.81,7.15-9.64-2.72-18.14-.73-18.57-1.6Zm1.79,2.71c.38-2.01,16.76.75,16.76.75-2.03,1.34-3.57,3.46-4.62,6.38-3.26-3.24-12.21-6.74-12.14-7.13Zm.55,3.05c.68-.66,10.22,5.35,10.22,5.35-1.62.31-3.03,1.01-3.98,2.23,0,0-6.92-6.92-6.24-7.58Zm-4.78,6.01c1.77-.65,2.91-1.89,3.61-3.53l4.9,5.12c-2.32.01-4.38.34-5.86,1.34-.25-.41-1.21-.57-2.68-.83l.03-2.11Zm-10.26-28.07s.22.55.38,1.09c.06.22.12.43.12.57,0,.63-.02,1.04,0,1.44,0,.23.03.46.08.73.13.71.58,1.77.84,2.78.09.34.15.67.15.97,0,.53-.11,1.12-.27,1.67-.17.59-.41,1.14-.66,1.53-.08.13-.21.21-.34.3-.59.36-1.32.58-1.82.99-.5.41-.85.97-1.28,1.45-.12.13-.24.26-.39.35-.57.36-1.48.45-2.18.73-.27.11-.52.24-.73.4-.3.22-.56.48-.79.78-.41.52-.71,1.14-1.13,1.65-.5.61-1.33,1.31-1.95,2.04-.34.41-.63.84-.8,1.26-.18.44-.25.89-.27,1.36-.03.82.17,1.69.15,2.52-.03.88-.3,1.97-.34,2.94-.02.58.04,1.12.21,1.6.18.49.49.92.89,1.31.62.62,1.49,1.13,2.07,1.8.62.73,1.01,1.66,1.62,2.47.3.4.66.77,1.09,1.09.95.7,1.85,1.05,2.72,1.25,1.32.3,2.57.2,3.88.57,1.49.42,3.11,1.06,4.65,1.52.75.22,1.47.41,2.17.51.63.1,1.27.11,1.9.09,1.32-.04,2.65-.27,3.96-.17,1.35.11,2.74.57,4.13.82.66.12,1.33.2,2,.2.51,0,1.04-.05,1.6-.12,1.89-.24,3.98-.83,5.83-.96,1.76-.13,3.72.1,5.42.1.51,0,1.01-.02,1.46-.07.72-.08,1.43-.23,2.14-.41,1-.27,1.99-.61,2.99-.97,1.55-.55,3.02-.45,4.24-.73.45-.1.86-.25,1.25-.46.5-.27.93-.64,1.32-1.07.75-.82,1.32-1.86,2.03-2.62.64-.69,1.46-1.41,2.12-2.09.37-.38.69-.74.93-1.08.19-.28.33-.59.44-.91.18-.54.25-1.13.48-1.65.24-.52.66-.97.95-1.47.18-.31.32-.63.39-.98.06-.33.07-.69.04-1.08-.05-.71-.24-1.48-.32-2.03-.05-.38-.09-.76-.17-1.14-.06-.31-.16-.61-.3-.89-.11-.23-.27-.45-.44-.66-.28-.33-.62-.63-.87-.99-.29-.42-.54-1.06-.86-1.59-.2-.32-.41-.6-.66-.81-.25-.22-.54-.37-.85-.49-.48-.18-1.03-.24-1.49-.45-.57-.27-1.31-.88-2-1.26-.48-.26-.95-.42-1.36-.42-.44,0-.86.14-1.25.38-.57.35-1.09.96-1.6,1.31-.48.33-1.06.64-1.52.98-.29.21-.54.44-.72.67-.18.22-.3.48-.39.74-.15.44-.19.95-.29,1.4-.1.46-.24,1.05-.34,1.64-.07.43-.11.85-.11,1.23,0,.35.06.74.14,1.12.12.58.3,1.15.41,1.49.13.42.58.65,1,.52.42-.13.65-.58.52-1-.1-.31-.26-.81-.37-1.34-.06-.28-.1-.56-.1-.82,0-.29.04-.62.09-.94.09-.56.23-1.12.33-1.56.08-.35.11-.74.2-1.09.04-.14.09-.28.18-.4.14-.18.35-.33.59-.49.42-.28.89-.55,1.3-.82.44-.3.89-.79,1.36-1.14.18-.13.36-.26.56-.26.18,0,.38.11.59.22.72.39,1.5,1.03,2.09,1.31.5.24,1.09.31,1.61.51.13.05.25.11.35.19.12.11.23.26.33.43.33.55.6,1.22.91,1.67.27.39.65.74.95,1.11.09.11.17.21.22.33.08.16.12.33.16.5.07.34.1.69.15,1.04.06.46.21,1.07.28,1.67.04.31.05.62,0,.88-.03.17-.11.32-.19.47-.32.55-.77,1.04-1.03,1.61-.26.57-.35,1.22-.55,1.81-.06.17-.13.34-.23.48-.19.27-.45.56-.75.86-.67.68-1.5,1.41-2.16,2.12-.71.77-1.29,1.81-2.04,2.62-.26.28-.55.54-.88.72-.25.14-.53.23-.81.29-1.28.29-2.82.2-4.44.77-.96.34-1.9.67-2.86.92-.62.16-1.25.29-1.88.36-.4.04-.83.06-1.27.06-1.74,0-3.74-.23-5.54-.1-1.88.13-4.01.72-5.93.96-.48.06-.94.1-1.38.1-.56,0-1.11-.07-1.67-.17-1.46-.27-2.9-.74-4.31-.85-1.38-.11-2.78.11-4.16.16-.53.02-1.05,0-1.57-.07-.61-.1-1.26-.26-1.93-.46-1.55-.47-3.18-1.11-4.68-1.53-1.35-.38-2.62-.29-3.97-.6-.66-.15-1.34-.42-2.06-.95-.29-.21-.52-.46-.72-.73-.63-.83-1.04-1.79-1.68-2.55-.6-.71-1.51-1.25-2.16-1.9-.2-.2-.38-.41-.47-.66-.1-.27-.11-.58-.1-.91.04-.98.31-2.06.34-2.95.03-.83-.17-1.7-.15-2.52,0-.26.04-.51.14-.75.11-.26.29-.52.51-.78.62-.74,1.46-1.44,1.96-2.06.42-.52.74-1.15,1.15-1.67.13-.16.27-.31.43-.44.54-.4,1.41-.47,2.09-.72.27-.1.52-.21.74-.35.2-.13.38-.27.54-.44.47-.45.79-1.07,1.3-1.48.45-.36,1.11-.53,1.63-.85.36-.22.66-.49.89-.83.34-.51.66-1.23.89-2.01.21-.71.34-1.47.34-2.15,0-.45-.07-.94-.2-1.43-.25-.97-.69-1.97-.81-2.66-.03-.17-.05-.33-.05-.48-.02-.39.01-.79,0-1.4,0-.21-.05-.51-.13-.82-.18-.68-.49-1.48-.49-1.48-.18-.46-.71-.68-1.16-.5-.46.18-.68.7-.5,1.16Zm-5.84-4.25c-1.11.06-1.94.91-1.71,1.45.23.54.74.68,1.85.37,1.11-.31,1.42-.43,1.34-1.14-.09-.71-.37-.74-1.48-.68Zm7.81,24.32s-.04-.09-.05-.12c-.04-.09-.12.19-.22.18-.25,0-.77-.56-1.28-.24-.94.61-.19,1.52-.29,2.35-.06.45-.74.4-.67,1.24.05.69.96.5,1.15.91.19.41-.66,1.02,0,1.57.54.45,1,0,1.33.26.37.29-.03,1.05.77,1.13.82.08.87-.78,1.38-1.04.51-.26,1.14-.29,1.69-.49.71-.26,2.01-.5,2.55-1.06s1.12-1.37.71-2.3c-.39-.88-1.17-.94-1.75-.8-.58.14-1.2,1.27-1.71,1.64-.41.29-.97.62-1.38.58-.41-.04-.85-.43-1.07-.82-.01-.02-.03-.05-.04-.08,0,0,.02,0,.02,0,.44-.07.73-.47.67-.91-.29-2.07-.09-4.11.42-6.06.52-1.97,1.35-3.87,2.51-5.61.25-.36.16-.86-.21-1.11-.36-.25-.86-.16-1.11.21-1.31,1.87-2.34,3.9-2.9,6.06-.38,1.46-.55,2.98-.51,4.51Zm-18.42-19.88c-1.49-.69-1.55.56-2.22.46,0,0-.66-1.06.66-2.47.99-1.05,3.74-.17,3.74-.17.59-.39,1.22-.48,1.91-.29,0,0,.68-.71,1.62-1.11.94-.4.63-1.11,1.31-1.99.68-.88,1.46-.45,3.4-1.78,1.94-1.34,1.46-4.67,1.46-4.67,0,0,1.32,1.13,2.06.67.46-.3-.02-2.4.23-2.53.22.02,1.56,1.9,1.96,1.79.63-.08.71-1.85.71-1.85.5-.03,1.73,3.17,1.94,3.41.54.23.34-2.11.37-3.36.03-1.25-.03-2.48.8-2.19.83.28,1.88,4.27,1.79,5.46-.09,1.2.54,1.11,1.14,1.02.6-.08.6.26.43,1.11-.17.85-1.1,2.09-2.04,2.83-.94.74-2.36,1.33-2.36,2.03s.61.64,1.16.55c.55-.09,1.23-.57,1.18-.09-.05.48-.2,1.14.8,1.46,1,.32,1.78-.58,1.78-.58,0,0,.05.27.05.98s-.53.97-.69,1.86c-.16.89.87.89,1.66.71.8-.18,1.98-1.41,1.98-1.41.16-.06.18,2.42-.71,3.1-.55.55-1.23,1.92-.75,2.25,1.01.72,1.59-.84,2.76-2.51,1.17-1.67,3.68-3.61,11.5-7.68,8.26-4.3,22.49-6.56,24.29-6.7s1.62.32.96.68c-.66.37-7.16,4.22-8.98,6.18-1.82,1.96-1.29,5.25-1.29,5.25,0,0-2.18-.49-11.74,2.71-6.67,2.23-11.11,4.91-13.19,6.32-.06.04-.13.03-.18-.02-.05-.05-.05-.13,0-.18,2.34-2.33,7.63-7.48,10.88-9.68,4.27-2.89,10.44-5.24,11.15-5.69.71-.46.46-.89-.14-1.16-.59-.27-10.79,4.39-17.02,8.45-6.23,4.06-10.05,10.98-10.91,12.89-.87,1.91-.34,3.6,1.55,4.55,1.89.96,4.33,1.8,3.55,4.6-.77,2.8-2.35,2.28-3.35,2.91s-.43,3.67-.43,3.67c0,0-.82-.02-1.41.09-.59.11-1.14.82-.52,1.48.61.66,2.03.27,3.37.36,1.34.09,1.75.84,3.42.84s2.17-.78,3.85-1.03c1.67-.25,3.04.7,4.71.32.62-.14.89-1.11,1.46-1.79.56-.67,1.51-.53,1.68-.4.16.13-.16,1.62.15,1.91.31.29,1.09.46,1.99-.15,1.4-.95,1.07-2.16,1.07-2.16.4-.4,1.38.58,1.24,1.95-.04.39.68.83,1.92.1,1.23-.73,1.2-2.52,1.2-2.52,0,0,1.18.47.88,2.08-.08.45.5.91,1.3.38.75-.49,1.23-1.57,1.18-2.57,1.35.46.87,2.19,1.87,2.32.91.12,1.47-1.05,1.44-1.4.7.23.26,1.97,1.66,2.06,1.17.11,2.96-1.08,5.15-3.24,2.19-2.16,1.79-3.19,1.99-4.5.2-1.31-.83-2.16-.83-2.16,0,0,.88-.34.54-1.39-.34-1.05-1.51-.43-1.51-.43,0,0,.28-1.34-.4-1.74-.68-.4-1.05.43-1.05.43,0,0-.85-.06-1.17.51-.31.57.63,1.02.57,1.48-.06.46-.68.09-.8.94-.11.85.88,1.14.88,1.14,0,0-.37.63.26,1.14.63.51,1.45-.37,1.45-.37,0,0,.51.57.31,1.82-.2,1.25-1.11,2.33-2.76,2.59-1.65.26-1.88-.48-2.62-.74-.74-.26-1.42.17-1.94-.17-.51-.34-.54-.8-.94-1.31-.4-.51-1.2-.37-1.74-1.08-.54-.71,0-1.85-.2-2.48-.2-.63-.63-.68-.65-1.25-.03-.57.48-.85.51-1.57.03-.71-.68-1.28-.46-2.16.23-.88,1.74-1.28,1.74-1.28,0,0,0-1.17.6-1.91.6-.74,1.74-.54,1.74-.54,0,0,.28-1.39,1.59-1.99,1.31-.6,2.7.03,2.7.03,0,0,.8-.74,1.74-.8.94-.06,1.37.71,1.37.71,0,0,1.05-.46,1.82-.2.77.26,1.39,1.42,1.39,1.42,0,0,.74,0,1.51.63.77.63.91,1.57.91,1.57,0,0,1.25.43,1.71,1,.46.57.34,1.68.34,1.68,0,0,.97-.17,1.39.74.43.91.03,1.94.03,1.94,0,0,.94.4,1.08,1.34.14.94-.6,1.96-.6,1.96,0,0,.37.71.31,1.51-.06.8-.94,1.57-.94,1.57,0,0,.77,1.37.48,2.36-.28,1-1.25,1.65-1.25,1.65,0,0,.4,1.76-.26,2.87-.65,1.11-2.13,1.42-2.13,1.42,0,0-.08,1.34-.74,2.08-.65.74-2.36,1.11-2.36,1.11,0,0-.63,1.51-2.16,2.19-1.54.68-2.5.37-3.61.65-1.11.28-.77,1.14-2.39,1.68s-2.13-.2-3.02-.06c-.88.14-.48,1.14-2.59,1.42-2.11.28-2.82-.57-3.81-.46-1,.11-1.05,1.22-2.9,1.39s-2.59-.88-3.39-.83c-.8.06-1.85,1.22-3.19,1.31-1.34.09-1.48-.77-2.87-.8-1.39-.03-1.65,1.02-3.1,1-1.45-.03-2.19-1.34-3.1-1.39-.91-.06-1.37.97-3.24.91-1.88-.06-2.65-1.34-3.3-1.37-.65-.03-1.31.88-3.53.77-2.22-.11-2.42-1.45-3.7-1.68-1.28-.23-2.08.77-3.98.03-1.91-.74-1.91-2.39-2.85-3.02-.94-.63-2.73-.14-4.38-1.62-1.65-1.48-1.02-3.13-1.65-4.3-.63-1.17-2.25-.88-3.02-2.33-.77-1.45.06-2.62-.14-3.56-.2-.94-1.45-1.31-1.51-3.24-.06-1.94,2.19-3.56,2.19-3.56,0,0-.48-1.11-.03-2.48.46-1.37,2.99-2.16,2.99-2.16,0,0-.11-1.11,1-2.13,1.11-1.02,3.76-.85,3.76-.85,0,0,.65-1.08,1.79-1.59,1.14-.51,2.13-.34,2.13-.34,0,0,.65-1,1.39-1.42.74-.43.97-.14,1.48-.4.51-.26.34-1.51-.14-1.91-.48-.4-1.2-.34-2.13.03-.94.37-.88,1.48-.88,1.48,0,0-1.08-.2-1.74.03-.65.23-.88,1.11-.88,1.11,0,0-.6-.8-1.25-.77-.65.03-1.22.71-1.22.71,0,0,.28-1.08-.26-1.42-.54-.34-2.36.17-2.36.17,0,0,1.02-1,1.57-1s1.22-.74,1.22-.74c0,0,.51.17,1.02,0,.51-.17.71-.8.71-.8,0,0,.88.48,1.62.31.74-.17.91-1.05.91-1.05,0,0,1.31.03,2.28-.46.97-.48,1.34-1.08,1.11-2.93-.23-1.85-1.28-2.33-2.68-2.36-1.39-.03-1.65.71-1.65.71,0,0-.34-.71-1.28-.6-.94.11-.63,1.05-.63,1.05,0,0-.46-.37-1.11-.26-.65.11-.6.6-.6.6,0,0-.37-.48-1.05-.31-.68.17-.83.77-.83.77,0,0-.51-.63-1.57-.63s-1.51.46-1.51.46c0,0-.3-1.22-1.91-1.96Z"/>
  <path class="cls-2" d="m100.17,40.86c-.04-.08-.06-.29.03-.39.1-.11.31-.11.37-.07.75.07,2.04.85,3.49.83,2.19-.04,2.84-1.53,3.23-1.33.39.19.58,1.06.19,1.98s-.5,1.37-.25,1.93c.25.56,2.09.63,2.54.42,1.34-.64,1.47-1.54,1.72-1.46.25.08.5,1.77-.36,2.67-.86.9-2.22,1.51-2.22,1.51.04,1.87-.97,2.48-2.52,2.46,0,0-.66,1.34-1.59,2.16-.93.82-2.62.5-2.69.25-.07-.25.84-.35,1.53-1.66.23-.43.23-2.28-.32-2.55s-1-.18-1.94.18c-.93.36-1.8.14-1.98-.26-.18-.4,1.34-.99,1.46-3.18.08-1.43-.63-2.73-.69-3.49Z"/>
  <path class="cls-2" d="m52.36,47.2c-.09-.74-.37-.77-1.22-.68-.85.09-6.29,1.65-7.6,2.31-1.31.65-2.36.88-2.9.77-.54-.11-.11-1.08-.11-1.08,0,0-1.68.6-3.33.26-1.65-.34-2.48-1.02-2.48-1.02,0,0,.09,2.93,2.33,4.21,2.25,1.28,4.13,1.22,4.13,1.22,0,0-1.08-.85-.68-1.37.4-.51,2.76-1.59,4.75-2.16,1.99-.57,6.72-1.28,7.03-1.65.31-.37.17-.06.09-.8Z"/>
  <path class="cls-4" d="m68.93,127.4v-1.98s0-.04,0-.05c.13-2.54,2.69-4.42,5.05-4.62.31-.03,1.89-.02,2.28.03,2.3.3,4.67,2.14,4.8,4.59,0,.02,0,.04,0,.05v1.98c.47,0,1.17-.04,2.07-.2,2.96-.51,8.42-2.07,18.23-6.36,18.03-7.89,26.34-26.44,26.34-26.44.04-.08.08-.16.14-.22,1.54-1.91,2.63-5.28,3.23-7.99.34-1.51.47-3.24.5-3.65-.1-.17-.15-.37-.13-.58.04-.54.5-.96,1.05-.94.56.02,1.17.16,1.72.38.51.21,1.05.72,1.5,1.52.76,1.35,1.4,3.62,1.89,5.73.43,1.89,1.87,4.27,2.99,5.74.41.54.76.95.98,1.1,1.17.75,2.41,1.74,2.41,4.16,0,1.98-2.22,13.17-21.5,29.82-13.4,11.57-29.41,14.59-38.28,15.19-3.97.27-6.57.03-7.01-.12-.58-.2-1.4-1.37-2.18-1.37-.83,0-1.62,1.16-2.23,1.37-.43.15-3.04.39-7.01.12-8.88-.6-24.88-3.62-38.28-15.19-19.28-16.65-21.5-27.84-21.5-29.82,0-2.42,1.24-3.41,2.41-4.16.23-.15.57-.56.98-1.1,1.12-1.46,2.56-3.85,2.99-5.74.48-2.11,1.13-4.39,1.89-5.73.45-.8.99-1.32,1.5-1.52.58-.23,1.23-.37,1.81-.38.5,0,.92.35,1.01.84.37,2.1.36,6.1,3.66,12.5,0,.02.02.03.02.05,0,0,8.31,18.55,26.34,26.44,9.81,4.29,15.27,5.84,18.23,6.36.9.16,1.61.2,2.07.2Z"/>
  <path class="cls-1" d="m17.56,82.03c-.45.01-.96.12-1.41.3-1.18.47-2.12,3.67-2.78,6.54-.66,2.87-3.48,6.86-4.41,7.46-.93.6-1.95,1.38-1.95,3.31s2.3,12.78,21.15,29.05c18.85,16.27,42.93,15.35,44.3,14.88.92-.32,1.11-1.39,1.14-2.06-.42-.07-.8-.18-1.16-.31-.05,0-.1,0-.15,0,0,0-.96-.12-1.91-.44-.05,0-.08-.01-.05-.02-.34-.12-.68-.27-.97-.44-.72-.44-1.17-1.08-1.2-1.82-.05-1.13-.09-7.53-.11-10.09-2.53-.24-8.13-1.49-19.84-6.61-18.39-8.04-26.86-26.95-26.86-26.95v-.02c-2.53-4.06-4.09-9.2-3.8-12.77Zm5.22,11.2l3.8-4.25-6.44-5.49c-.2.31-.38.59-.53.83.3,2.78,1.49,6.09,3.16,8.91Zm4.05-6.7l-.05-4.45c-.71-.61-1.72-2.71-3.07-2.41-.68.15-1.57,1.11-2.39,2.16l5.51,4.7Zm96.49,2.38l3.92,4.36c1.67-2.83,2.85-6.14,3.15-8.92-.15-.24-.33-.53-.55-.86l-6.52,5.41Zm5.35-7.07c-.82-1.06-1.72-2.02-2.4-2.17-1.62-.37-3.51,2.39-3.51,2.39l.11,4.6,5.8-4.81Zm-.15,13.21c-1.04,2.2-9.57,19.2-26.75,26.72-11.34,4.96-16.95,6.29-19.59,6.59-.02,2.55-.06,8.99-.11,10.12-.03.75-.48,1.38-1.2,1.82-1.12.69-2.93.91-2.93.91-.12.01-.23,0-.34-.02-.37.14-.77.25-1.21.33.03.67.22,1.75,1.14,2.06,1.37.47,25.45,1.39,44.3-14.88,18.85-16.27,21.15-27.12,21.15-29.05s-1.01-2.71-1.95-3.31c-.93-.6-3.75-4.59-4.41-7.46-.66-2.87-1.6-6.07-2.78-6.54-.44-.18-.94-.29-1.39-.3.32,3.63-1.3,8.91-3.93,13.02Zm-48.45,42.76c.04-1.96-.02-12.39-.02-12.39-.1-1.98-2.07-3.4-3.92-3.64-.35-.05-1.78-.05-2.06-.02-1.91.16-4.02,1.61-4.13,3.66,0,0,.18,9.65.23,12.28.14-.17.3-.35.5-.54,1.47-1.4,2.87-1.69,4.35-1.69s3,.29,4.46,1.69c.24.23.43.44.59.65ZM7.83,94.66c.07-.08.77-.85,1.24-1.54.94-1.36,1.99-3.2,2.34-4.7.51-2.21,1.2-4.59,1.99-6,.59-1.05,1.33-1.69,2.01-1.96,1.44-.58,3.21-.53,4.13.01.07.04.13.08.2.12.26-.34.52-.66.79-.96.95-1.06,1.98-1.76,2.75-1.94.97-.22,1.89,0,2.71.57.56.38,1.08.96,1.53,1.53.23.29.41.59.59.74.44.38.7.93.7,1.51l.08,6.6c0,.51-.18,1-.52,1.37,0,0-4.59,5.13-4.59,5.13,2.13,4.13,10.26,18.21,25.26,24.77,9.68,4.24,15.08,5.78,18,6.29.33.06.63.1.89.13v-.91s0-.07,0-.11c.16-3.03,3.15-5.33,5.98-5.57.34-.03,2.07-.02,2.5.03,2.75.36,5.52,2.61,5.68,5.54,0,.04,0,1.01,0,1.01.26-.03.56-.07.89-.13,2.92-.51,8.32-2.05,18-6.29,14.99-6.56,23.13-20.63,25.25-24.76l-4.8-5.35c-.32-.36-.51-.82-.52-1.3l-.15-6.4c0-.42.11-.84.35-1.19,0,0,1.21-1.73,2.64-2.61.96-.59,2.01-.83,2.98-.6.77.17,1.8.87,2.75,1.94.26.3.53.62.79.96.06-.04.13-.08.2-.12.93-.54,2.69-.59,4.13-.01.68.27,1.41.91,2.01,1.96.79,1.41,1.48,3.79,1.99,6,.34,1.5,1.4,3.34,2.34,4.7.48.69,1.18,1.46,1.24,1.54,1.39.9,2.83,2.11,2.83,4.98,0,2.02-2.13,13.56-21.85,30.58-13.61,11.75-29.86,14.83-38.88,15.44-4.2.29-6.95-.02-7.4-.17-.86-.3-1.47-.86-1.87-1.55-.4.69-1.01,1.25-1.87,1.55-.46.16-3.21.46-7.4.17-9.01-.61-25.27-3.69-38.88-15.44-19.71-17.02-21.85-28.56-21.85-30.58,0-2.87,1.44-4.08,2.83-4.98Z"/>
  <path class="cls-5" d="m133.55,97.24l-1.1,2.08-.55-.29c-.44-.23-.75-.32-.92-.3-.22.02-.41.14-.54.39-.14.26-.13.5.01.75.11.19.33.38.67.56.41.21.75.31,1.02.31.25,0,.67-.14,1.21-.48,1.34-.81,2.32-1.26,2.94-1.33.6-.07,1.4.17,2.39.68.72.37,1.21.72,1.46,1.07.24.32.34.77.32,1.33-.02.6-.2,1.21-.54,1.84-.37.69-.81,1.22-1.34,1.57-.5.33-.97.48-1.44.42-.5-.06-1.13-.3-1.9-.7l-.46-.24,1.1-2.08,1.07.55c.47.25.8.34.98.33.24-.02.44-.15.6-.44.15-.28.14-.54,0-.79-.12-.2-.34-.4-.69-.58-.72-.37-1.25-.49-1.57-.41h0c-.3.08-.87.34-1.72.81-.8.44-1.37.71-1.69.82-.29.1-.64.13-1.04.09-.42-.04-.89-.21-1.42-.48-.77-.4-1.29-.78-1.54-1.16-.24-.36-.34-.8-.31-1.31.03-.54.21-1.12.54-1.73.36-.68.77-1.2,1.25-1.56.44-.33.85-.5,1.24-.48.42.02,1.03.25,1.83.67l.18.09Zm-7.19,8.79c-.09.12-.05.29.07.38l2.23,1.52c.13.09.3.05.38-.07.24-.35.35-.63.35-.84,0-.12-.05-.25-.16-.4-.12-.15-.32-.33-.62-.53l-.55-.37c-.41-.28-.74-.35-.96-.3-.22.06-.48.25-.73.62Zm-2.89,1.48l1.11-1.59c.83-1.19,1.43-1.96,1.81-2.32.34-.32.77-.48,1.27-.48.54,0,1.2.28,1.99.82.71.48,1.1.9,1.27,1.22.51.96-.28,1.37.8,1.61,1.55.35,4.98,1.97,4.98,1.97l-1.35,1.94s-5.04-2.32-5.21-2.07c-.09.12-.05.29.07.38l4.29,2.92-1.47,2.12-9.56-6.51Zm-4.59,5.67l3.82-4.27,1.42,1.23-1.92,2.14c-.1.11-.09.28.03.38l1.73,1.5c.11.1.29.09.39-.02l1.84-2.04,1.33,1.15-1.84,2.04c-.1.11-.09.28.03.38l2.01,1.74c.11.1.29.09.39-.02l2.06-2.29,1.42,1.23-3.96,4.43-8.73-7.56Zm-.95,1.03l5.23,5.78c.6.66,1,1.15,1.2,1.45.18.28.29.64.33,1.07.04.44-.05.86-.25,1.28-.21.44-.55.86-1,1.26-.51.45-1.03.76-1.57.94-.52.17-.99.21-1.4.12-.41-.09-.77-.26-1.05-.52-.32-.28-.93-.92-1.83-1.92l-4.61-5.1,1.94-1.71,5.89,6.51c.39.43.67.68.82.75.25.12.49.1.71-.1.25-.22.31-.47.2-.74-.07-.17-.32-.5-.75-.98l-5.79-6.4,1.94-1.71Zm-12.43,9.29l5.03,10.33-2.06.97-3.73-4.07c-.09-.1-.24-.12-.36-.04-.11.07-.15.22-.09.34l2.27,4.68-1.88.89-5.03-10.33,1.95-.92,3.83,3.98c.09.1.24.11.36.04.11-.08.15-.22.09-.34l-2.25-4.63,1.88-.89Zm-8.56,6.65c-.19-.58-.35-.94-.47-1.08-.18-.22-.42-.29-.74-.19-.25.08-.41.24-.48.47-.02.07-.03.17-.02.29.02.21.1.53.24.97l1.74,5.34c.23.71.41,1.13.52,1.28.18.23.43.31.76.21.34-.11.5-.33.5-.65,0-.21-.11-.67-.34-1.39l-1.71-5.25Zm3.7,2.97c.37,1.13.61,1.95.71,2.43.09.45.07.89-.08,1.33-.14.44-.41.83-.79,1.16-.39.34-.9.61-1.51.8-.58.18-1.13.26-1.66.21-.51-.04-.95-.2-1.34-.48-.39-.28-.68-.62-.87-1.03-.21-.45-.5-1.25-.88-2.41l-.64-1.95c-.37-1.13-.61-1.95-.71-2.43-.09-.45-.07-.89.08-1.33.14-.44.41-.83.79-1.16.39-.34.9-.61,1.51-.8.58-.18,1.13-.26,1.66-.21.51.04.95.2,1.34.48.39.28.68.62.87,1.03.21.45.5,1.25.88,2.41l.64,1.95Zm-8.32,2.93l.03.18s0,0,0,.01c.22,1.18.3,2.03.23,2.55-.07.49-.35.95-.82,1.39-.49.46-1.14.76-1.96.91-.86.15-1.59.13-2.2-.07-.58-.19-1.01-.53-1.27-1.01-.29-.52-.54-1.35-.75-2.46l-.65-3.45c-.16-.83-.25-1.46-.27-1.89-.02-.39.07-.79.27-1.19.2-.41.52-.75.95-1.04.45-.3.99-.51,1.62-.62.86-.16,1.6-.12,2.22.1.59.22,1.02.54,1.28.97.27.47.51,1.24.71,2.3l.16.85-2.56.46-.34-1.78c-.12-.65-.25-1.05-.35-1.2-.15-.22-.4-.32-.76-.26-.4.07-.6.28-.66.58-.04.21,0,.64.12,1.28l1.04,5.48c.12.62.24,1.02.35,1.2.16.25.42.37.8.3.36-.07.56-.26.62-.56.04-.2,0-.66-.13-1.36l-.23-1.22,2.56-.46Zm-31.61-6.68l5.39.93-.31,1.83-2.55-.44c-.15-.03-.29.07-.32.22l-.39,2.24c-.03.15.08.29.22.31l2.42.41-.29,1.71-2.42-.41c-.15-.03-.29.07-.32.22l-.45,2.6c-.03.15.08.29.22.31l2.76.47-.31,1.83-5.6-.96,1.94-11.28Zm-2.89,3.27l-2.47-.82.26-.78c.23-.7.34-1.14.34-1.34,0-.3-.16-.52-.51-.64-.3-.1-.55-.04-.73.16-.12.13-.31.51-.52,1.15l-1.83,5.46c-.19.56-.26.94-.25,1.14.02.3.18.51.51.61.34.11.61.04.83-.2.15-.17.34-.54.53-1.12l.07-.22c.05-.14-.03-.3-.17-.34l-.34-.11.41-1.21,2.99.99s-.52,1.39-.98,2.74c-.35,1.01-1.72,1.45-2.72,1.19,0,0,0,0,0,0,0,0-1.27-.35-1.64-.47-.46-.15-.85-.4-1.18-.75-.32-.35-.54-.72-.64-1.11-.1-.39-.12-.78-.05-1.15.07-.4.24-.98.49-1.75l1.13-3.38c.35-1.06.67-1.81.94-2.25.25-.41.7-.7,1.33-.9.65-.21,1.39-.17,2.22.1.82.27,1.45.66,1.88,1.17.41.49.63.98.64,1.47.01.53-.14,1.23-.44,2.13l-.08.23Zm-12.16-.52c.07.03.16.02.22-.01.07-.04.12-.1.14-.18l.82-4.21c.04-.13.05-.22-.08-.29-.12-.07-.2.03-.29.14l-2.77,3.27c-.04.06-.06.14-.04.21.02.07.06.14.13.18l1.86.89Zm3.87-6.76l-2.37,11.5s-2.34-1.06-2.34-1.06l.53-1.84c.04-.14-.03-.28-.17-.33l-2.16-1.02c-.12-.07-.28-.04-.36.08l-1.12,1.55-2.32-1.27,7.47-9,2.85,1.39Zm-9.45-3.74c-.12-.09-.3-.06-.38.07l-1.54,2.18c-.09.12-.06.29.07.38.35.24.64.35.85.35.12,0,.26-.04.41-.16.15-.11.33-.31.54-.6l.38-.54c.28-.4.36-.72.3-.95-.06-.22-.25-.47-.62-.73Zm-1.49-2.87l1.61,1.11c1.2.83,1.98,1.43,2.34,1.82.32.34.48.76.48,1.26,0,.53-.28,1.18-.83,1.95-.49.7-.97,1-1.24,1.24-.9.79-1.31-.39-1.61.65-.39,1.4-2.04,5.02-2.04,5.02l-1.95-1.35s2.37-4.95,2.12-5.13c-.12-.09-.3-.06-.38.07l-2.97,4.2-2.14-1.48,6.63-9.37Zm-1.49-1.19l-5.28,5.7c-.61.65-1.05,1.09-1.34,1.32-.26.21-.61.35-1.05.42-.44.08-.87.04-1.32-.12-.46-.16-.92-.45-1.37-.86-.5-.46-.88-.94-1.11-1.46-.22-.49-.32-.95-.27-1.37.05-.42.19-.78.41-1.09.25-.34.83-1,1.74-1.99l4.66-5.02,1.93,1.74-5.95,6.42c-.39.42-.61.72-.67.88-.1.26-.05.49.18.69.25.23.51.26.76.12.16-.09.47-.36.91-.84l5.84-6.3,1.93,1.74Zm-10.16-6c.47-.4.74-.69.82-.85.13-.25.1-.5-.11-.74-.17-.2-.38-.28-.63-.25-.07,0-.17.04-.28.1-.19.1-.46.3-.81.59l-4.29,3.65c-.57.49-.9.81-.99.97-.15.25-.12.51.11.77.23.27.5.33.8.2.19-.08.58-.36,1.16-.85l4.22-3.59Zm-1.31,4.52c-.91.78-1.57,1.3-1.99,1.58-.38.26-.81.41-1.27.44-.47.04-.93-.05-1.39-.27-.48-.23-.92-.58-1.34-1.06-.4-.46-.68-.93-.85-1.43-.16-.48-.19-.94-.09-1.41.1-.46.31-.86.62-1.19.33-.36.97-.94,1.9-1.73l1.57-1.34c.91-.78,1.57-1.3,1.99-1.58.38-.26.81-.4,1.27-.44.47-.04.93.05,1.39.27.48.23.92.58,1.34,1.06.4.46.68.93.85,1.43.16.48.19.94.09,1.41-.1.46-.31.86-.62,1.19-.33.36-.97.94-1.9,1.73l-1.57,1.34Zm-6.62-6.85c-1,.68-1.75,1.1-2.27,1.24-.48.14-1.02.07-1.63-.17-.63-.25-1.17-.72-1.65-1.4-.5-.71-.78-1.38-.84-2.01-.06-.6.07-1.12.41-1.56.36-.47,1.02-1.03,1.97-1.68l2.91-1.99c.7-.48,1.25-.82,1.64-1.01.35-.18.76-.26,1.21-.24.46.01.91.16,1.35.43.46.28.87.68,1.24,1.21.5.71.78,1.39.82,2.04.04.62-.07,1.14-.37,1.55-.32.44-.93.96-1.83,1.57l-.72.49-1.49-2.12,1.51-1.03c.55-.38.87-.65.96-.81.14-.22.13-.49-.08-.79-.23-.33-.51-.43-.8-.36-.21.05-.59.25-1.13.63l-4.63,3.16c-.53.36-.84.63-.96.8-.17.25-.17.53.05.84.21.3.47.4.77.33.2-.05.61-.26,1.2-.67l1.03-.7,1.49,2.12-.16.11Zm92.49,13.79c-.34-.51-.6-.81-.75-.91-.24-.16-.49-.17-.76.01-.22.14-.33.34-.33.59,0,.07.02.17.06.29.08.19.24.48.5.87l3.15,4.66c.42.62.71.98.86,1.09.23.17.5.19.79,0,.29-.19.39-.45.29-.76-.06-.2-.29-.62-.72-1.24l-3.1-4.59Zm5.95,5.79c-.06.28-.19.62-.7,1.04-.1.08-1.34.99-1.46,1.07-.56.34-1.12.51-1.69.5-.56,0-1.04-.17-1.43-.49-.43-.35-.93-.96-1.52-1.83l-2.09-3.09c-.44-.66-.75-1.18-.9-1.58-.15-.37-.2-.78-.16-1.22.04-.44.19-.84.45-1.23.27-.4.64-.74,1.09-1.04.55-.36,1.11-.6,1.66-.69.54-.09,1-.08,1.39.06.39.14.72.34.98.59.28.27.63.72,1.05,1.35l2.19,3.24c.58.86.94,1.47,1.06,1.83,0,.02.01.03.02.05l2.04.03c.08.47.09.94-.31,1.36l-1.67.03Z"/>
  <path class="cls-3" d="m74.99,136.68c2.33,0,4.23.87,4.23,1.95s-1.89,1.95-4.23,1.95-4.23-.87-4.23-1.95,1.89-1.95,4.23-1.95Z"/>
</svg>