<svg xmlns="http://www.w3.org/2000/svg" width="150" height="150" viewBox="0 0 150 150">
  <defs>
    <style>
      .cls-1, .cls-5 {
        fill: #f4d877;
      }

      .cls-2 {
        fill: #1a1a1a;
      }

      .cls-3, .cls-6 {
        fill: #1c6b33;
      }

      .cls-4 {
        fill: #fded97;
      }

      .cls-5 {
        stroke: #aa8133;
        stroke-linecap: round;
        stroke-linejoin: round;
        stroke-width: 2.04673px;
      }

      .cls-6 {
        stroke: #1a1a1a;
        stroke-miterlimit: 10;
        stroke-width: 1.36449px;
      }

      .cls-7 {
        fill: #e6e6e6;
      }
    </style>
  </defs>
  <g id="Layer_2" data-name="Layer 2">
    <g>
      <g>
        <circle class="cls-1" cx="74.99983" cy="75" r="71.97664"/>
        <path class="cls-2" d="M75,4.04673A70.95327,70.95327,0,1,1,4.04673,75,70.95326,70.95326,0,0,1,75,4.04673M75,2A73,73,0,0,0,23.38122,126.6188,73,73,0,1,0,126.61878,23.3812,72.52215,72.52215,0,0,0,75,2Z"/>
      </g>
      <circle class="cls-2" cx="75.26694" cy="75" r="65.34701"/>
      <path class="cls-3" d="M116.45723,76.449a41.4837,41.4837,0,0,1-82.9225-.14383h-.24835L14.81169,83.01248a60.71933,60.71933,0,0,0,120.34626.22595Z"/>
      <g>
        <path class="cls-4" d="M33.31505,92.85691l-1.635.573-1.102-3.14738-9.80925,3.4352-.63027-1.79755,9.80924-3.43587-1.102-3.14738,1.635-.57231Z"/>
        <path class="cls-4" d="M34.56894,104.03663l-2.42583,1.5124q-4.04248,2.51943-6.31008-1.11931-2.26758-3.63774,1.77557-6.15817l2.42516-1.51173q4.11643-2.56541,6.384,1.07267Q38.68538,101.47122,34.56894,104.03663Zm.37843-5.28738q-1.25922-2.02174-3.90557-.37243L28.616,99.88854q-2.5724,1.604-1.31252,3.62509,1.25922,2.02074,3.83229.41774l2.42583-1.51173Q36.20792,100.77066,34.94737,98.74925Z"/>
        <path class="cls-4" d="M41.09356,104.43572l-5.33536,5.32136q-2.14667,2.14068-.465,3.827,1.683,1.68694,3.82829-.45439l5.336-5.32136,1.34583,1.34916-5.33536,5.32137q-3.3729,3.3649-6.40069.32846-3.02811-3.03512.34446-6.39936l5.336-5.32136Z"/>
        <path class="cls-4" d="M40.93032,116.50023l1.70495.86813a1.72265,1.72265,0,0,0,.4284,2.723q1.573,1.09233,2.81558-.68024l4.793-6.89972,1.565,1.08666-4.793,6.89972q-2.2396,3.191-5.36867,1.0167Q39.14044,119.47671,40.93032,116.50023Z"/>
        <path class="cls-4" d="M60.12574,122.15072l-1.078,2.647Q57.25086,129.21,53.28,127.59334q-3.96954-1.617-2.174-6.02892l1.078-2.647q1.82987-4.4922,5.79973-2.87554Q61.95428,117.65884,60.12574,122.15072Zm-2.79493-4.50454q-2.20663-.89844-3.3819,1.98943l-1.078,2.64769q-1.14429,2.80727,1.062,3.7057,2.20662.89745,3.34992-1.90948l1.078-2.647Q59.53611,118.5443,57.33081,117.64618Z"/>
        <path class="cls-4" d="M65.637,118.63557,64.44972,126.077q-.4767,2.99315,1.8755,3.36857,2.35153.37477,2.82891-2.619l1.1866-7.44071,1.88216.29981L71.037,127.127q-.75052,4.70408-4.9849,4.02883-4.23237-.67458-3.48317-5.37866l1.18593-7.44138Z"/>
        <path class="cls-4" d="M79.625,119.39576q3.79865-.3168,4.08613,3.13539a3.16654,3.16654,0,0,1-2.39651,3.58977l4.06614,4.96292-2.37319.19788-3.75567-4.90163-1.89882.15857.4324,5.17878-1.89882.15857-1.00871-12.08383Zm.4324,5.17879q1.89781-.15791,1.75491-1.88417-.1429-1.72692-2.04273-1.56836l-2.8489.23786.28849,3.45252Z"/>
        <path class="cls-4" d="M91.7974,127.69861q2.2766-.69758,1.79422-2.27126-.37776-1.23324-3.815-1.23123-3.43388.012-4.14543-2.30724-.99039-3.229,3.01813-4.4579,3.82462-1.17327,4.99156,2.0474l-1.73958.76019q-.55866-1.82187-2.7443-1.15128-2.18664.66959-1.70427,2.24327.38176,1.24222,3.815,1.23057,3.43787-.002,4.14609,2.3079.99039,3.23-3.10873,4.48588-3.93456,1.20625-5.09684-2.06072l1.75291-.71889Q89.52083,128.39717,91.7974,127.69861Z"/>
        <path class="cls-4" d="M101.4674,111.38607q3.152-2.14267,5.0995.72155,1.94979,2.86523-1.20192,5.00823l-2.36387,1.607,2.92352,4.29733-1.57636,1.072-6.81909-10.02644Zm2.92285,4.29733a1.73993,1.73993,0,1,0-1.94813-2.86422l-2.36319,1.60767,1.94879,2.86422Z"/>
        <path class="cls-4" d="M108.83682,105.0107q2.63236-2.75529,5.13814-.36245a3.16624,3.16624,0,0,1,.58764,4.276l6.33406,1.0167-1.645,1.72226-6.06091-1.17727-1.31651,1.37781,3.75833,3.58911-1.31585,1.37848-8.76989-8.37547Zm3.759,3.58977a1.74007,1.74007,0,1,0-2.50511-2.39318l-1.97478,2.06671,2.50578,2.39318Z"/>
        <path class="cls-4" d="M115.91709,95.406l1.45443.94075-3.10874,4.79836,2.9082,1.88349,2.8489-4.39793,1.45443.94208-2.84957,4.39794,2.90753,1.88349,3.10874-4.797,1.45309.94208-4.14342,6.396-10.177-6.59324Z"/>
        <path class="cls-4" d="M119.71207,86.03715l1.61833.61628-1.18527,3.11673,9.71264,3.6977-.67825,1.7809-9.71263-3.6977-1.1866,3.11606-1.619-.61628Z"/>
      </g>
      <path class="cls-5" d="M88.804,98.74093c7.14417-3.40458,14.59194-4.2232,20.51466-2.7542-1.68825-6.11241-.79451-13.98859,2.98169-21.45719a33.24559,33.24559,0,0,1,11.13885-12.864,33.04114,33.04114,0,0,1-11.11014-13.44192c-3.45867-7.38691-4.16624-15.07615-2.46685-21.0708C104.066,28.44853,96.8959,27.699,89.92133,24.6159A33.20213,33.20213,0,0,1,75.04416,12.2823l-.00787-.0002-.00787.0002a33.20081,33.20081,0,0,1-14.877,12.3336C53.17668,27.699,46.0066,28.44853,40.21034,27.15282c1.6994,5.99465.992,13.68389-2.46685,21.0708a33.04084,33.04084,0,0,1-11.11,13.44192,33.24658,33.24658,0,0,1,11.13869,12.864c3.77637,7.4686,4.6701,15.34478,2.98169,21.45719,5.92272-1.469,13.37049-.65038,20.51466,2.7542a32.83006,32.83006,0,0,1,13.5979,11.56431c.05691.00021.11293.00431.16984.00431.057,0,.113-.0041.16992-.00431A32.832,32.832,0,0,1,88.804,98.74093Z"/>
      <path class="cls-6" d="M107.00294,61.58787c0-.01774.00133-.03519.00133-.05292s-.00133-.03515-.00133-.05285a6.6482,6.6482,0,0,0-1.67854-12.61866,6.64839,6.64839,0,0,0-7.44663-10.33871,6.65374,6.65374,0,0,0-10.49723-7.142,6.657,6.657,0,0,0-12.53072-2.38223A6.657,6.657,0,0,0,62.3191,31.38275a6.65446,6.65446,0,0,0-10.49714,7.142,6.64984,6.64984,0,0,0-7.44671,10.33871A6.6482,6.6482,0,0,0,42.69671,61.4821c0,.0177-.00134.03511-.00134.05285s.00134.03518.00134.05292a6.6482,6.6482,0,0,0,1.67854,12.61866A6.64842,6.64842,0,0,0,51.822,84.54524a6.65371,6.65371,0,0,0,10.49714,7.142,6.657,6.657,0,0,0,12.53072,2.38223,6.657,6.657,0,0,0,12.53072-2.38223,6.65459,6.65459,0,0,0,10.49723-7.142,6.64983,6.64983,0,0,0,7.44663-10.33871,6.6482,6.6482,0,0,0,1.67854-12.61866Z"/>
      <g>
        <path class="cls-7" d="M83.66179,83.92846a.68223.68223,0,0,1-.43373-1.20892,2.29966,2.29966,0,0,0,.77751-1.63865,2.412,2.412,0,0,0-.25983-1.41579,1.21014,1.21014,0,0,0-.31314-.056,9.73023,9.73023,0,0,1-3.745-1.36949c-2.9495-1.60133-4.17941-5.74743-3.3759-11.37493.87279-6.10721,3.98286-20.31239,13.992-20.31239a10.97627,10.97627,0,0,1,1.17327.0643c4.59182.49635,6.63055,2.96849,7.532,4.95492,1.653,3.63974.73821,8.21923-.19454,9.55173-1.22524,1.75058-2.77295,5.32037-2.37719,7.77618.09727.60295.36244.83781.94674.83781a5.51593,5.51593,0,0,0,2.22462-.69923.68246.68246,0,0,1,.99672.76952c-.07263.27083-1.8362,6.63121-6.88906,6.63121a6.45592,6.45592,0,0,1-1.49174-.18188c-5.53123-1.31685-4.41992-8.42777-3.94488-11.46422.06-.38642.10993-.70156.13125-.92143.04863-.51568.19788-2.0847-.31247-2.646a.81016.81016,0,0,0-.66426-.23885,3.38575,3.38575,0,0,0-1.06.2132c-2.26126.77552-3.72435,4.79869-4.09745,6.28376a.69243.69243,0,0,1-.026.08229c-1.29186,3.30628-.4797,5.27172.11926,6.14884a2.6711,2.6711,0,0,0,1.95013,1.3022.91029.91029,0,0,0,.12991-.009,5.72509,5.72509,0,0,1,.84481-.05929,5.9859,5.9859,0,0,1,4.15875,1.5417,3.532,3.532,0,0,1,.94009,2.70266c-.20321,3.46118-5.955,4.60547-6.6099,4.72473A.69124.69124,0,0,1,83.66179,83.92846Z"/>
        <path class="cls-2" d="M90.30358,47.23462a10.22647,10.22647,0,0,1,1.0999.06038c9.8777,1.06785,8.09789,11.65746,6.85208,13.43722s-2.93659,5.51728-2.4917,8.27591a1.49657,1.49657,0,0,0,1.62,1.41136,6.27961,6.27961,0,0,0,2.56249-.78845s-1.64265,6.12531-6.23046,6.12531a5.75056,5.75056,0,0,1-1.33351-.16309c-5.60627-1.33483-3.47059-9.78871-3.29262-11.65746.14916-1.566.17356-3.63182-1.65547-3.63182a4.01665,4.01665,0,0,0-1.28112.25026c-3.11457,1.06787-4.53835,6.76311-4.53835,6.76311-2.13193,5.45749.88395,8.38161,2.70557,8.38161a1.5586,1.5586,0,0,0,.231-.01672,5.06535,5.06535,0,0,1,.744-.05162c1.871,0,4.573.87661,4.41734,3.52217-.178,3.0256-6.05116,4.09345-6.05116,4.09345a3.226,3.226,0,0,0,.53392-4.09345c-.53392-.44495-1.06792.178-4.18249-1.5128s-3.64848-6.31817-3.02562-10.67859c.60154-4.21032,3.29579-19.72682,13.31623-19.72678m0-1.36449c-10.54312,0-13.76928,14.61478-14.667,20.89828-.84655,5.92635.51127,10.326,3.72536,12.07076a10.673,10.673,0,0,0,3.90257,1.43575,1.99863,1.99863,0,0,1-.47045,1.91806,1.36435,1.36435,0,0,0,1.11156,2.39574c.70914-.12893,6.935-1.37463,7.16921-5.35582A4.19949,4.19949,0,0,0,89.95013,76.022q-.03185-.03372-.06412-.06661a6.13641,6.13641,0,0,0,2.18031.96526,7.14074,7.14074,0,0,0,1.64956.20021c5.57054,0,7.47019-6.845,7.54839-7.13636a1.36453,1.36453,0,0,0-1.99492-1.53816,4.78518,4.78518,0,0,1-1.8855.60868.58158.58158,0,0,1-.21537-.02845,2.33127,2.33127,0,0,1-.05754-.2357c-.36561-2.267,1.10289-5.61963,2.26242-7.27614,1.03719-1.4817,2.03957-6.29929.25718-10.225-.97531-2.14815-3.16895-4.82029-8.0804-5.35125a11.64413,11.64413,0,0,0-1.24656-.06829ZM84.34636,74.33286A2.05158,2.05158,0,0,1,82.93324,73.33c-.52318-.7661-1.22516-2.50146-.04747-5.51611a1.37055,1.37055,0,0,0,.0528-.16557c.3258-1.29095,1.69778-5.13151,3.65715-5.80331a2.68019,2.68019,0,0,1,.83856-.1765.474.474,0,0,1,.16748.021c.02307.025.298.3497.12967,2.117-.018.18878-.068.50921-.12609.88025-.36969,2.36544-1.23074,7.8772,1.62532,10.71457a7.21916,7.21916,0,0,0-3.9353-1.13512,6.41283,6.41283,0,0,0-.94633.06671l-.00267,0Z"/>
      </g>
      <path class="cls-2" d="M79.09163,64.72171a23.90719,23.90719,0,0,1,2.08762-4.52235A17.6952,17.6952,0,0,1,84.25109,56.28a11.13958,11.13958,0,0,1,4.29417-2.59512,5.26578,5.26578,0,0,1,2.591-.21239,3.65483,3.65483,0,0,1,2.25727,1.3701,5.8203,5.8203,0,0,1,.78543,4.90992c-.38185,1.60173-.95225,3.11009-1.42512,4.64633a14.02261,14.02261,0,0,0-.8558,4.67222,2.68245,2.68245,0,0,0,.95266,2.01816,3.81147,3.81147,0,0,0,2.28233.43248.06756.06756,0,0,1,.07445.05994.06825.06825,0,0,1-.05863.07431,3.97756,3.97756,0,0,1-2.40675-.38464,2.91319,2.91319,0,0,1-1.13172-2.17459,14.31439,14.31439,0,0,1,.719-4.82284c.42731-1.55988.94974-3.09535,1.26646-4.64538A6.07421,6.07421,0,0,0,93.6734,57.338a4.26411,4.26411,0,0,0-.86429-2.02574,2.85893,2.85893,0,0,0-1.81654-1.02576,4.41846,4.41846,0,0,0-2.17215.2589,9.21332,9.21332,0,0,0-1.05368.44013c-.33146.19861-.68391.36414-.99772.58677a10.82569,10.82569,0,0,0-1.78222,1.46676,16.574,16.574,0,0,0-2.75687,3.7621,22.744,22.744,0,0,0-1.82953,4.30646l-.00825.02742a.6824.6824,0,1,1-1.30719-.39236Z"/>
      <path class="cls-2" d="M79.498,75.19582a2.45524,2.45524,0,0,1,.33829.12462c.13949.055.2879.1045.44022.15342a8.53662,8.53662,0,0,0,.972.23492,14.18665,14.18665,0,0,1,2.43607.5538,4.04406,4.04406,0,0,1,1.19534.6405,2.41572,2.41572,0,0,1,.97057,1.79246,4.49886,4.49886,0,0,1-.0603.64373,6.18659,6.18659,0,0,1-.17147.59573l-.24677.5526a3.02984,3.02984,0,0,0-.27541-2.16286,2.382,2.382,0,0,0-1.72693-.85869,13.15264,13.15264,0,0,0-2.26159-.03456,5.03672,5.03672,0,0,1-1.35724-.1849,4.05862,4.05862,0,0,1-.67092-.25744,2.92374,2.92374,0,0,1-.68749-.46453.56711.56711,0,0,1,.16257-.947Z"/>
      <g>
        <path class="cls-7" d="M67.50382,83.92846a.69124.69124,0,0,1-.12192-.011c-.6556-.11926-6.40736-1.26355-6.61056-4.72473a3.532,3.532,0,0,1,.94008-2.70266,5.9859,5.9859,0,0,1,4.15875-1.5417,5.71848,5.71848,0,0,1,.84481.05929.91725.91725,0,0,0,.12992.009A2.6705,2.6705,0,0,0,68.795,73.7148c.59963-.87712,1.41179-2.84257.11993-6.14918a.604.604,0,0,1-.026-.08229c-.3731-1.48507-1.83619-5.50824-4.09812-6.28376a3.3857,3.3857,0,0,0-1.06-.2132.81014.81014,0,0,0-.66425.23885c-.51035.56132-.36111,2.13034-.31248,2.646.02132.21987.07129.535.13126.92143.475,3.03645,1.58634,10.14737-3.94489,11.46422a6.46394,6.46394,0,0,1-1.49107.18188h-.00133c-5.0522,0-6.81577-6.36038-6.88839-6.63088a.68243.68243,0,0,1,.99671-.76952,5.51642,5.51642,0,0,0,2.22462.6989c.5843,0,.84947-.23486.94675-.83781.39642-2.45515-1.15129-6.02526-2.37719-7.77618-.93276-1.3325-1.84752-5.912-.19455-9.55173.90144-1.98643,2.94017-4.45857,7.532-4.95492a10.97641,10.97641,0,0,1,1.17327-.0643c10.00912,0,13.11919,14.20518,13.992,20.31239.8035,5.62784-.4264,9.77393-3.37524,11.37493a9.73526,9.73526,0,0,1-3.74567,1.36949c-.2252.02965-.29515.042-.32647.068a2.48774,2.48774,0,0,0-.24651,1.40379,2.30124,2.30124,0,0,0,.77818,1.63865.68223.68223,0,0,1-.43373,1.20892Z"/>
        <path class="cls-2" d="M60.86153,47.23462c10.02044,0,12.71469,15.51646,13.31615,19.72678.62294,4.36042.089,8.98781-3.02554,10.67859-3.11465,1.69077-3.64857,1.06785-4.18249,1.5128a3.22594,3.22594,0,0,0,.53392,4.09345s-5.87318-1.06785-6.05116-4.09345c-.15565-2.64556,2.54634-3.52216,4.41734-3.52217a5.06535,5.06535,0,0,1,.744.05162,1.5586,1.5586,0,0,0,.231.01672c1.82154,0,4.83741-2.92412,2.70557-8.38161,0,0-1.42378-5.69524-4.53835-6.76311a4.01779,4.01779,0,0,0-1.2812-.25026c-1.829-.00021-1.80463,2.06578-1.65547,3.63182.178,1.86875,2.31373,10.32263-3.29254,11.65746a5.75056,5.75056,0,0,1-1.33351.16309c-4.58782,0-6.23046-6.12531-6.23046-6.12531a6.27955,6.27955,0,0,0,2.56241.78845,1.49657,1.49657,0,0,0,1.62-1.41136c.445-2.75863-1.24581-6.49615-2.49162-8.27591-1.24589-1.77976-3.02562-12.36937,6.85208-13.43722a10.22647,10.22647,0,0,1,1.0999-.06038m0-1.36449a11.64413,11.64413,0,0,0-1.24656.06829c-4.91162.531-7.10517,3.2032-8.08048,5.35143-1.78231,3.92581-.77993,8.74328.25726,10.22489,1.15953,1.65649,2.628,5.00908,2.26234,7.2761a.67088.67088,0,0,1-.07678.25168l-.00384-.00187a1.54258,1.54258,0,0,1-.19229.01435,4.82423,4.82423,0,0,1-1.88542-.60868,1.36453,1.36453,0,0,0-1.99492,1.53816c.0782.29139,1.97785,7.13636,7.54839,7.13636a7.14074,7.14074,0,0,0,1.64956-.20021,6.13158,6.13158,0,0,0,2.1804-.96531q-.03235.03287-.06421.06667a4.19977,4.19977,0,0,0-1.12472,3.21092c.23419,3.98118,6.46007,5.22688,7.16921,5.35581A1.36448,1.36448,0,0,0,68.37095,82.193a1.99851,1.99851,0,0,1-.47037-1.918,10.67277,10.67277,0,0,0,3.90249-1.43575c3.21417-1.74482,4.572-6.14445,3.72535-12.07076C74.6309,60.48493,71.405,45.87013,60.86153,45.87013Zm2.71073,15.813a.7559.7559,0,0,1,.1584-.01465,2.68087,2.68087,0,0,1,.83873.1765c1.95937.6718,3.33135,4.51236,3.65757,5.80477a1.37952,1.37952,0,0,0,.05238.16409c1.1776,3.01467.4757,4.75-.04755,5.51616a2.07658,2.07658,0,0,1-1.38714,1.00449,6.86566,6.86566,0,0,0-.97473-.06834,7.22021,7.22021,0,0,0-3.93556,1.13519c2.85606-2.83736,1.995-8.34917,1.62533-10.71461-.05805-.371-.1081-.6915-.12609-.88028-.16831-1.76727.1066-2.09211.1385-2.12333l.00016,0Z"/>
      </g>
      <path class="cls-2" d="M70.76471,65.10763a22.744,22.744,0,0,0-1.82953-4.30646,16.57463,16.57463,0,0,0-2.757-3.7621,10.8218,10.8218,0,0,0-1.78214-1.46676c-.31381-.22263-.66626-.38816-.99772-.58677a9.21332,9.21332,0,0,0-1.05368-.44013,4.41846,4.41846,0,0,0-2.17215-.2589A2.85853,2.85853,0,0,0,58.356,55.31227a4.26323,4.26323,0,0,0-.86429,2.02574,6.074,6.074,0,0,0,.07745,2.29045c.3168,1.55.83923,3.0855,1.26646,4.64538a14.31219,14.31219,0,0,1,.71905,4.82284,2.91323,2.91323,0,0,1-1.13179,2.17459,3.97722,3.97722,0,0,1-2.40667.38464.06763.06763,0,0,1-.05855-.07558.06836.06836,0,0,1,.07437-.05867,3.81147,3.81147,0,0,0,2.28233-.43248A2.68245,2.68245,0,0,0,59.267,69.071a14.0207,14.0207,0,0,0-.85588-4.67222c-.47279-1.53624-1.04327-3.0446-1.425-4.64633a5.8203,5.8203,0,0,1,.78543-4.90992,3.65486,3.65486,0,0,1,2.25718-1.3701,5.26606,5.26606,0,0,1,2.59114.21239A11.14017,11.14017,0,0,1,66.914,56.28a17.69755,17.69755,0,0,1,3.07184,3.9194,23.91217,23.91217,0,0,1,2.08762,4.52235.68241.68241,0,0,1-1.29386.43432l-.00583-.01809Z"/>
      <path class="cls-2" d="M72.7728,76.52462a2.92374,2.92374,0,0,1-.68749.46453,4.06134,4.06134,0,0,1-.67092.25744,5.03715,5.03715,0,0,1-1.35724.1849,13.15249,13.15249,0,0,0-2.26159.03456,2.38183,2.38183,0,0,0-1.72693.85869,3.029,3.029,0,0,0-.27541,2.16286l-.24677-.5526a6.18659,6.18659,0,0,1-.17147-.59573,4.49875,4.49875,0,0,1-.06038-.64373,2.41636,2.41636,0,0,1,.97065-1.79246,4.04406,4.04406,0,0,1,1.19534-.6405,14.18665,14.18665,0,0,1,2.43607-.5538,8.54074,8.54074,0,0,0,.972-.23492c.15232-.04892.30073-.09842.44022-.15342a2.45139,2.45139,0,0,1,.33829-.12462l.9405.38089a.56688.56688,0,0,1,.31256.73821A.576.576,0,0,1,72.7728,76.52462Z"/>
      <g>
        <path class="cls-7" d="M75.52617,88.467a.68188.68188,0,0,1-.42107-.14558c-7.4034-5.81-4.42325-11.1111-3.33326-12.59751l.22719-.30314c.66958-.88312.80883-1.06667.88678-6.24512.07729-5.07918-2.22928-11.30632-4.46056-17.32824q-.42573-1.14829-.83748-2.27192c-2.208-6.05158-1.17061-10.16569,3.36458-13.34,3.30461-2.3129,4.04948-3.65707,4.05681-3.67039a.69724.69724,0,0,1,.60562-.36844h.09728a.68179.68179,0,0,1,.61029.3771c.00266.00466.74753,1.34883,4.05215,3.66173,4.53451,3.17469,5.57254,7.2888,3.36457,13.34-.27183.74553-.55232,1.5014-.83481,2.26392-2.23195,6.02493-4.54052,12.25473-4.46323,17.33624.078,5.17911.20187,5.342.88678,6.24545l.22719.30248c1.09,1.48674,4.07014,6.78779-3.33326,12.59784a.68185.68185,0,0,1-.42107.14558Z"/>
        <path class="cls-2" d="M75.71189,32.87891s.71189,1.42382,4.27143,3.91548,5.51724,5.96222,3.11457,12.54735-5.4283,13.97114-5.33927,19.84436c.08894,5.87323.26692,5.60626,1.24581,6.94109s3.82654,6.14018-3.20359,11.65745h-.27492c-7.03013-5.51727-4.18248-10.32264-3.20359-11.65745s1.15686-1.06786,1.24581-6.94109c.089-5.87322-2.93659-13.25925-5.33927-19.84436s-.445-10.05569,3.11457-12.54735,4.27143-3.91548,4.27143-3.91548h.097m0-1.36449h-.097a1.25976,1.25976,0,0,0-1.21258.73636,14.52579,14.52579,0,0,1-3.84137,3.42579c-4.7662,3.33634-5.91457,7.82718-3.61384,14.13285.27283.74793.55374,1.50613.83723,2.27129,2.20963,5.96446,4.49455,12.132,4.41951,17.08472-.075,4.95508-.191,5.10806-.74845,5.84322-.07262.09576-.15024.19825-.23336.31162-1.1816,1.61121-4.424,7.3492,3.46152,13.53777a1.36437,1.36437,0,0,0,.84239.29109h.27492a1.36437,1.36437,0,0,0,.84239-.29109c7.88552-6.18857,4.64312-11.92656,3.46152-13.53777-.08312-.11337-.16082-.21586-.23336-.31162-.5574-.73516-.67341-.88814-.74845-5.8432-.075-4.95276,2.20988-11.12028,4.41951-17.08474.28349-.76516.56439-1.52336.83723-2.27129,2.30073-6.30567,1.15245-10.79649-3.61384-14.13287a14.52557,14.52557,0,0,1-3.84137-3.42577,1.25976,1.25976,0,0,0-1.21258-.73636Z"/>
      </g>
      <path class="cls-2" d="M75.44531,88.2002a.68268.68268,0,0,1-.68261-.68262V32.70117a.68262.68262,0,0,1,1.36523,0V87.51758A.68268.68268,0,0,1,75.44531,88.2002Z"/>
      <g>
        <path class="cls-7" d="M69.26006,73.428a3.9304,3.9304,0,0,1,0-7.86079H82.43055a3.9304,3.9304,0,0,1,0,7.86079Z"/>
        <path class="cls-2" d="M82.43047,66.2495a3.24807,3.24807,0,1,1,0,6.49613H69.26023a3.24807,3.24807,0,1,1,0-6.49613H82.43047m0-1.36449H69.26023a4.61256,4.61256,0,0,0,0,9.22511H82.43047a4.61256,4.61256,0,0,0,0-9.22511Z"/>
      </g>
    </g>
  </g>
</svg>
