<?xml version="1.0" encoding="UTF-8"?>
<svg id="Layer_7" data-name="Layer 7" xmlns="http://www.w3.org/2000/svg" width="150" height="150" viewBox="0 0 150 150">
  <defs>
    <style>
      .cls-1 {
        fill: #ecc12a;
      }

      .cls-1, .cls-2, .cls-3, .cls-4, .cls-5, .cls-6, .cls-7, .cls-8, .cls-9 {
        stroke-width: 0px;
      }

      .cls-1, .cls-2, .cls-3, .cls-4, .cls-5, .cls-6, .cls-7, .cls-9 {
        fill-rule: evenodd;
      }

      .cls-2 {
        fill: #cb4d09;
      }

      .cls-3 {
        fill: #1d6f21;
      }

      .cls-4 {
        fill: #141414;
      }

      .cls-5 {
        fill: #f4e6a8;
      }

      .cls-6 {
        fill: #ab2820;
      }

      .cls-7 {
        fill: #a9a9a9;
      }

      .cls-8 {
        fill: #337137;
      }

      .cls-9 {
        fill: #9f1f20;
      }
    </style>
  </defs>
  <g id="squad_usa_pilot_assaulter_3_icon">
    <circle class="cls-8" cx="75" cy="75" r="69.12" transform="translate(-15.23 130.76) rotate(-76.72)"/>
    <path class="cls-1" d="m89.55,59.33c-1.88-.95-2.4-3.45-1.12-6.4,1.28-2.95,9.15-20.61,10.35-21.94,1.2-1.33,1.92-1.74,1.92-1.74,0,0-.76-1.55-.35-2.93.27-.9,4.21-7.37,4.21-7.37,1.27.35,1.22,1.3,1.18,2.67,1.88.69,3.19,1.7,4.06,2.97,1.02-.69,1.95-.91,2.68,0,0,0-2.02,4.55-3.48,5.81-1.47,1.26-2.34,1.92-2.34,1.92,0,0,.71.9-.11,2.76-.82,1.86-8.97,18.03-10.4,20.65-1.42,2.62-4.72,4.55-6.6,3.6Z"/>
    <path class="cls-2" d="m88.84,58.03c-1.3-2.07-.1-4.7.48-6.03.71-1.63,3.14-7.15,5.79-12.16.29-.54.83-.62,1.22-.57.49.06.74.33.48.81-3.21,6.1-7.79,14.72-6.71,17.23.38.89-.92,1.24-1.25.71Z"/>
    <path class="cls-9" d="m48.93,50.94s4.73,2.5,5.65,3.86c.92,1.36,1.36,2.44,1.36,2.44l19.4-4.84s1.41-.22,2.06-1.52c.65-1.3,2.39-5.65,2.93-6.25.54-.6,1.52.6.98,3.21-.54,2.61-1.63,8.86-1.63,8.86l1.59,16.9c2.07,3.47,3.59,7.14,4.99,11.89,1.14-1.55,2.16-3.04,6.16-5.95,3.33-1.62,5.94-2.45,8.17-2.85,2.92-5.34,6.18-10.06,10.29-13.16,0,0-.64-1.8-1.38-8.28-.74-6.47-1.17-11.88-1.17-11.88l-2.44-1.91s-2.95-.47-4.34-.91c-1.39-.43-3.65-2.17-3.65-2.17l-2.3-.52-2.61.48s-.74-.97-.59-1.53c.16-.56.6-1.22.6-1.22l1.8-.8s-.42-.02-.65-.93c-.22-.91.38-2.14,1.09-2.65.71-.51,2.65-.82,2.65-.82,0,0-.29-.13.02-1,.31-.87.65-1.71,1.29-1.85.65-.13,1.54-.04,1.54-.04,0,0,.22-1.2,1.31-1.31,1.09-.11,3.85.2,3.85.2,0,0,1.42.23,1.77.66.35.43,1.83,2.82,2.87,3.91,1.04,1.09,3.68,3.16,4.3,4.93.63,1.77,3.27,9.21,3.27,9.21,0,0,.94,3.55,2.19,6.19,1.25,2.64,2.81,7.46,2.81,7.46.74,1.88.76,3,.28,3.6,0,0-4.55,13.91-8.29,19.09-3.74,5.18-7.98,12.05-10.02,14.18-2.04,2.12-3.99,8.66-3.99,8.66,0,0-9.76,18.51-9.76,21.05s-1.61,14.26-1.61,14.26c0,0-2.97,3.14-12.65,2.72-9.68-.42-30.31-6.54-30.31-6.54,0,0-.59-9.59.34-14.86s2.55-6.54,1.27-9.17c-1.27-2.63-1.87-3.14-2.12-6.37-.25-3.23-.51-7.89-.51-7.89,0,0-7.13-2.12-10.87-5.35-3.74-3.23-7.47-8.15-7.47-8.15,0,0-2.63-.85-4.92-2.8-2.29-1.95-3.4-3.82-3.06-6.03.34-2.21,3.31-9.68,3.9-11.29.59-1.61,1.95-3.31,1.95-3.31l10.53-3.82-2.55,18,10.87,5.43,4.16,4.67,7.89-.42c3.55,1.47,7.04,2.54,10.36,2.38,0,0-.34-1.36-.93-2.97-.59-1.61-2.46-4.5-4.16-5.86-1.7-1.36-3.86-2.37-4.03-4.15-.17-1.78-.34-4.13-.34-4.13,0,0-1.15.15-1.83-3.16-.68-3.31-.51-5.54-.51-5.54-2.25-2.2-4.25-5.32-5.83-10.01Z"/>
    <path class="cls-2" d="m81.97,134.82c-.15.03-1.97-.58-2.01-.77-.04-.19,1.38-1.69,1.5-1.73.31-.1.62-.15.93-.24,1.19-.33,2.26-.67,3.23-1.13.15-.12.37-.09.48.06.12.15.09.37-.06.48-.56.68-1.17,1.35-1.93,2-.48.41-.99.79-1.57,1.09-.18.1-.37.19-.58.23Zm.17-3.71c-.32-.01-1.75-.43-1.84-.6-.09-.17,1.19-1.67,1.41-1.79.21-.12.49-.2.81-.32.37-.14.8-.26,1.3-.47l3.67-1.48c.15-.12.36-.09.48.05.12.15.09.36-.05.48-.27.31-.7.72-1.19,1.16-.64.58-1.35,1.15-1.88,1.58-.58.44-1.06.78-1.5,1.02-.27.14-.51.26-.74.31-.16.04-.31.06-.45.05Zm-.23-54.37l1.38,4.46s-1.27,4.35-2.97,8.17c-1.7,3.82-4.88,7.32-4.88,7.32,0,0,4.14-6.37,4.77-11.67.64-5.31,1.7-8.28,1.7-8.28Zm-17.91,3.36s1.78,3.65,4.41,4.5c2.63.85,3.82,1.19,5.35-.17,1.53-1.36,3.57-8.32,3.57-8.32,0,0,1.61,1.87.34,4.75-1.27,2.89-3.48,5.26-5.35,5.26s-3.57.85-5.86-1.7c-2.29-2.55-2.46-4.33-2.46-4.33Zm-7.3-13.8c1.8-1.06,4.77-.96,6.26.32.36.31.62.78.81,1.34.62,1.79.85,3.99,1.06,5.08.27,1.43,1.42,5.32,1.42,5.32,0,0-1.29-1.37-2.92-1.78-1.63-.41-3.67-3.33-3.67-3.33,0,0,3.6,1.15,4.07-.2.48-1.36.14-2.78-1.49-3.67-1.63-.88-7.35-2.02-5.55-3.08Zm13.03.12s.93-.51,2.55-1.61c1.61-1.1,2.8-3.99,2.8-3.99,0,0,1.53,2.38,2.38,4.84.85,2.46-.42,4.07-1.36,6.96s-2.8,1.87-2.8,1.87c0,0,1.53,1.78.85,2.12-.68.34-4.24,2.38-4.24,2.38l1.97-2.12-1.78.13c.36-3.36,1.81-5.98-1.36-7.75-1.92-1.08,1-2.81,1-2.81Zm-38.34-8.85s0,7.79-2.16,12.27c-2.16,4.48-4.64,6.3-4.64,6.3,0,0,8.51,2.39,13.32,6.37,4.81,3.98,10.72,11.87,10.72,11.87,0,0,2.53,8.91,3.38,10.5.85,1.59,9.55,1.49,9.55,1.49,0,0,2.64-.74,4.76-.69,3.96.11,6.33,3.81,6.33,3.81,0,0-5.71-3.47-10.56-1.33-3.77,1.66-10.48,3.18-12.06-2.04-.81-2.68-3.1-9.53-4.47-10.17-1.38-.64-6.81-.3-10.74-4.01s-7.32-7.43-7.32-7.43c0,0-5.43-3.03-7.34-4.83-1.91-1.8-.94-6.84-.94-6.84l4.78-11.35,7.39-3.91Zm71.3,42.23c-.69-.93-1.58-2.17-3.01-1.43,0,0-2.31,1.35-4.3,5.33-.24.47-3.22,4.61-4.52,5.72-1.56,1.93-3.21,4.29-4.15,6.61-1.44,3.56-5.28,8.3-5.35,1.54-.03-2.71-2.09-4.5-3.07-5.2-.09-.05-.17-.1-.23-.16-.17-.12-.28-.17-.28-.17,0,0,.05,0,.14,0-.12-.3.44-.52,1.93-.38,4.11.4,9.15-5.31,11.27-8.75,2.12-3.45,6.9-9.28,7.69-12.2.8-2.92,7.56-8.09,10.21-10.35,2.65-2.25,7.72-9.63,8.64-12.55.93-2.92-4.95-3.61-1.77-3.87,2.69.65,5.98.57,7.47-1.72v.1s-.31.95-.84,2.44c-.85,2.31-2.09,5.61-3.29,8.58-1.32,3.12-2.79,6.17-4.16,8.06-3.74,5.18-7.98,12.05-10.02,14.18-.86.9-1.7,2.58-2.39,4.22Zm-52.56,31.71s2.62-5.21,8.06-7.33c5.44-2.12,10.21-1.33,13.79,1.59,3.58,2.92,10.64,13.83,10.64,13.83,0,0-14.46,1.72-24.41-1.46-9.95-3.18-8.09-6.63-8.09-6.63Zm39.57-10.56c.64-.58.89.06.5.55-.2.25-.56.61-1.33,1.27-.56.49-1.32,1.08-2.37,1.85-.9.63-1.79,1.12-2.63,1.48-.43.18-.83.34-1.23.44-.2.05-.39.08-.57.09-.33.02-2.73-.67-2.74-.85,0-.13,1.72-1.31,2.07-1.47.15-.07.31-.14.49-.19.23-.07.49-.13.75-.2.88-.22,1.88-.47,2.93-.94,1.15-.48,2-.87,2.64-1.19.84-.42,1.3-.66,1.49-.83Z"/>
    <path class="cls-1" d="m67.03,139.74c0-.3.42-.84,2.46-1.66,3.4-1.36,4.67-1.02,6.28-2.72,1.61-1.7,2.8-3.4,2.8-3.4,0,0-.42,2.21.51,4.16.93,1.95,2.51,3.17,4.25,2.73,1.99-.5,2.28-.17,4.31-2.08,1.73-1.63,2.41-6.42,3.94-9.14,1.53-2.72,3.93-3.28,5.46-5.82,1.53-2.55,1.87-4.75,5.01-7.89,3.14-3.14,7.55-4.84,7.55-4.84,0,0-4.33,2.72-5.01,6.37-.68,3.65-.76,6.96-1.19,9.59-.42,2.63-3.31,6.62-3.31,6.62,0,0,1.17.22,3.14-2.56,1.97-2.78,1.29-1.97,3.4-4.69,2.11-2.72,2.85-4.82,2.85-4.82,0,0-.2,2.44-.54,4.35-.34,1.9-.07,2.17-.88,5.09-.81,2.92,1.63,1.97,3.5-.91,1.87-2.89,4.33-9.85,5.18-13.5.85-3.65,1.02-7.39,4.41-11.29,3.4-3.9,3.65-3.65,5.01-6.54s1.78-7.13,1.78-7.13c0,0,1.02,5.6-.68,9.42-1.7,3.82-2.63,5.94-2.04,8.15.59,2.21.14,7.38.14,7.38,0,0,.93.34,2.38-3.14,1.44-3.48,3.48-5.6,4.07-6.79.59-1.19,1.7-4.5,1.7-4.5,0,0,1.05,4.69.29,8.17-.34,1.56-.77,3.27-1.33,5.01-12.4,18.53-33.53,30.74-57.48,30.74-21.54,0-40.79-9.88-53.47-25.34.8-.46,1.81-.53,1.81-.53-2.45-2.48-4.14-6.27-4.42-12.51,0,0,1.03,5.54,3.48,7.77,2.44,2.23,6.63,5.65,7.61,6.9.98,1.25,1.52,1.96,1.52,1.96,0,0-3.8-5.05-4.35-6.41-.54-1.36-.87-4.13-.87-4.13,0,0,1.03,2.68,3.15,4.07,3.64,2.39,4.94,5.7,4.94,5.7,0,0,.22-3.86.33-5.54.11-1.68-.16-4.89-1.52-6.74s-2.34-3.15-2.61-4.78c-.27-1.63-.22-5.98-.22-5.98,0,0,.22,4.51,2.23,6.9,2.01,2.39,5.7,4.91,6.08,9.75.38,4.84,1.1,6.57,2.52,10.88,1.47,4.45,1.46.87,1.62-.91.17-1.78.25-7.64.25-7.64,0,0,1.1,1.95,1.53,4.58.42,2.63.42,7.39,1.44,8.91,1.02,1.53,2.04,2.8,2.04,2.8,0,0,.93,0,2.8-1.1,1.87-1.1,2.53-1.02,3.29-2.63.76-1.61,1.29-2.88,1.29-2.88,0,0,.37.66.53,2.74.29,3.79-1.78,6.94-1.78,6.94,0,0,.58-.28,4-2.88,3.28-2.49,3.02-1.03,5.06-1.88s5.52-3.31,6.11-4.92c.59-1.61.68,1.36-.85,3.99-1.53,2.63-2.63,2.8-2.72,4.67-.07,1.47.81,3.19,1.19,3.87,0,.2.17.29.17.29,0,0-.07-.11-.17-.29Z"/>
    <path class="cls-2" d="m94.11,33.34s.01-.06.02-.09c.16-.65,1.01-1.6,1.04-1.64-.03.03-.56.65.98.81,1.58.16,3.31.33,3.31.33l-3.26,1.58-2.02.73c.36-.15.64-.25.64-.25,0,0,.17-.03-.25-.42-.15-.14-.28-.24-.36-.35-.02-.06-.04-.13-.06-.2-.04-.16-.05-.33-.05-.5Zm.08,1.72c-.19.08-.41.17-.63.28,0,0,0,0,.01-.01l.47-.21.15-.05Zm-.63.28c-.33.3-1.41,1.38.04,1.33,1.68-.05,4.51.05,4.51.05l1.15,1.5c.77.21,1.64.46,2.55.74,2.77.87,4.91,1.14,4.91,1.14,1.15.94,1.51,1.8,1.61,2.5,0,0-.26.1-.72.2l-1.71-1.34s-2.95-.47-4.34-.91c-1.39-.43-3.65-2.17-3.65-2.17l-1.55-.35.05-.13c-.17,0-.34.01-.5.03l-.31-.07-2.61.48s-.11-.14-.23-.34c-.14-.35-.29-.79-.36-1.19.13-.45.44-.97.56-1.15.18-.11.39-.21.6-.31Z"/>
    <path class="cls-1" d="m60.96,33.96c1.17.95,2.38,2.75,2.63,5.33l4.43-1.04c1.47-4.01-.42-5.85-3.69-6.95l-3.36,2.67ZM14.07,59.04c-1.53-2.89.55-5.46,4.83-8.04,4.28-2.58,32.14-15.6,34.86-16.21,2.72-.61,4.66.62,4.66.62,0,0-.32-2.46,1.43-3.83,1.14-.9,10.53-4.7,10.53-4.7l-.56,2.51,2.96,6.72,2.07.63s-7.74,4.62-10.73,4.89c-2.99.27-3.96-1.44-3.96-1.44,0,0,.08,1.78-2.63,3.4-2.72,1.61-27.84,14.69-32,16.72-4.16,2.04-9.93,1.61-11.46-1.27Z"/>
    <path class="cls-2" d="m14.7,55.17c-.09-.12-.02-.63.07-.73.92-1.07,2.3-2.12,4.04-3.18,4.28-2.58,32.14-15.6,34.86-16.21.75-.17,1.4-.04,1.73.03,1.97.41-1.29,2.44-4.62,3.74-3.33,1.29-31.37,15.21-34.23,16.43-1.04.45-1.59.29-1.86-.08Z"/>
    <path class="cls-6" d="m30.12,45.66s1.75-1.14,2.95-.92c1.2.22,2.09,1.22,2.73,1.89.64.67,1.39,1,2.11.78.72-.22,1.7-1.08,1.7-1.08,0,0,.64.42,1.45.42s2.03-.5,2.17-1.03c.14-.53-.17-1.53-.17-1.53,0,0,1.11.36,1.72.14s1.11-1.06,1.11-1.72-1.75-3.7-1.75-3.7l.36-.28s1.17.47,1.67.2c.5-.28,1.08-1.89,1.08-1.89,0,0-1.95-2.03-3.64-1.64-1.7.39-2.5,1.47-2.5,1.47,0,0-1.5-.36-2.25.39-.75.75-1.22,1.58-1.22,1.58,0,0-2.14.03-2.92.56-.78.53-1.67,1.89-1.67,1.89,0,0-1.06-.54-1.92.39-1.33,1.43-1,4.09-1,4.09Z"/>
    <path class="cls-2" d="m33.98,45.07l-.14-.47s1.42.22,2.11-.36c.7-.58.72-1.75.72-1.75,0,0,1.39.47,2.64.08,1.25-.39,1.31-1.61,1.31-1.61,0,0,.22.31,1.95,0,1.72-.31,1.61-1.14,1.61-1.14,0,0,.7.59,1.17,1.37.12.25.23.49.32.71,0,.01,0,.03.01.04.27.64.16,1.74-.57,2.19-.11.09-.23.15-.35.2-.61.22-1.72-.14-1.72-.14,0,0,.31,1,.17,1.53-.14.53-1.36,1.03-2.17,1.03s-1.45-.42-1.45-.42c0,0-.97.86-1.7,1.08-.72.22-1.47-.11-2.11-.78-.46-.48-1.06-1.15-1.81-1.56Z"/>
    <path class="cls-2" d="m77.89,133.74s-.65,4.54,2.77,6.25c2.06,1.03,5.11-.22,5.11-.22,0,0-1.03,1.25-3.97,1.85-2.93.6-4.29-1.14-5-2.61-.71-1.47,1.09-5.27,1.09-5.27Zm-10.31,7.34s-3.1-.49-4.02-2.72c-.92-2.23-.92-3.53.87-4.73,1.79-1.2,2.99-1.9,3.75-3.04.76-1.14,1.41-2.93,1.41-2.93,0,0,.11,2.83-.98,4.18-1.09,1.36-3.75,3.53-2.83,5.16.92,1.63,1.79,4.07,1.79,4.07Zm-20.74-5.18s4.23,1.08,5.87-1.08c1.82-2.39,2.7-6.97,2.7-6.97,0,0,.34,6.52-.77,8.05-1.1,1.53-1.53,1.53-3.82,1.53s-3.99-1.53-3.99-1.53Zm-3.51-1.96s-5.93-2.23-7.79-7.53c-1.86-5.31-.7-11.04-1.36-13.95-.4-2.95-3.13-5.57-3.3-8.62.73,1.54,2.86,4.24,4.42,6.09,1.57,1.86,2.33,4.93,2.2,9.97-.13,5.04,5.84,14.06,5.84,14.06Zm66.19-13.54c.52,1.89.43,4.54-.39,8.07,0,0,1.53-1.19,3.4-5.35,1.87-4.16,3.14-12.65,5.35-17.23,2.21-4.58,7.22-7.05,7.22-7.05,0,0-3.99,5.94-4.58,11.29-.59,5.35-2.04,9.17-4.16,15.79-2.12,6.62-12.9,8.83-12.9,8.83,0,0,1.53-1.44,3.06-5.09,1.53-3.65,3.02-9.26,3.02-9.26Zm-17.11,16.47c2.46-2.55,3.65-5.18,4.33-8.74s1.53-6.28,3.57-9.59c2.04-3.31,8.38-8.89,8.38-8.89,0,0-4.12,6.8-4.12,9.77s-1.2,7.69-2.39,9.64c-1.19,1.95-2.89,4.92-5.69,6.37-2.8,1.44-6.54,3.99-4.07,1.44Zm31.91-15.33v.17c-.05-.03-.04-.09,0-.17Zm0,0l.46-5.46s1.29-3.46,2.58-5.91c1.29-2.44,4.29-5.01,4.29-5.01,0,0-2.96,5.25-3.49,9.17-.57,4.19-3.47,6.53-3.84,7.21Z"/>
    <path class="cls-4" d="m53.89,137.4c-.16.08-.35.01-.43-.14-.08-.16-.02-.35.14-.43,0,0,.55-.46.92-1.27.17-.38.25-.83.2-1.39,0-.35-.04-.75-.04-1.17,0-.38.04-.78.08-1.18.06-.63.14-1.24.21-1.78.14-1.04.27-1.79.27-1.79,0-.18.06-1.13.24-1.14.18,0,.4.94.4,1.12,0,0,.16.74.33,1.79.09.55.18,1.16.24,1.79.04.41.07.81.07,1.2,0,.44-.05.86-.08,1.21-.14.86-.43,1.53-.86,2.02-.77.87-1.69,1.17-1.69,1.17Zm13.5,2.38c.1.15.07.35-.08.45-.15.1-.35.07-.45-.08,0,0-.53-.6-1.04-1.41-.32-.51-.6-1.11-.76-1.68-.2-.73-.1-1.42.22-1.98.57-.91.71-1.21,1-1.57.19-.23.44-.47.9-.9.41-.34.76-1.03,1.09-1.77.72-1.62,1.27-3.45,1.27-3.45.03-.18.19-.3.37-.27.18.03.3.19.27.37,0,0-.08,2.01-.52,3.82-.13.56-.32,1.09-.52,1.55-.2.44-.45.8-.7,1.07-.52.49-.71.7-.91.95-.2.25-.41.54-.89,1.15-.24.29-.22.73-.14,1.19.22,1.25.89,2.56.89,2.56Zm57.4-22.49s.41-4.28.07-7.27-.75-4.62.27-7.2c1.02-2.58,2.1-5.7,2.58-8.56.47-2.85.54-5.23.54-5.23,0,0,.82,7.81-.34,10.32-1.15,2.51-1.9,3.6-1.43,5.91.48,2.31,1.15,3.53.41,6.79-.75,3.26-2.1,5.23-2.1,5.23Zm-98.93-5.52c-.03-.18.09-.34.27-.37.18-.03.34.09.37.27,0,0,.52,1.79,1.42,3.51.37.7.79,1.39,1.31,1.91.28.31.59.67.89,1.09.36.52.71,1.12,1.05,1.74.33.6.63,1.21.9,1.79.71,1.52,1.19,2.75,1.19,2.75.08.16.02.35-.13.44-.16.08-.35.02-.44-.13,0,0-1.13-1.59-2.41-3.32-.48-.66-.99-1.32-1.45-1.93-.34-.46-.65-.89-.95-1.22-.56-.71-1.03-1.61-1.33-2.55-.63-1.98-.69-3.99-.69-3.99Zm12.07-73.32c.8.18,1.46.54,1.89.85.58.43,1.03.54,1.47.91.2.17.4.38.6.67.18.28.47.71.76,1.23.3.55.6,1.17.8,1.77.14.04.33.08.54.11.24.03.5.03.74-.03.19-.05.29-.16.36-.3.14-.28.15-.66.2-1.1.01-.1-.02-.22-.06-.35-.09-.31-.28-.67-.53-1.06-.26-.43-.6-.87-.96-1.32-.23-.28-.46-.57-.71-.85-.48-.57-1.01-.94-1.53-1.18-.69-.32-1.37-.43-1.93-.43-.29,0-.6.16-.88.38-.29.21-.55.47-.77.7Zm-4.46,2.28c1.85.39,2.69.56,3.21.79.55.24.8.54,1.31,1.18.37.48.91,1.12,1.33,1.75.35.52.62,1.05.73,1.48.01.05.16.26.23.3.24.17.46.23.67.19.02,0,.03,0,.05,0,0,0,.47-.04.94-.29.24-.13.46-.32.61-.61.06-.12.03-.27,0-.44-.05-.3-.18-.63-.34-.97-.44-.96-1.12-1.97-1.46-2.44-.17-.25-.33-.41-.49-.53-.37-.27-.76-.43-1.24-.82-.36-.31-.96-.68-1.7-.85-.58-.13-1.23-.17-1.93.04-.52.15-.93.36-1.24.59-.31.22-.53.45-.67.63Zm8.19-4.16c.1.03.21.06.32.1.7.25,1.41.7,2.08,1.4.03.04.07.07.1.11.25.06.74.18,1.2.22.26.03.5.04.63-.05.05-.03.07-.11.11-.18.08-.14.15-.32.21-.49.06-.17.11-.35.15-.5-.14-.09-.32-.21-.53-.34-.26-.16-.55-.34-.87-.51-.38-.2-.77-.39-1.17-.45-.47-.1-.95.02-1.37.2-.34.15-.64.33-.87.49Zm-10.69,8.89s-.37.19-.47.04c-.14-.22.19-.44.21-.46.1-.08.31-.21.69-.35.29-.1.67-.2,1.19-.28.68-.1,1.2-.04,1.66.15.62.26,1.13.79,1.78,1.67.35.49.83.66,1.3.66.55,0,1.09-.21,1.46-.47-.01-.05-.05-.2-.09-.29-.11-.26-.29-.55-.49-.84-.42-.62-.95-1.27-1.32-1.76-.31-.43-.44-.65-.78-.83-.49-.25-1.31-.44-3.15-.96-.89-.26-1.48-.04-1.85.43-.93,1.19-.77,3.5-.77,3.5.02.13-.08.25-.21.27-.13.02-.25-.08-.27-.21,0,0-.2-1.21-.02-2.43.08-.58.27-1.16.57-1.63.47-.73,1.24-1.19,2.48-1.04.13-.26.37-.65.81-1.06.33-.31.78-.61,1.38-.87.76-.32,1.5-.4,2.18-.35.21-.33.53-.8.91-1.19.4-.41.88-.69,1.34-.75.43-.05.92-.06,1.44,0,.25-.31.79-.89,1.47-1.29.48-.28,1.03-.43,1.6-.42.66.04,1.36.27,1.97.57.32.16.6.33.84.5.33.23.58.44.69.54.53.46.29.74.29.74,0,0-.29.9-.71,1.5-.2.29-.42.53-.65.63-.24.11-.6.14-1.01.04-.19-.05-.38-.11-.57-.18.37.5.68,1.01.92,1.49.45.9.65,1.71.51,2.22-.15.54-.25,1-.47,1.33-.22.32-.5.56-.98.61-.27.03-.55,0-.82-.05-.15-.04-.3-.08-.43-.13.12.62.08,1.16-.16,1.53-.3.46-.71.76-1.13.93-.68.27-1.34.24-1.34.24-.31,0-.64-.08-.96-.32-.09.22-.23.4-.45.54-.58.37-1.45.68-2.31.61-.78-.07-1.56-.41-2.08-1.26-.37-.62-.68-1.05-1.03-1.33-.39-.3-.84-.41-1.5-.38-.47.02-.83.08-1.09.14-.31.08-.49.16-.57.22-.01,0-.02.01-.03.02Zm33.29,69.49c.05-.17.23-.27.4-.21.17.05.27.23.21.4l-.12.63c-.31,1.45-.46,2.56-.46,3.68,0,.57.06,1.13.15,1.75.08.54.17,1.12.33,1.77.19,1.11.31,2.23.35,3.24.06,1.84-.08,3.22-.08,3.22,0,.18-.14.33-.32.33-.18,0-.33-.14-.33-.32,0,0-.21-1.33-.59-3.07-.2-.93-.44-1.96-.78-2.97-.15-.57-.28-1.09-.34-1.59-.12-.9-.1-1.71.03-2.5.19-1.19.63-2.32,1.28-3.79l.26-.57Zm-4.29-38.05s1.27.53,2.13.28c.85-.24,1.16-.33,1.16-.33,0,0-1.5.99-.79,1.95-1.29-.91-2.5-1.9-2.5-1.9Zm-3.83-10.8s.35-1.43,1.53-1.98c1.18-.56,1.48-.47,2.05-.45.94.03,2.26.87,3.3,2.23,1.04,1.36,1.51,7.12,1.51,7.12,0,0-.71-5.75-3.87-7.29-2.84-1.39-4.52.38-4.52.38Zm16.72,8.72s1.64.32,2.55-.3c2.23-1.52,2.74-4.29,2.74-4.29l.07,4.57s-.36-.76-1.11-.33c-.76.42-1.45.79-2.25.84s-2-.48-2-.48Zm-3.81-8.78s1.7-2.42,2.25-3.89c.56-1.47,1.36-2.5,2.78-2.59,1.42-.08,2.84.92,3.12,2.56.28,1.64.08,2.94.08,2.94,0,0-.59-3.5-2.59-4.22-.87-.31-.1.72-1.29,2.08-1.2,1.36-4.35,3.12-4.35,3.12Zm.71,3.7l5.84-4.98s-.48,2.46-.54,3.52-.72,2.56-1.77,3.59c-1.06,1.03-2.8.37-3.1-.41-.31-.78-.43-1.71-.43-1.71Zm-12.91-2.15c2.14,1.73,4.17,2.63,5.85,2.69.41.01.82.53.97,1.01.07.23.2.9.2.9,0,0-.53,1.43-2.26,1.3-1.74-.13-2.18-1.19-2.97-2.32-.78-1.13-1.79-3.59-1.79-3.59Zm46.54,22.45c.02-.18.19-.3.36-.28.18.02.3.19.28.36,0,0,.06.87-.12,2.03-.06.39-.16.79-.3,1.21-.09.27-.21.52-.33.78-.15.27-.33.54-.57.77-.3.3-.67.56-1.05.77-.37.21-.75.38-1.12.5-.96.34-1.74.45-1.74.45-.17.06-.35-.03-.41-.2-.06-.17.03-.35.2-.41,0,0,.89-.57,1.81-1.37.31-.27.6-.58.88-.88.16-.18.32-.35.44-.55.21-.29.38-.58.55-.87.19-.34.38-.65.53-.95.39-.79.61-1.36.61-1.36Zm-32.03,17.45s5.34,2.56,8.54,2.16c3.19-.41,3.75-.23,6.06-2.13,2.31-1.9,3.27-3.42,3.27-3.42,0,0-1.56,4.69-4.14,6.32-2.58,1.63-5.43,1.77-9.24.07-3.8-1.7-4.48-2.99-4.48-2.99Zm-2.19-27.05l-3.51.59-2-1.87s.65.56,1.54.76c.43.1,1.38.07,2.24.01l-3.29-1.2s.56-1.31,1.25-.97c.47.23,1.35,1.29,2.05,1.95.15.14.37.16.55.19.16-.01.31-.03.45-.04.18-.72.67-2.39,1.37-2.76.89-.47,2.25-.06,2.25-.06-1.17.98-2.1,1.76-2.66,2.68.84-.06,2.46-.31,3.67-1.33,1.7-1.43,3-2.61,3-2.61,0,0,.3,3.96-.91,6.13-1.22,2.17-2.61,3.96-5.26,3.22-2.65-.74-4.09-3.87-4.09-3.87,0,0,2.26,3.17,4.22,3.17s3.96-1.04,4.17-2.69c.22-1.65.65-3.61.65-3.61,0,0-.64.8-2.16,1.41-.7.28-2.77.9-3.53.91Zm-33.92,45.48s-1.22-2.58-1.36-6.86c-.14-4.28.2-6.32-.95-8.62-1.15-2.31-2.92-4.14-2.99-7.06-.07-2.92.34-5.16.34-5.16,0,0,.41,5.23,1.77,8.01,1.36,2.78,2.99,3.87,2.99,7.4s-.41,7.74-.14,9.64c.27,1.9.34,2.65.34,2.65Zm57.82-88.06s.09.07.11.07c.06-.02.15-.06.22-.08.3-.08.68-.23,1.13-.35.41-.12.88-.22,1.41-.26.66-.05,1.25.05,1.8.27.46.18.91.46,1.37.78.52.37,1.06.81,1.71,1.25.55.38,1.08.61,1.6.75,1.03.29,2,.28,2.9.48.49.11.96.36,1.37.69.59.47,1.05,1.06,1.28,1.37-.03-.76-.04-1.22-.04-1.22,0,0,1.25,2.5,1.3,5.87.05,3.37.27,8.04,1.2,10.97.92,2.93,1.63,4.67,1.63,4.67,0,0-3.59,3.64-6.57,8.15-2.99,4.51-3.69,7.5-3.69,7.5,0,0-3.1-.76-7.39,1.2-4.29,1.96-8.2,5.92-8.2,5.92,0,0-1.41-3.59-2.88-5.92s-2.12-3.8-2.12-3.8c0,0-1.63,9.89-3.64,13.2-2.01,3.31-6.85,10.54-6.85,10.54,0,0-.81-5.32-1.63-8.04-.81-2.72-1.74-4.07-1.74-4.07,0,0-2.12,1.14-5.92-.16-3.8-1.3-5.22-3.27-7.99-2.89-2.77.38-4.89,1.48-6.14.45-1.25-1.03-6.3-5.7-9.89-7.66-3.59-1.96-8.8-2.44-8.8-2.44,0,0,2.17-.98,2.99-1.58.81-.6,1.51-6.27,1.51-7.3s.08-7.08-2.49-6.61c-3.05.56-5.36,2.17-6.36,2.97-1.8,3.84-4.89,10.79-4.84,13.25.07,3.46,3.54,5.56,3.54,5.56,1.51.12,5.09,2.39,7.02,4.64,2.19,2.55,7.28,6.79,10,7.98,2.72,1.19,6.93,1.99,6.93,1.99,0,0-.32,7.68.53,10.52,1.05,3.49,2.41,5.67,2.16,7.37-.25,1.7-1.78,9.93-1.53,12.65.25,2.72.51,7.72.51,7.72-1.11-1.28-2.24-2.36-3.19-5.04,0,0-.29-4.81.81-9.82,1.1-5.01,1.53-7.98-.08-11.21-1.61-3.23-1.1-9.76-1.1-9.76,0,0-4.07-.76-9.85-5.09-5.77-4.33-7.21-8.23-8.86-9.23-5.28-3.19-5.46-1.9-7.24-4.55-1.78-2.65.22-8.15,1.4-10.8,1.17-2.65,3.56-7.84,3.56-7.84l13.02-6.45s-1.25,12.01-1.79,14.89c-.54,2.88-.87,4.94-.87,4.94,9.23,3.01,13.58,6.01,15.38,9.02,4.51-.55,8.71-.46,11.95,1.52.54-.47,1.69-.73,3.86-.65,1.07.55,2.24,1.66,3.6,3.65l1.7,5.52s.82-2.9.06-5.4c-.45-1.48-.82-2.74-.82-2.74,0,0,2.11,1.63,3.53,1.15,1.43-.48,3.94-2.11,4.62-4.21.68-2.11,1.63-11.95,1.49-15.55-.14-3.6-.75-7.95-4.55-10.19-5.63-3.32-8.29.8-9.59,3.38-.14.28-.59,1.3-1.22,1.29-.31,0-1.2-.43-1.38-.69-2.86-4.29-6.5-2.46-8.36,1.74-5.08-3.65-6.06-7.61-5.53-10.74,1.62,3.79,3.05,5.92,5.57,6.99,0,0,1.93-7.59,8.65-9.71,9.26-2.92,12.13,3.66,12.13,3.66,0,0,.7,3.43,1.57,2.83,2.77-1.91,3.69-11.88,3.69-11.88,0,0,2.28,1.23-.7,11.89-.57,2.06.15,4.66.63,4.77,1.17.27,2.51-4.56,2.51-4.56,0,0,.05,4.01-1.09,6.18-1.14,2.17-1.63,6.52-.98,8.96.65,2.44,2.61,5.27,3.37,7.77s1.85,6.14,1.85,6.14c0,0,3.26-4.4,7.55-6.79,4.29-2.39,6.95-2.83,6.95-2.83,0,0,2.28-4.18,4.73-7.17,2.45-2.99,4.29-5.16,4.29-5.16,0,0-1.41-5.92-1.52-9.62-.07-2.36-.21-6.3-.29-8.83,0-.21-.22-.61-.29-.7,0,0-.49-.6-1.19-1.1-.4-.29-.87-.54-1.36-.6-.94-.11-1.93,0-3.01-.21-.65-.12-1.32-.36-2.04-.79-.99-.62-1.75-1.23-2.51-1.65-.49-.27-.98-.45-1.58-.43-.77.02-1.41.19-1.91.32-.44.11-.8.18-1.07.15-.27-.03-.48-.12-.64-.29-.28-.3-.53-1.11-.42-1.92.09-.66.36-1.31.91-1.65.34-.21.73-.37,1.1-.47-.19-.11-.32-.28-.4-.47-.19-.49-.2-1.49.08-2.34.21-.61.61-1.12,1.1-1.39.24-.12.55-.25.91-.35.41-.12.88-.2,1.35-.25.11-.01.23-.02.34-.03,0-.02,0-.03-.01-.05-.05-.2-.03-.45.09-.79.12-.33.25-.74.45-1.12.15-.29.36-.54.61-.75.41-.34.97-.49,1.71-.35.18.04.35.08.5.13.05-.17.16-.38.38-.56.25-.21.66-.39,1.34-.44,1.14-.09,2.86-.17,4.13.14.79.19,1.41.55,1.71,1.07.38.65,1.01,1.49,1.72,2.35.63.75,1.32,1.51,1.99,2.15.97.94,2.27,2.04,3.26,3.57.57.88,1.04,1.9,1.3,3.1.07.33.16.69.27,1.07.1.34.21.7.33,1.07.46,1.44,1.08,3.04,1.72,4.58.7,1.68,1.42,3.29,2,4.49.58,1.21,1.24,2.95,1.78,4.85.03.06.05.12.08.17.18.4.67,2.9.7,3.25.09.55.17,1.1.22,1.64.08.28.17.56.29.84.26.64.3,1.16.21,1.68-.2,1.15-1.18,2.33-1.83,5.49-.28,1.33-.73,2.72-1.27,4.11-1.26,3.24-3.01,6.48-4.03,8.93-.4.94-1.17,2.16-2.18,3.53-1.12,1.51-2.53,3.22-3.98,4.97-2.13,2.56-4.36,5.18-5.83,7.38-1.06,1.57-1.88,3.1-2.5,4.45-.62,1.35-1.05,2.52-1.33,3.37-.5,2.12-1.15,4.5-1.86,6.12-1.56,3.53-6.52,12.09-7.67,16.09-1.15,4.01-1.58,4.62-2.44,7.53-1.55,5.26-7.14,5.17-7.14,5.17,0,0-.19-1.85.18-4.33.1-.04.19-.09.29-.14.58-.3,1.08-.68,1.57-1.09.76-.65,1.37-1.32,1.93-2,.15-.12.18-.33.06-.48-.12-.15-.33-.18-.48-.06-.83.39-1.74.7-2.74.99.1-.34.22-.69.35-1.03.02-.04.03-.09.05-.13.02,0,.04-.02.06-.03.44-.23.92-.58,1.5-1.02.53-.43,1.24-1.01,1.88-1.58.5-.45.92-.85,1.19-1.16.15-.12.17-.33.05-.48-.12-.15-.33-.17-.48-.05l-2.51,1.02c.75-1.19,1.62-2.37,2.6-3.63.53-.4.96-.75,1.31-1.05.77-.66,1.15-1.06,1.33-1.27.02-.02.26-.54.12-.67-.1-.09-.24-.11-.36-.06.54-.7,1.11-1.44,1.69-2.23,3.8-5.16,6.45-9.98,8.01-13.17.38-.77.71-1.5,1.01-2.18.23-.79.54-1.74.95-2.8.56-1.44,1.33-3.07,2.33-4.75,1.39-2.3,3.5-5.08,5.58-7.76,1.37-1.77,2.72-3.49,3.81-4.99.9-1.24,1.62-2.32,1.99-3.17,1.09-2.42,2.93-5.61,4.31-8.78.57-1.3,1.07-2.59,1.39-3.84.82-3.1,1.86-4.23,2.13-5.36,0-.33,0-.68-.03-1.03-.01-.05-.03-.1-.05-.16-.25-.74-.39-1.5-.44-2.17,0-.11-.02-.22-.02-.32-.32-.9-.71-1.91-1.14-2.89-1.22-2.78-2.43-4.24-3.37-6.95-.43-1.23-.7-2.59-.88-3.7-.53-1.25-1.02-2.51-1.41-3.67-.13-.39-.24-.77-.34-1.13-.11-.41-.21-.8-.28-1.16-.2-1.03-.59-1.91-1.07-2.67-.9-1.46-2.09-2.53-2.98-3.44-.67-.7-1.36-1.51-1.98-2.33-.71-.94-1.33-1.86-1.69-2.56-.25-.47-.9-.7-1.66-.85-1.11-.22-2.44-.22-3.36-.2-.41.01-.7.08-.9.18-.22.11-.32.26-.36.38.38.14.68.29,1,.43.28.12.56.24.94.34.36.1.73.24,1.08.4.81.38,1.44.82,1.44.82.12.06.16.21.1.33-.06.12-.21.16-.33.1,0,0-.55-.2-1.25-.37-.39-.1-.82-.18-1.24-.21-.4-.04-.72-.1-1.02-.18-.36-.09-.68-.2-1.06-.33-.28-.09-.58-.21-.98-.31-.38-.13-.66-.06-.88.13-.37.32-.64.79-.86,1.13-.1.15-.16.25-.16.35,0,.04,0,.08.02.12.55,0,1.05.08,1.4.22.3.13.62.29.92.47.68.4,1.25.82,1.25.82.11.07.15.22.08.33-.07.11-.22.15-.33.08,0,0-.62-.29-1.33-.54-.29-.1-.6-.2-.88-.26-.37-.09-.91-.01-1.48.09-.47.08-.96.22-1.4.35-.33.1-.62.2-.84.3-.32.14-.53.51-.67.9-.19.5-.3,1.04-.23,1.34,0-.01-.03-.01-.03-.01,0,0,.12.1.2.12.12.04.25.07.39.08.53.07,1.1.02,1.1.02.13-.03.26.06.28.19.03.13-.06.26-.19.28,0,0-.65.31-.76.32,0,0-.54.08-1.16.3-.34.12-.7.3-1.01.53-.25.2-.35.51-.4.84-.07.48,0,1,.16,1.25Zm-50.83,54.61s-.2-.39-.11-.48c.08-.08.28-.04.41.04.11.07.34.18.72.34.26.11.58.22.97.38.29.11.6.24.97.37.22.1.44.19.64.29.37.18.7.37,1.01.52.21.11.4.21.58.3-.8-1.87-1.39-3.17-1.39-3.17,0,0,3.17,3.47,4.93,9.4.88,2.95,2.69,5.23,4.1,5.56,3.19.75,7.27-.1,7.27-.1,0,0-5.91,3.12-8.35,2.04-1.11-.49-2.74-4.23-3.97-7.44-.7-1.82-1.49-3.74-2.19-5.37-.33-.03-.81-.08-1.4-.2-.34-.07-.7-.15-1.09-.29-.23-.08-.46-.19-.69-.29-.2-.11-.38-.21-.55-.31-.31-.19-.56-.38-.78-.56-.59-.48-.9-.83-1.05-1.02Z"/>
    <path class="cls-2" d="m83.28,55.54s.35,4.94,1.01,7.84c1.17,5.1-2.04,9.76-2.04,9.76,0,0-1.49-.75-1.62-4.08-.14-3.33-.2-6.04.54-7.47.75-1.43,2.1-6.05,2.1-6.05Z"/>
    <path class="cls-3" d="m72.84,68.34c1.03-.84,1.79-1.58,1.79-1.58,0,0-.04,3.04-1.2,4.03-.14.12-.28.22-.41.3-.04-.51-.41-2.13-.19-2.76Zm.04,2.84c-1.68.88-2.81-1.02-2.81-1.02,0,0,.44-.2,1.08-.6.27.31,1.09,1.22,1.73,1.62Z"/>
    <path class="cls-5" d="m66.23,80.99s2.72-.37,3.94-.66c2.94-.69,3.65-1.31,3.65-1.31,0,0,.09.6.09,1.33s-.31.92-.53.47c-.22-.45-.7-.58-.7-.58l-.31.61-.83-.33-.19.86-1.11-.36s-.31.5-.58.47c-.21-.02-.61-.37-.79-.54-.05.3-.16.7-.12.78l-.94-.44.49,1.02s-.44-.15-1.05-.42c-.62-.27-1.02-.89-1.02-.89Zm2.52.73h.03s-.02.01-.03,0Z"/>
    <path class="cls-3" d="m61.9,73.03c-.08-.23-.43-.74-.47-1.24-.03-.37-.15-.67-.25-.87.51.09,1.04.13,1.55.1.32.06.47.56.55,1.21,0,0-.46.64-1.12.77-.09.02-.17.03-.26.03Zm-2-2.48c.11.37.35,1.14.64,1.52.29.37.71.76,1.03.95-.62-.07-1.22-.41-1.67-.75-.79-.59-1.53-2.62-1.53-2.62.4.35.93.66,1.52.9Z"/>
    <path class="cls-5" d="m81.96,68.65c-.13-2.3.96-5,.96-5,0,0,.78,2.87.3,4.17-.48,1.3-1,2.22-1,2.22,0,0-.13.91-.26-1.39Z"/>
    <path class="cls-7" d="m75,6.53C37.21,6.53,6.53,37.21,6.53,75s30.68,68.47,68.47,68.47,68.47-30.68,68.47-68.47S112.79,6.53,75,6.53Zm0-4.03c40.01,0,72.5,32.49,72.5,72.5s-32.49,72.5-72.5,72.5S2.5,115.01,2.5,75,34.99,2.5,75,2.5Z"/>
  </g>
</svg>