<?xml version="1.0" encoding="UTF-8"?>
<svg id="Layer_6" data-name="Layer 6" xmlns="http://www.w3.org/2000/svg" width="150" height="150" viewBox="0 0 150 150">
  <defs>
    <style>
      .cls-1 {
        fill: #999;
      }

      .cls-1, .cls-2, .cls-3 {
        stroke-width: 0px;
      }

      .cls-2 {
        fill: #151515;
      }

      .cls-3 {
        fill: #f6f6f6;
      }
    </style>
  </defs>
  <g id="squad_aus_tanker_2_premium_2_icon">
    <g>
      <rect class="cls-2" x="5" y="5" width="140" height="140"/>
      <path class="cls-1" d="m146,146H4V4h142v142Zm-140-2h138V6H6v138Z"/>
    </g>
    <path class="cls-3" d="m54.96,93.38c-1.36.52-2.66,1.02-3.84,1.45v-2.75c1.15-.44,2.45-.92,3.84-1.41v2.71Zm15.14-6.69c-.88.1-1.78.22-2.72.41-.27.06-.55.12-.83.18v2.54c1.08-.17,2.29-.31,3.55-.43v-2.7Zm-24.39,9.44l.02-2.07c-1.82.51-3.14.68-3.18,1.49-.02.46.85.86,3.17.57Zm28.86-9.6c-1.1-.05-2.28-.04-3.55.06v2.71c1.18-.1,2.38-.19,3.55-.26v-2.52Zm-9.23,1.02c-1.2.28-2.4.6-3.58.94v2.48c1.22-.37,2.42-.69,3.58-.93v-2.48Zm-4.8,1.29c-1.51.45-2.98.93-4.37,1.41v2.67c1.43-.54,2.9-1.08,4.37-1.56v-2.51Zm18.42-1.76c-1-.21-2.16-.4-3.48-.5v2.41c1.21-.07,2.36-.12,3.37-.16l.11-1.75Zm-29.07,8.18v-2.72c-1.47.56-2.61,1.01-3.32,1.26l-.02,2.19c.59-.11,2.88-.57,3.33-.73Zm32.98-6.94s-1.03-.51-2.85-.99l-.54,1.47c1.85-.07,3.08-.09,3.08-.09l.31-.39Zm1.41,25.5c-1.12-.79-2.99-.46-4.2-.72s-1.28-1.31-1.74-1.81c-.46-.49-2.17-.66-4.37-.39-2.2.26-3.9.15-4.27,1.58-.2.76.03,1.31.99,1.84.95.53,2.86-.26,3.65,1.08.79,1.35.2,2.79.16,3.84s1.02,1.45,1.54,1.35,1.04-1.13,1.6-1.23c.56-.1.99.99,1.73.8,1.25-.32.46-1.59,1.31-1.75.85-.16,1.22.37,1.69.3.47-.08.15-.61.68-1.7.53-1.08,2.29-.76,2.29-.76,0,0,.07-1.64-1.05-2.43Zm37.38-12.22c-.76-.46-2.66-.43-3.74-.59-1.08-.16-1.41-.99-3.81-2.82-2.4-1.84-4.73-1.05-4.73-1.05-1.41.12-3.65,4.4-4.86,5.09.79.97,1.85-.21,3.58.2.75.18,1.51.85,2.66,1.05,1.15.2,2.99.01,3.25-.07.56.96,1.31,1.02,1.95,1.03l-.08,1.5c.67-.09,1.48-.26,1.91-1.31,1.35.69,1.05,1.68,1.28,1.68,1.41-.59,1.01-1.96,1.64-1.97,1.38-.03,1.15.69,1.15.69,0,0,.46-.33.85-.99.39-.66-.3-1.97-1.05-2.43Zm-10.48,9.95l-1.84-.92v1.14c0,.39-.48.96-.48.96,0,0-.61-.39-.96-.61-.35-.22-.88-.48-.88-.48,0,0-.13.53-.88,1.36-.74.83-1.66.61-1.66.61,0,0,.04-.92-.79-.92s-1.97.61-1.97.61c0,0-1.84-.31-3.37-1.66s-2.8-2.23-4.82-2.41c-2.01-.18-3.99.35-5.69.83-1.71.48-3.5.18-3.5.18,0,0,.04-1.14.31-2.89.26-1.75-.88-3.72-.88-3.72,0,0,.13,2.85-.09,3.72-.22.88-.83,1.75-.83,1.75l-8.45.04s-1.62.09-3.85.57c-2.23.48-3.11-.04-3.11-.04,0,0,.48-1.14.31-2.23-.18-1.09-2.1-1.84-2.1-1.84l-.22,1.09s1.23,1.97.57,3.68c-.66,1.71-3.33,1.66-3.33,1.66l-.79.44s-.22.48.26,1.09c.48.61,1.18,1.01,1.75,1.84.57.83.79,3.37.26,3.55-.53.18-1.71-1.14-1.71-1.14,0,0-.7,1.88-1.27,1.8-.57-.09-1.05-2.23-1.05-2.23,0,0-.74,1.14-1.53.83-.79-.31-.88-1.97-.88-1.97,0,0-1.84,1.01-2.72.48-.88-.53.53-2.45.53-2.45,0,0-.44-.7-1.27-1.01-.83-.31-1.05-1.36-1.14-2.19-.09-.83,2.23-.92,3.42-1.97,1.18-1.05.09-2.85.09-2.85,0,0-.31,1.4-.74,2.23-.44.83-1.88,1.5-1.88,1.5,0,0-5,0-10-1s-11-3-15-11,2-18,2-18c2-5,4.1-12.68.53-16.18-1.88-1.84-8.01.79-8.01.79,0,0,.74-2.5,2.06-3.33,1.31-.83,4.51-2.41,8.98-.04,4.47,2.36,5.21,8.5,5.04,12.53-.18,4.03-1.23,6.57-2.19,9.64-.96,3.07.26,4.82,1.05,7.09.79,2.28,3.42,3.07,3.72,3.46.31.39-.26,1.31-.53,1.53s-1.66-.26-3.72-1.09c-2.06-.83-3.15-3.24-3.55-6.22-.39-2.98,1.93-8.54,2.36-12.66.44-4.12-.83-8.06-.83-8.06,0,0-.22,2.28-.31,4.42-.09,2.15-.66,5.3-1.75,9.15-1.09,3.85-1.93,6.92-1.8,10.55.13,3.64,5.08,6.13,6.22,6.48,1.14.35,3.77.04,3.77.04,0,0,.74-.35,1.49-.74.74-.39,2.01-.26,2.01-.26l3.94.04s.48-.7,1.97-1.14c1.49-.44,4.29-.04,4.29-.04,0,0,.88-1.49,1.31-1.75.44-.26,1.31.48,1.31.48l1.27-.09s.7-1.36,1.18-1.58c.48-.22,1.75.09,1.75.09l2.15-.04s.48-1.36,1.27-1.71,1.88.09,1.88.09l1.88-.09s1.18-1.05,2.15-1.18c.96-.13,1.8.53,1.8.53l2.54.04s.96-.88,1.97-.92c1.01-.04,2.32,1.23,2.32,1.23l2.28-.18s1.62-1.31,2.36-1.4,2.54,1.23,2.54,1.23h1.71l1.71-.61.66.26h1.97s-.18-.92-.57-1.31-.79-.61-2.72-1.23c-1.93-.61-3.99-.31-5.87-.44-1.88-.13-3.77-1.31-3.77-1.31,0,0-3.72-1.31-7.93-1.66-4.2-.35-3.94-.09-6.83-2.32-2.89-2.23-3.11-3.85-3.11-3.85,0,0,.66-.86,2.15-.6,1.49.26,1.75,2.09,1.75,2.09l1.53.04.88-.61s.39,1.31,1.02,1.47c.63.16,2.14-.77,2.14-.77,0,0,.46.98.89,1.21s1.23.18,1.23.18l.92-.76s1,1.2,1.69,1.4c.7.2,1.95-.41,1.95-.41,0,0,.47,1.1,1.31,1.15.85.05,1.11-.84,1.11-.84l.92,1.23,1.23.04,1.27-.66.35.61s2.36-.61,4.82-.74c2.45-.13,4.91.77,6.61,1.69,1.71.92,3.48.84,3.48.84,0,0-.28-1.22-1.07-2.14-.79-.92-2.38-1.31-2.38-1.31,0,0,.58-.48.84-.96s.22-.88-.92-2.19c-1.14-1.31-4.12-1.45-4.12-1.45l-.53.26s1.23.53,2.01,1.14c.79.61,1.14,1.71.66,2.54-.48.83-.74.61-1.75.53-1.01-.09-3.71-2.5-5.12-2.41-1.42.09-2.46.83-2.46.83,0,0-1.82-1.2-2.1-1.79s-3.1.26-3.1.26l-1.36-1.18-3.9.22-1.09-1.49-3.99-.18s-.22-1.18-.96-1.58c-.74-.39-1.71-.31-2.32-.57-.61-.26-.04-.79-.44-1.31-.39-.53-1.09-.31-1.8-.39-.7-.09-1.4-2.06-1.49-3.11-.09-1.05,1.36-2.15,3.11-2.1,1.75.04,2.5,2.15,3.28,3.02s5.12,2.58,7.01,2.63c1.88.04,3.24-1.14,4.69-1.27s2.98.83,4.91.92c1.93.09,2.76-.83,4.73-.96,1.97-.13,2.32,1.53,3.81,2.67,1.49,1.14,1.31.83,5.12,1.49,3.81.66,5.21,2.45,7.58,4.91,2.36,2.45,2.41,4.99,2.32,6.66-.09,1.66-.79,1.93-.7,2.85.09.92,1.36,3.15.7,4.6-.66,1.45-1.49,1.58-2.67,2.8-1.18,1.23-1.88,3.42-2.32,4.03-.44.61-3.42,2.28-5.78,2.54-2.36.26-6.83.04-6.83.04,0,0,.74,1.36,2.32,1.27s2.41-.61,4.38-.18c1.97.44,5.3,2.63,5.3,2.63,0,0,4.91.04,6.92.96,2.01.92.48,3.55.48,3.55Zm-19.81-36.62c.03-.59-.76-1.28-1.84-1.22-1.08.07-1.68.46-1.77,1.12-.11.75.13,1.12,1.61,1.02,1.48-.1,1.97-.33,2-.92Zm-7.04,6.32c.23-.15-.44-1.39-2.23-1.88-1.79-.49-5.18-.69-5.49-.15-.22.39,2.47,1.17,4.2,1.62,1.72.44,3.3.56,3.53.42Z"/>
    <path class="cls-3" d="m80.71,59.8c-3.02,5.91-4.66,8.17-5.32,9s-.74,1.15-1.8.88c-.91-.24-2.85-.91-2.85-1.58,0-.44,3.57-5.41,6.15-9.96,2.58-4.55,4.86-12.26,4.86-12.26,0,0,2.98,1.8,3.28,2.58.31.79-1.31,5.43-4.34,11.34Zm-13.15,14.93c-1.45-.3-1.59.21-1.94.71-.34.49-1.03,1.61-.6,1.61.16,0,1.64-.18,2.43.3.79.48,1.42,1.26,1.87,1.29.44.03.98-.85.9-1.42-.08-.57-1.22-2.18-2.66-2.48Zm-5.09,6.41c-.85.39-3.5,5.1-2.85,5.27.66.16,4.26-.05,5.16-.49.58-.28,1.15-1.68.99-2-.16-.33-2.77-3.01-3.3-2.77Zm24.72-57.86c1.45.09,3.42-2.5,3.55-4.64.13-2.15,0-3.77-2.98-3.64-2.98.13-3.42,1.75-3.15,3.2s1.14,4.99,2.58,5.08Zm8.82-1.08c.46.13-.16-.89.26-.89.52,0,2.12.9,2.56.95.73.08-.04-1.03.53-.89,2.04.53,2.8,1.49,3.09,1.87.95,1.25,2.22,3.4,2.43,2.88.95-2.39.34-5.58-1.91-7.94-3.19-3.35-6.02-2.49-8.34-1.04-2.32,1.45-4.24,5.34-3.64,5.82,1.85-.46,2.58-1.47,5.01-.78Zm14.52,16.98c-5.45-19.12-20.63-14.65-19.84-13.6,7.36,5.52,7.36,14.65,7.36,14.65,0,0,3.35-1.38,3.88-.99.53.39.13,5.91.13,5.91,0,0,.92,0,1.45-1.12.26.59-.26,5.12-.26,5.12,0,0,1.35-.36,2.1-1.05.33.39-.72,8.47-.72,8.47,0,0,1.58-.59,2.82-1.58,1.25-.99-1.69,10.03-.95,10.02,1.68-.03,9.49-6.73,4.04-25.85Zm-39.25-16.88s.69-1.45,1.54-1.48c.85-.03,1.15,1.18,1.15,1.18l1.08-.03s.72-1.97,1.41-1.97.72.82,1.48.85c.76.03.33-.72,1.28-.62.95.1,2.89,1.38,3.55,1.45.66.07,1.28.03,1.28.03,0,0-1.68-6.5-7.52-6.27-6.26.25-7.03,7-7.03,7,0,0,.56-.49.95-.39.39.1.82.26.82.26Zm-10.06,17.54c.62-.3.8,1.88,1.51,1.58.7-.31,1.33-3.73,2.17-3.94s1.27,1.91,1.62,1.84,1.28-1.72,2.04-3.66c1.3-3.33,2.15-3.07,2.15-3.07,0,0,1.3.56,1.69.43.39-.13,3.2-3.94,3.63-4.6.77-1.18,1.48-.79,1.48-.79,0,0,.39.39,2.63.26,2.23-.13,2.99-1.14,3.02-1.83.03-.69.21-.76-.13-1.63s-4.75-3.54-12.31-.83c-4.93,1.76-9.72,4.55-15.55,11.91-5.82,7.36-4.95,14.32-4.95,15.28s1.27-.31,1.66-.88c.39-.57,2.23-3.46,2.23-3.46,0,0,.26,1.66.57,1.49.31-.18,2.41-3.81,2.41-3.81l.96,1.4s2.06-5.17,3.15-5.69Zm19.71-3.9c.13-1.23,3.5-5.21,2.54-6.74,0,0-4.2.04-7.01,2.19-1.63,1.25-5.74,6.88-5.74,6.88l1.93.09s.26.35-.13,1.09c-.39.74-2.19,1.53-3.15,2.67-.96,1.14-.79,3.07-.79,3.07,0,0,2.36-.04,2.45.96s-1.01,1.49-2.28,2.72c-1.27,1.23-1.8,3.94-1.8,3.94l1.09.26s-1.58,2.45-.35,6.22c4.07-1.14,4.64-6.18,4.64-6.18,0,0,.46.65,1.36.74.67-.93-.1-7.19.47-8.2.66.13,1.81.97,2.46.62s.18-3.91.53-4.83c.35-.92,3.07-.51,3.46-1.08.39-.57.18-3.2.31-4.42Zm-19.07,17.66c.62.16.59,1.61,1.22.92.62-.69-.33-4.17.39-4.01.72.16,1.54,2.27,2.07,1.77s.49-2.86.2-3.74-.07-2.92.46-2.46c.53.46.92.72.92.72,0,0,.39-3.68-.23-4.57,0,0-2.46-1.08-5.78,2.56s-3.81,4.76-3.81,4.76l1.35.72-.43,6.14s3.02-2.99,3.65-2.82Zm17.02-2.19c.22-.44.32-.95.49-2.22.18-1.27-.28-3.09-.28-3.09,0,0-1.93.48-3.07,2.85-1.14,2.36-1.71,4.94-.62,6.07,1.09,1.14.36-.82,1.1-.95.74-.13.77.79,1.13.05.36-.74-.66-1.54.28-2.7.56-.68.74.43.96,0Zm16.22-9.8c.3-.56-.76-5.29-2.17-7.78-1.41-2.5-4.42-5.43-5.22-5.26-1.08.23-2.3,4.93-2.82,8.61-.53,3.68.85,6.21,1.28,6.08.43-.13.85-1.22.85-1.22,0,0-.23,3.05-.49,4.14-.26,1.08-.3,4.01-.3,4.01l.72-.23s-.1.49-.39,1.12c-.3.62-.82,2.5-1.74,3.91-.92,1.41-2.23,5.19-1.94,5.49.3.3,2.23-1.81,2.76-1.22.53.59-.53,2.07-1.02,3.28-.49,1.22-.26,4.86,1.35,5.42,1.61.56,2.1-5.58,3.55-6.54.47-.31,1.74,1.77,2.27,1.02.53-.76-.07-6.86-.07-6.86,0,0,1.58,1.54,1.71.99-.36-1.91-1.54-6.77-1.22-7.36.33-.59,1.18-.72,2.07-.79.36-.79-1.08-7.32-1.08-7.32,0,0,.89.03,1.91.53Zm1.25,1.2c-.35.7.53,5.96,0,8.36-.53,2.41-1.88,6.26-1.62,6.96.26.7,1.4-1.63,1.93-1.36,1.05.55,0,4.05,1.09,4.55.8.37.48-1.18,1.31-1.18s.57,4.95,2.06,4.99c1.49.04,1.49-1.14,1.88-2.93s-.92-5.21-.74-6.31c.18-1.09,1.09-.09,1.49-.66s-.09-3.07-2.23-7.8c-2.15-4.73-5.17-4.64-5.17-4.64Z"/>
    <path class="cls-3" d="m33.54,114.12c-.67,1.52.2,2.1,2.82,3.22,2.63,1.12,32.26,17.34,39.15,17.41,6.9.07,32.32-13.4,41.19-18.33,1.38-.77,1.64-1.64.72-2.82-.92-1.18-1.72-.89-3.22-.66-5.45.85-31.07,10.91-38.56,10.84-9.66-.08-29.23-9.59-39.48-10.84-1.76-.21-2.17.13-2.63,1.18Z"/>
  </g>
</svg>