<svg id="Group_7619" data-name="Group 7619" xmlns="http://www.w3.org/2000/svg" xmlns:xlink="http://www.w3.org/1999/xlink" width="14" height="17" viewBox="0 0 14 17">
  <defs>
    <clipPath id="clip-path">
      <rect id="Rectangle_7932" data-name="Rectangle 7932" width="14" height="17" fill="#fff"/>
    </clipPath>
  </defs>
  <g id="Group_7619-2" data-name="Group 7619" clip-path="url(#clip-path)">
    <path id="Path_3567" data-name="Path 3567" d="M4.145,6.519l.573,1.063.065,1.1a.566.566,0,0,0,.21.409l.637.644a1.489,1.489,0,0,0,.932.328h.873a1.494,1.494,0,0,0,.933-.328L9,9.1a.564.564,0,0,0,.21-.409l.065-1.1.573-1.063V5.242c.568.044,1.137.089,1.7.162l-.134-.533V4.42a4.421,4.421,0,0,0-8.842,0v.451L2.445,5.4c.565-.073,1.132-.117,1.7-.162Z" fill="#fff"/>
    <path id="Path_3568" data-name="Path 3568" d="M0,11l1.715,6H4.678l-3.8-6.431Z" fill="#fff"/>
    <path id="Path_3569" data-name="Path 3569" d="M11.665,10.068,10.122,9.022,9.031,11,7,12.742,4.967,11,3.877,9.022,2.333,10.068,7,17h5.286L14,11Z" fill="#fff"/>
  </g>
</svg>
