<svg id="Layer_1" data-name="Layer 1" xmlns="http://www.w3.org/2000/svg" width="30" height="16" viewBox="0 0 30 16">
  <defs>
    <style>
      .cls-1 {
        fill: #001724;
        fill-rule: evenodd;
      }
    </style>
  </defs>
  <g id="d">
    <path class="cls-1" d="M21.18862,1.5h-2.6467l-.23354.23353c-.15569.15569-.38922.23354-.46706.46707h-.07785V1.5H14.72754l.7006.93413V14.5H29.985V1.57784C27.027,1.5,24.06886,1.5,21.18862,1.5Zm6.38324,11.28743H17.76347V3.21258h9.80839ZM3.985,1.96707l-.77844.77844H3.12874V1.96707H.015c.07784.07784.62275.85628.62275.85628V13.64371H8.73353s3.34731-2.56886,3.42515-2.56886V4.53593s-3.3473-2.491-3.42515-2.56886ZM9.66766,9.985s-2.02395,1.479-2.10179,1.63473H3.20659V3.991H7.56587L9.66766,5.62575Zm17.43713.31138c-.23353,0-.62275.07784-.7006-.07785-.15569-.15569,0-.31137-.07784-.46706a3.2851,3.2851,0,0,1-.23353-.93414H24.61377c.07785.46707.23354,1.012.31138,1.479H23.75749v-2.024h2.95808a4.00749,4.00749,0,0,0-.07784-1.40119H23.75749V5.62575H26.9491V3.991H18.38623V5.62575H21.5V6.87126H18.6976V8.27245H21.5v2.024H18.23054v1.63473h8.87425Z"/>
  </g>
</svg>
