<svg id="Layer_1" data-name="Layer 1" xmlns="http://www.w3.org/2000/svg" width="30" height="16" viewBox="0 0 30 16">
  <defs>
    <style>
      .cls-1 {
        fill: #545f69;
        fill-rule: evenodd;
      }
    </style>
  </defs>
  <g id="r">
    <path class="cls-1" d="M20.7994,1.5H18.15269l-.70059.7006h-.07785V1.5H14.33832l.7006.93413V14.5H29.59581V1.57784C26.63772,1.5,23.75748,1.5,20.7994,1.5Zm6.38323,11.28743H17.37425V3.21258h9.80838ZM8.65569,9.44012V9.36228H12.003V1.96707H4.37425a7.75224,7.75224,0,0,1-.77844.85628H3.518V2.04491H.40419a3.45652,3.45652,0,0,0,.62275.85629V13.72156H3.59581V9.44012h1.9461c.07785.07784,3.73653,3.97006,4.04791,4.20359v.07785h3.11377C12.39221,13.33234,8.88922,9.67365,8.65569,9.44012ZM3.518,7.41617V3.83533H9.43413V7.41617Zm23.19761,2.88024c-.23354,0-.62276.07784-.7006-.07785-.15569-.15569,0-.31137-.07785-.46706a3.28543,3.28543,0,0,1-.23353-.93414h-1.479c.07784.46707.23353,1.012.31138,1.479H23.36826v-2.024h2.95809a4.00722,4.00722,0,0,0-.07785-1.40119H23.36826V5.62575h3.19162V3.991H17.997V5.62575h3.11378V6.87126h-2.8024V8.27245h2.8024v2.024H17.84131v1.63473h8.87426Z"/>
  </g>
</svg>
