<svg id="Layer_1" data-name="Layer 1" xmlns="http://www.w3.org/2000/svg" width="30" height="16" viewBox="0 0 30 16">
  <defs>
    <style>
      .cls-1 {
        fill: #545f69;
        fill-rule: evenodd;
      }
    </style>
  </defs>
  <g id="m">
    <path class="cls-1" d="M20.994,1.5h-2.6467l-.23354.23353c-.15569.15569-.38922.23354-.46706.46707h-.07785V1.5H14.53293l.7006.93413V14.5H29.79042V1.57784C26.83234,1.5,23.87425,1.5,20.994,1.5Zm6.38324,11.28743H17.56886V3.21258h9.80839ZM11.02994,2.74551c-.07784.15569-3.34731,8.018-3.34731,8.018-1.2455-2.95808-2.491-5.91616-3.65868-8.7964H.20958a3.45625,3.45625,0,0,0,.62276.85628V13.64371H3.16766V5.85928h.07785c.62275,1.4012,3.11377,7.47306,3.26946,7.78443H9.08383c0-.23353,3.19162-7.55089,3.19162-7.78443a14.46223,14.46223,0,0,1,.07784,2.024v5.76048h2.41318V1.88922H10.64072C10.40719,2.04491,10.87425,2.66766,11.02994,2.74551Zm15.88024,7.5509c-.23353,0-.62275.07784-.7006-.07785-.15569-.15569,0-.31137-.07784-.46706a3.28543,3.28543,0,0,1-.23353-.93414h-1.479c.07785.46707.23354,1.012.31138,1.479H23.56288v-2.024H26.521a4.00749,4.00749,0,0,0-.07784-1.40119H23.56288V5.62575h3.19161V3.991H18.19162V5.62575h3.11377V6.87126H18.503V8.27245h2.80239v2.024H18.03593v1.63473h8.87425Z"/>
  </g>
</svg>
