<svg id="Layer_1" data-name="Layer 1" xmlns="http://www.w3.org/2000/svg" width="30" height="16" viewBox="0 0 30 16">
  <defs>
    <style>
      .cls-1 {
        fill: #a11724;
        fill-rule: evenodd;
      }
    </style>
  </defs>
  <g id="s">
    <path class="cls-1" d="M18.09337,1.5c-.15662.31325-.54819.39157-.70482.70482h-.07831V1.5H14.256c.23494.31325.39157.62651.62651.93976V14.5H29.52711V1.5Zm9.08434,11.35542H17.31024V3.22289h9.86747ZM3.76205,3.92771H8.93072V5.96386h2.58434v-3.994H4.62349a7.38373,7.38373,0,0,1-.78313.78313H3.76205V1.96988H.62952a8.32305,8.32305,0,0,0,.70482.86145V7.06024s7.83132,2.741,7.90964,2.741V11.759H3.60542V9.64458H.47289l.07831.07831.46988.78314v3.21084H11.67169V8.39157L3.76205,5.6506ZM26.70783,10.3494c-.23494,0-.6265.07831-.70482-.07832-.15662-.15662,0-.31325-.07831-.46988a3.30505,3.30505,0,0,1-.23494-.93975h-1.488c.07831.46988.23494,1.01807.31325,1.48795h-1.1747V8.31325h2.97591A4.03138,4.03138,0,0,0,26.238,6.90361H23.34036V5.6506h3.21085V4.006H17.93675V5.6506h3.13253v1.253H18.25V8.31325h2.81928V10.3494H17.78012V11.994h8.92771V10.3494Z"/>
  </g>
</svg>
