<svg id="ru" xmlns="http://www.w3.org/2000/svg" xmlns:xlink="http://www.w3.org/1999/xlink" width="25" height="25" viewBox="0 0 25 25">
  <defs>
    <style>
      .cls-1 {
        fill: #1f1f1f;
      }

      .cls-1, .cls-2, .cls-3 {
        fill-rule: evenodd;
      }

      .cls-2 {
        fill: url(#linear-gradient);
      }

      .cls-3 {
        fill: url(#linear-gradient-2);
      }

      .cls-4 {
        fill: #e0d66b;
      }

      .cls-5 {
        fill: #a11724;
      }

      .cls-6 {
        fill: #f2e872;
      }
    </style>
    <linearGradient id="linear-gradient" x1="12.5" y1="1076" x2="12.5" y2="1057" gradientTransform="translate(0 -1054)" gradientUnits="userSpaceOnUse">
      <stop offset="0" stop-color="#b17a33"/>
      <stop offset="0.362" stop-color="#cfc261"/>
      <stop offset="0.614" stop-color="#ffef76"/>
      <stop offset="0.954" stop-color="#fff"/>
      <stop offset="1" stop-color="#fff"/>
    </linearGradient>
    <linearGradient id="linear-gradient-2" x1="12.5" y1="1073" x2="12.5" y2="1057" gradientTransform="translate(0 -1054)" gradientUnits="userSpaceOnUse">
      <stop offset="0" stop-color="#5c1510"/>
      <stop offset="1" stop-color="#ff460a"/>
    </linearGradient>
  </defs>
  <path class="cls-1" d="M20,10v1.292c1.328-.2,2.61.4,4-.306A4.019,4.019,0,0,1,20,14v.031l-1.021,1.22A5.39994,5.39994,0,0,0,22,14.986c-.527,1.9-2.052,3.252-5.31,3.007L12.5,23,8.286,17.963c-3.237.233-4.757-1.11-5.282-3a5.369,5.369,0,0,0,3,.268l-1-1.2v-.049a4.017,4.017,0,0,1-4-3.007c1.387.7,2.669.1,4,.305V9.991C1.968,10.122.512,8.816,0,6.986c1.731.88,3.3-.272,5,.64V4H20V7.628c1.7-.915,3.266.241,5-.642C24.488,8.821,23.032,10.131,20,10Z"/>
  <path id="Ellipse_1_copy_16" data-name="Ellipse 1 copy 16" class="cls-2" d="M20,9v1.292c1.328-.2,2.61.4,4-.306A4.019,4.019,0,0,1,20,13v.031l-1.021,1.22A5.39994,5.39994,0,0,0,22,13.986c-.527,1.9-2.052,3.252-5.31,3.007L12.5,22,8.286,16.963c-3.237.233-4.757-1.11-5.282-3a5.369,5.369,0,0,0,3,.268l-1-1.2v-.049A4.017,4.017,0,0,1,1,9.975c1.387.7,2.669.1,4,.3V8.991C1.968,9.122.512,7.816,0,5.986c1.731.88,3.3-.272,5,.64V3H20V6.628c1.7-.915,3.266.241,5-.642C24.488,7.821,23.032,9.131,20,9Z"/>
  <path id="Polygon_2_copy_17" data-name="Polygon 2 copy 17" class="cls-3" d="M6,3H19V13.033L12.52,19,6,13.033Z"/>
  <g>
    <circle class="cls-4" cx="12.43478" cy="9.45109" r="5.48641"/>
    <circle class="cls-5" cx="12.43478" cy="9.45109" r="4.45652"/>
    <g>
      <path class="cls-6" d="M9.79807,12.50389a4.41485,4.41485,0,0,0,1.6241.8172,3.99685,3.99685,0,0,0,1.07281.15252A3.34107,3.34107,0,0,0,15.10822,12.238a2.27994,2.27994,0,0,0,.57667-1.78677.70011.70011,0,0,0-.04787-.14911l-.00279-.006-.00191-.0064a1.32287,1.32287,0,0,0-1.27515-.91714,1.29671,1.29671,0,0,0-1.32572,1.26238,1.25724,1.25724,0,0,0,.66385,1.09356l.11517.06333-.10056.08463a3.54008,3.54008,0,0,1-2.17084.82191A3.17506,3.17506,0,0,1,8.81324,11.2622q.04722.09637.10338.196A3.70252,3.70252,0,0,0,9.79807,12.50389Z"/>
      <path class="cls-6" d="M16.37021,10.11118a4.41518,4.41518,0,0,0-.15258-1.81166,3.59946,3.59946,0,0,0-1.36815-1.99778,3.3163,3.3163,0,0,0-1.88855-.60466,2.07006,2.07006,0,0,0-1.41848.46933.70129.70129,0,0,0-.10206.11878l-.00367.00555-.00445.005a1.32287,1.32287,0,0,0-.11505,1.5665,1.34565,1.34565,0,0,0,1.13325.64889,1.21554,1.21554,0,0,0,.636-.17885,1.25722,1.25722,0,0,0,.58507-1.13767l-.00618-.13129.12473.04147a3.54022,3.54022,0,0,1,1.83562,1.42071,3.17508,3.17508,0,0,1,.201,3.07444q.05747-.09065.11305-.19064A3.70246,3.70246,0,0,0,16.37021,10.11118Z"/>
      <path class="cls-6" d="M12.42367,5.42855a3.7033,3.7033,0,0,0-1.335.24853,4.42322,4.42322,0,0,0-1.50135.99253,3.68087,3.68087,0,0,0-1.0084,1.66958,3.34056,3.34056,0,0,0-.02573,1.63608,2.46884,2.46884,0,0,0,1.39265,1.82061.69967.69967,0,0,0,.1531.03295l.00664.00056.00648.00154a1.22519,1.22519,0,0,0,.28235.03287,1.36439,1.36439,0,0,0,1.296-1.6787,1.21628,1.21628,0,0,0-1.1849-.94166,1.29955,1.29955,0,0,0-.67312.19084L9.72,9.50244,9.69692,9.373a3.54008,3.54008,0,0,1,.37163-2.29124,3.18167,3.18167,0,0,1,2.62667-1.64333C12.60837,5.43213,12.5177,5.42855,12.42367,5.42855Z"/>
    </g>
  </g>
</svg>
