<svg id="Layer_1" data-name="Layer 1" xmlns="http://www.w3.org/2000/svg" width="36" height="35.776" viewBox="0 0 36 35.776">
  <defs>
    <style>
      .cls-1 {
        fill: #b83027;
      }

      .cls-2 {
        fill: #e0d66b;
      }

      .cls-3 {
        fill: #a11724;
      }

      .cls-4 {
        fill: #f2e872;
      }
    </style>
  </defs>
  <g id="Group_3231" data-name="Group 3231">
    <path id="Path_1567" data-name="Path 1567" class="cls-1" d="M2,0H36L0,35.776V2A2,2,0,0,1,2,0Z"/>
  </g>
  <g>
    <circle class="cls-2" cx="10.45788" cy="10.20516" r="9.11821"/>
    <circle class="cls-3" cx="10.45788" cy="10.20516" r="7.40657"/>
    <g>
      <path class="cls-4" d="M6.07577,15.27881A7.33711,7.33711,0,0,0,8.775,16.637a6.64241,6.64241,0,0,0,1.783.2535,5.55279,5.55279,0,0,0,4.34311-2.0536,3.78912,3.78912,0,0,0,.9584-2.96954,1.16255,1.16255,0,0,0-.07956-.24781l-.00464-.01-.00316-.01064a2.19857,2.19857,0,0,0-2.11925-1.52424,2.15506,2.15506,0,0,0-2.2033,2.098,2.08944,2.08944,0,0,0,1.1033,1.81745l.19139.10526-.16712.14066a5.88357,5.88357,0,0,1-3.60786,1.366A5.27685,5.27685,0,0,1,4.439,13.21516q.07848.16017.17182.32581A6.15345,6.15345,0,0,0,6.07577,15.27881Z"/>
      <path class="cls-4" d="M16.99841,11.30221a7.33752,7.33752,0,0,0-.25359-3.01091A5.98211,5.98211,0,0,0,14.471,4.97107a5.51153,5.51153,0,0,0-3.13869-1.00493,3.44036,3.44036,0,0,0-2.35746.78,1.1644,1.1644,0,0,0-.16962.1974l-.00611.00923L8.79175,4.961a2.19854,2.19854,0,0,0-.19122,2.60345A2.23642,2.23642,0,0,0,10.484,8.64292a2.02022,2.02022,0,0,0,1.057-.29724,2.08945,2.08945,0,0,0,.97236-1.89076L12.503,6.23671l.20729.06894a5.88369,5.88369,0,0,1,3.05074,2.36116,5.27686,5.27686,0,0,1,.33412,5.1096q.09549-.15066.18789-.31684A6.15389,6.15389,0,0,0,16.99841,11.30221Z"/>
      <path class="cls-4" d="M10.43941,3.51986a6.15461,6.15461,0,0,0-2.21871.413A7.35146,7.35146,0,0,0,5.72551,5.58245,6.11766,6.11766,0,0,0,4.04958,8.35724a5.55192,5.55192,0,0,0-.04275,2.7191,4.10307,4.10307,0,0,0,2.31453,3.02578,1.16306,1.16306,0,0,0,.25445.05476l.011.00093.01077.00255a2.03522,2.03522,0,0,0,.46925.05464,2.26755,2.26755,0,0,0,2.154-2.78993,2.02141,2.02141,0,0,0-1.96925-1.565,2.15984,2.15984,0,0,0-1.1187.31717l-.18679.11327-.03844-.215a5.88368,5.88368,0,0,1,.61764-3.808,5.28781,5.28781,0,0,1,4.36542-2.73115C10.74637,3.52581,10.59569,3.51986,10.43941,3.51986Z"/>
    </g>
  </g>
</svg>
